<svg width="67" height="88" viewBox="0 0 67 88" fill="none" xmlns="http://www.w3.org/2000/svg">
<path fill-rule="evenodd" clip-rule="evenodd" d="M22.93 43.1715L26.1677 42.1336L22.9416 53.5679C20.7987 62.6844 27.5245 68.0925 36.1516 68.0925C44.4496 68.0925 52.2382 65.3432 58.5243 60.6028C60.9002 58.8098 63.3518 61.1917 61.5786 63.6202C54.6519 73.1011 45.5211 81.7133 37.8578 87.4187C36.8212 88.1913 35.4557 88.1942 34.4163 87.4246C22.6446 78.7366 12.7597 67.7368 5.32932 55.1101C-3.40549 40.8391 -1.23052 22.4341 10.5877 10.6005C17.6454 3.53348 26.8985 1.85055e-10 36.1487 2.48693e-10C53.1874 3.65915e-10 67 13.8307 67 30.8917C67 45.1102 57.811 56.9701 44.8573 60.4453C40.024 61.7427 38.4168 59.2092 39.5873 55.0605L40.1987 52.8973L43.2908 41.9383L45.6405 33.6089C46.4441 30.7606 44.5399 29.2416 41.9748 30.0638L22.1933 36.4019C17.9511 37.7605 18.0356 44.7429 22.9271 43.1773L22.93 43.1715ZM37.3191 10.962C42.2368 10.962 45.6929 14.5159 45.0378 18.9036C44.3856 23.2883 39.8697 26.8451 34.952 26.8451C30.0343 26.8451 26.5782 23.2913 27.2333 18.9036C27.8855 14.5188 32.4014 10.962 37.3191 10.962V10.962Z" fill="#F1EEF5"/>
</svg>
