<svg width="139" height="32" viewBox="0 0 139 32" fill="none" xmlns="http://www.w3.org/2000/svg">
<path d="M120.766 32C119.202 32 117.939 31.7972 116.973 31.3916L117.352 27.7855C118.03 28.0384 118.786 28.1659 119.619 28.1659C120.626 28.1659 121.438 27.9381 122.052 27.4823C122.666 27.0266 123.338 26.205 124.069 25.0155L119.286 11.2743L113.103 11.2743L112.262 19.2832C112.162 20.2449 112.312 20.9159 112.712 21.2943C113.114 21.6748 113.805 21.8629 114.787 21.8629C115.493 21.8629 116.236 21.7375 117.019 21.4825L116.648 25.0134C115.466 25.4691 114.107 25.697 112.57 25.697C110.528 25.697 109.061 25.166 108.164 24.1019C107.267 23.0399 106.921 21.5452 107.123 19.6219C108.033 10.944 108.135 9.99072 108.82 3.45149L114.082 1.93376L113.515 7.32318C116.756 7.32318 119.997 7.32318 123.238 7.32318L127.21 19.5466L133.709 7.32318L139 7.32318L130.174 24.0643C128.786 26.7214 127.381 28.7074 125.957 30.0244C124.533 31.3394 122.801 31.9979 120.761 31.9979L120.766 32ZM3.43455 0L8.99022 0L8.56767 4.0243L3.012 4.0243L3.43455 0ZM2.68311 11.1217L-1.52589e-05 11.1217L0.85134 7.32528L8.18466 7.32528L6.29669 25.3186L1.1948 25.3186L2.68519 11.1217L2.68311 11.1217ZM12.2437 7.32528L16.9688 7.32528L16.9792 9.03325C17.8493 8.4249 18.8589 7.92526 20.01 7.53433C21.159 7.14131 22.3267 6.94689 23.5111 6.94689C25.855 6.94689 27.5161 7.4967 28.4965 8.59842C29.4769 9.70014 29.8432 11.4269 29.5976 13.7809L28.3861 25.3207L23.2843 25.3207L24.4666 14.0464C24.5977 12.8067 24.4354 11.9391 23.9837 11.4457C23.532 10.9524 22.6494 10.7057 21.3401 10.7057C20.5595 10.7057 19.7602 10.8771 18.9421 11.2179C18.1262 11.5586 17.4101 12.0081 16.7981 12.5663L15.4597 25.3207L10.3578 25.3207L12.2458 7.32737L12.2437 7.32528ZM38.1924 25.6991C36.1503 25.6991 34.6829 25.1681 33.7857 24.104C32.8886 23.042 32.543 21.5473 32.7449 19.624C33.6546 10.9461 33.7566 9.99281 34.4414 3.45358L39.7036 1.93585L39.1374 7.32528L43.6731 7.32528L42.957 11.2722L38.7232 11.2722L37.8822 19.2811C37.7823 20.2428 37.9322 20.9138 38.3318 21.2922C38.7336 21.6727 39.4246 21.8608 40.4071 21.8608C41.1128 21.8608 41.8559 21.7354 42.6385 21.4804L42.268 25.0113C41.0857 25.467 39.7265 25.6949 38.1903 25.6949L38.1924 25.6991ZM53.8769 25.6991C50.7025 25.6991 48.3087 24.9089 46.6997 23.3263C45.0885 21.7438 44.4474 19.3982 44.7742 16.2854C45.0823 13.3502 46.0981 11.059 47.8195 9.41373C49.541 7.76847 51.889 6.94689 54.8635 6.94689C57.5841 6.94689 59.6199 7.66185 60.9687 9.09179C62.3176 10.5217 62.8671 12.4388 62.6132 14.8429L62.2697 18.1083L49.3058 18.1083C49.4119 19.5006 49.9448 20.4748 50.9086 21.0309C51.8703 21.587 53.3461 21.865 55.3381 21.865C56.2956 21.865 57.2823 21.7772 58.296 21.5995C59.3097 21.4218 60.184 21.194 60.9188 20.9159L60.5358 24.5597C58.7935 25.3186 56.5746 25.6991 53.8769 25.6991V25.6991ZM58.142 14.9558L58.2461 13.969C58.4792 11.7426 57.274 10.6283 54.6283 10.6283C52.9652 10.6283 51.7578 10.9628 51.0085 11.6339C50.257 12.305 49.8012 13.4109 49.6388 14.9558L58.1441 14.9558L58.142 14.9558ZM66.5202 7.32528L71.2454 7.32528L71.2766 9.18586C72.1633 8.65486 73.2208 8.18658 74.4468 7.78101C75.6728 7.37545 76.8739 7.09741 78.05 6.94689L77.6441 10.8186C76.545 10.9712 75.3585 11.2304 74.0846 11.5963C72.8107 11.9642 71.8011 12.3489 71.0518 12.7544L69.7321 25.3186L64.6302 25.3186L66.5182 7.32528L66.5202 7.32528ZM86.7987 25.6991C83.5994 25.6991 81.2306 24.9026 79.6986 23.3075C78.1645 21.7124 77.5587 19.3856 77.8793 16.323C78.204 13.2352 79.3426 10.9001 81.2972 9.31966C83.2518 7.73711 85.7913 6.94689 88.9157 6.94689C90.175 6.94689 91.2491 7.03469 92.1379 7.21239C93.0268 7.39008 93.8781 7.68067 94.692 8.08623L94.3048 11.7677C93.0122 11.1092 91.4219 10.7809 89.5318 10.7809C87.5419 10.7809 86.0161 11.1991 84.9586 12.0332C83.9012 12.8673 83.2663 14.2972 83.054 16.323C82.85 18.2714 83.1623 19.6825 83.9886 20.5563C84.8171 21.4302 86.2638 21.865 88.3308 21.865C90.1958 21.865 91.884 21.5117 93.3931 20.803L92.9955 24.5995C91.2304 25.3332 89.1634 25.7012 86.7946 25.7012L86.7987 25.6991ZM99.8543 6.86972e-10L105.41 7.25194e-10L104.987 4.0243L99.4317 4.0243L99.8543 6.86972e-10ZM99.1028 11.1217L96.4197 11.1217L97.271 7.32528L104.604 7.32528L102.716 25.3186L97.6145 25.3186L99.1049 11.1217L99.1028 11.1217Z" fill="#F1EEF5"/>
</svg>
