<svg width="150" height="28" viewBox="0 0 150 28" fill="none" xmlns="http://www.w3.org/2000/svg">
<g clip-path="url(#clip0)">
<path fill-rule="evenodd" clip-rule="evenodd" d="M133.088 4.51372L147.004 11.6017C148.54 12.405 149.485 14.0353 149.485 15.9727C149.485 17.8628 148.587 19.4931 147.075 20.2964L145.232 19.3513L138.593 15.9727L129.71 11.4363C124.63 8.79015 127.938 1.89115 133.088 4.51372Z" fill="#1D91FB"/>
<path d="M147.075 20.2971L145.233 19.3513L138.594 15.9726L138.571 15.9609L138.594 15.9492L145.233 12.5706L147.063 11.6323C148.562 12.4443 149.482 14.053 149.486 15.9609C149.482 17.8688 148.574 19.4851 147.075 20.2971Z" fill="#0072EE"/>
<path fill-rule="evenodd" clip-rule="evenodd" d="M147.075 20.296L144.263 21.7136L136.018 17.2718L138.593 15.9487L147.075 20.296Z" fill="#420086"/>
<path d="M133.089 27.4082C127.939 30.0308 124.631 23.1318 129.711 20.4856L136.019 17.272L144.264 21.7138L133.089 27.4082Z" fill="#4D29EB"/>
<path d="M9.85234 5.9548C6.26108 5.9548 3.70939 6.68722 2.22091 8.17571C0.732428 9.64056 0 12.4285 0 16.5159V17.5083C0 21.572 0.732428 24.3364 2.22091 25.8249C3.68577 27.2897 6.23745 28.0458 9.87596 28.0458H10.6084C14.1996 28.0458 16.7513 27.3133 18.2162 25.8249C19.681 24.36 20.4371 21.572 20.4371 17.5083V16.5159C20.4371 12.4521 19.7047 9.66419 18.2162 8.19933C16.7513 6.71085 14.1996 5.97842 10.6084 5.97842H9.87596L9.85234 5.9548ZM14.7667 16.5159V17.5083C14.7667 19.6819 14.4595 21.1468 13.8689 21.8792C13.2782 22.6116 12.0969 22.9897 10.3485 22.9897H10.065C8.3166 22.9897 7.15889 22.6353 6.56822 21.9028C5.97756 21.1704 5.69404 19.7055 5.69404 17.5083V16.5159C5.69404 14.295 5.97756 12.8302 6.56822 12.0977C7.15889 11.3653 8.3166 10.9873 10.065 10.9873H10.3485C12.0969 10.9873 13.2782 11.3653 13.8689 12.0977C14.4595 12.8302 14.7667 14.3186 14.7667 16.5159ZM32.534 10.9873C32.0614 10.9873 31.2345 11.0582 30.0059 11.1999C29.5334 11.2472 29.2262 11.4126 29.0609 11.6488C28.8955 11.8851 28.8246 12.2868 28.8246 12.8302V26.1793C28.8246 26.6518 28.6592 27.0298 28.3284 27.337C27.9976 27.6441 27.596 27.8095 27.1471 27.8095H24.808C24.3119 27.8095 23.9102 27.6441 23.6031 27.337C23.2959 27.0298 23.1305 26.6282 23.1305 26.1793V10.7983C23.1305 9.45155 23.3668 8.48285 23.8157 7.86856C24.2646 7.25426 25.0443 6.82898 26.1784 6.56909C28.2339 6.16744 30.3603 5.9548 32.5576 5.9548C36.1252 5.9548 38.606 6.61634 39.9764 7.96307C41.3467 9.30979 42.0319 11.8851 42.0319 15.689V26.1556C42.0319 26.6282 41.8665 27.0062 41.5594 27.3133C41.2522 27.6205 40.8506 27.7859 40.4017 27.7859H38.0626C37.5665 27.7859 37.1648 27.6205 36.8577 27.3133C36.5505 27.0062 36.3851 26.6045 36.3851 26.1556V15.9253C36.3851 13.9642 36.1016 12.6412 35.5582 11.9796C35.0148 11.3181 33.9988 10.9873 32.534 10.9873ZM54.814 27.9985C51.1518 27.9985 48.5765 27.2425 47.1117 25.754C45.6232 24.2419 44.8907 21.4539 44.8907 17.3665V16.5396C44.8907 12.4758 45.6232 9.68782 47.1117 8.19933C48.5765 6.68722 51.1282 5.9548 54.7195 5.9548H55.1211C58.6887 5.9548 61.2168 6.56909 62.6817 7.77405C64.1465 8.97901 64.9026 11.2236 64.9026 14.4604V15.4764C64.9026 16.6813 64.619 17.5319 64.052 18.028C63.485 18.5242 62.6344 18.7841 61.5003 18.7841H51.27C50.7738 18.7841 50.5375 19.0204 50.5375 19.5165C50.5375 20.8869 50.8447 21.8319 51.459 22.3517C52.0733 22.8951 53.2073 23.155 54.8376 23.155H55.4519C56.7986 23.155 58.2871 22.966 59.9646 22.6116C61.6185 22.2572 62.5399 22.0682 62.658 22.0682C63.674 22.0682 64.1701 22.588 64.1701 23.6276V25.1869C64.1701 25.8249 64.0284 26.2738 63.7449 26.5337C63.4613 26.8172 63.0124 27.0298 62.4218 27.1952C60.2008 27.715 57.8854 27.9749 55.4755 27.9749H54.8612L54.814 27.9985ZM50.5611 14.3659C50.5611 14.6494 50.6084 14.8148 50.7029 14.9093C50.7974 15.0038 50.9864 15.0511 51.2463 15.0511H58.5706C59.0668 15.0511 59.303 14.8148 59.303 14.3659C59.303 12.8065 59.0431 11.767 58.4997 11.2472C57.9563 10.7274 56.8459 10.4675 55.1684 10.4675H54.5541C53.0183 10.4675 51.9788 10.751 51.4117 11.3181C50.8447 11.8851 50.5611 12.901 50.5611 14.3659ZM73.3846 26.1556C73.3846 26.6282 73.2192 27.0062 72.912 27.3133C72.6049 27.6205 72.2032 27.7859 71.7071 27.7859H69.368C68.8955 27.7859 68.5174 27.6205 68.2103 27.3133C67.9032 27.0062 67.7378 26.6045 67.7378 26.1556V1.67836C67.7378 1.1822 67.9032 0.780548 68.2103 0.473401C68.5174 0.166254 68.9191 0.000866689 69.368 0.000866689H71.7071C72.2032 0.000866689 72.6049 0.166254 72.912 0.473401C73.2192 0.780548 73.3846 1.1822 73.3846 1.67836V26.1556ZM78.8896 11.9087C78.417 11.9087 78.039 11.767 77.7555 11.4834C77.4483 11.1999 77.3066 10.7983 77.3066 10.2785V8.93176C77.3066 7.82131 77.8736 7.1125 79.0313 6.80536C81.016 6.23832 83.4732 5.9548 86.3556 5.9548C89.8524 5.9548 92.2387 6.6636 93.5618 8.10483C94.8612 9.54606 95.5228 12.2631 95.5228 16.3033V21.5484C95.5228 23.8875 94.814 25.565 93.42 26.5337C92.026 27.526 89.5688 27.9985 86.0721 27.9985H84.9616C82.0792 27.9985 79.9055 27.4551 78.4643 26.3446C77.0231 25.2342 76.2906 23.4622 76.2906 21.0523V20.6034C76.2906 18.477 76.9286 16.9648 78.2044 16.0434C79.4802 15.122 81.4649 14.673 84.1347 14.673H85.0325C86.332 14.673 87.7023 14.7912 89.0727 15.0511C89.5925 15.122 89.8524 14.8857 89.8524 14.3186C89.8524 13.0192 89.5688 12.0977 89.0018 11.6016C88.4348 11.1054 87.3952 10.8455 85.8831 10.8455C84.5836 10.8455 83.1424 11.0345 81.583 11.3889C80.0237 11.767 79.1258 11.9324 78.8896 11.9324V11.9087ZM89.8524 19.9182C89.8524 19.4456 89.7815 19.1385 89.6161 18.9495C89.4743 18.7605 89.1672 18.6423 88.6947 18.5715C87.9622 18.4061 86.9699 18.3352 85.7413 18.3352H85.3397C84.0402 18.3352 83.1188 18.5242 82.6226 18.8786C82.1264 19.233 81.8665 19.8709 81.8665 20.7687V21.0523C81.8665 21.9973 82.1264 22.6825 82.6462 23.0605C83.166 23.4386 84.0874 23.6276 85.3869 23.6276H85.7649C86.8754 23.6276 87.7732 23.5567 88.4348 23.4149C89.0018 23.2732 89.3798 23.0842 89.5688 22.8479C89.7579 22.6116 89.8524 22.1863 89.8524 21.572V19.9418V19.9182ZM108.21 27.9749C104.643 27.9749 102.162 27.5496 100.792 26.699C99.4212 25.8485 98.736 24.4073 98.736 22.3517V1.63111C98.736 1.13495 98.9014 0.733294 99.2085 0.426147C99.5157 0.119 99.9173 -0.0463867 100.366 -0.0463867H102.705C103.201 -0.0463867 103.603 0.119 103.91 0.426147C104.217 0.733294 104.383 1.13495 104.383 1.63111V5.52952C104.383 6.0493 104.666 6.26194 105.21 6.19106C106.462 6.00205 107.643 5.90754 108.73 5.90754H109.392C112.983 5.90754 115.535 6.63997 116.999 8.12845C118.464 9.61694 119.22 12.4049 119.22 16.4923V17.3901C119.22 21.4539 118.488 24.2419 116.999 25.7067C115.535 27.1952 112.983 27.9276 109.392 27.9276H108.234L108.21 27.9749ZM105.8 22.6589C106.486 22.8479 107.407 22.9424 108.588 22.9424H109.085C110.857 22.9424 112.038 22.5644 112.629 21.8083C113.219 21.0523 113.503 19.5638 113.503 17.3192V16.4687C113.503 14.295 113.219 12.8302 112.652 12.0741C112.085 11.3181 110.904 10.94 109.085 10.94H108.588C107.525 10.94 106.486 11.0818 105.47 11.3417C104.737 11.5307 104.359 12.0741 104.359 12.9483V20.3435C104.359 21.0523 104.454 21.572 104.666 21.9264C104.879 22.2572 105.257 22.5171 105.8 22.6353V22.6589Z" fill="#241F31"/>
</g>
<defs>
<clipPath id="clip0">
<rect width="149.486" height="28" fill="white"/>
</clipPath>
</defs>
</svg>
