<svg width="404" height="404" viewBox="0 0 404 404" fill="none" xmlns="http://www.w3.org/2000/svg">
<path d="M94.0315 110.46C124.927 110.748 135.466 118.689 135.466 137.601C135.466 156.802 120.018 168.063 93.8872 168.063C74.5414 168.063 60.2487 162.866 52.453 152.904C51.5868 151.749 50.8652 150.017 50.8652 148.14C50.8652 144.531 53.4635 141.499 57.3614 141.499C59.8158 141.499 61.2593 142.51 62.2702 143.664C69.2001 151.316 80.6051 155.503 94.7534 155.503C111.356 155.503 121.751 148.718 121.751 137.89C121.751 128.65 115.109 124.319 92.5876 124.03C62.7031 123.597 52.3087 116.09 52.3087 98.3324C52.3087 79.8532 68.3335 67.8706 93.3096 67.8706C109.046 67.8706 121.606 72.2014 129.402 80.4304C130.557 81.73 131.279 83.3181 131.279 85.4835C131.279 89.2371 128.536 92.2691 124.638 92.2691C122.472 92.2691 120.596 91.2582 119.296 89.959C112.8 83.6068 103.849 80.4304 92.4437 80.4304C76.5629 80.4304 66.1681 87.3603 66.1681 98.0438C66.1681 106.706 72.665 110.315 94.0315 110.46Z" fill="white"/>
<path d="M163.467 76.1216V159.856C163.467 164.476 161.013 167.219 156.682 167.219C152.351 167.219 149.752 164.476 149.752 159.856V76.1216C149.752 71.5018 152.351 68.7588 156.682 68.7588C161.013 68.7588 163.467 71.5018 163.467 76.1216Z" fill="white"/>
<path d="M253.842 153.793C258.028 153.793 260.627 156.247 260.627 160.145C260.627 164.043 258.028 166.353 253.842 166.353H189.741C185.121 166.353 182.233 163.61 182.233 158.99V76.1216C182.233 71.5018 184.832 68.7588 189.163 68.7588C193.494 68.7588 195.949 71.5018 195.949 76.1216V153.793H253.842Z" fill="white"/>
<path d="M350.719 154.948C352.162 156.68 352.884 158.413 352.884 160.29C352.884 164.621 350.141 167.219 345.954 167.219C343.789 167.219 342.056 166.209 340.469 164.476L301.056 119.722L284.164 133.292V159.856C284.164 164.476 281.71 167.219 277.379 167.219C273.048 167.219 270.449 164.476 270.449 159.856V76.1216C270.449 71.5018 273.048 68.7588 277.379 68.7588C281.71 68.7588 284.164 71.5018 284.164 76.1216V116.69L339.891 70.9246C341.479 69.625 342.923 68.7588 344.944 68.7588C348.986 68.7588 351.729 71.3575 351.729 75.3997C351.729 77.5654 350.719 79.7308 348.842 81.1747L311.45 111.348L350.719 154.948Z" fill="white"/>
<path d="M81.5667 223.614C89.3786 223.614 93.6479 219.89 93.6479 212.804C93.6479 205.629 89.3786 201.904 81.5667 201.904H59.4945V223.614H81.5667ZM101.823 247.775C102.64 248.865 103.003 249.955 103.003 251.045C103.003 253.68 101.278 255.405 98.7345 255.405C97.0088 255.405 95.9186 254.77 94.8284 253.316L77.7521 231.516H59.4945V250.772C59.4945 253.68 57.9505 255.405 55.2252 255.405C52.4999 255.405 50.8652 253.68 50.8652 250.772V198.634C50.8652 195.728 52.6821 194.002 55.5887 194.002H82.3845C95.4644 194.002 102.459 200.36 102.459 212.259C102.459 222.523 97.4626 228.882 87.8342 230.517V230.699L101.823 247.775Z" fill="white"/>
<path d="M140.97 248.052C154.414 248.052 163.678 238.425 163.678 224.436C163.678 210.448 154.414 200.82 140.97 200.82C127.436 200.82 118.171 210.448 118.171 224.436C118.171 238.425 127.436 248.052 140.97 248.052ZM140.97 192.917C159.682 192.917 172.489 205.724 172.489 224.436C172.489 243.148 159.682 255.955 140.97 255.955C122.258 255.955 109.36 243.148 109.36 224.436C109.36 205.724 122.258 192.917 140.97 192.917Z" fill="white"/>
<path d="M233.615 198.001V228.612C233.615 246.597 224.441 255.953 207.546 255.953C190.378 255.953 181.113 246.597 181.113 228.612V198.092C181.113 195.186 182.657 193.459 185.383 193.459C188.108 193.459 189.743 195.186 189.743 198.092V228.521C189.743 241.329 195.919 248.05 207.546 248.05C218.991 248.05 225.168 241.329 225.168 228.521V198.001C225.168 195.186 226.712 193.459 229.346 193.459C232.071 193.459 233.615 195.186 233.615 198.001Z" fill="white"/>
<path d="M291.757 194.002C294.391 194.002 296.025 195.455 296.025 197.908C296.025 200.36 294.391 201.904 291.757 201.904H271.773V250.772C271.773 253.68 270.229 255.405 267.504 255.405C264.779 255.405 263.144 253.68 263.144 250.772V201.904H243.16C240.526 201.904 238.892 200.36 238.892 197.908C238.892 195.455 240.526 194.002 243.16 194.002H291.757Z" fill="white"/>
<path d="M348.607 246.957C351.241 246.957 352.876 248.502 352.876 250.955C352.876 253.407 351.241 254.86 348.607 254.86H306.914C304.008 254.86 302.19 253.135 302.19 250.228V198.634C302.19 195.728 304.008 194.002 306.914 194.002H348.607C351.241 194.002 352.876 195.455 352.876 197.908C352.876 200.36 351.241 201.904 348.607 201.904H310.82V220.253H341.794C344.519 220.253 346.154 221.706 346.154 224.159C346.154 226.702 344.519 228.155 341.794 228.155H310.82V246.957H348.607Z" fill="white"/>
<path d="M110.811 283.573V349.856C110.811 351.311 109.98 352.246 108.526 352.246C107.694 352.246 107.071 351.934 106.344 351.103L55.0206 288.144H54.8128V350.064C54.8128 351.414 54.0857 352.246 52.8394 352.246C51.5923 352.246 50.8652 351.414 50.8652 350.064V283.884C50.8652 282.326 51.5923 281.391 53.0472 281.391C53.8779 281.391 54.6054 281.703 55.3324 282.533L106.655 345.493H106.863V283.573C106.863 282.222 107.591 281.391 108.837 281.391C110.084 281.391 110.811 282.222 110.811 283.573Z" fill="white"/>
<path d="M180.204 348.004C181.45 348.004 182.177 348.627 182.177 349.874C182.177 351.017 181.45 351.64 180.204 351.64H128.362C127.011 351.64 126.18 350.809 126.18 349.458V284.214C126.18 282.863 127.011 282.032 128.362 282.032H180.204C181.45 282.032 182.177 282.656 182.177 283.798C182.177 285.045 181.45 285.668 180.204 285.668H130.128V314.654H172.516C173.762 314.654 174.49 315.381 174.49 316.42C174.49 317.563 173.762 318.291 172.516 318.291H130.128V348.004H180.204Z" fill="white"/>
<path d="M287.632 283.365C287.632 283.781 287.529 284.196 287.321 284.716L263.841 350.583C263.53 351.622 262.802 352.246 261.66 352.246C260.517 352.246 259.997 351.622 259.582 350.583L237.868 290.014H237.66L216.051 350.583C215.635 351.622 215.012 352.246 213.869 352.246C212.726 352.246 212.103 351.622 211.688 350.583L188.311 284.923C188.104 284.196 188 283.781 188 283.365C188 282.118 188.935 281.391 190.182 281.391C191.428 281.391 191.844 282.222 192.052 282.846L213.765 344.35H213.973L235.894 282.846C236.206 281.91 236.726 281.391 237.764 281.391C238.803 281.391 239.426 281.91 239.738 282.846L261.66 344.558H261.867L283.581 282.949C283.893 282.014 284.412 281.391 285.451 281.391C286.802 281.391 287.632 282.222 287.632 283.365Z" fill="white"/>
<path d="M322.852 314.045C345.085 314.149 352.877 319.448 352.877 332.123C352.877 344.902 341.761 352.901 323.787 352.901C308.307 352.901 297.918 348.537 293.451 341.057C293.139 340.538 293.035 340.226 293.035 339.707C293.035 338.667 293.97 337.837 295.009 337.837C295.84 337.837 296.36 338.148 296.775 338.772C300.931 345.629 310.281 349.264 323.891 349.264C339.267 349.264 348.929 342.616 348.929 332.018C348.929 322.252 342.488 318.305 322.748 318.097C301.346 317.889 294.074 313.214 294.074 301.578C294.074 288.903 305.086 280.799 322.54 280.799C334.8 280.799 344.773 284.644 349.448 291.085C349.76 291.501 349.864 291.916 349.864 292.435C349.864 293.578 348.929 294.305 347.89 294.305C347.267 294.305 346.747 294.098 346.332 293.578C342.176 287.864 333.345 284.436 322.436 284.436C307.268 284.436 298.022 290.981 298.022 301.682C298.022 310.409 304.047 313.941 322.852 314.045Z" fill="white"/>
</svg>
