<svg width="36" height="36" viewBox="0 0 36 36" fill="none" xmlns="http://www.w3.org/2000/svg">
<circle cx="18" cy="18" r="18" fill="#464646"/>
<path d="M18 9.14594C20.8837 9.14594 21.2253 9.15695 22.3641 9.20891C23.4171 9.25693 23.9889 9.43287 24.3695 9.58077C24.8736 9.77669 25.2334 10.0107 25.6113 10.3886C25.9892 10.7666 26.2232 11.1263 26.4192 11.6305C26.5671 12.011 26.743 12.5829 26.791 13.6359C26.843 14.7747 26.854 15.1163 26.854 17.9999C26.854 20.8837 26.843 21.2253 26.791 22.3641C26.743 23.4171 26.5671 23.9889 26.4192 24.3695C26.2232 24.8736 25.9892 25.2334 25.6113 25.6113C25.2334 25.9892 24.8736 26.2232 24.3695 26.4192C23.9889 26.5671 23.4171 26.743 22.3641 26.791C21.2254 26.843 20.8839 26.854 18 26.854C15.116 26.854 14.7745 26.843 13.6358 26.791C12.5828 26.743 12.011 26.5671 11.6304 26.4192C11.1263 26.2232 10.7665 25.9892 10.3886 25.6113C10.0107 25.2334 9.77665 24.8736 9.58073 24.3695C9.43283 23.9889 9.25689 23.4171 9.20887 22.3641C9.15691 21.2253 9.14589 20.8837 9.14589 17.9999C9.14589 15.1163 9.15691 14.7747 9.20887 13.6359C9.25689 12.5829 9.43283 12.011 9.58073 11.6305C9.77665 11.1263 10.0107 10.7666 10.3886 10.3887C10.7665 10.0107 11.1263 9.77669 11.6304 9.58077C12.011 9.43287 12.5828 9.25693 13.6358 9.20891C14.7746 9.15695 15.1162 9.14594 18 9.14594ZM18 7.2C15.0668 7.2 14.6991 7.21243 13.5471 7.26499C12.3976 7.31742 11.6125 7.50001 10.9255 7.76696C10.2153 8.04296 9.61305 8.41225 9.01261 9.01265C8.4122 9.6131 8.04292 10.2154 7.76696 10.9256C7.49996 11.6125 7.31737 12.3976 7.26494 13.5472C7.21238 14.6991 7.19995 15.0669 7.19995 17.9999C7.19995 20.9331 7.21238 21.3008 7.26494 22.4528C7.31737 23.6023 7.49996 24.3874 7.76696 25.0744C8.04292 25.7845 8.4122 26.3868 9.01261 26.9873C9.61305 27.5877 10.2153 27.957 10.9255 28.2329C11.6125 28.4999 12.3976 28.6825 13.5471 28.7349C14.6991 28.7875 15.0668 28.7999 18 28.7999C20.9331 28.7999 21.3008 28.7875 22.4528 28.7349C23.6023 28.6825 24.3874 28.4999 25.0744 28.2329C25.7846 27.957 26.3868 27.5877 26.9873 26.9873C27.5877 26.3868 27.957 25.7845 28.233 25.0744C28.4999 24.3874 28.6825 23.6023 28.735 22.4528C28.7875 21.3008 28.7999 20.9331 28.7999 17.9999C28.7999 15.0669 28.7875 14.6991 28.735 13.5472C28.6825 12.3976 28.4999 11.6125 28.233 10.9256C27.957 10.2154 27.5877 9.6131 26.9873 9.01265C26.3868 8.41225 25.7846 8.04296 25.0744 7.76696C24.3874 7.50001 23.6023 7.31742 22.4528 7.26499C21.3008 7.21243 20.9331 7.2 18 7.2Z" fill="white"/>
<path d="M18.0049 12.4591C14.942 12.4591 12.459 14.942 12.459 18.005C12.459 21.0679 14.942 23.5509 18.0049 23.5509C21.0679 23.5509 23.5509 21.0679 23.5509 18.005C23.5509 14.942 21.0679 12.4591 18.0049 12.4591ZM18.0049 21.605C16.0167 21.605 14.4049 19.9932 14.4049 18.005C14.4049 16.0168 16.0167 14.405 18.0049 14.405C19.9932 14.405 21.6049 16.0168 21.6049 18.005C21.6049 19.9932 19.9932 21.605 18.0049 21.605Z" fill="white"/>
<path d="M25.0656 12.2366C25.0656 12.9523 24.4854 13.5325 23.7696 13.5325C23.0539 13.5325 22.4736 12.9523 22.4736 12.2366C22.4736 11.5208 23.0539 10.9405 23.7696 10.9405C24.4854 10.9405 25.0656 11.5208 25.0656 12.2366Z" fill="white"/>
</svg>
