<svg width="92" height="92" viewBox="0 0 92 92" fill="none" xmlns="http://www.w3.org/2000/svg">
<path d="M46.0004 1.4049L49.9187 6.22776L54.6992 2.26324L57.6014 7.75583L63.0671 4.79976L64.8415 10.7542L70.7767 8.9221L71.3541 15.1075L77.5318 14.4686L76.8967 20.6463L83.0821 21.2237L81.2461 27.1589L87.2006 28.9333L84.2445 34.399L89.7371 37.3011L85.7765 42.0817L90.5955 46L85.7765 49.9183L89.7371 54.6989L84.2445 57.601L87.2006 63.0667L81.2461 64.8411L83.0821 70.7763L76.8967 71.3537L77.5318 77.5353L71.3541 76.8925L70.7767 83.0779L64.8415 81.2458L63.0671 87.2002L57.6014 84.2442L54.6992 89.7368L49.9187 85.7722L46.0004 90.5951L42.082 85.7722L37.3015 89.7368L34.3993 84.2442L28.9337 87.2002L27.1593 81.2458L21.224 83.0779L20.6467 76.8925L14.469 77.5353L15.1079 71.3537L8.92247 70.7763L10.7546 64.8411L4.80014 63.0667L7.75621 57.601L2.26361 54.6989L6.22813 49.9183L1.40527 46L6.22813 42.0817L2.26361 37.3011L7.75621 34.399L4.80014 28.9333L10.7546 27.1589L8.92247 21.2237L15.1079 20.6463L14.469 14.4686L20.6467 15.1075L21.224 8.9221L27.1593 10.7542L28.9337 4.79976L34.3993 7.75583L37.3015 2.26324L42.082 6.22776L46.0004 1.4049Z" fill="#FEFEFE"/>
<path d="M46.0004 1.4049L49.9187 6.22776L54.6992 2.26324L57.6014 7.75583L63.0671 4.79976L64.8415 10.7542L70.7767 8.9221L71.3541 15.1075L77.5318 14.4686L76.8967 20.6463L83.0821 21.2237L81.2461 27.1589L87.2006 28.9333L84.2445 34.399L89.7371 37.3011L85.7765 42.0817L90.5955 46L85.7765 49.9183L89.7371 54.6989L84.2445 57.601L87.2006 63.0667L81.2461 64.8411L83.0821 70.7763L76.8967 71.3537L77.5318 77.5353L71.3541 76.8925L70.7767 83.0779L64.8415 81.2458L63.0671 87.2002L57.6014 84.2442L54.6992 89.7368L49.9187 85.7722L46.0004 90.5951L42.082 85.7722L37.3015 89.7368L34.3993 84.2442L28.9337 87.2002L27.1593 81.2458L21.224 83.0779L20.6467 76.8925L14.4689 77.5353L15.1079 71.3537L8.92247 70.7763L10.7546 64.8411L4.80014 63.0667L7.75621 57.601L2.26361 54.6989L6.22813 49.9183L1.40527 46L6.22813 42.0817L2.26361 37.3011L7.75621 34.399L4.80014 28.9333L10.7546 27.1589L8.92247 21.2237L15.1079 20.6463L14.4689 14.4686L20.6467 15.1075L21.224 8.9221L27.1593 10.7542L28.9337 4.79976L34.3993 7.75583L37.3015 2.26324L42.082 6.22776L46.0004 1.4049Z" stroke="#E31E24" stroke-width="0.624364" stroke-miterlimit="22.926"/>
<path fill-rule="evenodd" clip-rule="evenodd" d="M46.0005 47.9938C45.8927 47.9977 45.7849 48.0169 45.6887 48.0477L45.3077 48.4826V52.3625C45.2615 52.7089 44.8612 52.451 44.6995 52.4164C44.3877 52.3509 44.3108 51.9044 43.9951 51.8659C43.1676 51.762 41.9667 51.7158 41.32 52.3625C41.1199 52.5626 40.9698 52.9013 41.1045 53.1785C41.2315 53.4441 41.7973 53.013 42.0706 53.0168L44.0105 53.0284C44.4724 53.0284 45.2268 53.4248 45.3077 54.0022C45.2653 54.1446 45.3962 54.3601 45.1999 54.4371C39.6957 51.8429 39.3262 59.9028 43.7488 58.5325C44.3993 58.3093 44.4147 57.5702 44.3762 57.0044C43.9836 55.2069 42.2092 55.5418 43.2022 57.1892C43.4139 57.6511 42.4132 57.7858 42.2246 57.5164C40.8197 55.5148 43.9605 53.1785 45.2499 56.4001L45.3038 59.5102C44.8881 61.1114 41.6973 61.3616 40.6118 60.28C40.3809 60.38 40.3385 60.7226 40.4425 60.9305C41.22 63.3669 45.1075 61.681 45.2499 62.1853C45.1768 62.6394 45.427 63.1706 45.0267 63.4439H39.357C39.357 60.7419 39.461 58.0283 39.357 55.3455C39.3763 53.1862 44.8034 46.1848 45.196 44.1217C44.9843 41.0655 42.4016 40.0571 40.6118 41.8854C39.5302 43.0593 40.4771 44.9685 42.0783 44.6682C42.7981 44.5412 42.4979 43.3211 42.0244 43.1402C41.8743 43.0478 41.5933 43.0324 41.705 42.659C41.8589 42.2587 42.4093 41.9623 42.9328 42.1856C43.4293 42.4473 44.1645 42.7014 44.0683 43.4827C44.0683 49.2986 34.6343 44.4719 40.6003 39.7068C41.932 38.6406 44.0336 39.9454 44.9766 40.2457C45.7272 39.4412 43.8758 38.2596 43.437 38.1787C42.5556 38.0209 41.8936 37.9324 41.1622 38.275C41.0044 38.606 39.4571 39.1525 39.307 38.6175C39.1723 38.094 39.4802 37.4628 39.8805 37.0433C40.2808 36.6237 42.3631 36.439 42.852 36.4236C43.1099 36.2003 43.1176 36.0425 42.9597 35.827C42.0437 34.6068 40.481 32.5861 39.5649 31.3428C38.8759 29.6608 40.2231 29.0141 41.27 30.3652C41.4317 30.623 44.661 35.1226 44.9228 35.2765L45.069 35.1149L44.9843 29.399C44.9959 28.9987 45.3192 28.5946 46.0043 28.5676C46.6933 28.5946 47.0128 28.9949 47.0243 29.399L46.9397 35.1149L47.0859 35.2765C47.3477 35.1226 50.5809 30.623 50.7387 30.3652C51.7856 29.0141 53.1328 29.6608 52.4438 31.3428C51.5277 32.5861 49.965 34.6068 49.0489 35.827C48.895 36.0425 48.8988 36.2003 49.1567 36.4236C49.6455 36.439 51.7279 36.6237 52.1282 37.0433C52.5285 37.4667 52.8364 38.094 52.7017 38.6175C52.5516 39.1525 51.0081 38.6098 50.8464 38.275C50.1113 37.9324 49.4492 38.0209 48.5717 38.1787C48.129 38.2557 46.2776 39.4412 47.0282 40.2457C47.9674 39.9454 50.0689 38.6406 51.4046 39.7068C57.3667 44.4719 47.9366 49.2986 47.9366 43.4827C47.8403 42.7014 48.5755 42.4473 49.072 42.1856C49.5955 41.9623 50.1421 42.2587 50.2999 42.659C50.4077 43.0324 50.1305 43.0478 49.9804 43.1402C49.507 43.3211 49.2068 44.5412 49.9265 44.6682C51.5277 44.9685 52.4746 43.0593 51.393 41.8854C49.6032 40.0532 47.0205 41.0617 46.8088 44.1217C47.2014 46.1848 52.6324 53.1823 52.6478 55.3455C52.5439 58.0321 52.6478 60.7419 52.6478 63.4439H46.9782C46.5779 63.1706 46.828 62.6433 46.7549 62.1853C46.9012 61.681 50.7887 63.3669 51.5624 60.9305C51.6624 60.7188 51.624 60.38 51.393 60.28C50.3076 61.3654 47.1167 61.1114 46.701 59.5102L46.7549 56.4001C48.0482 53.1823 51.1852 55.5148 49.7803 57.5164C49.5917 57.7858 48.5948 57.6511 48.8026 57.1892C49.7957 55.5418 48.0251 55.2069 47.6286 57.0044C47.5902 57.5702 47.6055 58.3093 48.256 58.5325C52.6824 59.9066 52.3129 51.8429 46.8049 54.4371C46.6086 54.364 46.7357 54.1446 46.6972 54.0022C46.778 53.4248 47.5324 53.0284 47.9943 53.0284L49.9342 53.0168C50.2075 53.0168 50.7733 53.4441 50.9003 53.1785C51.0351 52.9052 50.8849 52.5626 50.6848 52.3625C50.0381 51.7197 48.8372 51.762 48.0097 51.8659C47.6941 51.9044 47.6209 52.3509 47.3053 52.4164C47.1437 52.451 46.7472 52.7089 46.6972 52.3625V48.4826L46.3161 48.0477C46.2199 48.0169 46.1121 47.9977 46.0043 47.9938H46.0005Z" fill="#E31E24"/>
<path fill-rule="evenodd" clip-rule="evenodd" d="M46.0003 23.4792C58.4365 23.4792 68.521 33.5637 68.521 46C68.521 58.4363 58.4365 68.5208 46.0003 68.5208C33.564 68.5208 23.4795 58.4363 23.4795 46C23.4795 33.5637 33.564 23.4792 46.0003 23.4792V23.4792ZM46.0003 10.8274C65.4226 10.8274 81.1729 26.5777 81.1729 46C81.1729 65.4223 65.4226 81.1726 46.0003 81.1726C26.578 81.1726 10.8276 65.4223 10.8276 46C10.8276 26.5777 26.578 10.8274 46.0003 10.8274V10.8274Z" stroke="#E31E24" stroke-width="0.882254" stroke-miterlimit="22.926"/>
<path d="M16.2665 50.7844L16.2126 50.4495L18.6683 50.9614L18.7222 51.2963L16.5437 52.5395L16.4898 52.2047L17.0556 51.889L16.9016 50.9075L16.2665 50.7844ZM17.3058 51.762L18.3797 51.1731L17.1749 50.946L17.3058 51.762ZM17.9332 54.5795C17.9101 54.5872 17.887 54.5911 17.8639 54.5949C17.8254 54.5949 17.7946 54.5949 17.7715 54.5988C17.7138 54.6026 17.6483 54.5988 17.5791 54.5834C17.4443 54.5641 17.3058 54.4987 17.1672 54.3909C17.0286 54.2832 16.9209 54.1022 16.8477 53.8482C16.8439 53.8328 16.8362 53.8097 16.8285 53.7751C16.8208 53.7404 16.8131 53.6942 16.8016 53.6442C16.79 53.5903 16.7862 53.5364 16.7862 53.4749C16.7862 53.4171 16.7939 53.3555 16.8054 53.2901C16.8323 53.1323 16.9055 52.9783 17.0325 52.8167C17.1595 52.6589 17.3751 52.5357 17.683 52.4472L17.9216 52.3933C17.9794 52.3779 18.0371 52.3663 18.0987 52.3663C18.1564 52.3625 18.2296 52.3663 18.3142 52.374C18.4874 52.3894 18.6606 52.451 18.8339 52.5626C19.0071 52.6704 19.1341 52.8706 19.2188 53.1592C19.2957 53.4364 19.3073 53.6558 19.238 53.8174C19.1726 53.9791 19.0802 54.1022 18.9647 54.1869C18.9262 54.2177 18.8839 54.2408 18.8415 54.2639L18.7261 54.3178L18.6375 54.006C18.6645 53.9983 18.6876 53.9868 18.7107 53.9714C18.7338 53.9598 18.7569 53.9444 18.7838 53.929C18.8608 53.8752 18.9224 53.7905 18.9686 53.675C19.0148 53.5634 19.0148 53.4133 18.9609 53.2324C18.8877 52.9745 18.7415 52.809 18.5259 52.7474C18.3104 52.6819 18.064 52.6896 17.7869 52.7705C17.556 52.8359 17.3635 52.9591 17.2134 53.14C17.0633 53.317 17.0248 53.5364 17.0979 53.7943C17.1557 53.9906 17.2519 54.1292 17.3943 54.2023C17.5367 54.2755 17.683 54.2986 17.8369 54.2716L17.9255 54.5834L17.9332 54.5795ZM18.6568 56.8081C18.6337 56.8158 18.6106 56.8197 18.5875 56.8235C18.549 56.8235 18.5182 56.8274 18.4951 56.8312C18.4374 56.8351 18.372 56.8351 18.3027 56.8235C18.168 56.8081 18.0255 56.7504 17.8831 56.6465C17.7369 56.5425 17.6252 56.3693 17.5444 56.1153C17.5406 56.0999 17.5329 56.0768 17.5252 56.0422C17.5136 56.0075 17.5059 55.9652 17.4944 55.9113C17.4828 55.8574 17.4751 55.8035 17.4751 55.7458C17.4751 55.6881 17.479 55.6265 17.4867 55.561C17.5059 55.4032 17.5752 55.2454 17.6984 55.0799C17.8177 54.9183 18.0332 54.7835 18.3373 54.6873L18.5721 54.6257C18.6299 54.6065 18.6876 54.5949 18.7453 54.5911C18.8031 54.5872 18.8762 54.5872 18.9609 54.5911C19.1341 54.6026 19.3111 54.6565 19.4882 54.7604C19.6652 54.8644 19.8 55.0568 19.8962 55.3455C19.9847 55.6188 20.0001 55.8382 19.9385 56.0037C19.8769 56.1692 19.7923 56.2924 19.6806 56.3847C19.6422 56.4155 19.5998 56.4425 19.5613 56.4656L19.4458 56.5233L19.3458 56.2154C19.3727 56.2077 19.3958 56.1961 19.4189 56.1807C19.442 56.1692 19.4651 56.1538 19.4882 56.1345C19.5613 56.0768 19.6229 55.9921 19.6652 55.8767C19.7076 55.7612 19.6999 55.6149 19.6422 55.434C19.5575 55.1761 19.4074 55.0222 19.188 54.9606C18.9686 54.9028 18.7222 54.9182 18.4489 55.0068C18.218 55.0838 18.0332 55.2108 17.887 55.3955C17.7446 55.5803 17.7138 55.7997 17.7946 56.0537C17.86 56.25 17.964 56.3809 18.1064 56.4502C18.2526 56.5195 18.3989 56.5348 18.549 56.5041L18.6491 56.812L18.6568 56.8081ZM18.422 57.4586C18.549 57.193 18.7838 56.9813 19.1341 56.8274C19.4805 56.6734 19.7923 56.6388 20.0809 56.7273C20.3658 56.812 20.5813 57.0198 20.7276 57.3431C20.8738 57.6703 20.8815 57.9705 20.7545 58.2361C20.6275 58.5056 20.3927 58.7173 20.0463 58.8712C19.6999 59.0252 19.3843 59.0598 19.1033 58.9751C18.8223 58.8905 18.6068 58.6826 18.4605 58.3516C18.3142 58.0206 18.3027 57.7242 18.4259 57.4548L18.422 57.4586ZM19.1841 58.6749C19.4035 58.7173 19.646 58.6788 19.9077 58.5633C20.1887 58.4401 20.3696 58.2977 20.4543 58.1438C20.5351 57.9898 20.5698 57.8397 20.5544 57.6934C20.5505 57.6703 20.5467 57.6472 20.539 57.6241C20.5313 57.601 20.5274 57.5818 20.5236 57.5664L20.4812 57.4509C20.4735 57.4355 20.462 57.4124 20.4505 57.3893C20.4389 57.3662 20.4235 57.3393 20.4043 57.3124C20.385 57.2854 20.3658 57.2585 20.3427 57.2315C20.3196 57.2046 20.2926 57.1815 20.2618 57.1545C20.1695 57.0737 20.0463 57.0237 19.8885 56.9967C19.7307 56.9698 19.5228 57.016 19.2688 57.1276L19.1918 57.1622C19.161 57.1738 19.1379 57.1892 19.1187 57.2007C18.9378 57.3008 18.7954 57.4355 18.6876 57.6087C18.5798 57.7781 18.5837 57.9898 18.6953 58.24C18.8031 58.4825 18.9647 58.6249 19.1841 58.6711V58.6749ZM20.1541 60.9074L21.9747 59.8989L22.1286 60.176L20.308 61.1845L20.4658 61.4732L19.7576 61.835L19.6229 61.5963L20.0886 61.3385L19.1918 59.7219L21.2434 58.5864L21.3973 58.8635L19.5767 59.872L20.1541 60.9112V60.9074ZM23.2372 61.9466L23.4065 62.216L21.4166 63.4593L21.2472 63.1899L22.86 62.1814L20.5852 62.1275L20.4158 61.8619L22.4058 60.6187L22.5751 60.8881L20.9739 61.8889L23.2372 61.9466ZM21.8708 64.0097L21.6629 63.7403L24.057 62.9974L24.2649 63.263L22.9639 65.4069L22.756 65.1413L23.0986 64.5909L22.4866 63.8096L21.8708 64.0097ZM23.2564 64.3638L23.9107 63.3284L22.7483 63.7133L23.2564 64.3638ZM24.4111 66.6001L25.9584 65.2068L26.1701 65.4416L24.6228 66.8349L24.8422 67.0774L24.2341 67.5932L24.0493 67.3892L24.4458 67.0351L23.2064 65.6609L24.95 64.0905L25.1617 64.3253L23.6144 65.7187L24.4111 66.604V66.6001ZM27.6636 66.8772L27.8907 67.0966L26.2625 68.7825L26.0354 68.5631L27.3556 67.1967L25.1386 67.6971L24.9115 67.4777L26.5396 65.7918L26.7667 66.0112L25.4542 67.3699L27.6636 66.8772ZM28.0754 69.0096L27.0362 69.356L26.7398 69.1058L27.8483 68.7748C27.8252 68.7556 27.7983 68.7248 27.7636 68.6825C27.7329 68.6401 27.7021 68.5862 27.679 68.5323C27.6405 68.4477 27.6212 68.3476 27.6251 68.2283C27.6289 68.1089 27.6867 67.9819 27.7983 67.8511L27.8137 67.8318L27.8291 67.8126C27.8791 67.751 27.9407 67.7048 28.01 67.6663C28.0831 67.6278 28.1639 67.6009 28.2525 67.5855C28.4295 67.5547 28.6335 67.6355 28.8683 67.8318L29.6381 68.4746L28.1293 70.2721L27.8868 70.0681L28.4873 69.3522L28.0793 69.0096H28.0754ZM28.7144 68.0474C28.595 67.9473 28.4911 67.8972 28.3987 67.8934C28.3064 67.8895 28.2294 67.9088 28.1678 67.9434L28.0947 67.9973L28.0369 68.0551C27.9638 68.1436 27.9253 68.2475 27.9253 68.363C27.9253 68.4785 28.01 68.6093 28.1793 68.7517L28.6528 69.1482L29.2186 68.4746L28.7105 68.0512L28.7144 68.0474ZM32.498 72.6547L32.0746 73.3321L31.8359 73.1935L32.1015 72.7355L30.5234 71.8233L30.2578 72.2852L30.0192 72.1466L30.3964 71.4461L30.5812 71.55C30.8467 71.4422 31.0661 71.2883 31.247 71.0843C31.3356 70.9803 31.4279 70.8687 31.5165 70.7455C31.6088 70.6262 31.6858 70.5031 31.7551 70.3837L32.0053 69.9719L33.2447 70.6878L32.2055 72.4892L32.498 72.6585V72.6547ZM32.1439 70.3529L31.9899 70.5993L31.9745 70.6224L31.9591 70.6455C31.8783 70.7879 31.759 70.9611 31.605 71.1651C31.451 71.3691 31.247 71.5423 30.9892 71.6809L30.9468 71.704L30.9006 71.7271L31.9322 72.3198L32.8405 70.7494L32.1439 70.3491V70.3529ZM34.6996 72.4584L34.588 72.7009L33.4718 72.1812L33.1292 72.9164L34.3917 73.5053L34.2801 73.7478L32.7289 73.0242L33.7181 70.8995L35.2347 71.6077L35.123 71.8502L33.8952 71.2767L33.5834 71.9426L34.6996 72.4622V72.4584ZM34.4802 73.5169C34.4995 73.5246 34.511 73.5323 34.5187 73.5438L34.5572 73.5592C34.7189 73.6246 34.869 73.5784 34.9999 73.4129C35.0691 73.3244 35.1346 73.2282 35.1962 73.1358C35.2539 73.0396 35.3039 72.9433 35.3463 72.8433L35.3655 72.7894L35.3886 72.7355L35.7928 71.8079L37.1553 72.3583L36.2777 74.533L35.9852 74.4137L36.7627 72.4853L35.9814 72.1697L35.658 72.9126L35.5618 73.1243C35.5426 73.1704 35.5272 73.2012 35.5156 73.2243C35.5041 73.2474 35.4771 73.2898 35.4387 73.3552C35.3424 73.5246 35.2154 73.667 35.0653 73.7863C34.9113 73.9056 34.7266 73.921 34.5072 73.8325L34.4418 73.8055L34.3763 73.7709L34.4802 73.513V73.5169ZM37.0514 74.4522C36.9321 74.1827 36.9282 73.8633 37.0399 73.5015C37.1515 73.1397 37.3324 72.8818 37.5826 72.7201C37.8366 72.5623 38.133 72.5354 38.4717 72.6393C38.8143 72.7432 39.0452 72.9318 39.1645 73.2051C39.2839 73.4784 39.2877 73.794 39.1799 74.1558C39.0683 74.5176 38.8874 74.7793 38.6411 74.9372C38.3909 75.095 38.0945 75.1219 37.7481 75.0141C37.4017 74.9102 37.1707 74.7216 37.0514 74.4522ZM38.4717 74.6754C38.6488 74.5369 38.7796 74.329 38.8643 74.0557C38.9528 73.7632 38.9682 73.5323 38.9028 73.3706C38.8374 73.2051 38.7488 73.0819 38.6257 73.0011C38.6064 72.9895 38.5833 72.9741 38.5641 72.9664C38.541 72.9549 38.5256 72.9472 38.5102 72.9395L38.3986 72.8972C38.3793 72.8933 38.3562 72.8856 38.3331 72.8818C38.3062 72.8779 38.2793 72.8702 38.2446 72.8664C38.2138 72.8625 38.1792 72.8587 38.1445 72.8587C38.1099 72.8587 38.0753 72.8625 38.0329 72.8702C37.9136 72.8856 37.7904 72.9472 37.6673 73.0511C37.5441 73.155 37.444 73.3398 37.3593 73.6054L37.3362 73.6862C37.3247 73.717 37.3208 73.7439 37.3208 73.767C37.2785 73.9672 37.2862 74.1635 37.3478 74.3598C37.4055 74.5523 37.5672 74.6908 37.8289 74.7678C38.083 74.8448 38.2985 74.8178 38.4756 74.6793L38.4717 74.6754ZM40.708 73.2551C40.9312 73.2936 41.0852 73.3629 41.166 73.463C41.2469 73.563 41.2931 73.6631 41.3046 73.767C41.3046 73.7824 41.3085 73.8017 41.3085 73.8171C41.3085 73.8363 41.3085 73.8517 41.3046 73.8671L41.2892 73.9595C41.2661 74.0981 41.2045 74.202 41.1122 74.2713C41.0198 74.3406 40.9197 74.379 40.8158 74.3867C40.8312 74.3944 40.8427 74.4021 40.8504 74.4098L40.8851 74.4252C40.9813 74.4676 41.066 74.5407 41.1391 74.6446C41.2122 74.7486 41.2315 74.8871 41.2045 75.0565C41.1699 75.2643 41.0891 75.399 40.962 75.4683C40.8389 75.5376 40.7042 75.5761 40.5656 75.5799C40.5348 75.5799 40.504 75.5799 40.4732 75.5799C40.4424 75.5799 40.4193 75.5761 40.4001 75.5761L40.2577 75.5492L39.28 75.3759L39.688 73.0665L40.7042 73.2474L40.708 73.2551ZM39.638 75.1835L40.2808 75.2951L40.3039 75.299L40.3346 75.3028C40.3962 75.3144 40.454 75.3144 40.5079 75.3105C40.5656 75.3067 40.6195 75.2951 40.6772 75.2759C40.785 75.2451 40.8543 75.145 40.8851 74.9756C40.9082 74.8371 40.8851 74.7255 40.8081 74.6485C40.7311 74.5676 40.6041 74.5138 40.4232 74.483L39.7804 74.3713L39.638 75.1796V75.1835ZM39.8266 74.1135L40.4501 74.2251C40.6118 74.252 40.7311 74.2405 40.8042 74.1904C40.8774 74.1366 40.9274 74.0711 40.9543 73.9903L40.9582 73.9672L40.962 73.9441L40.9736 73.8748C40.9774 73.8479 40.9774 73.8171 40.9659 73.7863C40.9543 73.7324 40.9235 73.6785 40.8697 73.6246C40.8158 73.5707 40.7195 73.5323 40.5887 73.5092L39.9536 73.3975L39.8266 74.1173V74.1135ZM42.0744 74.4252L42.7442 74.5215L42.8827 74.5484C42.9597 74.5638 43.0328 74.5984 43.1098 74.6446C43.2022 74.6947 43.2792 74.7755 43.3446 74.8833C43.41 74.991 43.4293 75.1373 43.4023 75.3259C43.3715 75.5453 43.2946 75.6954 43.1714 75.7762C43.0559 75.8532 42.9289 75.8994 42.7865 75.911L42.6633 75.9148L42.5517 75.8994L41.5663 75.7609L41.8935 73.436L42.2053 73.4784L42.0744 74.4252ZM41.9166 75.5415L42.544 75.63L42.6056 75.6377H42.6749C42.7634 75.6338 42.8481 75.603 42.9289 75.5492C43.0097 75.4953 43.0559 75.4029 43.0752 75.2682C43.0906 75.1566 43.0675 75.0526 43.0059 74.9564C42.9443 74.8602 42.8173 74.7947 42.6248 74.7678L42.0359 74.687L41.9166 75.5415ZM44.1798 73.7555L43.8527 76.0803L43.5409 76.038L43.8681 73.7132L44.1798 73.7555ZM44.534 76.0726L44.1298 76.0649L44.9728 74.8794L44.2145 73.7209L44.6071 73.7286L45.1806 74.66L45.7926 73.7478L46.1544 73.7555L45.3615 74.8794L46.1583 76.0996L45.7618 76.0919L45.1652 75.1065L44.5301 76.0688L44.534 76.0726ZM49.6917 74.7101L48.8718 76.0072L48.4946 76.0611L49.3915 74.6639L48.2136 73.7324L48.587 73.6824L49.6763 74.5676L49.5339 73.5477L49.8456 73.5053L49.9881 74.5253L50.7887 73.3744L51.162 73.3206L50.2883 74.5407L51.5392 75.6377L51.1582 75.6916L50.0112 74.6716L50.1728 75.8301L49.861 75.8725L49.6994 74.7139L49.6917 74.7101ZM53.0404 73.8787L53.1058 74.1366L51.9126 74.4329L52.1089 75.222L53.4599 74.8833L53.5253 75.1412L51.8664 75.553L51.3006 73.2782L52.9249 72.8741L52.9903 73.132L51.674 73.4591L51.851 74.175L53.0442 73.8787H53.0404ZM54.1835 75.0064L53.8795 75.0988L53.1943 72.8548L53.4984 72.7624L53.7832 73.6978L54.911 73.3514L54.6262 72.416L54.9302 72.3237L55.6154 74.5676L55.3113 74.66L54.988 73.6054L53.8602 73.9518L54.1835 75.0064ZM57.232 73.6593L56.4545 71.7309L56.747 71.6116L57.5245 73.54L58.4059 73.1858L57.6246 71.2575L57.9171 71.1381L58.6946 73.0665L59.0179 72.9357L59.2912 73.6862L59.0372 73.7901L58.837 73.2975L56.1581 74.379L55.2805 72.2043L55.573 72.085L56.3505 74.0134L57.2281 73.6593H57.232ZM59.6646 70.1874L59.9456 70.0373L61.0464 72.1081L60.7693 72.2544L59.8763 70.5762L59.6646 72.8394L59.3874 72.9895L58.2866 70.9187L58.5676 70.7686L59.4529 72.4353L59.6684 70.1836L59.6646 70.1874ZM61.8047 71.6308L61.5391 71.804L60.2612 69.8372L60.5268 69.664L61.0579 70.4838L62.0471 69.841L61.516 69.0212L61.7816 68.848L63.0594 70.8148L62.7939 70.988L62.1934 70.0604L61.2042 70.7032L61.8047 71.627V71.6308ZM64.7992 66.4192L65.084 66.1613L64.9801 67.7125L66.7083 67.8549L66.4004 68.132L64.7646 67.9588L65.5844 68.8672L65.3496 69.0789L63.7792 67.3353L64.014 67.1236L64.7261 67.9165L64.7992 66.4192ZM67.074 67.5393L66.8431 67.7856L65.7345 65.5339L65.9655 65.2876L68.2865 66.2383L68.0555 66.4885L67.4589 66.2383L66.7815 66.9658L67.074 67.5393ZM67.2049 66.1151L66.0809 65.6302L66.6429 66.7194L67.2049 66.1151ZM68.094 65.38L68.171 65.43L68.2634 65.4723C68.348 65.4993 68.4443 65.5031 68.5597 65.4723C68.6752 65.4454 68.7945 65.353 68.9215 65.2029C69.0293 65.0759 69.0871 64.9604 69.0986 64.8642C69.1101 64.768 69.0986 64.6833 69.0717 64.6179C69.0601 64.5948 69.0524 64.5794 69.0409 64.5601C69.0293 64.5447 69.0216 64.5293 69.0101 64.5216L68.9446 64.4562L68.8869 64.4139C68.8638 64.3946 68.8446 64.3831 68.8176 64.3715C68.7522 64.3446 68.6714 64.3369 68.5751 64.3561C68.4789 64.3754 68.375 64.4485 68.2634 64.5832L68.0671 64.818L67.8631 64.6486L68.0401 64.4369L68.0978 64.3677C68.1094 64.3484 68.1209 64.3369 68.1248 64.3253C68.1325 64.3138 68.1402 64.2945 68.1479 64.2714C68.1787 64.206 68.1902 64.1329 68.1902 64.0597C68.1902 63.9828 68.144 63.9096 68.0594 63.8365C67.9708 63.7595 67.8669 63.7364 67.7514 63.7557C67.636 63.7788 67.5205 63.8557 67.405 63.9943C67.2895 64.1329 67.2318 64.2522 67.2241 64.3523C67.2164 64.4485 67.2318 64.5332 67.2703 64.6025L67.3203 64.6717L67.3704 64.7218L67.1702 64.9604C67.0971 64.8988 67.0394 64.8334 67.0009 64.7641C66.9624 64.6948 66.9393 64.6217 66.9316 64.5524C66.92 64.4177 66.9354 64.2907 66.9816 64.1714C66.9932 64.1406 67.0124 64.0982 67.0394 64.0559C67.0625 64.0097 67.0855 63.9751 67.1048 63.952L67.2164 63.8057L67.3319 63.6825C67.3665 63.6479 67.3935 63.6248 67.4089 63.6094C67.4281 63.594 67.4589 63.5748 67.5012 63.5478C67.6013 63.4785 67.7168 63.4362 67.8477 63.4246C67.9785 63.4093 68.1132 63.4593 68.248 63.5748C68.3557 63.6633 68.4173 63.7557 68.4327 63.8519C68.4481 63.9481 68.4443 64.0366 68.4212 64.1175L68.4019 64.1675L68.3788 64.2137C68.502 64.1252 68.6098 64.0751 68.7098 64.0674C68.8061 64.0597 68.8946 64.0713 68.9754 64.1021L69.0909 64.1598L69.1794 64.2253L69.2641 64.3099C69.2757 64.3215 69.2872 64.3407 69.3026 64.36C69.318 64.3792 69.3295 64.3985 69.3411 64.4216C69.3988 64.5216 69.4219 64.6525 69.4104 64.8103C69.3988 64.9681 69.3026 65.1529 69.1294 65.3607C68.8869 65.6494 68.6637 65.7957 68.452 65.8072C68.348 65.8111 68.2441 65.7995 68.1479 65.7687C68.0517 65.7379 67.9631 65.6917 67.8861 65.6225L68.0863 65.3838L68.094 65.38ZM70.0493 64.1483L69.853 64.4254L68.4404 62.3508L68.6329 62.0736L71.0655 62.6933L70.873 62.9705L70.2456 62.805L69.676 63.6171L70.0455 64.1483H70.0493ZM69.9839 62.7203L68.8022 62.397L69.5104 63.3977L69.9839 62.7203ZM71.3003 62.2815L71.0847 62.624L70.5035 61.2923L69.1217 61.3462L69.3295 61.0151L70.4227 61.0036L69.9569 60.0067L70.1494 59.6988L70.7075 60.9574L72.1663 60.9035L71.9546 61.2422L70.8037 61.2461L71.3041 62.2853L71.3003 62.2815ZM72.5089 58.5402C72.532 58.5517 72.5512 58.5633 72.5666 58.5787C72.5974 58.6056 72.6205 58.6249 72.6359 58.6403C72.6821 58.6788 72.7244 58.725 72.7667 58.7827C72.8514 58.8905 72.9092 59.029 72.94 59.2022C72.9707 59.3754 72.9246 59.5794 72.8052 59.8181C72.7975 59.8296 72.786 59.8527 72.7667 59.8835C72.7475 59.9143 72.7244 59.9528 72.6975 59.999C72.6667 60.0452 72.632 60.0875 72.5935 60.1299C72.5512 60.1722 72.505 60.2145 72.455 60.253C72.328 60.3493 72.1663 60.4147 71.9661 60.4416C71.766 60.4724 71.5197 60.4147 71.2348 60.2684L71.0231 60.1453C70.9692 60.1183 70.9192 60.0837 70.873 60.0452C70.8307 60.0067 70.7768 59.9567 70.7229 59.8912C70.6074 59.7604 70.5228 59.5987 70.4689 59.3985C70.415 59.1984 70.4573 58.9674 70.5959 58.698C70.7267 58.4401 70.873 58.2746 71.0308 58.2015C71.1886 58.1284 71.3387 58.0976 71.4812 58.1168C71.5312 58.1245 71.5774 58.1322 71.6236 58.1476L71.7467 58.1899L71.6005 58.4786C71.5774 58.4671 71.5504 58.4594 71.5235 58.4555C71.5004 58.4478 71.4735 58.4401 71.4388 58.4363C71.3464 58.4247 71.2425 58.444 71.1309 58.494C71.0193 58.5441 70.9192 58.6557 70.8345 58.8212C70.7114 59.0598 70.7075 59.2792 70.823 59.4755C70.9384 59.6718 71.1232 59.8335 71.3811 59.9643C71.5966 60.076 71.8199 60.1145 72.0547 60.0875C72.2856 60.0606 72.4627 59.9259 72.5858 59.6872C72.6782 59.5025 72.7013 59.337 72.6474 59.1868C72.5935 59.0367 72.5012 58.9174 72.3741 58.8327L72.5204 58.5441L72.5089 58.5402ZM71.3888 57.8782L71.1463 57.7704L71.893 56.0884L72.1355 56.1961L71.8237 56.8928L73.7252 57.7396L73.5981 58.0283L71.6967 57.1815L71.3888 57.8782ZM74.1909 56.6234L74.087 56.9467L72.1316 55.3763L72.2356 55.053L74.7413 54.9336L74.6374 55.257L73.9907 55.2839L73.6828 56.2269L74.1909 56.6234ZM73.7098 55.2801L72.4858 55.3147L73.4557 56.0653L73.7098 55.2801ZM74.9646 54.2986L74.876 54.6026L72.6205 53.956L72.709 53.6519L73.6482 53.9213L73.9715 52.7859L73.0323 52.5164L73.1209 52.2124L75.3764 52.859L75.2879 53.1631L74.2255 52.859L73.9022 53.9945L74.9646 54.2986ZM75.5073 52.1508L75.4534 52.4856L73.2748 51.2424L73.3287 50.9075L75.7844 50.3956L75.7305 50.7305L75.0954 50.8536L74.9415 51.8352L75.5073 52.1469V52.1508ZM74.8221 50.8998L73.6174 51.1269L74.6913 51.7158L74.8221 50.8998Z" fill="#2B2A29"/>
<path d="M18.4681 41.6929L17.0863 42.5897L18.2949 42.7822L18.2449 43.094L15.9277 42.7283L15.9778 42.4165L17.0324 42.582L16.1433 41.3734L16.2049 40.9924L17.1017 42.2664L18.2333 41.4851L18.2872 41.1386L19.0686 41.2926L19.0262 41.5659L18.5027 41.4812L18.4681 41.6968V41.6929ZM18.6298 40.6537L18.5528 40.9847L16.4666 39.5913L16.5436 39.2603L19.0301 38.9216L18.9531 39.2526L18.3103 39.3334L18.0871 40.2996L18.6298 40.6498V40.6537ZM18.0332 39.3565L16.8169 39.499L17.8484 40.161L18.0332 39.3565ZM18.5066 38.1556L18.5951 38.1749L18.6952 38.1787C18.7837 38.1749 18.8761 38.1364 18.9723 38.0671C19.0686 37.9978 19.1455 37.8708 19.2071 37.6822C19.2572 37.5244 19.2726 37.3974 19.2456 37.3011C19.2187 37.2049 19.1802 37.1318 19.1263 37.0817C19.1109 37.0664 19.0917 37.051 19.0763 37.0394C19.0609 37.0279 19.0455 37.0202 19.0339 37.0125L18.9492 36.974L18.88 36.9586C18.853 36.9509 18.8261 36.947 18.7991 36.947C18.726 36.947 18.649 36.9701 18.5682 37.024C18.4874 37.0779 18.4181 37.1857 18.3642 37.3512L18.2718 37.6437L18.0178 37.5629L18.1024 37.2973L18.1294 37.2126C18.1332 37.1934 18.1371 37.1741 18.1409 37.1626C18.1448 37.1472 18.1448 37.1279 18.1448 37.1048C18.1486 37.0317 18.1332 36.9624 18.1024 36.8931C18.0717 36.8239 18.0024 36.77 17.8946 36.7353C17.783 36.7007 17.6791 36.7122 17.579 36.7777C17.4789 36.8393 17.4019 36.9586 17.348 37.1279C17.2941 37.2973 17.2826 37.432 17.3134 37.5282C17.3442 37.6206 17.3865 37.6937 17.452 37.7399L17.5251 37.7861L17.5905 37.8131L17.4943 38.1094C17.4058 38.0787 17.3288 38.0402 17.2634 37.9901C17.2018 37.9401 17.1517 37.8824 17.1209 37.8169C17.0594 37.6976 17.0286 37.5744 17.0247 37.4474C17.0247 37.4128 17.0286 37.3704 17.0324 37.3204C17.0363 37.2704 17.044 37.228 17.0555 37.2011L17.1017 37.024L17.1633 36.8662C17.1825 36.82 17.1979 36.7892 17.2095 36.77C17.221 36.7507 17.2403 36.7161 17.2711 36.6776C17.3365 36.5775 17.4289 36.4967 17.5443 36.4313C17.6598 36.3697 17.8022 36.3658 17.9716 36.4197C18.1024 36.4621 18.1948 36.5236 18.2449 36.6045C18.2949 36.6853 18.3257 36.77 18.3334 36.8547L18.3372 36.9085L18.3334 36.9586C18.4142 36.8277 18.4989 36.743 18.5836 36.6968C18.6721 36.6507 18.7568 36.6276 18.8415 36.6276L18.9723 36.6391L19.0801 36.6661L19.1917 36.7122C19.2071 36.7199 19.2264 36.7315 19.2456 36.743C19.2649 36.7546 19.288 36.77 19.3034 36.7854C19.3957 36.8585 19.465 36.9701 19.515 37.1202C19.5651 37.2704 19.5458 37.4782 19.4612 37.7361C19.3457 38.094 19.1917 38.3173 18.9993 38.402C18.9031 38.4482 18.8068 38.4713 18.7029 38.4828C18.6028 38.4905 18.5027 38.479 18.4065 38.4482L18.5027 38.1518L18.5066 38.1556ZM19.8692 36.2773L19.746 36.5929L17.8754 34.9224L17.9985 34.6068L20.5081 34.6184L20.3888 34.934L19.7421 34.9224L19.388 35.8501L19.8769 36.2734L19.8692 36.2773ZM19.4573 34.9109L18.2333 34.8839L19.1648 35.6845L19.4612 34.9109H19.4573ZM21.3164 33.0826L19.719 33.479L20.8006 34.0525L20.6505 34.3297L18.5797 33.2289L18.7298 32.9479L19.6729 33.4482L19.2264 32.0164L19.4073 31.6777L19.8422 33.1711L21.1663 32.8016L21.328 32.4937L22.0169 32.894L21.8861 33.1365L21.4165 32.8863L21.3126 33.0787L21.3164 33.0826ZM22.1593 30.1689C22.1824 30.1842 22.1978 30.1958 22.2132 30.2112C22.2402 30.242 22.2594 30.2612 22.2748 30.2766C22.3172 30.319 22.3556 30.369 22.3903 30.4306C22.4634 30.5461 22.5058 30.6923 22.5173 30.8694C22.5289 31.0464 22.4634 31.2427 22.3172 31.466C22.3095 31.4775 22.2941 31.5006 22.2748 31.5276C22.2517 31.5545 22.2248 31.593 22.1901 31.6353C22.1555 31.6777 22.117 31.7162 22.0747 31.7547C22.0285 31.7932 21.9784 31.8278 21.9207 31.8624C21.786 31.9471 21.6166 31.9933 21.4126 32.001C21.2086 32.0087 20.9738 31.9279 20.7044 31.7508L20.5081 31.6084C20.4581 31.5738 20.4119 31.5391 20.3695 31.4968C20.331 31.4544 20.2849 31.3967 20.2348 31.3274C20.1347 31.185 20.0655 31.0156 20.0347 30.8116C20.0039 30.6076 20.0693 30.3806 20.2348 30.1304C20.3926 29.8879 20.5543 29.7378 20.7198 29.6839C20.8853 29.6261 21.0354 29.6146 21.1778 29.6454C21.224 29.6569 21.2702 29.6723 21.3164 29.6916L21.4319 29.7455L21.2548 30.0149C21.2317 29.9995 21.2086 29.9879 21.1817 29.9841C21.1586 29.9726 21.1317 29.9649 21.1009 29.9572C21.0085 29.9341 20.9046 29.9456 20.7891 29.9841C20.6736 30.0226 20.562 30.1227 20.4581 30.2805C20.3118 30.5076 20.2849 30.7231 20.3772 30.9271C20.4696 31.135 20.639 31.3159 20.8776 31.4737C21.0816 31.6045 21.301 31.67 21.532 31.6661C21.7667 31.6623 21.9553 31.5468 22.1016 31.3236C22.2132 31.1504 22.2517 30.9849 22.2132 30.8309C22.1747 30.6769 22.0978 30.5499 21.9784 30.4498L22.1555 30.1766L22.1593 30.1689ZM21.1778 29.1835L20.9623 29.0257L22.0439 27.5361L22.2594 27.6901L21.8129 28.3059L23.495 29.5299L23.3102 29.7878L21.6282 28.5638L21.1817 29.1796L21.1778 29.1835ZM24.2494 28.5753L24.0261 28.8332L22.8368 26.6239L23.06 26.3698L25.4118 27.2397L25.1924 27.4976L24.5881 27.2667L23.9376 28.0172L24.2532 28.583L24.2494 28.5753ZM24.3302 27.1512L23.187 26.7047L23.7875 27.7747L24.3302 27.1512ZM25.8544 26.7547L25.635 26.9818L23.9492 25.3537L24.1686 25.1266L24.8729 25.804L25.6928 24.9572L24.9922 24.2798L25.2116 24.0527L26.8975 25.6809L26.6781 25.908L25.8852 25.142L25.0654 25.9926L25.8583 26.7586L25.8544 26.7547ZM27.9252 21.7741L29.3686 23.6216L29.1184 23.8179L27.675 21.9704L27.9252 21.7741ZM31.0391 21.5662C31.0545 21.5893 31.0622 21.6086 31.0737 21.6278C31.0853 21.6663 31.0968 21.6932 31.1045 21.7125C31.1238 21.7664 31.1392 21.828 31.1469 21.9011C31.1661 22.0358 31.1469 22.1859 31.0853 22.3514C31.0237 22.5169 30.8813 22.6709 30.6581 22.8172C30.6465 22.8249 30.6234 22.8364 30.5926 22.8557C30.5618 22.8749 30.5233 22.8941 30.4733 22.9211C30.4271 22.9442 30.3732 22.9673 30.3193 22.9827C30.2616 22.9981 30.2039 23.0096 30.1384 23.0173C29.9806 23.0404 29.8074 23.0135 29.6188 22.9365C29.4302 22.8634 29.2493 22.6901 29.0722 22.4207L28.9491 22.209C28.9144 22.159 28.8913 22.1051 28.8682 22.0512C28.849 21.9973 28.8298 21.9242 28.8144 21.8434C28.7797 21.674 28.7874 21.4892 28.8413 21.2891C28.8952 21.0928 29.0491 20.9119 29.2993 20.7464C29.5418 20.5886 29.7497 20.5193 29.9229 20.5347C30.0961 20.5501 30.2424 20.6001 30.3578 20.6848C30.3963 20.7156 30.4348 20.7464 30.4656 20.781L30.5503 20.8772L30.2808 21.0543C30.2654 21.0312 30.2501 21.012 30.227 20.9966C30.2077 20.9773 30.1885 20.9581 30.1654 20.9388C30.0884 20.8811 29.9922 20.8465 29.869 20.8349C29.7458 20.8234 29.6073 20.8695 29.4456 20.9735C29.2185 21.1197 29.1069 21.3083 29.1069 21.5316C29.1069 21.7587 29.1877 21.9935 29.3455 22.2321C29.4764 22.4361 29.6496 22.5824 29.8651 22.6748C30.0807 22.7671 30.3001 22.7402 30.5233 22.5939C30.6965 22.4823 30.7966 22.3476 30.8274 22.1898C30.8582 22.032 30.8351 21.8857 30.7658 21.7471L31.0391 21.5701V21.5662ZM31.8897 19.2722L32.2285 19.0836L31.7781 20.5732L33.4294 21.1005L33.0676 21.3006L31.5125 20.7656L32.1053 21.8357L31.8282 21.9896L30.6888 19.9381L30.966 19.7841L31.4817 20.7156L31.8897 19.2722ZM34.6033 19.0797L34.7111 19.3222L33.5872 19.8226L33.9182 20.5655L35.1922 19.9997L35.3 20.2422L33.7373 20.9388L32.7827 18.7949L34.3108 18.1136L34.4186 18.3561L33.1792 18.9065L33.4794 19.5801L34.6033 19.0797ZM35.6888 17.594C35.9351 17.5016 36.1391 17.4824 36.3046 17.5363C36.4701 17.594 36.5933 17.7249 36.6741 17.9366C36.7434 18.1175 36.7511 18.2984 36.6972 18.4754C36.6433 18.6563 36.4663 18.8026 36.166 18.9181L35.5964 19.1375L35.9312 20.0112L35.6349 20.1228L34.7958 17.9327L35.6849 17.5902L35.6888 17.594ZM35.504 18.8911L36.0429 18.6833C36.2392 18.6063 36.3546 18.5139 36.3931 18.4062C36.4316 18.2945 36.4278 18.1791 36.3816 18.0559C36.3239 17.9096 36.243 17.8288 36.1314 17.8057C36.0737 17.7942 36.0159 17.7903 35.9505 17.8019C35.8889 17.8096 35.8119 17.8288 35.7311 17.8634L35.1922 18.0713L35.5079 18.8911H35.504ZM39.4993 17.4862L39.5186 17.6479C39.5224 17.6748 39.5301 17.7056 39.534 17.7441C39.5378 17.7826 39.5455 17.8173 39.5494 17.8403L39.5763 17.9558L39.6417 18.1406C39.6648 18.1945 39.6956 18.256 39.738 18.3138C39.8265 18.4369 39.9458 18.5447 40.1036 18.6294C40.2576 18.7179 40.4654 18.7372 40.7272 18.6948C41.0543 18.6448 41.2814 18.5293 41.4084 18.3561C41.5355 18.1829 41.6124 18.002 41.6355 17.8096C41.6432 17.7711 41.6471 17.7326 41.6509 17.6941C41.6586 17.6286 41.6548 17.5671 41.6471 17.5132C41.6432 17.4285 41.6317 17.3438 41.6201 17.263L41.5701 17.0397C41.547 16.9551 41.5162 16.8742 41.4739 16.7896C41.3892 16.6202 41.2583 16.4739 41.0774 16.3469C40.8965 16.2237 40.6463 16.1853 40.3269 16.2353C40.0497 16.2776 39.8496 16.37 39.7264 16.5047C39.5994 16.6433 39.5263 16.7819 39.5032 16.9281L39.4916 17.032L39.4878 17.1283L39.8111 17.0782C39.8072 16.9281 39.8534 16.8011 39.9574 16.6972C40.0613 16.5933 40.2037 16.524 40.3923 16.4932L40.5309 16.4816C40.5578 16.4778 40.5848 16.4778 40.6117 16.4778C40.6386 16.4778 40.6617 16.4816 40.6887 16.4893C40.8003 16.5086 40.9081 16.5702 41.012 16.6702C41.0697 16.7241 41.1236 16.7934 41.1698 16.8858C41.216 16.9782 41.2468 17.0821 41.266 17.2014L39.4993 17.4785V17.4862ZM39.8611 17.7634L41.3199 17.5324L41.3238 17.5555L41.3276 17.5825L41.3353 17.6286C41.3353 17.6671 41.3392 17.6941 41.3353 17.7095C41.3353 17.7249 41.3353 17.748 41.3315 17.7749C41.3161 17.9173 41.2622 18.052 41.1698 18.1829C41.0774 18.3138 40.9235 18.3946 40.6964 18.4293C40.5001 18.46 40.3423 18.4369 40.2229 18.3523C40.1036 18.2714 40.0151 18.1752 39.9651 18.0636L39.9227 17.9789C39.9112 17.9597 39.8996 17.9289 39.8881 17.8904L39.8688 17.8211L39.8573 17.7557L39.8611 17.7634ZM43.6447 15.8619L43.9604 15.8388L44.1259 18.1791L43.8103 18.2022L43.6794 16.3084L42.567 18.2907L42.2514 18.3138L42.0859 15.9736L42.4015 15.9505L42.5324 17.8326L43.6447 15.8619ZM42.6594 15.4C42.6786 15.4886 42.7133 15.554 42.771 15.5963C42.8249 15.6348 42.9057 15.6502 43.0058 15.6425C43.0982 15.6348 43.1713 15.6117 43.2137 15.5733C43.256 15.5309 43.2868 15.4847 43.3022 15.4308L43.3099 15.3924V15.3577L43.5601 15.3385L43.5562 15.3654L43.5524 15.3885C43.5331 15.4886 43.4869 15.581 43.41 15.6695C43.333 15.758 43.2021 15.808 43.0212 15.8234C42.8711 15.835 42.7556 15.8119 42.6748 15.7657C42.594 15.7157 42.5285 15.6618 42.49 15.6002C42.4708 15.5733 42.4554 15.5425 42.4438 15.5078L42.4208 15.4231L42.6671 15.4077L42.6594 15.4ZM46.2467 16.7973V17.0628H45.015V17.875H46.4084V18.1406H44.6994V15.7965H46.3737V16.0621H45.0189V16.7973H46.2506H46.2467ZM46.5315 17.8057C46.5508 17.8057 46.5662 17.8134 46.5739 17.8211L46.6162 17.825C46.7894 17.8365 46.9164 17.7441 46.9934 17.5517C47.0319 17.4439 47.0666 17.3361 47.0935 17.2245C47.1204 17.1167 47.1358 17.0051 47.1435 16.9012L47.1474 16.8434L47.1512 16.7857L47.2475 15.7811L48.7139 15.885L48.5484 18.2253L48.2328 18.2022L48.3791 16.1275L47.54 16.0698L47.463 16.8742L47.4361 17.1052C47.4322 17.1552 47.4284 17.1899 47.4245 17.2168C47.4207 17.2437 47.4091 17.2899 47.3899 17.3631C47.3475 17.5555 47.2744 17.7287 47.1666 17.8904C47.0589 18.0482 46.8856 18.1213 46.6509 18.1059L46.5816 18.1021L46.5084 18.0905L46.5277 17.8134L46.5315 17.8057ZM51.3467 18.3484L51.2081 19.1336L50.9348 19.0951L51.008 18.5678L49.2028 18.3138L49.1296 18.8411L48.8564 18.8026L48.941 18.0097L49.1489 18.0405C49.3529 17.8403 49.4992 17.6133 49.5915 17.3592C49.6339 17.2283 49.6762 17.0898 49.7147 16.9474C49.7532 16.8011 49.7801 16.6587 49.8032 16.524L49.8841 16.0467L51.3044 16.2468L51.0157 18.3061L51.3505 18.3523L51.3467 18.3484ZM50.1573 16.3469L50.1073 16.6317L50.1035 16.6587L50.0996 16.6856C50.0765 16.8473 50.0342 17.0513 49.9649 17.2976C49.8995 17.544 49.7724 17.7788 49.5877 18.0097L49.5569 18.0482L49.5222 18.0867L50.7001 18.2522L50.9541 16.4547L50.1573 16.3431V16.3469ZM53.4637 17.7095L53.4098 17.9674L52.205 17.7133L52.0357 18.5101L53.3982 18.7988L53.3444 19.0605L51.67 18.7064L52.1588 16.4123L53.7947 16.7588L53.7408 17.0166L52.4129 16.7357L52.2589 17.4554L53.4637 17.7133V17.7095ZM55.2843 17.2707C55.5345 17.3515 55.7077 17.467 55.8 17.6133C55.8924 17.7595 55.904 17.9404 55.8347 18.156C55.777 18.3407 55.6692 18.487 55.5152 18.5909C55.3613 18.6987 55.1303 18.6987 54.8224 18.6025L54.2412 18.4139L53.9525 19.303L53.6523 19.2068L54.3759 16.9743L55.2843 17.2707ZM54.322 18.1598L54.8686 18.3369C55.0687 18.4023 55.215 18.4023 55.3151 18.3407C55.4151 18.2791 55.4844 18.1868 55.5229 18.0597C55.5691 17.9096 55.5576 17.7942 55.4844 17.7056C55.4498 17.6594 55.4036 17.621 55.3459 17.5902C55.292 17.5555 55.2227 17.5247 55.138 17.4978L54.5914 17.3207L54.3182 18.156L54.322 18.1598ZM59.0987 21.4084L58.6753 19.8188L58.121 20.908L57.84 20.7656L58.9062 18.6756L59.1872 18.818L58.7022 19.7687L60.1264 19.2991L60.4689 19.4762L58.9832 19.9342L59.3758 21.2545L59.6876 21.4123L59.2988 22.1089L59.0525 21.9858L59.295 21.5123L59.1025 21.4123L59.0987 21.4084ZM60.0109 21.9011L59.7222 21.7202L61.7199 20.1998L62.0086 20.3769L61.5197 22.8364L61.2311 22.6555L61.3619 22.0204L60.519 21.4931L60.0109 21.8895V21.9011ZM61.4312 21.7587L61.6929 20.5616L60.7307 21.3199L61.4312 21.7587ZM64.2641 21.9049L64.5335 22.0935L62.7784 23.2175C62.5936 23.3406 62.4435 23.3907 62.3319 23.3676C62.278 23.356 62.228 23.3406 62.1779 23.3214C62.1279 23.3021 62.0817 23.2752 62.0394 23.2444L62.0086 23.2213C61.997 23.2136 61.9816 23.2021 61.9585 23.1828C61.9316 23.1636 61.9085 23.1405 61.8931 23.1174L61.8739 23.0866L61.8431 23.0674L62.0009 22.8441L62.0394 22.9018L62.0855 22.9557L62.1202 22.9827L62.1548 23.0058L62.1664 23.0135C62.2241 23.052 62.2895 23.0712 62.3665 23.0712C62.4435 23.0674 62.5436 23.0212 62.6591 22.9326L62.94 20.9773L63.2557 21.1967L62.9978 22.7363L64.268 21.9049H64.2641ZM64.5258 23.4099L65.0532 23.8372L65.1571 23.9334C65.2148 23.9873 65.261 24.0527 65.3034 24.1335C65.3534 24.2259 65.3803 24.3337 65.3803 24.4607C65.3803 24.5877 65.3226 24.7224 65.2033 24.8687C65.0647 25.0381 64.9223 25.1266 64.7722 25.1343C64.6336 25.142 64.4989 25.1151 64.3757 25.0535L64.2718 24.9919L64.1833 24.9187L63.4135 24.2952L64.8877 22.4708L65.134 22.6709L64.5335 23.4138L64.5258 23.4099ZM63.8138 24.2875L64.3065 24.684L64.3565 24.7224L64.4181 24.7609C64.4989 24.8033 64.5836 24.8225 64.6798 24.8148C64.776 24.8071 64.8646 24.7532 64.9492 24.6493C65.0185 24.5608 65.0532 24.4607 65.0493 24.3452C65.0455 24.2298 64.9723 24.1104 64.8184 23.9873L64.3565 23.6139L63.8138 24.2837V24.2875ZM66.6736 23.9218L65.1994 25.7463L64.9531 25.5461L66.4311 23.7217L66.6775 23.9218H66.6736ZM67.2125 25.0419L67.147 25.1035L65.7691 26.3852L65.5535 26.1543L67.2702 24.5531L67.5897 24.8995L66.6775 26.7547L68.5904 25.9734L68.9099 26.316L67.1932 27.9172L66.9777 27.6862L68.3518 26.4045L68.4249 26.3506L66.4581 27.1281L66.2849 26.9434L67.2048 25.0419H67.2125ZM69.1678 29.9264L68.5289 30.4075L68.3557 30.1958L68.7675 29.8609L67.6205 28.4445L67.2086 28.7793L67.0354 28.5638L67.6397 28.0442L67.7744 28.2097C68.0593 28.202 68.321 28.1366 68.5635 28.0095C68.6828 27.9441 68.8098 27.871 68.9369 27.7901C69.0639 27.7093 69.1832 27.6246 69.291 27.54L69.6759 27.2436L70.5766 28.356L68.96 29.6646L69.1717 29.9264H69.1678ZM69.6605 27.6516L69.4295 27.8286L69.4064 27.8479L69.3833 27.8671C69.2563 27.971 69.0831 28.0904 68.8676 28.2251C68.652 28.3598 68.398 28.4445 68.1055 28.4868L68.0593 28.4907L68.0092 28.4984L68.756 29.4221L70.1686 28.279L69.6643 27.6554L69.6605 27.6516ZM69.164 30.5615L68.9753 30.2805L71.4156 29.707L71.6043 29.988L70.157 32.0356L69.9684 31.7547L70.3456 31.2312L69.7914 30.4075L69.164 30.5653V30.5615ZM70.5188 31.0118L71.2463 30.0226L70.0569 30.3267L70.5188 31.0118ZM71.9237 33.7177C71.9006 33.7292 71.8814 33.7408 71.8583 33.7446C71.8198 33.7523 71.789 33.76 71.7698 33.7677C71.7159 33.7831 71.6504 33.7947 71.5812 33.7985C71.4426 33.8101 71.2963 33.7793 71.1347 33.7061C70.973 33.633 70.8306 33.4829 70.6997 33.2481C70.692 33.2365 70.6805 33.2135 70.6651 33.1788C70.6497 33.148 70.6304 33.1057 70.6112 33.0556C70.5881 33.0056 70.5727 32.9517 70.5612 32.894C70.5496 32.8362 70.5419 32.7747 70.5381 32.7092C70.5265 32.5514 70.565 32.3821 70.6535 32.1973C70.7421 32.0126 70.923 31.8432 71.204 31.6892L71.4233 31.5815C71.4772 31.5507 71.5311 31.5276 71.5889 31.5122C71.6466 31.4968 71.7159 31.4814 71.8005 31.4698C71.9738 31.4467 72.1585 31.4698 72.351 31.5353C72.5434 31.6007 72.7128 31.7662 72.859 32.0318C73.0015 32.2858 73.0553 32.4975 73.0284 32.6669C73.0015 32.8401 72.9399 32.9787 72.8475 33.0903C72.8167 33.1288 72.7821 33.1596 72.7436 33.1904L72.6435 33.2673L72.4857 32.9864C72.5088 32.9748 72.5319 32.9556 72.5473 32.9363C72.5665 32.9209 72.5896 32.9017 72.6089 32.8786C72.6704 32.8093 72.7128 32.7131 72.732 32.5899C72.7513 32.4706 72.7166 32.3243 72.6242 32.1588C72.4934 31.924 72.3163 31.797 72.0892 31.7816C71.866 31.7662 71.6235 31.8278 71.3733 31.9702C71.1616 32.0895 71.0038 32.2512 70.896 32.459C70.7883 32.6669 70.7998 32.8901 70.9307 33.1211C71.0307 33.302 71.1578 33.4136 71.3117 33.4521C71.4657 33.4906 71.6158 33.4829 71.7582 33.4213L71.916 33.7061L71.9237 33.7177ZM73.1785 33.3905L73.421 33.2789L74.1985 34.9455L73.9599 35.0571L73.6365 34.3682L71.7505 35.2458L71.6158 34.9609L73.5018 34.0833L73.1785 33.3944V33.3905ZM73.5442 36.1156L73.7636 36.7546L73.7982 36.8893C73.8175 36.9663 73.8252 37.0471 73.8136 37.1356C73.8098 37.2396 73.7751 37.3473 73.7058 37.4551C73.6366 37.5629 73.5172 37.6476 73.3402 37.7091C73.1323 37.7823 72.963 37.7784 72.8321 37.7053C72.7089 37.6399 72.6127 37.5436 72.5357 37.4243L72.478 37.3165L72.4395 37.2088L72.1162 36.2696L74.3332 35.5075L74.4372 35.8077L73.5326 36.1195L73.5442 36.1156ZM72.478 36.4813L72.682 37.0779L72.7012 37.1356L72.732 37.1972C72.7782 37.2742 72.8398 37.3358 72.9245 37.382C73.0092 37.4282 73.1131 37.4282 73.2401 37.3858C73.3479 37.3473 73.4287 37.2819 73.4864 37.1818C73.5442 37.0817 73.5442 36.9393 73.4787 36.7584L73.2863 36.1965L72.4703 36.4774L72.478 36.4813ZM75.0953 37.6861L72.8783 38.452L72.7744 38.1518L74.9914 37.3897L75.0953 37.6899V37.6861ZM74.1754 39.0563L73.063 39.3334L72.9861 39.0255L74.0984 38.7484L74.0484 38.5521L74.2986 38.4905L74.3486 38.6868L75.2647 38.4597L75.6265 39.9108L75.3686 39.9762L75.0838 38.8331L74.4256 38.9986L74.6296 39.8223L74.3794 39.8839L74.1754 39.0602V39.0563ZM74.8221 40.8962L74.926 41.5659L74.9375 41.7045C74.9414 41.7814 74.9337 41.8623 74.9106 41.947C74.8875 42.047 74.8336 42.1471 74.7489 42.2433C74.6642 42.3357 74.5295 42.4011 74.3448 42.4281C74.1292 42.4627 73.9599 42.4319 73.8444 42.3357C73.7366 42.2472 73.6558 42.1394 73.6019 42.0085L73.5634 41.8931L73.5442 41.7814L73.3902 40.7999L75.7073 40.4343L75.7574 40.746L74.8144 40.8962H74.8221ZM73.7058 41.0732L73.8059 41.6968L73.8175 41.7583L73.8367 41.8238C73.8675 41.9085 73.9214 41.9816 73.9945 42.0393C74.0715 42.1009 74.1716 42.1163 74.3063 42.0971C74.4179 42.0778 74.5103 42.0278 74.5873 41.9393C74.6642 41.8507 74.6835 41.7122 74.6566 41.5197L74.5642 40.9346L73.7135 41.0694L73.7058 41.0732ZM76.0768 42.7168L73.7597 43.0824L73.7097 42.7706L76.0268 42.405L76.0768 42.7168Z" fill="#2B2A29"/>
<path fill-rule="evenodd" clip-rule="evenodd" d="M16.9286 44.2949L17.4521 46.2425L19.3997 46.766L17.4521 47.2933L16.9286 49.2409L16.4051 47.2933L14.4575 46.766L16.4051 46.2425L16.9286 44.2949Z" fill="#E31E24"/>
<path fill-rule="evenodd" clip-rule="evenodd" d="M74.7335 44.2949L75.257 46.2425L77.2046 46.766L75.257 47.2933L74.7335 49.2409L74.2062 47.2933L72.2585 46.766L74.2062 46.2425L74.7335 44.2949Z" fill="#E31E24"/>
</svg>
