<svg width="36" height="36" viewBox="0 0 36 36" fill="none" xmlns="http://www.w3.org/2000/svg">
<circle cx="18" cy="18" r="18" fill="#464646"/>
<path fill-rule="evenodd" clip-rule="evenodd" d="M28.8 11.0778C28.0058 11.4306 27.1513 11.6681 26.2549 11.7754C27.17 11.2268 27.8727 10.3585 28.2031 9.32398C27.3478 9.83226 26.3982 10.2002 25.3895 10.3996C24.581 9.53852 23.4284 9 22.1548 9C19.7077 9 17.7235 10.9842 17.7235 13.4313C17.7235 13.7783 17.7631 14.1167 17.8387 14.4414C14.1554 14.2571 10.8904 12.4925 8.70465 9.81139C8.32308 10.4658 8.10493 11.2268 8.10493 12.0389C8.10493 13.576 8.88608 14.9324 10.0762 15.7272C9.34901 15.7042 8.66649 15.5048 8.06821 15.1729V15.2283C8.06821 17.3759 9.59667 19.1664 11.6226 19.5747C11.2511 19.6754 10.8595 19.7302 10.4556 19.7302C10.1698 19.7302 9.89185 19.7021 9.62115 19.6502C10.1849 21.4105 11.822 22.6921 13.7609 22.728C12.2447 23.916 10.3339 24.6251 8.25756 24.6251C7.89902 24.6251 7.54625 24.6042 7.19995 24.5625C9.1611 25.8195 11.4901 26.5539 13.9927 26.5539C22.1433 26.5539 26.6005 19.8014 26.6005 13.9461C26.6005 13.7538 26.5969 13.5623 26.5875 13.373C27.4544 12.7466 28.206 11.9662 28.8 11.0778Z" fill="white"/>
</svg>
