<svg width="36" height="36" viewBox="0 0 36 36" fill="none" xmlns="http://www.w3.org/2000/svg">
<circle cx="18" cy="18" r="18" fill="#464646"/>
<path fill-rule="evenodd" clip-rule="evenodd" d="M28.1705 11.1403C28.5297 11.4995 28.7885 11.9465 28.9212 12.4368C29.6852 15.5121 29.5087 20.3692 28.936 23.5632C28.8033 24.0535 28.5445 24.5005 28.1853 24.8597C27.8261 25.2189 27.3791 25.4778 26.8888 25.6104C25.0937 26.1 17.869 26.1 17.869 26.1C17.869 26.1 10.6443 26.1 8.84921 25.6104C8.35888 25.4778 7.91185 25.2189 7.55266 24.8597C7.19347 24.5005 6.93465 24.0535 6.80196 23.5632C6.0335 20.5012 6.24416 15.6412 6.78713 12.4517C6.91981 11.9613 7.17863 11.5143 7.53783 11.1551C7.89702 10.7959 8.34404 10.5371 8.83438 10.4044C10.6294 9.91483 17.8542 9.9 17.8542 9.9C17.8542 9.9 25.0789 9.9 26.8739 10.3896C27.3643 10.5222 27.8113 10.7811 28.1705 11.1403ZM21.5481 18L15.5547 21.4714V14.5286L21.5481 18Z" fill="white"/>
</svg>
