<svg width="60" height="60" viewBox="0 0 60 60" fill="none" xmlns="http://www.w3.org/2000/svg">
<g clip-path="url(#clip0_2001_928)">
<path d="M0 14C0 6.26801 6.26801 0 14 0C21.732 0 28 6.26801 28 14V28H14C6.26801 28 0 21.732 0 14Z" fill="white"/>
<path d="M32 14C32 6.26801 38.268 0 46 0C53.732 0 60 6.26801 60 14C60 21.732 53.732 28 46 28H32V14Z" fill="white"/>
<path d="M0 46C0 38.268 6.26801 32 14 32H28V46C28 53.732 21.732 60 14 60C6.26801 60 0 53.732 0 46Z" fill="white"/>
<path d="M32 32H46C53.732 32 60 38.268 60 46C60 53.732 53.732 60 46 60C38.268 60 32 53.732 32 46V32Z" fill="white"/>
</g>
<defs>
<clipPath id="clip0_2001_928">
<rect width="60" height="60" fill="white"/>
</clipPath>
</defs>
</svg>
