<svg width="25" height="24" viewBox="0 0 25 24" fill="none" xmlns="http://www.w3.org/2000/svg">
<path d="M12.4961 16.6768V14.1398M15.9961 5.32576V4.95976C15.9961 3.73976 15.0061 2.74976 13.7861 2.74976H11.2061C9.98609 2.74976 8.99609 3.73976 8.99609 4.95976V5.32576M3.27539 15.4829L3.46439 17.9919C3.59239 19.6829 5.00139 20.9899 6.69639 20.9899H18.2954C19.9904 20.9899 21.3994 19.6829 21.5274 17.9919L21.7164 15.4829M18.69 5.3302C20.38 5.3302 21.74 6.7002 21.74 8.3902V11.8302C19.28 13.2702 16.03 14.1402 12.49 14.1402C8.95 14.1402 5.71 13.2702 3.25 11.8302V8.3802C3.25 6.6902 4.62 5.3302 6.31 5.3302H18.69Z" stroke="#333333" stroke-width="1.5" stroke-linecap="round" stroke-linejoin="round"/>
</svg>
