<svg xmlns="http://www.w3.org/2000/svg" viewBox="0 0 1505.03 219.99"><defs><style>.cls-1{fill:#fff;}</style></defs><title>Ресурс 2</title><g id="Слой_2" data-name="Слой 2"><g id="Слой_2-2" data-name="Слой 2"><path class="cls-1" d="M9.83,219.49A9.33,9.33,0,0,1,.5,210.17V7.84a10.46,10.46,0,0,0,1,4.33l4.2,9.09a10.32,10.32,0,0,0,2.66,3.52l5.08,4.34a8,8,0,0,0,.64.51l9.7,7.05A10.22,10.22,0,0,0,26,37.92l5.78,2.31a17.26,17.26,0,0,0,6.56,1.49c.09,0,8.8.53,11.68.78C408.14,73.92,1485.36,198.76,1496.2,200a9.32,9.32,0,0,1-1,18.59L9.83,219.49Z"/><path class="cls-1" d="M1,12.38l4.2,9.09A10.58,10.58,0,0,0,8,25.15l5.08,4.35c.22.19.45.37.68.54l9.7,7.05a10.88,10.88,0,0,0,2.34,1.29l5.79,2.31a17.29,17.29,0,0,0,6.71,1.53c.09,0,8.79.52,11.67.78,358.14,31.42,1435.36,156.26,1446.2,157.51a8.45,8.45,0,0,1,7.86,9.25c-.22,4.15-3,8.34-8.81,8.35L9.83,219A8.83,8.83,0,0,1,1,210.17V12.38M1,0H0V210.17A9.82,9.82,0,0,0,9.83,220h0l1485.36-.88c12.41,0,13.4-18.25,1.06-19.59C1496.26,199.52,412.34,73.79,50,42c-2.92-.26-11.69-.78-11.69-.78a16.62,16.62,0,0,1-6.4-1.45l-5.78-2.31A10.13,10.13,0,0,1,24,36.28l-9.69-7c-.21-.15-.42-.32-.62-.49L8.63,24.4a9.78,9.78,0,0,1-2.52-3.35L1.91,12A9.78,9.78,0,0,1,1,7.84V0Z"/></g></g></svg>