<svg width="60" height="60" viewBox="0 0 60 60" fill="none" xmlns="http://www.w3.org/2000/svg">
<rect width="60" height="60" rx="12" fill="#384242"/>
<path d="M41.7654 18.208C40.0284 16.4705 37.0886 16.2032 33.6145 17.4061C32.4118 17.807 31.2093 18.4753 30.0066 19.1436C25.1963 16.3369 20.6531 15.8023 18.2479 18.208C15.7091 20.6137 16.3772 25.1579 19.1833 29.9694C16.2436 34.9145 15.8427 39.4588 18.2479 41.7308C19.1833 42.8 20.6531 43.3346 22.3902 43.3346C24.6618 43.3346 27.3342 42.399 30.0066 40.7953C32.6792 42.399 35.3516 43.3346 37.6232 43.3346C39.3602 43.3346 40.6964 42.8 41.7654 41.8645C44.1706 39.4588 43.6361 34.9145 40.8301 30.103C43.7697 25.0243 44.1706 20.4801 41.7654 18.208ZM34.4162 19.9455C36.955 19.0099 38.8257 19.1436 39.8946 20.0791C41.0973 21.282 40.8301 24.2224 39.2266 27.43C38.2912 26.2271 37.3558 25.0243 36.1533 23.8214C34.9506 22.6185 33.7481 21.683 32.5454 20.7474C33.2136 20.4801 33.8817 20.0791 34.4162 19.9455ZM20.1186 39.8597C18.916 38.6568 19.1833 35.7165 20.7867 32.5088C21.7221 33.7117 22.6575 34.9145 23.8601 36.1174C25.0627 37.3202 26.2653 38.3894 27.4678 39.1914C24.1273 40.9289 21.3212 41.0625 20.1186 39.8597ZM39.8946 39.8597C38.6921 41.0625 35.886 40.7953 32.4118 39.1914C33.6145 38.2558 34.817 37.1866 36.0197 36.1174C36.5541 35.5828 37.0886 35.0482 37.4894 34.5136C38.024 33.979 37.8904 33.177 37.3558 32.6425C36.8214 32.1078 36.0197 32.2414 35.4852 32.7761C35.0844 33.3108 34.5498 33.7117 34.1489 34.2462C32.8128 35.5828 31.3429 36.7857 30.0066 37.7213C28.6705 36.7857 27.2006 35.5828 25.8644 34.2462C19.985 28.3656 18.1143 22.0839 20.1186 20.0791C20.5195 19.5445 21.3212 19.2772 22.3902 19.2772C23.7264 19.2772 25.5971 19.8118 27.4678 20.7474C26.2653 21.683 25.0627 22.7522 23.8601 23.8214C23.3256 24.4897 22.6575 25.1579 22.123 25.8262C21.5885 26.3608 21.7221 27.1627 22.2566 27.6973C22.7911 28.232 23.7264 28.0982 24.1273 27.5637C24.6618 26.8954 25.1963 26.3608 25.7308 25.8262C27.067 24.4897 28.5368 23.2868 29.873 22.3512C31.2093 23.2868 32.6792 24.4897 34.1489 25.8262C40.0284 31.5733 41.899 37.8549 39.8946 39.8597Z" fill="#B0885D"/>
<path d="M29.9999 32.1339C31.1782 32.1339 32.1332 31.1788 32.1332 30.0005C32.1332 28.8223 31.1782 27.8672 29.9999 27.8672C28.8216 27.8672 27.8666 28.8223 27.8666 30.0005C27.8666 31.1788 28.8216 32.1339 29.9999 32.1339Z" fill="#B0885D"/>
</svg>
