<svg width="60" height="60" viewBox="0 0 60 60" fill="none" xmlns="http://www.w3.org/2000/svg">
<rect width="60" height="60" rx="12" fill="#384242"/>
<path d="M27.7705 19.5L29.03 19.014C28.8291 18.4934 28.3286 18.15 27.7705 18.15V19.5ZM32.1356 30.8136L33.4594 31.0783C33.5096 30.8271 33.4873 30.5667 33.3951 30.3276L32.1356 30.8136ZM24.7466 43.5014C25.0235 44.1936 25.8091 44.5303 26.5014 44.2534C27.1936 43.9765 27.5303 43.1909 27.2534 42.4986L24.7466 43.5014ZM17.2534 17.4986C16.9765 16.8064 16.1909 16.4697 15.4986 16.7466C14.8064 17.0235 14.4697 17.8091 14.7466 18.5014L17.2534 17.4986ZM39.4058 23.5L40.7328 23.748C40.8065 23.3534 40.7008 22.9464 40.4443 22.6375C40.1879 22.3287 39.8072 22.15 39.4058 22.15V23.5ZM44 35.5593V36.9093C44.5362 36.9093 45.0216 36.592 45.2367 36.1008C45.4517 35.6096 45.3557 35.0377 44.992 34.6436L44 35.5593ZM31.1864 35.5593L29.8627 35.2946C29.7833 35.6912 29.886 36.1024 30.1424 36.4152C30.3988 36.728 30.782 36.9093 31.1864 36.9093V35.5593ZM38.3051 29.3898L36.9781 29.1418C36.8997 29.5609 37.024 29.9923 37.3131 30.3055L38.3051 29.3898ZM16.6 20.85H27.7705V18.15H16.6V20.85ZM26.511 19.986L30.8761 31.2995L33.3951 30.3276L29.03 19.014L26.511 19.986ZM32.1356 29.4636H21.1254V32.1636H32.1356V29.4636ZM27.2534 42.4986L17.2534 17.4986L14.7466 18.5014L24.7466 43.5014L27.2534 42.4986ZM29.3138 24.85H39.4058V22.15H29.3138V24.85ZM44 34.2093H31.1864V36.9093H44V34.2093ZM38.0787 23.252L36.9781 29.1418L39.6321 29.6378L40.7328 23.748L38.0787 23.252ZM37.3131 30.3055L43.008 36.475L44.992 34.6436L39.2971 28.4742L37.3131 30.3055ZM32.5102 35.8241L33.4594 31.0783L30.8118 30.5488L29.8627 35.2946L32.5102 35.8241Z" fill="#B0885D"/>
</svg>
