<svg width="60" height="60" viewBox="0 0 60 60" fill="none" xmlns="http://www.w3.org/2000/svg">
<rect width="60" height="60" rx="12" fill="#384242"/>
<path d="M38.9488 17.066C38.4182 16.5353 37.6225 16.5353 37.092 17.066C36.5614 17.5967 36.5614 18.3927 37.092 18.9234C39.4793 21.3114 40.8056 24.4955 40.8056 27.9449C40.8056 31.3944 39.4793 34.5784 37.092 36.9665C34.7045 39.3545 31.5214 40.6813 28.073 40.6813C25.1551 40.6813 22.2372 39.6198 19.9824 37.7625L21.7066 35.9052C23.5635 37.3645 25.8182 38.0278 27.9404 38.0278C30.593 38.0278 33.113 37.0992 35.1025 35.109C39.0814 31.129 39.0814 24.6282 35.1025 20.7807C31.1234 16.8006 24.6245 16.8006 20.7782 20.7807C17.1972 24.3628 16.7992 30.0677 19.8498 34.0477L17.0645 36.9665C16.534 37.4972 16.534 38.2932 17.0645 38.8238C19.9824 41.7426 23.8287 43.3346 27.9404 43.3346C32.052 43.3346 35.8982 41.7426 38.8161 38.8238C41.7341 35.9052 43.3256 32.0577 43.3256 27.9449C43.4582 23.8321 41.8666 19.9847 38.9488 17.066ZM22.7677 22.6381C24.2266 21.1787 26.2161 20.3827 28.073 20.3827C30.0625 20.3827 31.9193 21.1787 33.3782 22.6381C36.2961 25.5569 36.2961 30.333 33.3782 33.2517C30.4604 36.1705 25.6856 36.1705 22.7677 33.2517C19.8498 30.333 19.8498 25.5569 22.7677 22.6381Z" fill="#B0885D"/>
</svg>
