<svg width="60" height="60" viewBox="0 0 60 60" fill="none" xmlns="http://www.w3.org/2000/svg">
<rect width="60" height="60" rx="12" fill="#384242"/>
<path d="M42 25.5997H38.2666C35.8666 25.5997 33.8666 27.5997 33.8666 29.9997V30.133C33.8666 32.533 35.8666 34.533 38.2666 34.533H40.6666V36.333C40.6666 37.933 39.4666 39.133 38.1333 39.133H22.5333C21.2 38.9997 20 37.7997 20 36.1997V23.7997C20 22.1997 21.2 20.9997 22.5333 20.9997H38.1333C39.0666 20.9997 40 21.533 40.4 22.5997C40.6666 23.2663 41.4666 23.533 42.1333 23.2663C42.8 22.9997 43.0666 22.1997 42.8 21.533C42 19.533 40.1333 18.333 38.1333 18.333H22.5333C19.7333 18.333 17.3333 20.733 17.3333 23.7997V36.1997C17.3333 39.2663 19.7333 41.6663 22.5333 41.6663H38.1333C41.0666 41.6663 43.3333 39.2663 43.3333 36.1997V34.133C44.5333 33.5997 45.3333 32.3997 45.3333 31.0663V28.933C45.3333 27.0663 43.8666 25.5997 42 25.5997ZM36.5333 30.133V29.8663C36.5333 28.933 37.3333 28.133 38.2666 28.133H42C42.4 28.133 42.6666 28.3997 42.6666 28.7997V31.0663C42.6666 31.4663 42.4 31.733 42 31.733H38.2666C37.3333 31.733 36.5333 31.0663 36.5333 30.133Z" fill="#B0885D"/>
</svg>
