<svg width="180" height="180" viewBox="0 0 180 180" fill="none" xmlns="http://www.w3.org/2000/svg">
<g clip-path="url(#clip0_1258_684)">
<path d="M172.802 97.0914C172.94 96.9882 173.076 96.8475 173.209 96.6692C173.342 96.4908 173.463 96.2883 173.571 96.0616C173.689 95.8355 173.785 95.5846 173.859 95.3089C173.942 95.0431 173.994 94.7612 174.013 94.4631C174.063 93.6994 173.956 93.1265 173.691 92.7443C173.426 92.3621 173.042 92.1545 172.539 92.1215C172.186 92.0983 171.9 92.173 171.683 92.3459C171.466 92.5187 171.28 92.7917 171.124 93.165C170.968 93.5476 170.8 94.0323 170.622 94.6192C170.427 95.2986 170.207 95.8827 169.959 96.3715C169.712 96.8604 169.398 97.2279 169.017 97.4742C168.645 97.721 168.162 97.8248 167.566 97.7857C167.091 97.7545 166.682 97.6342 166.341 97.4246C166.008 97.2251 165.735 96.9546 165.524 96.6134C165.322 96.2727 165.179 95.8799 165.096 95.4348C165.023 94.9904 165.003 94.512 165.036 93.9998C165.069 93.4969 165.153 93.0066 165.287 92.5291C165.43 92.0614 165.618 91.6201 165.851 91.2052C166.084 90.7902 166.367 90.4066 166.698 90.0542L167.721 90.7247C167.553 90.8633 167.382 91.0438 167.208 91.2663C167.043 91.4986 166.886 91.7595 166.736 92.049C166.585 92.3478 166.456 92.6713 166.349 93.0197C166.252 93.3688 166.19 93.7295 166.166 94.1021C166.119 94.8099 166.209 95.3676 166.435 95.7753C166.67 96.1836 167.034 96.4039 167.528 96.4363C167.9 96.4608 168.206 96.3686 168.444 96.1598C168.682 95.9603 168.889 95.6512 169.066 95.2326C169.243 94.8139 169.427 94.3022 169.616 93.6973C169.828 93.0377 170.046 92.4862 170.272 92.0427C170.507 91.5998 170.795 91.2727 171.136 91.0612C171.477 90.8591 171.908 90.7752 172.429 90.8095C173.063 90.8511 173.588 91.0399 174.005 91.376C174.423 91.7121 174.726 92.1575 174.914 92.7124C175.102 93.2672 175.174 93.8846 175.129 94.5645C175.1 95.0115 175.026 95.4229 174.908 95.7986C174.789 96.1837 174.634 96.5383 174.445 96.8626C174.255 97.1868 174.035 97.481 173.784 97.7451L172.802 97.0914Z" fill="#B0885D"/>
<path d="M169.632 101.589C170.225 101.716 170.783 101.941 171.305 102.263C171.835 102.596 172.291 103.009 172.672 103.501C173.06 104.004 173.33 104.573 173.48 105.207C173.64 105.842 173.641 106.525 173.484 107.255C173.298 108.122 172.938 108.823 172.403 109.357C171.878 109.893 171.272 110.246 170.587 110.414L170.166 109.307C170.618 109.203 170.995 109.026 171.297 108.776C171.606 108.537 171.848 108.255 172.022 107.929C172.195 107.613 172.317 107.291 172.387 106.962C172.503 106.424 172.496 105.921 172.367 105.455C172.236 104.997 172.019 104.588 171.714 104.226C171.41 103.865 171.045 103.563 170.621 103.319C170.203 103.086 169.766 102.92 169.309 102.823C168.808 102.715 168.306 102.693 167.806 102.758C167.303 102.831 166.841 102.98 166.421 103.205C166 103.43 165.641 103.725 165.343 104.091C165.045 104.456 164.844 104.881 164.74 105.364C164.668 105.702 164.653 106.062 164.695 106.443C164.737 106.824 164.848 107.197 165.028 107.56C165.217 107.925 165.493 108.242 165.855 108.51L165.074 109.417C164.633 109.112 164.289 108.714 164.041 108.221C163.794 107.729 163.639 107.204 163.577 106.647C163.514 106.099 163.536 105.574 163.643 105.072C163.786 104.406 164.059 103.825 164.461 103.329C164.873 102.835 165.36 102.433 165.923 102.124C166.492 101.827 167.098 101.627 167.74 101.526C168.39 101.437 169.02 101.457 169.632 101.589Z" fill="#B0885D"/>
<path d="M162.127 111.981L171.433 115.473L169.938 119.458C169.784 119.869 169.556 120.212 169.253 120.487C168.959 120.765 168.62 120.977 168.237 121.122C167.862 121.271 167.47 121.348 167.059 121.353C166.657 121.362 166.272 121.297 165.905 121.16C165.477 120.999 165.102 120.764 164.78 120.453C164.454 120.152 164.212 119.802 164.052 119.403C163.89 119.013 163.83 118.601 163.872 118.169L159.461 119.086L159.963 117.749L164.102 116.879L165.027 114.415L161.684 113.161L162.127 111.981ZM166.075 114.809L165.018 117.627C164.897 117.95 164.879 118.262 164.965 118.564C165.057 118.878 165.227 119.156 165.475 119.398C165.719 119.649 166.012 119.839 166.353 119.967C166.702 120.098 167.051 120.139 167.398 120.09C167.754 120.044 168.067 119.927 168.337 119.74C168.607 119.552 168.799 119.305 168.914 118.999L169.942 116.259L166.075 114.809Z" fill="#B0885D"/>
<path d="M155.965 126.06C156.313 125.452 156.749 124.97 157.274 124.615C157.8 124.259 158.373 124.017 158.995 123.888C159.62 123.772 160.248 123.765 160.877 123.867C161.515 123.973 162.11 124.184 162.661 124.498C163.236 124.827 163.726 125.241 164.129 125.74C164.535 126.251 164.837 126.805 165.034 127.401C165.234 128.01 165.311 128.629 165.264 129.257C165.224 129.891 165.038 130.499 164.705 131.083C164.358 131.691 163.917 132.17 163.384 132.521C162.85 132.872 162.271 133.105 161.646 133.221C161.021 133.337 160.393 133.344 159.764 133.243C159.134 133.141 158.547 132.935 158.004 132.625C157.429 132.296 156.936 131.88 156.524 131.377C156.121 130.878 155.82 130.324 155.619 129.715C155.422 129.119 155.347 128.507 155.395 127.878C155.442 127.249 155.632 126.643 155.965 126.06ZM162.029 125.605C161.591 125.355 161.127 125.181 160.635 125.083C160.146 124.997 159.67 124.994 159.205 125.073C158.741 125.151 158.312 125.32 157.917 125.578C157.522 125.837 157.198 126.189 156.943 126.634C156.679 127.096 156.541 127.565 156.527 128.041C156.513 128.517 156.597 128.973 156.777 129.409C156.953 129.854 157.207 130.257 157.538 130.618C157.865 130.987 158.235 131.289 158.648 131.525C159.086 131.775 159.549 131.943 160.038 132.029C160.521 132.122 160.998 132.126 161.467 132.039C161.939 131.964 162.368 131.796 162.755 131.533C163.145 131.283 163.465 130.939 163.715 130.501C163.979 130.039 164.118 129.57 164.131 129.095C164.153 128.623 164.076 128.166 163.9 127.721C163.719 127.285 163.466 126.882 163.139 126.513C162.821 126.148 162.451 125.845 162.029 125.605Z" fill="#B0885D"/>
<path d="M151.736 133.138L159.578 139.246L158.804 140.24L151.845 134.82L148.439 139.194L147.555 138.505L151.736 133.138Z" fill="#B0885D"/>
<path d="M145.877 140.463L152.905 147.492L152.014 148.383L145.778 142.146L141.857 146.066L141.065 145.275L145.877 140.463Z" fill="#B0885D"/>
<path d="M133.621 161.854L136.481 159.959L131.61 152.606L132.661 151.91L137.531 159.264L140.391 157.37L141.009 158.303L134.24 162.787L133.621 161.854Z" fill="#B0885D"/>
<path d="M123.286 157.321C123.919 157.022 124.553 156.878 125.187 156.888C125.821 156.898 126.43 157.029 127.013 157.28C127.592 157.543 128.11 157.897 128.567 158.342C129.029 158.795 129.395 159.308 129.666 159.882C129.949 160.481 130.113 161.101 130.157 161.741C130.196 162.393 130.126 163.019 129.945 163.621C129.76 164.235 129.468 164.785 129.069 165.273C128.674 165.769 128.172 166.161 127.564 166.448C126.931 166.747 126.296 166.887 125.657 166.868C125.019 166.85 124.411 166.709 123.832 166.445C123.253 166.182 122.735 165.828 122.278 165.383C121.82 164.939 121.458 164.434 121.191 163.868C120.908 163.269 120.742 162.645 120.694 161.997C120.65 161.357 120.721 160.731 120.906 160.117C121.086 159.516 121.376 158.971 121.776 158.483C122.175 157.995 122.678 157.608 123.286 157.321ZM128.514 160.426C128.299 159.97 128.018 159.561 127.671 159.198C127.32 158.848 126.932 158.572 126.506 158.37C126.081 158.169 125.632 158.061 125.161 158.046C124.69 158.031 124.222 158.133 123.758 158.352C123.276 158.58 122.894 158.884 122.61 159.266C122.326 159.648 122.132 160.069 122.03 160.53C121.919 160.996 121.896 161.471 121.96 161.957C122.016 162.446 122.146 162.907 122.349 163.337C122.564 163.793 122.847 164.196 123.198 164.546C123.541 164.9 123.929 165.176 124.363 165.374C124.793 165.584 125.241 165.692 125.709 165.699C126.172 165.717 126.631 165.619 127.087 165.404C127.568 165.177 127.951 164.872 128.235 164.49C128.523 164.117 128.722 163.698 128.833 163.233C128.935 162.771 128.958 162.296 128.903 161.806C128.851 161.325 128.721 160.865 128.514 160.426Z" fill="#B0885D"/>
<path d="M112.275 172.189L107.277 164.726L105.861 173.591L104.562 173.875L106.378 163.303L107.499 163.058L113.575 171.905L112.275 172.189Z" fill="#B0885D"/>
<path d="M100.155 164.417L101.226 174.299L99.9732 174.435L98.9024 164.552L100.155 164.417Z" fill="#B0885D"/>
<path d="M86.9253 166.167V165.047H93.6733V174.987H87.0513V173.867H92.4133V170.647H87.7513V169.597H92.4133V166.167H86.9253Z" fill="#B0885D"/>
<path d="M78.9436 174.257L77.7714 174.052L77.0709 170.419L75.165 173.596L73.9928 173.391L76.4344 169.427L75.4588 165.092L70.6872 172.87L69.3357 172.633L75.1442 163.558L76.2199 163.747L77.3563 168.707L80.1227 164.429L81.1983 164.618L83.5676 175.123L82.2299 174.889L80.3682 165.95L77.9928 169.699L78.9436 174.257Z" fill="#B0885D"/>
<path d="M58.7317 163.453C58.8263 163.23 58.9694 163.047 59.1611 162.905C59.3406 162.768 59.5486 162.684 59.785 162.652C60.0091 162.625 60.2329 162.659 60.4564 162.754C60.6713 162.845 60.8515 162.982 60.997 163.165C61.1303 163.353 61.2146 163.561 61.25 163.789C61.2817 164.025 61.2504 164.255 61.1558 164.478C61.0613 164.702 60.92 164.88 60.7319 165.014C60.5438 165.147 60.3358 165.231 60.108 165.266C59.8717 165.298 59.646 165.269 59.4311 165.178C59.2076 165.083 59.0293 164.942 58.896 164.754C58.7542 164.562 58.6717 164.35 58.6485 164.117C58.6131 163.889 58.6408 163.668 58.7317 163.453Z" fill="#B0885D"/>
<path d="M42.9367 158.104C42.9573 158.275 43.0115 158.462 43.0994 158.667C43.1873 158.871 43.3023 159.077 43.4446 159.284C43.5816 159.499 43.751 159.708 43.9528 159.91C44.1416 160.115 44.3602 160.3 44.6086 160.466C45.2452 160.891 45.7951 161.084 46.2585 161.045C46.7219 161.007 47.0935 160.778 47.3733 160.359C47.5703 160.064 47.6481 159.779 47.6069 159.505C47.5656 159.23 47.4222 158.932 47.1765 158.611C46.923 158.285 46.5867 157.898 46.1677 157.45C45.6762 156.942 45.2804 156.459 44.9805 156.001C44.6805 155.542 44.519 155.086 44.496 154.633C44.4678 154.188 44.6195 153.717 44.9512 153.22C45.2155 152.824 45.5238 152.531 45.8759 152.34C46.2152 152.151 46.5854 152.05 46.9866 152.037C47.3827 152.032 47.7942 152.105 48.2213 152.256C48.6431 152.414 49.0675 152.635 49.4944 152.92C49.9136 153.2 50.2965 153.518 50.6431 153.873C50.9768 154.23 51.2652 154.613 51.5083 155.022C51.7513 155.432 51.9426 155.868 52.0821 156.331L50.9906 156.882C50.9545 156.667 50.8835 156.429 50.7775 156.167C50.6586 155.908 50.5112 155.642 50.3354 155.367C50.1518 155.088 49.9358 154.814 49.6875 154.548C49.434 154.289 49.152 154.055 48.8415 153.848C48.2515 153.454 47.7236 153.253 47.2576 153.245C46.7865 153.245 46.4136 153.45 46.139 153.862C45.9317 154.172 45.859 154.483 45.9209 154.794C45.9751 155.099 46.1392 155.433 46.4134 155.796C46.6875 156.158 47.0393 156.573 47.4687 157.039C47.9343 157.552 48.3029 158.017 48.5744 158.434C48.8408 158.858 48.9803 159.271 48.993 159.673C48.9979 160.069 48.8552 160.484 48.565 160.919C48.2126 161.446 47.7866 161.807 47.2868 162.001C46.7871 162.195 46.25 162.235 45.6754 162.12C45.1008 162.006 44.5301 161.76 43.9635 161.382C43.5909 161.133 43.2714 160.863 43.0049 160.573C42.7307 160.278 42.5006 159.967 42.3144 159.641C42.1282 159.315 41.9835 158.977 41.8802 158.627L42.9367 158.104Z" fill="#B0885D"/>
<path d="M40.7802 153.212C40.3752 153.663 39.9031 154.036 39.364 154.33C38.8116 154.624 38.2271 154.815 37.6106 154.902C36.9808 154.989 36.3536 154.94 35.7289 154.756C35.0979 154.579 34.5045 154.241 33.9485 153.743C33.2883 153.151 32.859 152.491 32.6606 151.761C32.4559 151.039 32.4507 150.338 32.6451 149.66L33.8151 149.844C33.6807 150.288 33.6471 150.703 33.7145 151.089C33.7686 151.476 33.8935 151.826 34.089 152.139C34.2776 152.446 34.497 152.712 34.7472 152.936C35.1572 153.304 35.5968 153.547 36.066 153.667C36.5283 153.781 36.9917 153.795 37.4564 153.71C37.921 153.625 38.3647 153.459 38.7874 153.211C39.1969 152.964 39.5574 152.667 39.8689 152.32C40.2116 151.937 40.4793 151.513 40.6719 151.046C40.8576 150.574 40.9573 150.099 40.971 149.622C40.9846 149.146 40.9067 148.687 40.7373 148.247C40.5679 147.807 40.299 147.422 39.9307 147.091C39.6735 146.861 39.369 146.669 39.0169 146.517C38.6649 146.364 38.2867 146.276 37.8822 146.251C37.4714 146.234 37.0595 146.316 36.6464 146.497L36.2477 145.369C36.7308 145.138 37.2475 145.037 37.7977 145.066C38.3479 145.096 38.8802 145.222 39.3947 145.445C39.9022 145.662 40.3471 145.942 40.7293 146.284C41.2367 146.739 41.6057 147.264 41.8365 147.86C42.061 148.462 42.1677 149.084 42.1564 149.726C42.132 150.369 42.0042 150.994 41.7729 151.601C41.5285 152.209 41.1976 152.746 40.7802 153.212Z" fill="#B0885D"/>
<path d="M35.3865 141.419L27.7259 147.753L25.0139 144.473C24.7344 144.135 24.5506 143.766 24.4625 143.367C24.3672 142.973 24.352 142.574 24.4169 142.169C24.4747 141.77 24.6034 141.391 24.8032 141.032C24.9957 140.679 25.2431 140.378 25.5452 140.128C25.8976 139.837 26.2886 139.629 26.7181 139.504C27.1417 139.371 27.566 139.335 27.9912 139.396C28.4105 139.449 28.7971 139.601 29.151 139.854L30.5514 135.571L31.4613 136.672L30.1552 140.695L31.8323 142.723L34.5837 140.448L35.3865 141.419ZM30.9691 143.437L29.0511 141.117C28.8311 140.851 28.5688 140.68 28.2644 140.605C27.9468 140.528 27.6211 140.537 27.2874 140.632C26.9476 140.719 26.6375 140.878 26.357 141.11C26.0693 141.348 25.8602 141.63 25.7299 141.956C25.5924 142.287 25.5379 142.617 25.5665 142.944C25.5952 143.272 25.7135 143.562 25.9217 143.813L27.7862 146.068L30.9691 143.437Z" fill="#B0885D"/>
<path d="M26.2976 129.167C26.6536 129.77 26.8559 130.387 26.9044 131.02C26.9529 131.653 26.879 132.271 26.6828 132.875C26.4738 133.475 26.1692 134.024 25.7688 134.52C25.3604 135.022 24.883 135.434 24.3365 135.757C23.766 136.094 23.1642 136.314 22.5312 136.416C21.8855 136.516 21.2549 136.504 20.6395 136.38C20.0113 136.252 19.4359 136.012 18.9133 135.659C18.3826 135.312 17.9464 134.848 17.6046 134.27C17.2485 133.667 17.0503 133.047 17.0098 132.41C16.9694 131.772 17.0536 131.154 17.2626 130.553C17.4716 129.953 17.7763 129.404 18.1767 128.907C18.577 128.411 19.0464 128.003 19.5848 127.685C20.1554 127.348 20.7612 127.126 21.4022 127.018C22.0351 126.915 22.6657 126.928 23.2939 127.055C23.9094 127.18 24.4784 127.418 25.001 127.77C25.5236 128.123 25.9558 128.589 26.2976 129.167ZM23.6885 134.66C24.1225 134.403 24.504 134.086 24.8332 133.707C25.1495 133.325 25.3884 132.913 25.5499 132.471C25.7114 132.028 25.7777 131.572 25.749 131.101C25.7202 130.63 25.5752 130.174 25.3141 129.732C25.0435 129.274 24.705 128.921 24.2985 128.673C23.892 128.426 23.4545 128.272 22.9859 128.213C22.5125 128.146 22.037 128.166 21.5593 128.275C21.0768 128.376 20.6306 128.547 20.2208 128.789C19.7868 129.046 19.4117 129.365 19.0953 129.747C18.7742 130.121 18.5353 130.533 18.3786 130.983C18.209 131.43 18.1427 131.887 18.1795 132.353C18.2036 132.816 18.3438 133.264 18.6001 133.698C18.8707 134.156 19.2092 134.509 19.6157 134.757C20.0142 135.009 20.4501 135.169 20.9234 135.236C21.392 135.295 21.8676 135.275 22.3501 135.174C22.8245 135.078 23.2707 134.906 23.6885 134.66Z" fill="#B0885D"/>
<path d="M22.2385 121.976L13.0409 125.746L12.5631 124.58L20.7244 121.235L18.6221 116.105L19.6584 115.681L22.2385 121.976Z" fill="#B0885D"/>
<path d="M18.8184 113.348L9.22445 115.948L8.89488 114.732L17.4078 112.425L15.9577 107.074L17.0388 106.781L18.8184 113.348Z" fill="#B0885D"/>
<path d="M6.3704 92.2491L6.5952 95.6717L15.3962 95.0936L15.4788 96.3509L6.67778 96.929L6.90258 100.352L5.78499 100.425L5.25281 92.3225L6.3704 92.2491Z" fill="#B0885D"/>
<path d="M15.4431 85.1844C15.3865 85.8821 15.1956 86.5033 14.8704 87.0481C14.5453 87.5929 14.1285 88.0554 13.6201 88.4355C13.1031 88.8056 12.5379 89.0781 11.9244 89.253C11.3016 89.4272 10.6739 89.4886 10.0413 89.4372C9.3808 89.3836 8.7623 89.2164 8.18581 88.9355C7.60076 88.6445 7.09266 88.2708 6.66151 87.8145C6.22181 87.348 5.8901 86.8201 5.66638 86.2308C5.43337 85.6406 5.34404 85.0107 5.39842 84.3409C5.45505 83.6432 5.6506 83.0223 5.98504 82.4782C6.31949 81.9342 6.7452 81.4771 7.26217 81.1071C7.77914 80.737 8.34437 80.4645 8.95787 80.2896C9.57137 80.1146 10.1898 80.0525 10.813 80.1031C11.4735 80.1567 12.0967 80.3243 12.6825 80.606C13.259 80.8869 13.7671 81.2605 14.2068 81.727C14.6379 82.1834 14.9654 82.7062 15.1891 83.2956C15.4128 83.885 15.4975 84.5146 15.4431 85.1844ZM10.1444 88.1674C10.6467 88.2082 11.1415 88.1688 11.6288 88.0491C12.1075 87.9194 12.5404 87.7205 12.9274 87.4522C13.3143 87.184 13.6318 86.8493 13.8797 86.448C14.1277 86.0467 14.2724 85.5903 14.314 85.0786C14.357 84.5484 14.2839 84.0649 14.0946 83.6281C13.9053 83.1914 13.6363 82.8137 13.2876 82.4951C12.9397 82.1672 12.5392 81.91 12.0861 81.7234C11.6338 81.5275 11.1705 81.4103 10.696 81.3718C10.1937 81.331 9.70313 81.3754 9.2244 81.5051C8.74642 81.6255 8.31357 81.8245 7.92585 82.102C7.52957 82.3695 7.21211 82.7043 6.97347 83.1063C6.72628 83.4982 6.5823 83.9454 6.54152 84.4477C6.49847 84.978 6.57159 85.4615 6.76088 85.8982C6.94086 86.3342 7.20482 86.7161 7.55277 87.044C7.90147 87.3626 8.30196 87.6199 8.75426 87.8158C9.19726 88.0109 9.66063 88.1281 10.1444 88.1674Z" fill="#B0885D"/>
<path d="M7.99089 68.3213L16.9519 67.7043L9.97055 62.0608L10.3716 60.7927L18.6333 67.634L18.2872 68.7286L7.58989 69.5894L7.99089 68.3213Z" fill="#B0885D"/>
<path d="M20.8156 61.5263L11.7196 57.5179L12.2277 56.3649L21.3237 60.3733L20.8156 61.5263Z" fill="#B0885D"/>
<path d="M25.427 50.0153L26.3975 50.5743L23.0298 56.4218L14.4162 51.4609L17.7211 45.7226L18.6916 46.2816L16.0156 50.928L18.8059 52.5351L21.1326 48.4952L22.0425 49.0192L19.7158 53.0591L22.688 54.771L25.427 50.0153Z" fill="#B0885D"/>
<path d="M22.53 38.69L23.2916 37.7757L26.7909 38.9777L24.9851 35.7426L25.7467 34.8282L27.9686 38.9201L32.2135 40.233L27.8452 32.2214L28.7233 31.1672L33.6997 40.7238L33.0008 41.5629L28.1337 40.078L30.465 44.6071L29.7661 45.4462L19.4764 42.2686L20.3455 41.2252L29.0237 44.0625L26.9561 40.1356L22.53 38.69Z" fill="#B0885D"/>
<path d="M42.0762 26.3324C42.2232 26.5254 42.3106 26.7404 42.3385 26.9773C42.3681 27.2011 42.338 27.4234 42.2482 27.6444C42.1601 27.8522 42.0195 28.0296 41.8264 28.1767C41.6408 28.318 41.4324 28.4063 41.2012 28.4416C40.9717 28.4638 40.7493 28.4337 40.5341 28.3513C40.3131 28.2614 40.1292 28.12 39.9822 27.9269C39.8352 27.7338 39.7505 27.5226 39.7283 27.2931C39.7061 27.0637 39.7362 26.8413 39.8187 26.626C39.9085 26.4051 40.0463 26.224 40.2319 26.0826C40.425 25.9356 40.6362 25.851 40.8657 25.8288C41.1026 25.8009 41.3277 25.8348 41.5413 25.9303C41.7565 26.0127 41.9348 26.1467 42.0762 26.3324Z" fill="#B0885D"/>
<path d="M54.5255 15.245C54.3669 15.1782 54.177 15.1323 53.9557 15.1072C53.7345 15.0821 53.4987 15.0799 53.2482 15.1007C52.9936 15.1132 52.7286 15.1569 52.4531 15.232C52.1817 15.2946 51.9125 15.3926 51.6453 15.5261C50.9607 15.8682 50.5203 16.25 50.324 16.6715C50.1277 17.093 50.1422 17.5292 50.3675 17.9801C50.526 18.2973 50.7347 18.5061 50.9934 18.6063C51.2522 18.7066 51.5819 18.7296 51.9826 18.6754C52.3917 18.6171 52.8947 18.5171 53.4916 18.3753C54.1762 18.2001 54.7919 18.0959 55.3387 18.0627C55.8855 18.0294 56.3613 18.1151 56.7661 18.3197C57.1668 18.516 57.5006 18.8813 57.7676 19.4157C57.9804 19.8415 58.0825 20.2547 58.0741 20.6554C58.0698 21.0436 57.9737 21.4151 57.7858 21.7698C57.5937 22.1162 57.3265 22.4375 56.9842 22.7338C56.6377 23.0217 56.2348 23.2804 55.7756 23.5099C55.3248 23.7351 54.8593 23.9103 54.3793 24.0354C53.9034 24.148 53.4276 24.2084 52.9517 24.2167C52.4759 24.2249 52.0022 24.1747 51.5305 24.066L51.5934 22.8452C51.7979 22.9203 52.04 22.9768 52.3197 23.0144C52.6035 23.0395 52.9082 23.0438 53.2338 23.0271C53.5677 23.0063 53.9121 22.9543 54.2669 22.8709C54.6175 22.7791 54.9598 22.6498 55.2938 22.4829C55.9283 22.1659 56.3646 21.807 56.6026 21.4064C56.8364 20.9974 56.8428 20.5716 56.6217 20.1291C56.4548 19.7952 56.2211 19.5781 55.9206 19.4778C55.6285 19.3734 55.257 19.3503 54.8062 19.4087C54.3554 19.467 53.8211 19.567 53.2033 19.7088C52.5271 19.8589 51.9406 19.9485 51.4439 19.9776C50.943 19.9983 50.5152 19.9148 50.1604 19.7268C49.814 19.5347 49.524 19.2049 49.2904 18.7374C49.0067 18.1696 48.9046 17.6207 48.984 17.0907C49.0635 16.5606 49.2952 16.0744 49.6794 15.632C50.0635 15.1897 50.5603 14.8162 51.1697 14.5117C51.5705 14.3114 51.9629 14.1675 52.3469 14.08C52.7393 13.9882 53.1233 13.9424 53.499 13.9425C53.8746 13.9426 54.2398 13.9844 54.5946 14.068L54.5255 15.245Z" fill="#B0885D"/>
<path d="M60.023 15.6996C59.8336 15.1233 59.746 14.5282 59.7604 13.9143C59.7807 13.2887 59.9072 12.6871 60.1398 12.1096C60.3783 11.5203 60.7332 11.0009 61.2044 10.5512C61.6726 10.0928 62.2614 9.74693 62.9707 9.51377C63.8131 9.23688 64.5998 9.19441 65.331 9.38635C66.0592 9.56942 66.6687 9.91433 67.1595 10.4211L66.4163 11.3433C66.099 11.0055 65.7561 10.7694 65.3878 10.6351C65.0253 10.4889 64.6596 10.4225 64.2906 10.4357C63.9305 10.446 63.5908 10.5036 63.2716 10.6085C62.7485 10.7805 62.318 11.0399 61.9801 11.3868C61.651 11.7307 61.4074 12.1252 61.2491 12.5702C61.0908 13.0153 61.0136 13.4827 61.0175 13.9727C61.0273 14.4509 61.1051 14.9116 61.2508 15.355C61.4111 15.8426 61.6454 16.2863 61.9536 16.6861C62.2707 17.0829 62.6324 17.4061 63.0387 17.6557C63.4449 17.9053 63.8811 18.0665 64.3471 18.1393C64.8131 18.2121 65.2811 18.1712 65.751 18.0168C66.0791 17.9089 66.3971 17.7405 66.705 17.5116C67.0129 17.2827 67.2783 16.999 67.501 16.6605C67.7209 16.3131 67.8553 15.9152 67.9044 15.4668L69.0812 15.6842C69.0406 16.2182 68.8703 16.7163 68.5703 17.1785C68.2702 17.6406 67.8952 18.039 67.4452 18.3736C67.004 18.7052 66.5396 18.9512 66.052 19.1115C65.4047 19.3243 64.7655 19.3821 64.1343 19.2851C63.5001 19.1791 62.9078 18.9612 62.3572 18.6313C61.8126 18.2896 61.3348 17.867 60.9237 17.3636C60.5185 16.8483 60.2183 16.2937 60.023 15.6996Z" fill="#B0885D"/>
<path d="M72.5272 16.9716L70.8519 7.17378L75.0471 6.45649C75.4795 6.38255 75.8908 6.40691 76.281 6.52956C76.6697 6.64301 77.0234 6.82872 77.3421 7.0867C77.6592 7.33548 77.9237 7.63588 78.1353 7.9879C78.3455 8.33073 78.4836 8.69534 78.5496 9.08173C78.6267 9.53252 78.6124 9.97526 78.5069 10.4099C78.4105 10.843 78.2303 11.2289 77.9662 11.5676C77.7114 11.9047 77.3864 12.1639 76.9913 12.345L80.0067 15.6927L78.5991 15.9334L75.7619 12.7967L73.1675 13.2403L73.7692 16.7592L72.5272 16.9716ZM72.9787 12.1363L75.9457 11.629C76.2861 11.5708 76.5647 11.4285 76.7817 11.202C77.0062 10.9648 77.1608 10.678 77.2453 10.3416C77.339 10.0036 77.3552 9.65524 77.2938 9.29645C77.2309 8.92845 77.0907 8.60682 76.8732 8.33154C76.6541 8.04706 76.3955 7.83563 76.0972 7.69725C75.7989 7.55887 75.4888 7.51721 75.1668 7.57226L72.2827 8.0654L72.9787 12.1363Z" fill="#B0885D"/>
<path d="M88.0319 15.1355C87.332 15.1436 86.6957 15.0109 86.1232 14.7375C85.5506 14.4642 85.0516 14.0919 84.6261 13.6208C84.2099 13.1403 83.8863 12.6026 83.6554 12.0079C83.4244 11.4039 83.3052 10.7846 83.2979 10.15C83.2902 9.48734 83.3995 8.85603 83.6259 8.25603C83.8616 7.6466 84.1867 7.10613 84.6012 6.63463C85.025 6.15369 85.52 5.7746 86.0862 5.49736C86.6522 5.21078 87.2712 5.0636 87.9432 5.05582C88.6431 5.04772 89.2794 5.18502 89.8521 5.46775C90.4247 5.75047 90.9192 6.1321 91.3354 6.61264C91.7517 7.09319 92.0753 7.63081 92.3062 8.22551C92.5371 8.82021 92.6561 9.43021 92.6634 10.0555C92.6711 10.7181 92.5618 11.3541 92.3355 11.9634C92.1091 12.5634 91.784 13.1039 91.3602 13.5848C90.9456 14.0563 90.4552 14.4307 89.8891 14.7079C89.3229 14.9852 88.7039 15.1277 88.0319 15.1355ZM84.5718 10.1352C84.5776 10.6392 84.6626 11.1282 84.8268 11.6024C85.0002 12.067 85.2383 12.4796 85.5412 12.8402C85.844 13.2007 86.2067 13.4858 86.6291 13.6956C87.0516 13.9054 87.5195 14.0073 88.0328 14.0014C88.5647 13.9952 89.0394 13.8777 89.4568 13.6489C89.8742 13.42 90.2253 13.1173 90.5103 12.7406C90.8047 12.3638 91.0238 11.9413 91.1677 11.4729C91.321 11.0044 91.3948 10.5322 91.3893 10.0563C91.3835 9.55229 91.2939 9.06796 91.1205 8.60327C90.9564 8.13847 90.7183 7.72587 90.4061 7.36546C90.1031 6.99561 89.7405 6.71045 89.3181 6.51C88.905 6.3001 88.4464 6.19807 87.9425 6.20391C87.4105 6.21007 86.9358 6.32757 86.5185 6.55642C86.101 6.77594 85.7451 7.07408 85.4507 7.45085C85.1658 7.8275 84.9466 8.25007 84.7934 8.71854C84.64 9.17768 84.5661 9.6499 84.5718 10.1352Z" fill="#B0885D"/>
<path d="M96.6232 15.2172L97.9594 5.3674L99.208 5.53678L98.0223 14.2767L103.516 15.022L103.365 16.1318L96.6232 15.2172Z" fill="#B0885D"/>
<path d="M105.403 16.4659L107.93 6.85253L109.149 7.17286L106.906 15.7031L112.268 17.1125L111.983 18.1957L105.403 16.4659Z" fill="#B0885D"/>
<path d="M130.235 16.3013L127.161 14.7796L123.248 22.6839L122.118 22.1249L126.032 14.2205L122.958 12.6987L123.455 11.695L130.732 15.2976L130.235 16.3013Z" fill="#B0885D"/>
<path d="M131.499 27.4779C130.923 27.0807 130.479 26.6054 130.169 26.0518C129.859 25.4982 129.667 24.9062 129.591 24.276C129.528 23.6433 129.574 23.0175 129.728 22.3985C129.888 21.7719 130.148 21.1972 130.508 20.6746C130.884 20.1289 131.337 19.6763 131.868 19.3168C132.413 18.955 132.99 18.701 133.6 18.555C134.224 18.4066 134.847 18.3825 135.469 18.4827C136.097 18.5751 136.688 18.812 137.241 19.1932C137.817 19.5904 138.258 20.0696 138.563 20.6309C138.867 21.1922 139.051 21.7891 139.114 22.4218C139.177 23.0544 139.131 23.6802 138.976 24.2992C138.822 24.9182 138.567 25.4851 138.213 26.0001C137.837 26.5458 137.38 27.0022 136.844 27.3694C136.313 27.7289 135.736 27.9828 135.112 28.1312C134.502 28.2772 133.885 28.3001 133.263 28.2C132.64 28.0999 132.052 27.8592 131.499 27.4779ZM131.557 21.3974C131.271 21.8125 131.058 22.261 130.919 22.743C130.793 23.2226 130.749 23.697 130.789 24.1662C130.828 24.6354 130.96 25.0775 131.184 25.4926C131.408 25.9076 131.731 26.2608 132.154 26.552C132.592 26.8539 133.047 27.0317 133.52 27.0855C133.993 27.1394 134.455 27.0947 134.905 26.9514C135.363 26.8134 135.785 26.5946 136.173 26.2951C136.569 26.0008 136.901 25.6577 137.171 25.2657C137.457 24.8507 137.664 24.4034 137.79 23.9238C137.924 23.4495 137.968 22.9751 137.921 22.5006C137.886 22.0237 137.755 21.5816 137.525 21.1742C137.309 20.7644 136.993 20.4166 136.578 20.1306C136.14 19.8288 135.685 19.651 135.212 19.5971C134.744 19.5356 134.281 19.5738 133.824 19.7118C133.373 19.8551 132.951 20.0738 132.555 20.3681C132.165 20.6547 131.832 20.9978 131.557 21.3974Z" fill="#B0885D"/>
<path d="M150.121 29.6781L146.181 37.7505L154.557 34.519L155.455 35.4995L145.403 39.2425L144.627 38.3961L149.222 28.6976L150.121 29.6781Z" fill="#B0885D"/>
<path d="M149.501 44.049L157.496 38.1432L158.245 39.1567L150.25 45.0625L149.501 44.049Z" fill="#B0885D"/>
<path d="M157.179 53.7126L156.213 54.2788L152.802 48.4562L161.379 43.432L164.726 49.1459L163.76 49.712L161.049 45.0853L158.271 46.7129L160.627 50.7355L159.721 51.2662L157.365 47.2436L154.405 48.9773L157.179 53.7126Z" fill="#B0885D"/>
<path d="M168.545 57.0421L168.959 58.1579L166.175 60.5944L169.879 60.6387L170.293 61.7544L165.638 61.6444L162.387 64.6724L171.51 64.872L171.987 66.1584L161.221 65.717L160.841 64.6932L164.552 61.2112L159.463 60.9785L159.084 59.9547L166.962 52.6123L167.434 53.8856L160.653 59.9996L165.088 60.1612L168.545 57.0421Z" fill="#B0885D"/>
<path d="M169.434 79.7799C169.193 79.8116 168.963 79.7807 168.744 79.6872C168.535 79.6018 168.357 79.4652 168.21 79.2774C168.073 79.0978 167.989 78.8876 167.957 78.647C167.927 78.4157 167.954 78.1909 168.038 77.9727C168.133 77.7626 168.269 77.5845 168.448 77.4386C168.635 77.2915 168.85 77.2021 169.09 77.1704C169.331 77.1387 169.556 77.1702 169.766 77.2649C169.977 77.3596 170.155 77.4962 170.3 77.6746C170.448 77.8624 170.536 78.0719 170.567 78.3032C170.599 78.5438 170.567 78.7692 170.472 78.9794C170.379 79.1988 170.238 79.3774 170.049 79.5153C169.87 79.6612 169.665 79.7494 169.434 79.7799Z" fill="#B0885D"/>
</g>
<defs>
<clipPath id="clip0_1258_684">
<rect width="180" height="180" fill="white"/>
</clipPath>
</defs>
</svg>
