<svg width="25" height="24" viewBox="0 0 25 24" fill="none" xmlns="http://www.w3.org/2000/svg">
<path d="M15.4999 7.49912L7.69054 15.4397C7.432 15.7251 7.29309 16.0989 7.30257 16.4838C7.31205 16.8688 7.46919 17.2353 7.74146 17.5076C8.01372 17.7799 8.38027 17.937 8.7652 17.9465C9.15012 17.9559 9.52396 17.817 9.80929 17.5585L19.1187 8.11787C19.6357 7.5472 19.9136 6.79953 19.8946 6.02968C19.8757 5.25982 19.5614 4.52673 19.0168 3.9822C18.4723 3.43766 17.7392 3.12338 16.9694 3.10443C16.1995 3.08547 15.4518 3.36329 14.8812 3.88037L5.57179 13.321C4.7289 14.1639 4.25537 15.3071 4.25537 16.4991C4.25537 17.6911 4.7289 18.8344 5.57179 19.6772C6.41468 20.5201 7.55789 20.9937 8.74992 20.9937C9.94195 20.9937 11.0852 20.5201 11.928 19.6772L19.6249 11.9991" stroke="white" stroke-width="1.5" stroke-linecap="round" stroke-linejoin="round"/>
</svg>
