<svg width="132" height="52" viewBox="0 0 132 52" fill="none" xmlns="http://www.w3.org/2000/svg">
<path d="M26 0C11.6484 0 0 11.649 0 26C0 40.3513 11.6487 52 26 52C40.3513 52 52 40.351 52 26C52 11.6487 40.351 0 26 0ZM26.5402 22.3243C28.378 22.595 29.7293 24.1622 29.7293 26.0003C29.7293 27.8381 28.378 29.4055 26.5402 29.6762V22.3243ZM6.91873 31.8381C5.24306 31.8652 3.59447 32.2437 2.05392 32.9195C1.40494 30.6758 1.08085 28.3246 1.08085 26.0003C1.08085 22.3787 1.86466 18.8111 3.37841 15.5407C3.99979 17.2705 5.10796 18.8111 6.54022 19.9463C7.59425 20.9189 8.51342 21.7836 8.51342 22.8111C8.51342 24.8648 9.99985 25.7842 11.216 26.5139C12.1623 27.1084 12.7566 27.4867 12.7566 28.1086C12.7566 29.8923 10.9188 31.8116 6.91873 31.8116V31.8384V31.8381ZM16.4591 18.0543C14.6483 18.0543 13.8104 16.1355 13.8104 14.3513C13.8104 12.5137 14.7566 8.51368 17.5134 8.51368C17.6482 8.51368 17.7563 8.48635 17.8916 8.48635C19.7563 8.48635 21.27 10.0001 21.27 11.8648C21.27 11.9999 21.27 12.1082 21.2427 12.243C21.2427 13.2702 20.6752 13.6216 19.648 14.135C19.1344 14.3511 18.6481 14.6754 18.2157 15.0539C17.7833 15.5675 17.5131 16.2162 17.4858 16.9186C17.351 17.8377 17.2697 18.108 16.4859 18.108L16.4589 18.0538L16.4591 18.0543ZM23.2971 45.9466C22.8374 44.9194 22.405 43.8653 22.0536 42.7842C21.6212 41.2163 20.9454 39.7299 20.0265 38.3789C18.8106 37.0273 18.1077 35.271 18.0536 33.4329C18.0536 31.8381 18.7293 29.703 21.9456 28.6219C23.5671 27.9191 24.8374 26.5948 25.4859 24.9462V48.3787C24.5669 47.7297 23.8373 46.892 23.2969 45.9192V45.9466H23.2971ZM26.5402 50.9465V44.5682C36.5944 44.298 44.5945 36.0548 44.5945 26.0279C44.5945 21.6222 43.0271 17.3788 40.1894 14.0275C40.0814 13.9194 39.9457 13.8382 39.7838 13.8382C39.4865 13.8382 39.2434 14.0816 39.2434 14.3787C39.2434 14.5138 39.2976 14.6221 39.3785 14.7301C42.0541 17.8922 43.5407 21.9193 43.5407 26.0544C43.5407 35.5141 36.0272 43.2708 26.5678 43.5681V37.1895C28.7841 37.0815 30.946 36.3247 32.7297 34.9731C32.8648 34.8651 32.9461 34.7027 32.9461 34.5408C32.9461 34.2435 32.7029 34.0003 32.4056 34.0003C32.2976 34.0003 32.1893 34.0277 32.0815 34.1084C30.4868 35.3246 28.5675 36.0272 26.568 36.1084V30.757C28.9734 30.4868 30.8112 28.4597 30.8112 26.0276C30.8112 23.5947 28.9734 21.5678 26.568 21.2974V15.946C31.9194 16.2165 36.1084 20.6489 36.1084 26.0276C36.1084 27.7842 35.6489 29.5411 34.7568 31.054C34.7027 31.1355 34.6759 31.2162 34.6759 31.3248C34.6759 31.6218 34.919 31.8649 35.2163 31.8649C35.4055 31.8649 35.5675 31.7572 35.6758 31.5947C36.6486 29.8917 37.1622 27.9729 37.1622 26.0273C37.1622 20.0812 32.4863 15.1893 26.5404 14.9191V8.5405C29.6215 8.62172 32.6485 9.54038 35.2702 11.1892C35.3514 11.2434 35.4597 11.2705 35.5406 11.2705C35.8382 11.2705 36.081 11.0271 36.081 10.7303C36.081 10.5408 35.9998 10.3789 35.8379 10.2706C33.0538 8.54076 29.8376 7.56797 26.5402 7.48675V1.10843C40.1079 1.37864 50.9457 12.4598 50.9457 26.0276C50.9457 39.5951 40.1079 50.676 26.5402 50.9462V50.9465Z" fill="#B0885D"/>
<path d="M77.88 16.7151H75.2055V10.2614H69.532V16.7151H66.8571V1.85802H69.532V7.9658H75.2055V1.85802H77.88V16.7151ZM81.1496 16.7151V1.85802H89.2117V4.15416H83.8245V16.7155H81.1496V16.7151ZM102.524 16.7151H99.5289L96.3968 9.15077L93.5214 12.9588V16.7151H90.8465V1.85802H93.5214V9.66339C93.8635 9.13234 94.1087 8.76492 94.2607 8.56381L99.1948 1.85773H101.903L98.377 6.74307L102.524 16.7149V16.7151Z" fill="white"/>
<path d="M71.7309 30.6935H70.8711V27.4477H67.7172V30.6935H66.8574V23.8639H67.7172V26.7001H70.8711V23.8639H71.7309V30.6935ZM77.3168 30.6935H76.5386C76.5076 30.5331 76.477 30.2294 76.4463 29.784C76.0994 30.4855 75.5092 30.8372 74.6747 30.8372C74.1079 30.8372 73.673 30.6869 73.3689 30.3867C73.0652 30.0863 72.9135 29.7245 72.9135 29.3044C72.9135 28.7924 73.13 28.3726 73.5635 28.0433C73.997 27.7154 74.7342 27.55 75.7751 27.55C75.915 27.55 76.139 27.5569 76.446 27.5705C76.446 27.1713 76.4151 26.8809 76.3535 26.7036C76.2919 26.5263 76.1607 26.3829 75.9611 26.2773C75.7615 26.1693 75.4988 26.117 75.1727 26.117C74.3757 26.117 73.9131 26.4207 73.7837 27.0282L73.0565 26.9035C73.2324 25.9703 73.9764 25.5026 75.2855 25.5026C75.9816 25.5026 76.4749 25.6561 76.7667 25.9652C77.0586 26.274 77.2035 26.8083 77.2035 27.5676V29.7141C77.2035 30.0711 77.241 30.3969 77.3165 30.6938L77.3168 30.6935ZM76.4466 28.1745C76.1256 28.154 75.8832 28.1439 75.716 28.1439C75.0951 28.1439 74.6137 28.2465 74.2689 28.4494C73.9259 28.6541 73.7536 28.951 73.7536 29.3416C73.7536 29.5876 73.8458 29.7992 74.0315 29.9714C74.2159 30.1455 74.484 30.2324 74.832 30.2324C75.3066 30.2324 75.6954 30.0601 75.9995 29.7171C76.305 29.3723 76.4567 28.9694 76.4567 28.5053C76.4567 28.4113 76.4532 28.3006 76.4466 28.1742V28.1745ZM78.7386 30.6935V25.6457H79.5169V30.0794H81.7473V25.6457H82.5256V30.0794H83.2747V31.8508H82.7014L82.5988 30.6938H78.7386V30.6935ZM84.7967 30.2121V30.6935H84.0184V25.6457H84.7967V28.2905C84.7967 28.6591 84.7863 29.045 84.7661 29.446C84.983 29.1081 85.2028 28.7978 85.4248 28.5107L87.1928 26.1883V25.6457H87.9711V30.6935H87.1928V28.1489C87.1928 27.678 87.203 27.2906 87.2235 26.9883C87.1057 27.1898 86.884 27.5021 86.5562 27.9273L84.7967 30.2121ZM91.3142 30.8369C90.6213 30.8369 90.0801 30.5792 89.6913 30.0654C89.3042 29.5516 89.1091 28.9135 89.1091 28.1522C89.1091 27.3468 89.3277 26.7033 89.7645 26.224C90.2012 25.7427 90.7441 25.502 91.3942 25.502C92.0921 25.502 92.6399 25.7546 93.0427 26.2615C93.4434 26.7667 93.6451 27.398 93.6451 28.1575C93.6451 28.9441 93.4286 29.5891 92.9951 30.0878C92.5616 30.5876 92.0017 30.8369 91.3142 30.8369ZM91.3757 30.1916C91.775 30.1916 92.1094 30.0265 92.3807 29.695C92.6506 29.3639 92.7854 28.8486 92.7854 28.1489C92.7854 27.4477 92.6437 26.9372 92.3602 26.6215C92.077 26.3059 91.7444 26.147 91.3653 26.147C90.9747 26.147 90.6454 26.3074 90.3741 26.6266C90.1042 26.9458 89.9695 27.4527 89.9695 28.1439C89.9695 28.8778 90.1042 29.4014 90.3741 29.7174C90.6454 30.033 90.9783 30.1916 91.3757 30.1916ZM94.787 30.6935V25.6457H95.5652V27.7342H97.992V25.6457H98.7703V30.6935H97.992V28.3488H95.5652V30.6935H94.787ZM104.26 30.6935H103.482C103.451 30.5331 103.42 30.2294 103.39 29.784C103.043 30.4855 102.453 30.8372 101.618 30.8372C101.052 30.8372 100.616 30.6869 100.313 30.3867C100.008 30.0863 99.8568 29.7245 99.8568 29.3044C99.8568 28.7924 100.074 28.3726 100.507 28.0433C100.94 27.7154 101.677 27.55 102.719 27.55C102.859 27.55 103.082 27.5569 103.389 27.5705C103.389 27.1713 103.358 26.8809 103.297 26.7036C103.236 26.5263 103.104 26.3829 102.905 26.2773C102.705 26.1693 102.442 26.117 102.116 26.117C101.319 26.117 100.857 26.4207 100.727 27.0282L100 26.9035C100.176 25.9703 100.92 25.5026 102.229 25.5026C102.925 25.5026 103.418 25.6561 103.71 25.9652C104.002 26.274 104.147 26.8083 104.147 27.5676V29.7141C104.147 30.0711 104.185 30.3969 104.26 30.6938L104.26 30.6935ZM103.39 28.1745C103.069 28.154 102.827 28.1439 102.66 28.1439C102.038 28.1439 101.557 28.2465 101.212 28.4494C100.869 28.6541 100.697 28.951 100.697 29.3416C100.697 29.5876 100.789 29.7992 100.975 29.9714C101.159 30.1455 101.427 30.2324 101.776 30.2324C102.25 30.2324 102.639 30.0601 102.943 29.7171C103.248 29.3723 103.4 28.9694 103.4 28.5053C103.4 28.4113 103.397 28.3006 103.39 28.1742V28.1745ZM105.057 30.6935L106.707 25.6457H107.668L109.296 30.6935H108.482L107.214 26.5977H107.059L105.789 30.6935H105.057H105.057ZM110.182 30.6935V25.6457H110.961V27.5911H112.466C112.991 27.5911 113.386 27.7464 113.648 28.0588C113.911 28.3694 114.042 28.7582 114.042 29.2241C114.042 29.6849 113.901 30.0434 113.618 30.3046C113.333 30.5641 112.95 30.6935 112.471 30.6935H110.182ZM110.961 30.0794H112.293C112.886 30.0794 113.182 29.789 113.182 29.2107C113.182 28.5401 112.885 28.2057 112.293 28.2057H110.961V30.0794ZM114.963 30.6935V25.6457H115.741V27.7342H118.167V25.6457H118.946V30.6935H118.167V28.3488H115.741V30.6935H114.963ZM120.514 30.6935V25.6457H121.292V27.5911H122.797C123.323 27.5911 123.717 27.7464 123.98 28.0588C124.243 28.3694 124.374 28.7582 124.374 29.2241C124.374 29.6849 124.233 30.0434 123.949 30.3046C123.664 30.5641 123.282 30.6935 122.802 30.6935H120.514ZM121.292 30.0794H122.625C123.218 30.0794 123.514 29.789 123.514 29.2107C123.514 28.5401 123.217 28.2057 122.625 28.2057H121.292V30.0794ZM125.081 30.6935V25.6457H125.859V30.6935H125.081ZM128.206 30.2121V30.6935H127.427V25.6457H128.206V28.2905C128.206 28.6591 128.195 29.045 128.175 29.446C128.392 29.1081 128.612 28.7978 128.834 28.5107L130.602 26.1883V25.6457H131.38V30.6935H130.602V28.1489C130.602 27.678 130.612 27.2906 130.632 26.9883C130.514 27.1898 130.293 27.5021 129.965 27.9273L128.206 30.2121ZM127.888 23.5667H128.462C128.545 24.0171 128.845 24.2427 129.362 24.2427C129.904 24.2427 130.218 24.0171 130.304 23.5667H130.878C130.735 24.4203 130.259 24.8469 129.448 24.8469C128.532 24.8469 128.011 24.4203 127.888 23.5667ZM66.8574 40.7911V33.9613H70.3594V34.7089H67.7175V40.7911H66.8577H66.8574ZM71.9772 40.9345C71.2843 40.9345 70.7431 40.6769 70.3543 40.1631C69.9669 39.6493 69.7721 39.0111 69.7721 38.2501C69.7721 37.4442 69.9905 36.801 70.4272 36.3217C70.8642 35.8403 71.4069 35.5996 72.0572 35.5996C72.7552 35.5996 73.3032 35.8522 73.7057 36.3592C74.1065 36.864 74.3082 37.4956 74.3082 38.2549C74.3082 39.0418 74.0913 39.6871 73.6581 40.1854C73.2246 40.6852 72.6647 40.9345 71.9772 40.9345ZM72.0385 40.2895C72.4377 40.2895 72.7724 40.1241 73.0438 39.7927C73.3136 39.4616 73.4481 38.9463 73.4481 38.2463C73.4481 37.5453 73.3067 37.0348 73.0232 36.7192C72.7403 36.4035 72.4074 36.2449 72.0284 36.2449C71.6378 36.2449 71.3081 36.405 71.0368 36.7242C70.767 37.0431 70.6325 37.5504 70.6325 38.2415C70.6325 38.9754 70.767 39.4993 71.0368 39.815C71.3081 40.1309 71.641 40.2895 72.0385 40.2895ZM76.2693 42.5012H75.491V35.743H76.1976V36.7162C76.5543 35.9718 77.0848 35.5999 77.7896 35.5999C78.3852 35.5999 78.8666 35.8492 79.2316 36.3491C79.5984 36.8474 79.7814 37.4805 79.7814 38.2451C79.7814 39.0695 79.5936 39.7249 79.2161 40.2077C78.8392 40.6923 78.3563 40.9348 77.7655 40.9348C77.1309 40.9348 76.6326 40.6343 76.269 40.0337V42.5015L76.2693 42.5012ZM76.2693 37.5316V38.9686C76.3187 39.3506 76.4809 39.6662 76.7537 39.9153C77.0289 40.1646 77.3136 40.2892 77.6105 40.2892C77.9535 40.2892 78.2572 40.1393 78.5232 39.8388C78.788 39.538 78.921 39.018 78.921 38.2805C78.921 37.6423 78.8014 37.149 78.5607 36.8042C78.32 36.4576 78.0008 36.2854 77.6048 36.2854C77.2909 36.2854 77.0095 36.4068 76.7617 36.6489C76.5127 36.8914 76.349 37.1851 76.2687 37.5314L76.2693 37.5316ZM80.9196 40.7911V35.743H81.6979V37.8318H84.1247V35.743H84.9029V40.7911H84.1247V38.4465H81.6979V40.7911H80.9196ZM86.4711 40.7911V35.743H87.2494V37.6887H88.7544C89.2801 37.6887 89.6743 37.8437 89.9373 38.1561C90.2 38.4667 90.3312 38.8561 90.3312 39.3217C90.3312 39.7826 90.1899 40.1411 89.9064 40.4023C89.6214 40.6617 89.2391 40.7911 88.7598 40.7911H86.4711ZM87.2494 40.1771H88.5822C89.1745 40.1771 89.4711 39.8867 89.4711 39.3087C89.4711 38.6378 89.1742 38.3034 88.5822 38.3034H87.2494V40.1771ZM91.0381 40.7911V35.743H91.8164V40.7911H91.0381ZM94.1628 40.3097V40.7911H93.3845V35.743H94.1628V38.3885C94.1628 38.7568 94.1524 39.1426 94.1322 39.5437C94.3487 39.2054 94.5686 38.8951 94.7905 38.6083L96.5586 36.286V35.743H97.3369V40.7911H96.5586V38.2463C96.5586 37.7756 96.5687 37.3883 96.5892 37.0863C96.4714 37.2874 96.2498 37.5998 95.9222 38.0249L94.1628 40.3097ZM93.845 33.6647H94.4186C94.5025 34.1151 94.8027 34.3403 95.3198 34.3403C95.8607 34.3403 96.1748 34.1151 96.2617 33.6647H96.8353C96.6919 34.5179 96.2159 34.9442 95.4052 34.9442C94.4889 34.9442 93.9682 34.5179 93.845 33.6647ZM72.2435 50.8887H71.3081L69.2741 47.1152L67.7172 49.0659V50.8887H66.8574V44.0589H67.7172V48.0166L70.7958 44.0589H71.7139L69.8607 46.4464L72.2432 50.8887H72.2435ZM74.8814 51.0322C74.1888 51.0322 73.6477 50.7742 73.2588 50.2604C72.8715 49.7469 72.6766 49.1085 72.6766 48.3475C72.6766 47.5421 72.895 46.8986 73.3317 46.419C73.7688 45.9377 74.3114 45.6973 74.9615 45.6973C75.6597 45.6973 76.2077 45.9496 76.6103 46.4565C77.011 46.9614 77.2127 47.593 77.2127 48.3525C77.2127 49.1391 76.9958 49.7844 76.5623 50.2827C76.1292 50.7825 75.5693 51.0322 74.8814 51.0322ZM74.943 50.3869C75.3423 50.3869 75.677 50.2215 75.9483 49.89C76.2181 49.5592 76.3526 49.0436 76.3526 48.3439C76.3526 47.6427 76.211 47.1324 75.9278 46.8165C75.6445 46.5008 75.312 46.3423 74.9326 46.3423C74.542 46.3423 74.2127 46.5023 73.9413 46.8215C73.6715 47.1411 73.537 47.6477 73.537 48.3388C73.537 49.0728 73.6715 49.5967 73.9413 49.9124C74.2127 50.2283 74.5456 50.3869 74.943 50.3869ZM78.3545 50.8887V45.841H79.1328V47.9292H81.5593V45.841H82.3375V50.8887H81.5593V48.5438H79.1328V50.8887H78.3545ZM86.865 49.1171L87.5716 49.2418C87.4707 49.8017 87.2491 50.2402 86.906 50.5576C86.5612 50.8736 86.1328 51.0322 85.6193 51.0322C84.9211 51.0322 84.3889 50.7739 84.0238 50.2604C83.6585 49.7469 83.4758 49.1186 83.4758 48.3763C83.4758 47.6088 83.6686 46.9703 84.0544 46.4619C84.44 45.9513 84.9639 45.6973 85.6297 45.6973C86.1795 45.6973 86.6213 45.8609 86.9542 46.1903C87.2854 46.5202 87.4918 46.9447 87.5719 47.4669L86.8653 47.6019C86.7323 46.7618 86.3295 46.3423 85.6553 46.3423C85.2219 46.3423 84.8892 46.5264 84.6554 46.8968C84.4219 47.2669 84.3053 47.7453 84.3053 48.3338C84.3053 48.9841 84.4216 49.4872 84.6536 49.8475C84.8839 50.2078 85.21 50.3869 85.6297 50.3869C86.2798 50.3869 86.6912 49.9638 86.8653 49.1171H86.865ZM92.6571 50.8887H91.8788C91.8479 50.7284 91.8173 50.4243 91.7866 49.979C91.44 50.6805 90.8498 51.0324 90.015 51.0324C89.4485 51.0324 89.0133 50.8822 88.7095 50.5817C88.4055 50.2816 88.2537 49.9195 88.2537 49.4997C88.2537 48.9874 88.4706 48.5679 88.9038 48.2383C89.3372 47.9104 90.0745 47.7453 91.1154 47.7453C91.2553 47.7453 91.4793 47.7519 91.7863 47.7655C91.7863 47.3663 91.7554 47.0762 91.6941 46.8989C91.6325 46.7216 91.5013 46.5779 91.3017 46.4723C91.1021 46.3646 90.8391 46.3119 90.513 46.3119C89.716 46.3119 89.2534 46.6157 89.1239 47.2232L88.3971 47.0985C88.5727 46.1656 89.3167 45.6979 90.6257 45.6979C91.3222 45.6979 91.8152 45.8514 92.107 46.1602C92.3989 46.4693 92.5441 47.0036 92.5441 47.7626V49.9094C92.5441 50.2658 92.5816 50.5919 92.6568 50.8891L92.6571 50.8887ZM91.7869 48.3695C91.4659 48.3492 91.2237 48.3388 91.0563 48.3388C90.4354 48.3388 89.954 48.4415 89.6095 48.6447C89.2662 48.8494 89.0939 49.1463 89.0939 49.5369C89.0939 49.7826 89.1861 49.9942 89.3721 50.1664C89.5562 50.3405 89.8243 50.4276 90.1727 50.4276C90.6469 50.4276 91.0357 50.2554 91.3398 49.912C91.645 49.5672 91.797 49.1647 91.797 48.7003C91.797 48.6066 91.7938 48.4959 91.7869 48.3692V48.3695ZM93.4541 50.8887L95.1044 45.841H96.065L97.6933 50.8887H96.879L95.6111 46.793H95.4558L94.186 50.8887H93.4538H93.4541ZM99.2344 50.8887V46.455H97.8316V45.841H101.426V46.455H100.013V50.8887H99.2344ZM102.956 50.4074V50.8887H102.178V45.841H102.956V48.4858C102.956 48.8541 102.946 49.24 102.926 49.641C103.142 49.3034 103.362 48.993 103.584 48.7059L105.352 46.3833V45.841H106.131V50.8887H105.352V48.3439C105.352 47.8729 105.363 47.4859 105.383 47.1836C105.265 47.385 105.043 47.6971 104.716 48.1223L102.956 50.4074ZM107.627 50.8887V45.841H108.406V47.9292H110.832V45.841H111.611V50.8887H110.832V48.5438H108.406V50.8887H107.627ZM113.107 50.8887V45.841H116.046V46.455H113.886V50.8887H113.107Z" fill="white" fill-opacity="0.5"/>
</svg>
