<?xml version="1.0" encoding="utf-8"?><svg viewBox="0 0 132 52" xmlns="http://www.w3.org/2000/svg" xmlns:xlink="http://www.w3.org/1999/xlink"><style>:root>svg{display:none}:root>svg:target{display:block}</style><svg fill="none" viewBox="0 0 48 48" id="close-icon" xmlns="http://www.w3.org/2000/svg"><path d="M35.999 12 12 36m0-24 23.999 24" stroke="" stroke-width="2" fill=""/></svg><svg fill="none" viewBox="0 0 132 52" id="logo" xmlns="http://www.w3.org/2000/svg"><path d="M26 0C11.648 0 0 11.649 0 26s11.649 26 26 26 26-11.649 26-26S40.351 0 26 0Zm.54 22.324A3.721 3.721 0 0 1 29.73 26a3.721 3.721 0 0 1-3.19 3.676v-7.352ZM6.92 31.838a12.619 12.619 0 0 0-4.865 1.081A25.011 25.011 0 0 1 1.08 26c0-3.621.784-7.189 2.297-10.46a9.937 9.937 0 0 0 3.162 4.406c1.054.973 1.973 1.838 1.973 2.865 0 2.054 1.487 2.973 2.703 3.703.946.594 1.54.973 1.54 1.595 0 1.783-1.837 3.703-5.837 3.703v.026Zm9.54-13.784c-1.81 0-2.649-1.918-2.649-3.703 0-1.837.947-5.837 3.703-5.837.135 0 .243-.028.379-.028a3.38 3.38 0 0 1 3.378 3.379c0 .135 0 .243-.027.378 0 1.027-.568 1.379-1.595 1.892-.514.216-1 .54-1.432.919a3.08 3.08 0 0 0-.73 1.865c-.135.919-.216 1.189-1 1.189l-.027-.054Zm6.838 27.893a31.961 31.961 0 0 1-1.243-3.163 14.817 14.817 0 0 0-2.027-4.405 7.741 7.741 0 0 1-1.973-4.946c0-1.595.675-3.73 3.892-4.811a6.652 6.652 0 0 0 3.54-3.676V48.38a7.348 7.348 0 0 1-2.19-2.46v.028h.001Zm3.243 5v-6.379c10.054-.27 18.054-8.513 18.054-18.54 0-4.406-1.567-8.65-4.405-12a.576.576 0 0 0-.405-.19.542.542 0 0 0-.54.54.57.57 0 0 0 .135.352 17.577 17.577 0 0 1 4.162 11.324c0 9.46-7.514 17.217-16.973 17.514V37.19a11.103 11.103 0 0 0 6.162-2.217.565.565 0 0 0 .216-.432.542.542 0 0 0-.864-.433 9.741 9.741 0 0 1-5.514 2v-5.351a4.767 4.767 0 0 0 4.243-4.73 4.768 4.768 0 0 0-4.243-4.73v-5.351c5.351.27 9.54 4.703 9.54 10.082 0 1.756-.46 3.513-1.351 5.026a.458.458 0 0 0-.081.27c0 .298.243.54.54.54.19 0 .352-.107.46-.27a11.23 11.23 0 0 0 1.486-5.567c0-5.946-4.676-10.838-10.622-11.108V8.54c3.082.082 6.108 1 8.73 2.65.081.053.19.08.27.08.298 0 .541-.243.541-.54a.532.532 0 0 0-.243-.46 18.51 18.51 0 0 0-9.298-2.783V1.108c13.568.27 24.406 11.352 24.406 24.92 0 13.567-10.838 24.648-24.406 24.918Z" fill="" stroke=""/><path d="M77.88 16.715h-2.674v-6.454h-5.674v6.454h-2.675V1.858h2.675v6.108h5.674V1.858h2.674v14.857Zm3.27 0V1.858h8.062v2.296h-5.388v12.561H81.15Zm21.374 0h-2.995l-3.132-7.564-2.876 3.808v3.756h-2.674V1.858h2.674v7.805a21.2 21.2 0 0 1 .74-1.1l4.934-6.705h2.708l-3.526 4.885 4.147 9.972Z" fill="" stroke=""/><path d="M71.73 30.694h-.859v-3.246h-3.154v3.245h-.86v-6.83h.86V26.7h3.154v-2.836h.86v6.83Zm5.587 0h-.778a9.07 9.07 0 0 1-.093-.91c-.347.701-.937 1.053-1.771 1.053-.567 0-1.002-.15-1.306-.45a1.47 1.47 0 0 1-.456-1.083c0-.512.217-.931.65-1.26.434-.329 1.171-.494 2.212-.494.14 0 .364.007.671.02 0-.399-.03-.69-.093-.866a.772.772 0 0 0-.392-.427c-.2-.108-.462-.16-.788-.16-.797 0-1.26.304-1.39.911l-.727-.124c.176-.934.92-1.401 2.23-1.401.696 0 1.189.153 1.48.462.293.309.438.843.438 1.603v2.146c0 .357.037.683.113.98Zm-.87-2.52c-.321-.02-.564-.03-.731-.03-.62 0-1.102.103-1.447.305-.343.205-.515.502-.515.893 0 .246.092.457.277.63.185.173.453.26.801.26A1.49 1.49 0 0 0 76 29.717c.305-.345.457-.748.457-1.212 0-.094-.004-.204-.01-.33Zm2.292 2.52v-5.048h.778v4.433h2.23v-4.433h.779v4.433h.749v1.772H82.7l-.102-1.157h-3.86Zm6.058-.482v.482h-.779v-5.048h.779v2.645c0 .368-.01.754-.03 1.155.216-.338.436-.648.658-.935l1.768-2.323v-.542h.778v5.047h-.778V28.15c0-.471.01-.858.03-1.16-.117.2-.339.513-.667.938l-1.76 2.285Zm6.517.625c-.693 0-1.234-.258-1.623-.772-.387-.513-.582-1.152-.582-1.913 0-.805.219-1.449.656-1.928a2.11 2.11 0 0 1 1.63-.722c.697 0 1.245.253 1.648.76.4.505.602 1.136.602 1.895 0 .787-.216 1.432-.65 1.93-.433.5-.993.75-1.68.75Zm.062-.645c.399 0 .733-.166 1.005-.497.27-.331.404-.846.404-1.546 0-.701-.141-1.212-.425-1.527-.283-.316-.616-.475-.995-.475-.39 0-.72.16-.99.48-.27.319-.406.826-.406 1.517 0 .734.135 1.257.405 1.573.271.316.604.475 1.002.475Zm3.411.502v-5.048h.778v2.088h2.427v-2.088h.778v5.047h-.778V28.35h-2.427v2.345h-.778Zm9.473 0h-.778a8.885 8.885 0 0 1-.092-.91c-.347.701-.937 1.053-1.772 1.053-.566 0-1.002-.15-1.305-.45a1.465 1.465 0 0 1-.456-1.083c0-.512.217-.931.65-1.26.433-.329 1.17-.494 2.212-.494.14 0 .363.007.67.02 0-.399-.031-.69-.092-.866-.061-.178-.193-.321-.392-.427-.2-.108-.463-.16-.789-.16-.797 0-1.259.304-1.389.911l-.727-.124c.176-.934.92-1.401 2.229-1.401.696 0 1.189.153 1.481.462.292.309.437.843.437 1.603v2.146c0 .357.038.683.113.98Zm-.87-2.52c-.321-.02-.563-.03-.73-.03-.622 0-1.103.103-1.448.305-.343.205-.515.502-.515.893 0 .246.092.457.278.63.184.173.452.26.801.26a1.49 1.49 0 0 0 1.167-.515c.305-.345.457-.748.457-1.212 0-.094-.003-.204-.01-.33Zm1.667 2.52 1.65-5.048h.961l1.628 5.047h-.814l-1.268-4.095h-.155l-1.27 4.096h-.732Zm5.125 0v-5.048h.779v1.945h1.505c.525 0 .92.155 1.182.468.263.31.394.7.394 1.165 0 .46-.141.82-.424 1.08-.285.26-.668.39-1.147.39h-2.289Zm.779-.615h1.332c.593 0 .889-.29.889-.868 0-.67-.297-1.005-.889-1.005h-1.332v1.873Zm4.002.614v-5.047h.778v2.088h2.426v-2.088h.779v5.047h-.779V28.35h-2.426v2.345h-.778Zm5.551 0v-5.047h.778v1.945h1.505c.526 0 .92.155 1.183.468.263.31.394.7.394 1.165 0 .46-.141.82-.425 1.08-.285.26-.667.39-1.147.39h-2.288Zm.778-.614h1.333c.593 0 .889-.29.889-.868 0-.67-.297-1.005-.889-1.005h-1.333v1.873Zm3.789.614v-5.047h.778v5.047h-.778Zm3.125-.48v.48h-.779v-5.047h.779v2.645c0 .368-.011.754-.031 1.155.217-.338.437-.648.659-.935l1.768-2.323v-.542h.778v5.047h-.778V28.15c0-.471.01-.858.03-1.16-.118.2-.339.513-.667.938l-1.759 2.285Zm-.318-6.646h.574c.083.45.383.676.9.676.542 0 .856-.226.942-.676h.574c-.143.853-.619 1.28-1.43 1.28-.916 0-1.437-.427-1.56-1.28ZM66.858 40.79v-6.83h3.501v.748h-2.641v6.082h-.86Zm5.12.144c-.694 0-1.235-.258-1.624-.772-.387-.514-.582-1.152-.582-1.913 0-.806.218-1.449.655-1.928a2.11 2.11 0 0 1 1.63-.722c.698 0 1.246.252 1.649.76.4.504.602 1.136.602 1.895 0 .787-.217 1.432-.65 1.93-.433.5-.993.75-1.68.75Zm.06-.646c.4 0 .734-.165 1.006-.496.27-.331.404-.847.404-1.547s-.141-1.211-.425-1.527c-.283-.316-.616-.474-.995-.474-.39 0-.72.16-.991.48-.27.318-.405.825-.405 1.517 0 .733.135 1.257.405 1.573.271.316.604.474 1.001.474Zm4.231 2.212h-.778v-6.758h.707v.973c.356-.744.887-1.116 1.592-1.116.595 0 1.077.25 1.442.75.366.497.55 1.13.55 1.895 0 .825-.188 1.48-.566 1.963-.377.484-.86.727-1.45.727-.635 0-1.133-.3-1.497-.901v2.468Zm0-4.97v1.438c.05.382.212.697.485.946.275.25.56.374.856.374.344 0 .647-.15.913-.45.265-.301.398-.821.398-1.558 0-.639-.12-1.132-.36-1.477-.241-.346-.56-.519-.956-.519-.314 0-.596.122-.843.364a1.758 1.758 0 0 0-.493.882Zm4.65 3.26v-5.048h.779v2.089h2.427v-2.089h.778v5.048h-.778v-2.344h-2.427v2.344h-.778Zm5.552 0v-5.048h.778v1.946h1.505c.526 0 .92.155 1.183.467.263.31.394.7.394 1.166 0 .46-.141.82-.425 1.08-.285.26-.667.39-1.146.39H86.47Zm.778-.614h1.333c.593 0 .89-.29.89-.868 0-.671-.298-1.006-.89-1.006H87.25v1.874Zm3.79.614v-5.048h.777v5.048h-.778Zm3.124-.481v.481h-.778v-5.048h.778v2.645c0 .369-.01.755-.03 1.156.216-.339.436-.649.657-.936l1.769-2.322v-.543h.778v5.048h-.778v-2.545c0-.47.01-.858.03-1.16a10.3 10.3 0 0 1-.667.939l-1.76 2.285Zm-.318-6.645h.574c.084.45.384.675.9.675.542 0 .856-.225.943-.675h.573c-.143.853-.62 1.28-1.43 1.28-.916 0-1.437-.427-1.56-1.28ZM72.243 50.889h-.935l-2.034-3.774-1.557 1.95v1.824h-.86v-6.83h.86v3.958l3.079-3.958h.918l-1.853 2.387 2.382 4.443Zm2.638.143c-.692 0-1.233-.258-1.622-.772-.388-.513-.582-1.151-.582-1.913 0-.805.218-1.448.655-1.928a2.11 2.11 0 0 1 1.63-.722c.698 0 1.246.253 1.648.76.401.504.603 1.136.603 1.895 0 .787-.217 1.432-.65 1.93-.434.5-.994.75-1.682.75Zm.062-.645c.4 0 .734-.166 1.005-.497.27-.33.405-.846.405-1.546 0-.701-.142-1.212-.425-1.528-.284-.315-.616-.474-.995-.474-.391 0-.72.16-.992.48-.27.32-.404.826-.404 1.517 0 .734.134 1.258.404 1.573.272.316.605.475 1.002.475Zm3.412.502V45.84h.778v2.088h2.426v-2.088h.779v5.048h-.779v-2.345h-2.426v2.345h-.778Zm8.51-1.772.707.125c-.101.56-.323.998-.666 1.316-.345.316-.773.474-1.287.474-.698 0-1.23-.258-1.595-.772-.365-.513-.548-1.141-.548-1.884 0-.767.193-1.406.578-1.914.386-.51.91-.765 1.576-.765.55 0 .991.164 1.324.493.331.33.538.755.618 1.277l-.707.135c-.133-.84-.535-1.26-1.21-1.26-.433 0-.766.184-1 .555-.233.37-.35.848-.35 1.437 0 .65.117 1.153.349 1.513.23.36.556.54.976.54.65 0 1.061-.423 1.235-1.27Zm5.792 1.772h-.778a9.116 9.116 0 0 1-.092-.91c-.347.702-.937 1.053-1.772 1.053-.567 0-1.002-.15-1.305-.45a1.468 1.468 0 0 1-.456-1.082c0-.513.217-.932.65-1.262.433-.328 1.17-.493 2.211-.493.14 0 .364.007.671.02 0-.399-.03-.689-.092-.866a.772.772 0 0 0-.392-.427c-.2-.107-.463-.16-.789-.16-.797 0-1.26.304-1.39.911l-.726-.124c.176-.933.92-1.401 2.229-1.401.696 0 1.19.153 1.481.462.292.31.437.844.437 1.603v2.146c0 .357.038.683.113.98Zm-.87-2.52c-.321-.02-.563-.03-.73-.03-.622 0-1.103.102-1.448.306-.343.204-.515.501-.515.892 0 .246.092.457.278.63.184.173.452.26.8.26a1.49 1.49 0 0 0 1.168-.515c.305-.345.457-.747.457-1.212 0-.093-.003-.204-.01-.33Zm1.667 2.52 1.65-5.048h.961l1.628 5.048h-.814l-1.268-4.096h-.155l-1.27 4.096h-.732Zm5.78 0v-4.434h-1.402v-.614h3.594v.614h-1.413v4.434h-.779Zm3.722-.482v.482h-.778V45.84h.778v2.645c0 .368-.01.754-.03 1.155.216-.338.436-.648.658-.935l1.768-2.323v-.542h.779v5.048h-.779v-2.545c0-.471.011-.858.031-1.16-.118.201-.34.513-.667.938l-1.76 2.285Zm4.671.482V45.84h.779v2.088h2.426v-2.088h.779v5.048h-.779v-2.345h-2.426v2.345h-.779Zm5.48 0V45.84h2.939v.614h-2.16v4.434h-.779Z" fill="" fill-opacity=".5" stroke=""/></svg></svg>