<svg width="175" height="48" viewBox="0 0 175 48" fill="none" xmlns="http://www.w3.org/2000/svg">
<path d="M42.5082 29.7761C42.6594 34.3983 40.8516 36.5832 38.916 37.8449C36.3351 39.5312 33.1149 39.5374 33.1149 39.5374C33.1149 39.5374 34.5565 38.3126 33.4579 37.3094C32.7603 36.7863 31.8536 37.1801 30.9061 37.494C29.9586 37.8079 28.3834 37.5248 27.6161 37.2171C26.4884 36.7678 25.012 36.1154 24.0064 34.1521C23.8262 33.8074 23.8088 33.7397 23.739 33.7705C23.6867 33.7889 23.71 33.7828 23.7623 34.1952C23.9483 35.66 24.8144 37.1678 25.7967 37.9802C27.4359 39.3343 28.7263 39.4327 28.9879 39.4512C28.7379 39.4389 27.3894 39.4512 26.2617 39.6666C25.4073 39.8328 24.7853 40.5467 24.7853 40.5467C24.7853 40.5467 25.3956 41.5376 26.7674 41.673C28.1625 41.8084 29.3599 41.5253 29.3599 41.5253C29.3599 41.5253 27.2325 42.0792 25.5875 43.2178C24.0413 44.2887 22.6986 45.6305 22.1929 46.4306C22.1929 46.4306 22.1929 46.4306 22.1929 46.4367H22.1812C22.1812 46.4367 22.1812 46.4367 22.1812 46.4306C21.6697 45.6305 20.3328 44.2887 18.7866 43.2178C17.1416 42.0792 15.0084 41.5253 15.0084 41.5253C15.0084 41.5253 16.2058 41.8084 17.6008 41.673C18.9726 41.5376 19.583 40.5467 19.583 40.5467C19.583 40.5467 18.961 39.8267 18.1065 39.6666C16.9789 39.4512 15.6303 39.4327 15.3804 39.4512C15.6361 39.4327 16.9266 39.3281 18.5716 37.9802C19.5539 37.1678 20.42 35.66 20.606 34.1952C20.6583 33.7828 20.6816 33.7951 20.6292 33.7705C20.5595 33.7397 20.5421 33.8074 20.3619 34.1521C19.3563 36.1154 17.8798 36.7616 16.7522 37.2171C15.9849 37.5248 14.4097 37.8079 13.4622 37.494C12.5147 37.1801 11.6079 36.7801 10.9104 37.3094C9.81182 38.3126 11.2534 39.5374 11.2534 39.5374C11.2534 39.5374 8.03896 39.5312 5.45813 37.8449C3.5225 36.577 1.71474 34.3983 1.86587 29.7761C2.017 25.154 6.10332 19.6086 10.6605 14.7465C15.0258 10.0936 21.6581 2.75112 22.1812 2.14796H22.1929C22.7218 2.75727 29.3541 10.0936 33.7136 14.7465C38.2708 19.6086 42.3571 25.154 42.5082 29.7761ZM44.3799 30.3054C44.3799 24.7786 39.6833 19.0363 37.9918 17.1284C36.3235 15.2389 22.1871 0.00615464 22.1871 0C22.1871 0 8.05059 15.2327 6.38234 17.1284C4.69666 19.0363 0 24.7786 0 30.3054C0 35.8323 2.32508 38.0479 4.35952 39.2912C6.89967 40.8421 11.265 40.6637 11.265 40.6637C11.265 40.6637 10.4512 41.5622 10.9395 42.3747C11.9218 44.0364 15.8686 43.3471 18.8854 45.132C21.3558 46.5906 22.1929 47.9877 22.1987 48C22.1987 47.9938 23.0415 46.5906 25.5119 45.132C28.5287 43.3533 32.4755 44.0364 33.4579 42.3747C33.9403 41.5561 33.1323 40.6637 33.1323 40.6637C33.1323 40.6637 37.4919 40.8421 40.032 39.2912C42.0606 38.0479 44.3915 35.9985 44.3915 30.3054" fill="#CCA25E"/>
<path d="M22.193 45.5628C22.193 45.5628 22.193 45.5567 22.193 45.5505C22.193 45.5505 22.193 45.5566 22.193 45.5628ZM39.4334 31.6656C39.4334 33.7398 38.1779 34.4906 36.841 34.5583C36.3004 34.5829 35.9168 34.4967 35.7656 34.4783C35.7656 34.4783 36.8061 33.8259 36.2074 32.5211C35.9226 31.8933 35.0158 31.4564 35.0158 31.4564C35.0158 31.4564 35.4052 32.5273 34.6147 33.1304C34.0218 33.4997 32.7895 33.5305 32.1908 32.5457C31.3422 31.161 32.1792 29.3146 32.2838 29.1545C32.4757 29.69 32.8709 30.4224 33.7544 30.5332C34.8356 30.6747 35.2541 29.69 35.0565 29.013C34.7775 28.0775 34.0916 27.9298 33.4812 27.7943C33.9928 27.5543 35.4576 27.4066 36.3469 27.6712C38.143 28.2067 39.4393 29.5915 39.4393 31.6656M12.1835 32.5396C11.579 33.5243 10.3525 33.4874 9.75965 33.1243C8.96912 32.5211 9.35857 31.4502 9.35857 31.4502C9.35857 31.4502 8.45179 31.8872 8.16115 32.515C7.56245 33.8259 8.60291 34.4722 8.60291 34.4722C8.44596 34.4906 8.06234 34.5768 7.52757 34.5522C6.19065 34.4845 4.9351 33.7336 4.9351 31.6595C4.9351 29.5854 6.23133 28.1944 8.02746 27.6651C8.9168 27.4005 10.3874 27.542 10.8989 27.7882C10.2944 27.9236 9.60852 28.0713 9.32369 29.0068C9.12025 29.6838 9.54456 30.6624 10.6199 30.527C11.5034 30.4101 11.8987 29.6838 12.0905 29.1484C12.1952 29.3146 13.0322 31.1609 12.1835 32.5396ZM40.0845 26.2865C40.5262 24.9263 39.6776 24.2924 38.7301 24.3724C37.8582 24.4401 36.6608 25.7079 36.6608 25.7079C36.6608 25.7079 37.8466 22.9137 36.5271 21.3689C35.568 20.2488 34.5682 20.3226 33.6091 20.4211C32.1676 20.5688 31.5166 21.7874 31.5166 22.7353C31.5166 23.6831 32.3071 24.5139 33.1964 24.3724C33.6382 24.3047 34.2311 24.0092 34.3008 23.1353C34.3473 22.5321 34.0858 22.1998 33.7486 22.0459C34.3938 21.6336 35.6552 22.3352 35.6087 23.4246C35.568 24.3416 34.8879 25.6833 33.3127 25.7264C31.7374 25.7695 30.168 24.674 29.3135 24.2739C28.5521 23.9169 26.7792 23.5907 25.5237 24.2985C25.4423 24.3416 24.9133 24.557 24.1868 25.2217C24.6808 24.5509 25.1982 23.3507 24.303 21.9228C23.6287 20.8458 23.9194 19.5841 24.0589 19.264C24.5588 18.1562 25.326 17.8054 26.1921 17.8054C27.4942 17.8054 28.1219 18.4886 28.2266 19.4302C28.2498 19.6641 28.1859 20.7781 27.4012 20.9812C25.9306 21.3566 25.7562 19.6949 25.6864 19.7995C25.3842 20.2426 25.5585 21.3504 25.7562 21.6705C26.2096 22.409 26.8896 22.7229 27.4942 22.7229C27.9417 22.7229 28.8776 22.6429 29.4414 22.0029C29.639 21.7813 29.8832 21.5105 30.0634 20.7719C30.3366 19.6579 29.9994 18.8578 29.7321 18.4393C30.075 18.7778 30.8597 19.2763 32.5512 19.4056C34.295 19.5471 35.7075 18.3162 35.7075 18.3162C35.7075 18.3162 34.4287 18.1747 33.7196 17.7808C32.2315 16.9561 31.9409 16.1005 31.4003 15.3312C30.4761 14.0203 29.0752 13.8049 28.1626 14.4573C27.25 15.1097 27.7034 16.5437 27.7034 16.5437C27.7034 16.5437 26.9013 15.8851 25.5934 16.1067C23.6113 16.4452 23.0707 18.6671 23.0707 18.6671C23.0707 18.6671 23.2044 15.3312 24.6925 13.731C26.6165 11.6692 28.6683 12.6416 28.6683 12.6416C28.6683 12.6416 28.0115 11.0537 26.8083 10.6045C25.5702 10.1429 24.3088 10.5798 23.1812 12.7155C23.5939 11.0414 24.3728 9.95206 24.303 8.10567C24.2391 6.33314 22.2976 4.04362 22.1814 3.87744C22.0593 4.04362 20.1237 6.33314 20.0597 8.10567C19.99 9.95206 20.7689 11.0414 21.1874 12.7155C20.0597 10.5798 18.7984 10.149 17.5603 10.6045C16.357 11.0537 15.7002 12.6416 15.7002 12.6416C15.7002 12.6416 17.7521 11.6754 19.6761 13.731C21.17 15.3312 21.2978 18.6671 21.2978 18.6671C21.2978 18.6671 20.7631 16.4391 18.7809 16.1067C17.4731 15.8851 16.6709 16.5437 16.6709 16.5437C16.6709 16.5437 17.1243 15.1097 16.2117 14.4573C15.2991 13.8049 13.8983 14.0203 12.9741 15.3312C12.4335 16.1005 12.1428 16.9499 10.6548 17.7808C9.94564 18.1747 8.66686 18.3162 8.66686 18.3162C8.66686 18.3162 10.0793 19.541 11.8231 19.4056C13.5146 19.2702 14.2935 18.7778 14.6423 18.4393C14.3807 18.8578 14.0436 19.6579 14.3168 20.7719C14.497 21.5043 14.7411 21.7813 14.9388 22.0029C15.5026 22.6429 16.4384 22.7229 16.886 22.7229C17.4905 22.7229 18.1706 22.4152 18.624 21.6705C18.8158 21.3504 18.996 20.2426 18.6938 19.7995C18.624 19.6949 18.4496 21.3566 16.979 20.9812C16.1943 20.7781 16.1304 19.6641 16.1536 19.4302C16.2524 18.4886 16.886 17.8054 18.1881 17.8054C19.0541 17.8054 19.8214 18.1562 20.3213 19.264C20.4666 19.5841 20.7573 20.8458 20.0772 21.9228C19.182 23.3507 19.7052 24.5509 20.1934 25.2217C19.4668 24.557 18.9379 24.3416 18.8565 24.2985C17.601 23.5907 15.8281 23.9169 15.0666 24.2739C14.218 24.674 12.6427 25.7695 11.0675 25.7264C9.49226 25.6833 8.81217 24.3355 8.77148 23.4246C8.72498 22.3352 9.98634 21.6336 10.6315 22.0459C10.2944 22.1998 10.0328 22.5321 10.0793 23.1353C10.1433 24.0092 10.7362 24.3047 11.1837 24.3724C12.0731 24.5078 12.8636 23.6831 12.8636 22.7353C12.8636 21.7874 12.2126 20.575 10.771 20.4211C9.80614 20.3226 8.81218 20.2426 7.85308 21.3689C6.52779 22.9137 7.71357 25.7079 7.71357 25.7079C7.71357 25.7079 6.51615 24.4462 5.64425 24.3724C4.69678 24.2985 3.85395 24.9263 4.2899 26.2865C4.67935 27.4989 6.70216 27.2589 6.70216 27.2589C6.70216 27.2589 3.26685 28.3729 3.37148 31.6718C3.49355 35.4999 6.46966 36.9094 9.0505 37.3956C9.0505 37.3956 8.74243 36.6694 8.94587 36.2016C9.18419 35.6538 9.7422 35.3523 10.0386 35.2292C10.5502 35.0137 11.6255 35.1799 12.0092 35.0199C12.602 34.7737 13.0671 33.8813 13.0671 33.8813C12.9915 34.2506 13.0206 34.7491 13.0206 34.9707C13.0206 35.9062 13.2938 36.5832 14.1831 36.5832C15.0724 36.5832 15.5258 35.9 15.4735 35.1861C15.4212 34.4906 14.4447 33.4566 14.4447 33.4566C14.4447 33.4566 15.8339 34.9707 17.9613 33.4566C19.0018 32.5334 19.2227 31.5548 19.2227 30.4839C19.2227 29.413 18.4554 28.3667 17.8858 27.9421C17.3685 27.5666 16.7058 27.5113 16.2466 27.622C15.5258 27.8005 15.0376 28.2929 15.0376 29.0745C15.0376 29.8562 15.5084 30.4347 16.2466 30.4408C17.508 30.4531 17.5835 29.1791 17.5835 29.1791C17.5835 29.1791 18.281 32.3303 15.799 32.0595C14.2354 31.8872 13.782 30.7424 13.6193 29.3699C13.4565 28.0098 14.4214 26.071 16.45 25.9849C18.4264 25.8987 18.9263 27.0558 19.6063 27.862C19.7807 28.0651 20.2457 28.3667 20.5073 28.3483C21.3269 28.2929 21.1176 27.2404 21.4025 27.4066C22.1988 27.862 20.641 29.9977 21.0944 31.2841C21.1525 31.4502 21.8035 31.8749 21.8035 32.1088C21.7803 33.7336 21.6582 36.3062 21.1816 37.0817C20.8735 37.7341 20.083 38.7004 20.1004 39.8082C20.1295 41.71 21.6931 41.3038 21.7222 41.9993C21.7396 42.4547 20.7689 43.5133 20.7689 43.5133C20.7689 43.5133 21.8675 44.9042 22.193 45.5628C22.5127 44.8981 23.6171 43.5133 23.6171 43.5133C23.6171 43.5133 22.6522 42.4547 22.6638 41.9993C22.6871 41.3099 24.2507 41.71 24.2797 39.8082C24.2972 38.7004 23.5125 37.7341 23.2044 37.0817C22.7336 36.3062 22.6057 33.7397 22.5824 32.1088C22.5824 31.881 23.2335 31.4502 23.2916 31.2841C23.7392 29.9977 22.1872 27.862 22.9835 27.4066C23.2683 27.2466 23.0591 28.2929 23.8787 28.3483C24.1344 28.3667 24.6053 28.0651 24.7796 27.862C25.4655 27.0619 25.9654 25.8987 27.9417 25.9849C29.9704 26.071 30.9353 28.0098 30.7725 29.3699C30.6098 30.7424 30.1506 31.8872 28.5928 32.0595C26.1107 32.3303 26.8083 29.1791 26.8083 29.1791C26.8083 29.1791 26.8838 30.4593 28.1452 30.4408C28.8834 30.4347 29.3542 29.85 29.3542 29.0745C29.3542 28.299 28.8602 27.8005 28.1452 27.622C27.686 27.5051 27.0175 27.5605 26.506 27.9421C25.9364 28.3606 25.1691 29.413 25.1691 30.4839C25.1691 31.5548 25.3842 32.5334 26.4246 33.4566C28.5579 34.9707 29.9413 33.4566 29.9413 33.4566C29.9413 33.4566 28.9706 34.4906 28.9183 35.1861C28.866 35.9 29.3135 36.5832 30.2029 36.5832C31.0922 36.5832 31.3712 35.9062 31.3712 34.9707C31.3712 34.7491 31.4003 34.2506 31.3247 33.8813C31.3247 33.8813 31.7897 34.7799 32.3826 35.0199C32.7663 35.1799 33.8416 35.0199 34.3532 35.2292C34.6496 35.3584 35.2076 35.6538 35.4459 36.2016C35.6494 36.6694 35.3413 37.3956 35.3413 37.3956C37.9163 36.9032 40.8982 35.4999 41.0203 31.6718C41.1249 28.3729 37.6896 27.2589 37.6896 27.2589C37.6896 27.2589 39.7124 27.4989 40.1019 26.2865" fill="#00803D"/>
<path d="M158.517 34.8598H162.19V27.3019L164.027 25.0062L169.752 34.8598H174.089L166.648 22.5136L173.635 13.3616H169.09L163.76 20.9196C163.277 21.652 162.766 22.4213 162.283 23.246H162.196V13.3616H158.522V34.8598H158.517ZM154.36 22.132H146.711V16.5805H154.814V13.3616H143.002V34.8598H155.261V31.6409H146.705V25.3263H154.355V22.1382L154.36 22.132ZM129.54 16.359C129.901 16.2605 130.656 16.1682 131.83 16.1682C134.243 16.1682 135.777 17.2822 135.777 19.6148C135.777 21.7504 134.243 23.1537 131.743 23.1537H129.546V16.359H129.54ZM125.861 34.8598H129.534V26.0217H131.4C133.51 26.0833 134.44 26.9757 135.045 29.7884C135.585 32.4656 136.097 34.2197 136.399 34.8598H140.195C139.805 34.029 139.259 31.5424 138.596 28.8652C138.114 26.7911 137.242 25.2955 135.766 24.717V24.6247C137.695 23.923 139.468 22.0397 139.468 19.264C139.468 17.4114 138.835 15.9158 137.719 14.925C136.335 13.7125 134.376 13.2017 131.453 13.2017C129.314 13.2017 127.267 13.3924 125.849 13.6817V34.8598H125.861ZM121.705 22.132H114.055V16.5805H122.158V13.3616H110.353V34.8598H122.612V31.6409H114.055V25.3263H121.705V22.1382V22.132ZM98.4191 34.8598H102.122V16.6482H107.964V13.3616H92.6297V16.6482H98.4133V34.8598H98.4191ZM86.5844 34.8598H90.2871V13.3616H86.5844V34.8598ZM72.0934 25.8002L73.6628 20.5072C73.9942 19.2332 74.3255 17.7315 74.6278 16.4882H74.6859C74.9881 17.7315 75.3195 19.1963 75.7089 20.5072L77.3074 25.8002H72.0934ZM77.9061 28.7667L79.7429 34.8598H83.7478L77.1505 13.3616H72.4189L65.9145 34.8598H69.7393L71.4889 28.7667H77.9061ZM53.8416 25.0001H55.6784C58.236 25.0001 60.3169 26.0218 60.3169 28.539C60.3169 31.1855 58.1778 32.1087 55.8004 32.1087C54.9576 32.1087 54.324 32.1087 53.8416 32.0102V24.9939V25.0001ZM53.8416 16.2605C54.231 16.1682 54.8646 16.1005 55.9516 16.1005C58.2999 16.1005 59.7473 17.0237 59.7473 19.067C59.7473 20.8826 58.3348 22.1628 55.7423 22.1628H53.8474V16.2605H53.8416ZM50.1679 34.7921C51.1328 34.9213 52.6674 35.0814 54.7135 35.0814C58.451 35.0814 60.8284 34.4105 62.2758 33.1057C63.4209 32.0533 64.2056 30.5577 64.2056 28.6375C64.2056 25.7017 62.2467 23.9169 60.1076 23.3445V23.246C62.3048 22.3843 63.479 20.5995 63.479 18.6239C63.479 16.7713 62.6361 15.3681 61.369 14.5741C60.0146 13.5832 58.2941 13.2017 55.5854 13.2017C53.4754 13.2017 51.3363 13.4232 50.1621 13.6817V34.7983L50.1679 34.7921Z" fill="#00803D"/>
</svg>
