<svg width="79" height="80" viewBox="0 0 79 80" fill="none" xmlns="http://www.w3.org/2000/svg">
<path d="M75.0148 49.6269C75.2815 57.3304 72.0913 60.9719 68.6755 63.0748C64.1211 65.8854 58.4383 65.8956 58.4383 65.8956C58.4383 65.8956 60.9822 63.8543 59.0435 62.1823C57.8125 61.3104 56.2123 61.9669 54.5403 62.4901C52.8683 63.0132 50.0885 62.5413 48.7345 62.0284C46.7445 61.2796 44.139 60.1923 42.3644 56.9201C42.0464 56.3457 42.0156 56.2329 41.8925 56.2841C41.8002 56.3149 41.8413 56.3047 41.9336 56.9919C42.2618 59.4333 43.7902 61.9464 45.5238 63.3004C48.4165 65.5571 50.6937 65.7212 51.1553 65.752C50.7142 65.7315 48.3344 65.752 46.3444 66.1111C44.8365 66.388 43.739 67.5779 43.739 67.5779C43.739 67.5779 44.816 69.2294 47.2368 69.455C49.6987 69.6807 51.8118 69.2089 51.8118 69.2089C51.8118 69.2089 48.0574 70.132 45.1545 72.0297C42.4259 73.8146 40.0564 76.0508 39.164 77.3843C39.164 77.3843 39.164 77.3843 39.164 77.3946H39.1435C39.1435 77.3946 39.1435 77.3946 39.1435 77.3843C38.2408 76.0508 35.8815 73.8146 33.153 72.0297C30.25 70.132 26.4855 69.2089 26.4855 69.2089C26.4855 69.2089 28.5985 69.6807 31.0604 69.455C33.4812 69.2294 34.5583 67.5779 34.5583 67.5779C34.5583 67.5779 33.4607 66.3778 31.9528 66.1111C29.9628 65.752 27.583 65.7212 27.1419 65.752C27.5933 65.7212 29.8705 65.5468 32.7734 63.3004C34.507 61.9464 36.0354 59.4333 36.3637 56.9919C36.456 56.3047 36.497 56.3252 36.4047 56.2841C36.2816 56.2329 36.2508 56.3457 35.9328 56.9201C34.1582 60.1923 31.5528 61.2694 29.5628 62.0284C28.2088 62.5413 25.4289 63.0132 23.7569 62.4901C22.0849 61.9669 20.4847 61.3002 19.2537 62.1823C17.315 63.8543 19.859 65.8956 19.859 65.8956C19.859 65.8956 14.1865 65.8854 9.63202 63.0748C6.2162 60.9617 3.02602 57.3304 3.29272 49.6269C3.55942 41.9233 10.7706 32.6811 18.8127 24.5775C26.5162 16.8226 38.2203 4.58519 39.1435 3.57994H39.164C40.0974 4.59545 51.8015 16.8226 59.4948 24.5775C67.5369 32.6811 74.7481 41.9233 75.0148 49.6269ZM78.3177 50.509C78.3177 41.2976 70.0295 31.7272 67.0445 28.5473C64.1005 25.3981 39.1538 0.0102577 39.1538 0C39.1538 0 14.207 25.3879 11.263 28.5473C8.28825 31.7272 0 41.2976 0 50.509C0 59.7205 4.10309 63.4132 7.69329 65.4853C12.1759 68.0702 19.8795 67.7728 19.8795 67.7728C19.8795 67.7728 18.4434 69.2704 19.305 70.6244C21.0386 73.394 28.0036 72.2452 33.3273 75.2199C37.6869 77.651 39.164 79.9795 39.1743 80C39.1743 79.9897 40.6616 77.651 45.0212 75.2199C50.3449 72.2554 57.3099 73.394 59.0435 70.6244C59.8949 69.2601 58.469 67.7728 58.469 67.7728C58.469 67.7728 66.1623 68.0702 70.645 65.4853C74.2249 63.4132 78.3382 59.9974 78.3382 50.509" fill="#CCA25E"/>
<path d="M39.164 75.938C39.164 75.938 39.164 75.9277 39.164 75.9175C39.164 75.9175 39.164 75.9277 39.164 75.938ZM69.5884 52.7761C69.5884 56.2329 67.3727 57.4843 65.0135 57.5971C64.0595 57.6382 63.3825 57.4946 63.1158 57.4638C63.1158 57.4638 64.9519 56.3765 63.8954 54.2018C63.3927 53.1556 61.7925 52.4273 61.7925 52.4273C61.7925 52.4273 62.4798 54.2122 61.0847 55.2174C60.0384 55.8329 57.8638 55.8841 56.8073 54.2429C55.3096 51.9349 56.7868 48.8576 56.9714 48.5909C57.3099 49.4833 58.0074 50.704 59.5666 50.8886C61.4745 51.1245 62.2131 49.4833 61.8643 48.355C61.372 46.7958 60.1615 46.5496 59.0845 46.3239C59.9872 45.9239 62.5721 45.6777 64.1415 46.1187C67.3112 47.0112 69.5987 49.3192 69.5987 52.7761M21.5002 54.2326C20.4334 55.8739 18.269 55.8123 17.2227 55.2071C15.8277 54.2019 16.5149 52.417 16.5149 52.417C16.5149 52.417 14.9147 53.1453 14.4018 54.1916C13.3453 56.3765 15.1814 57.4536 15.1814 57.4536C14.9044 57.4844 14.2275 57.628 13.2837 57.5869C10.9245 57.4741 8.70878 56.2226 8.70878 52.7658C8.70878 49.3089 10.9963 46.9907 14.1659 46.1085C15.7353 45.6675 18.3305 45.9033 19.2332 46.3136C18.1664 46.5393 16.956 46.7855 16.4534 48.3447C16.0944 49.4731 16.8432 51.104 18.7408 50.8783C20.3 50.6834 20.9975 49.473 21.336 48.5806C21.5207 48.8576 22.9978 51.9349 21.5002 54.2326ZM70.7373 43.8108C71.5168 41.5438 70.0192 40.4873 68.3472 40.6206C66.8086 40.7335 64.6955 42.8465 64.6955 42.8465C64.6955 42.8465 66.788 38.1895 64.4595 35.6148C62.767 33.7479 61.0027 33.8711 59.3102 34.0352C56.7662 34.2814 55.6174 36.3124 55.6174 37.8921C55.6174 39.4718 57.0124 40.8565 58.5819 40.6206C59.3615 40.5078 60.4077 40.0154 60.5308 38.5588C60.6129 37.5536 60.1513 36.9997 59.5563 36.7432C60.6949 36.056 62.9209 37.2253 62.8388 39.041C62.767 40.5694 61.5668 42.8055 58.787 42.8773C56.0072 42.9491 53.2376 41.1233 51.7297 40.4565C50.3859 39.8616 47.2573 39.3179 45.0417 40.4975C44.898 40.5693 43.9646 40.9284 42.6824 42.0362C43.5543 40.9181 44.4672 38.9179 42.8875 36.5381C41.6976 34.743 42.2105 32.6401 42.4567 32.1067C43.3389 30.2603 44.6929 29.6756 46.2213 29.6756C48.519 29.6756 49.6269 30.8143 49.8115 32.3837C49.8525 32.7735 49.7397 34.6301 48.3549 34.9686C45.7597 35.5943 45.452 32.8248 45.3289 32.9991C44.7955 33.7377 45.1032 35.5841 45.452 36.1175C46.2521 37.3484 47.4522 37.8716 48.519 37.8716C49.3089 37.8716 50.9604 37.7382 51.9554 36.6714C52.3041 36.3021 52.735 35.8508 53.0529 34.6199C53.5351 32.7632 52.9401 31.4297 52.4682 30.7322C53.0734 31.2963 54.4582 32.1272 57.4432 32.3426C60.5206 32.5786 63.0132 30.5271 63.0132 30.5271C63.0132 30.5271 60.7565 30.2911 59.5051 29.6346C56.8791 28.2601 56.3662 26.8342 55.4122 25.552C53.7812 23.3671 51.3091 23.0081 49.6987 24.0954C48.0882 25.1828 48.8883 27.5728 48.8883 27.5728C48.8883 27.5728 47.4727 26.4752 45.1647 26.8445C41.6669 27.4087 40.7129 31.1117 40.7129 31.1117C40.7129 31.1117 40.9488 25.552 43.5748 22.885C46.9701 19.4487 50.5911 21.0694 50.5911 21.0694C50.5911 21.0694 49.432 18.4229 47.3086 17.6741C45.1237 16.9048 42.8978 17.6331 40.9078 21.1925C41.6361 18.4024 43.0106 16.5868 42.8875 13.5095C42.7747 10.5552 39.3486 6.73936 39.1435 6.4624C38.9281 6.73936 35.5122 10.5552 35.3994 13.5095C35.2763 16.5868 36.6508 18.4024 37.3894 21.1925C35.3994 17.6331 33.1735 16.915 30.9886 17.6741C28.8652 18.4229 27.7061 21.0694 27.7061 21.0694C27.7061 21.0694 31.3271 19.459 34.7224 22.885C37.3586 25.552 37.5843 31.1117 37.5843 31.1117C37.5843 31.1117 36.6406 27.3984 33.1427 26.8445C30.8347 26.4752 29.4191 27.5728 29.4191 27.5728C29.4191 27.5728 30.2193 25.1828 28.6088 24.0954C26.9983 23.0081 24.5262 23.3671 22.8952 25.552C21.9413 26.8342 21.4284 28.2498 18.8024 29.6346C17.5509 30.2911 15.2943 30.5271 15.2943 30.5271C15.2943 30.5271 17.7869 32.5683 20.8642 32.3426C23.8492 32.117 25.2237 31.2963 25.8392 30.7322C25.3776 31.4297 24.7826 32.7632 25.2648 34.6199C25.5828 35.8405 26.0136 36.3021 26.3623 36.6714C27.3573 37.7382 29.0088 37.8716 29.7987 37.8716C30.8655 37.8716 32.0656 37.3586 32.8657 36.1175C33.2042 35.5841 33.5222 33.7377 32.9888 32.9991C32.8657 32.8248 32.558 35.5943 29.9628 34.9686C28.578 34.6301 28.4652 32.7735 28.5062 32.3837C28.6806 30.8143 29.7987 29.6756 32.0964 29.6756C33.6248 29.6756 34.9788 30.2603 35.861 32.1067C36.1174 32.6401 36.6303 34.743 35.4302 36.5381C33.8505 38.9179 34.7737 40.9181 35.6353 42.0362C34.3531 40.9284 33.4197 40.5693 33.276 40.4975C31.0604 39.3179 27.9318 39.8616 26.588 40.4565C25.0904 41.1233 22.3105 42.9491 19.5307 42.8773C16.7509 42.8055 15.5507 40.5591 15.4789 39.041C15.3968 37.2253 17.6228 36.056 18.7614 36.7432C18.1664 36.9997 17.7048 37.5536 17.7869 38.5588C17.8997 40.0154 18.946 40.5078 19.7358 40.6206C21.3053 40.8463 22.7003 39.4718 22.7003 37.8921C22.7003 36.3124 21.5515 34.2916 19.0075 34.0352C17.3048 33.8711 15.5507 33.7377 13.8582 35.6148C11.5194 38.1895 13.612 42.8465 13.612 42.8465C13.612 42.8465 11.4989 40.7437 9.96022 40.6206C8.28821 40.4975 6.80085 41.5438 7.57018 43.8108C8.25745 45.8315 11.8271 45.4315 11.8271 45.4315C11.8271 45.4315 5.76481 47.2881 5.94945 52.7863C6.16486 59.1666 11.4168 61.5156 15.9713 62.326C15.9713 62.326 15.4276 61.1156 15.7866 60.336C16.2072 59.4231 17.1919 58.9204 17.7151 58.7153C18.6177 58.3562 20.5154 58.6332 21.1924 58.3665C22.2387 57.9562 23.0594 56.4688 23.0594 56.4688C22.926 57.0843 22.9773 57.9152 22.9773 58.2845C22.9773 59.8436 23.4594 60.972 25.0288 60.972C26.5983 60.972 27.3984 59.8334 27.306 58.6435C27.2137 57.4843 25.4904 55.761 25.4904 55.761C25.4904 55.761 27.942 58.2844 31.6963 55.761C33.5325 54.2224 33.9223 52.5914 33.9223 50.8065C33.9223 49.0217 32.5682 47.2779 31.563 46.5701C30.6501 45.9444 29.4807 45.8521 28.6703 46.0367C27.3984 46.3342 26.5367 47.1548 26.5367 48.4575C26.5367 49.7603 27.3676 50.7245 28.6703 50.7347C30.8963 50.7552 31.0296 48.6319 31.0296 48.6319C31.0296 48.6319 32.2605 53.8839 27.8805 53.4325C25.1211 53.1453 24.321 51.2374 24.0338 48.9499C23.7466 46.6829 25.4494 43.4517 29.0293 43.3081C32.517 43.1645 33.3991 45.093 34.5993 46.4367C34.907 46.7752 35.7276 47.2779 36.1892 47.2471C37.6356 47.1548 37.2663 45.4007 37.7689 45.6777C39.1742 46.4367 36.4252 49.9962 37.2253 52.1401C37.3279 52.417 38.4767 53.1248 38.4767 53.5146C38.4357 56.2226 38.2203 60.5104 37.3791 61.8029C36.8355 62.8902 35.4404 64.5006 35.4712 66.347C35.5225 69.5167 38.2818 68.8396 38.3331 69.9988C38.3639 70.7578 36.6508 72.5222 36.6508 72.5222C36.6508 72.5222 38.5895 74.8404 39.164 75.938C39.7281 74.8301 41.6771 72.5222 41.6771 72.5222C41.6771 72.5222 39.9743 70.7578 39.9948 69.9988C40.0359 68.8499 42.7952 69.5167 42.8465 66.347C42.8773 64.5006 41.4925 62.8902 40.9488 61.8029C40.118 60.5104 39.8923 56.2329 39.8512 53.5146C39.8512 53.1351 41.0001 52.417 41.1027 52.1401C41.8925 49.9962 39.1537 46.4367 40.559 45.6777C41.0617 45.411 40.6924 47.1548 42.1387 47.2471C42.59 47.2779 43.4209 46.7752 43.7287 46.4367C44.9391 45.1032 45.8213 43.1645 49.3089 43.3081C52.8888 43.4517 54.5916 46.6829 54.3044 48.9499C54.0172 51.2374 53.2068 53.1453 50.4577 53.4325C46.0777 53.8839 47.3086 48.6319 47.3086 48.6319C47.3086 48.6319 47.442 50.7655 49.6679 50.7347C50.9706 50.7245 51.8015 49.75 51.8015 48.4575C51.8015 47.1651 50.9296 46.3342 49.6679 46.0367C48.8575 45.8418 47.6779 45.9341 46.7752 46.5701C45.77 47.2676 44.4159 49.0217 44.4159 50.8065C44.4159 52.5914 44.7955 54.2224 46.6316 55.761C50.3962 58.2844 52.8375 55.761 52.8375 55.761C52.8375 55.761 51.1245 57.4843 51.0322 58.6435C50.9398 59.8334 51.7297 60.972 53.2991 60.972C54.8685 60.972 55.3609 59.8436 55.3609 58.2845C55.3609 57.9152 55.4122 57.0843 55.2789 56.4688C55.2789 56.4688 56.0995 57.9664 57.1458 58.3665C57.8228 58.6332 59.7205 58.3665 60.6231 58.7153C61.1463 58.9307 62.131 59.4231 62.5516 60.336C62.9106 61.1156 62.3669 62.326 62.3669 62.326C66.9111 61.5054 72.1733 59.1666 72.3888 52.7863C72.5734 47.2881 66.5111 45.4315 66.5111 45.4315C66.5111 45.4315 70.0808 45.8315 70.768 43.8108" fill="#00803D"/>
</svg>
