<svg width="100%" height="100%" viewBox="0 0 760 920" fill="none" xmlns="http://www.w3.org/2000/svg">
<g clip-path="url(#clip0_636_10316)">
<path d="M4.90534 265.264C12.8664 213.674 33.8688 171.335 67.2434 138.462C100.622 105.584 146.423 82.1296 204.052 68.3852C319.33 40.8916 481.803 52.2852 686.379 104.686C852.903 147.34 1005.5 113.765 1140.44 84.0747C1171.4 77.262 1201.44 70.6537 1230.5 65.2178C1308.37 50.6505 1379.23 44.499 1442.32 65.2783C1505.4 86.0529 1560.78 133.772 1607.62 227.1C1618.94 249.652 1619.77 279.605 1611.62 314.453C1603.46 349.297 1586.34 388.998 1561.81 431.003C1512.74 515.011 1434.06 608.171 1338.39 690.021C1147.04 853.741 887.914 972.074 661.924 881.712C435.705 791.258 263.463 688.74 151.77 583.019C40.0663 477.288 -11.0127 368.418 4.90534 265.264Z" stroke="black"/>
<path d="M1683.73 470.505C1520.92 -32.7676 1099.18 367.166 742.781 255.362C386.385 143.559 139.316 133.018 139.316 358.455C139.316 583.892 642.47 942.764 896.159 908.481" stroke="black"/>
<path d="M1429.55 681.971C1545.4 204.938 1039.47 481.836 765.552 393.573C491.633 305.311 294.846 248.888 303.76 439.5C312.674 630.112 672.637 922.883 898.9 907.797" stroke="black"/>
<path d="M1298.48 721.615C1441.73 514.353 1043.53 639.417 844.447 572.472C645.366 505.526 527.967 486.813 510.826 593.086C493.685 699.359 747.374 911.91 899.586 907.111" stroke="black"/>
<path d="M418.445 524.522V478.879M441.267 501.699H395.624" stroke="#B0885D" stroke-width="1.5"/>
<path d="M656.645 180.872V135.229M679.466 158.049H633.823" stroke="#B0885D" stroke-width="1.5"/>
<path d="M39.2752 75.5943V29.9512M62.0968 52.7717H16.4536" stroke="#B0885D" stroke-width="1.5"/>
</g>
<defs>
<clipPath id="clip0_636_10316">
<rect width="100%" height="100%" fill="white"/>
</clipPath>
</defs>
</svg>
