<?xml version="1.0" encoding="utf-8"?><svg viewBox="0 0 95 44" xmlns="http://www.w3.org/2000/svg" xmlns:xlink="http://www.w3.org/1999/xlink"><style>:root>svg{display:none}:root>svg:target{display:block}</style><svg fill="none" viewBox="0 0 24 24" id="arrow-menu" xmlns="http://www.w3.org/2000/svg"><path d="m15 11-3 3-3-3" stroke="#2D2DD2" stroke-width="1.5" stroke-linecap="round"/></svg><svg fill="none" viewBox="0 0 44 44" id="burger" xmlns="http://www.w3.org/2000/svg"><path d="M32 18H12M22 26H12" stroke="#0D0D0F" stroke-width="2" stroke-linecap="round"/></svg><svg fill="none" viewBox="0 0 24 24" id="cart_ico" xmlns="http://www.w3.org/2000/svg"><path d="m21 6 .928.371A1 1 0 0 0 21 5v1Zm-3 7.5.09.996a1 1 0 0 0 .838-.625L18 13.5ZM6 18l-.962-.275A1 1 0 0 0 6 19v-1Zm12 1a1 1 0 1 0 0-2v2ZM3.707 3.293a1 1 0 0 0-1.414 1.414l1.414-1.414ZM5 7h16V5H5v2Zm15.072-1.371-3 7.5 1.857.742 3-7.5-1.857-.742Zm-2.162 6.875-11 1 .18 1.992 11-1-.18-1.992ZM6.038 14.225l-1 3.5 1.924.55 1-3.5-1.924-.55ZM6 19h12v-2H6v2Zm1.973-4.729-2-8.5-1.946.458 2 8.5 1.946-.458ZM5.707 5.293l-2-2-1.414 1.414 2 2 1.414-1.414Z" fill="#0D0D0F"/><circle cx="16.75" cy="20.75" r="1.25" fill="#0D0D0F"/><circle cx="7.25" cy="20.75" r="1.25" fill="#0D0D0F"/></svg><svg fill="none" viewBox="0 0 24 24" id="close_icon" xmlns="http://www.w3.org/2000/svg"><path d="m4.5 4.5 15 15M19.5 4.5l-15 15" stroke="#0D0D0F" stroke-width="2" stroke-linecap="round" stroke-linejoin="round"/></svg><svg fill="none" viewBox="0 0 24 24" id="comparison_ico" xmlns="http://www.w3.org/2000/svg"><path stroke="#0D0D0F" stroke-width="2" stroke-linejoin="round" d="M14 21v-7h4v7zM6 21V8h4v13zM10 21V3h4v18z"/><path d="M3 21h18" stroke="#0D0D0F" stroke-width="2" stroke-linecap="round"/></svg><svg fill="none" viewBox="0 0 24 24" id="favorite_ico" xmlns="http://www.w3.org/2000/svg"><path d="M3 10c0 4 6.5 8.846 9 11 2.5-2.154 9-7 9-11 0-3-2-5-4.5-5-2 0-3.555 1.514-4.5 3.26C11.06 6.522 9.5 5 7.5 5 5 5 3 7 3 10Z" stroke="#0D0D0F" stroke-width="2" stroke-linejoin="round"/></svg><svg fill="none" viewBox="0 0 95 24" id="logo" xmlns="http://www.w3.org/2000/svg"><mask id="ga" style="mask-type:alpha" maskUnits="userSpaceOnUse" x="0" y="4" width="94" height="16"><path d="M4.247 19H.47L5.376 4.455h4.68L14.966 19h-3.779L7.77 8.12h-.114L4.247 19Zm-.504-5.724h7.898v2.67H3.743v-2.67Zm16.303-8.821V19h-3.515V4.455h3.515ZM22.253 19V4.455h6.009c1.089 0 2.029.196 2.82.589A4.242 4.242 0 0 1 32.92 6.72c.43.725.646 1.584.646 2.578 0 1.009-.22 1.866-.66 2.571-.44.701-1.066 1.236-1.875 1.605-.81.365-1.769.547-2.877.547h-3.8v-2.77h3.147c.53 0 .973-.068 1.328-.205.36-.143.632-.356.817-.64.184-.289.277-.658.277-1.108 0-.45-.093-.821-.277-1.115a1.668 1.668 0 0 0-.817-.667c-.36-.152-.803-.228-1.328-.228h-1.733V19h-3.516Zm8.19-6.648L34.063 19H30.23l-3.551-6.648h3.764ZM35.494 19V4.455h6.009c1.089 0 2.029.213 2.82.639a4.477 4.477 0 0 1 1.839 1.768c.43.753.646 1.629.646 2.628 0 1.004-.22 1.882-.66 2.635-.436.748-1.058 1.328-1.868 1.74-.81.412-1.77.618-2.884.618H37.69v-2.77h3.054c.53 0 .973-.092 1.328-.277.36-.185.632-.443.817-.774.184-.336.277-.727.277-1.172 0-.45-.092-.838-.277-1.165a1.859 1.859 0 0 0-.817-.767c-.36-.18-.803-.27-1.328-.27h-1.733V19h-3.516Zm13.047 0V4.455h6.009c1.089 0 2.029.196 2.82.589A4.242 4.242 0 0 1 59.21 6.72c.43.725.646 1.584.646 2.578 0 1.009-.22 1.866-.66 2.571-.44.701-1.066 1.236-1.875 1.605-.81.365-1.769.547-2.877.547h-3.8v-2.77h3.147c.53 0 .973-.068 1.328-.205.36-.143.632-.356.817-.64.184-.289.277-.658.277-1.108 0-.45-.093-.821-.277-1.115a1.667 1.667 0 0 0-.817-.667c-.36-.152-.803-.228-1.328-.228h-1.733V19h-3.516Zm8.19-6.648L60.352 19h-3.835l-3.551-6.648h3.764Zm18.781-.625c0 1.6-.308 2.957-.923 4.07-.616 1.113-1.449 1.958-2.5 2.535-1.047.578-2.22.867-3.523.867-1.307 0-2.483-.291-3.53-.874-1.046-.582-1.877-1.427-2.493-2.535-.61-1.113-.916-2.467-.916-4.063 0-1.6.306-2.957.916-4.07.616-1.112 1.447-1.957 2.493-2.535 1.047-.577 2.223-.866 3.53-.866 1.302 0 2.476.289 3.523.866 1.051.578 1.884 1.423 2.5 2.536.615 1.112.923 2.469.923 4.07Zm-3.594 0c0-.947-.135-1.747-.404-2.4-.266-.654-.65-1.149-1.151-1.485-.497-.336-1.096-.504-1.797-.504-.696 0-1.295.168-1.797.504-.502.337-.888.831-1.157 1.485-.266.653-.398 1.453-.398 2.4 0 .947.132 1.747.398 2.4.27.654.655 1.149 1.157 1.485.502.336 1.101.504 1.797.504.7 0 1.3-.168 1.797-.504.502-.336.885-.83 1.15-1.484.27-.654.405-1.454.405-2.4Zm5.647-7.272h4.353l3.694 9.005h.17l3.693-9.005h4.354V19h-3.423v-8.935h-.121l-3.495 8.843h-2.187l-3.494-8.892h-.121V19h-3.423V4.455Z" fill="#0D0D0F"/></mask><g mask="url(#ga)"><circle cx="-1" cy="20" r="100" fill="#0D0D0F"/></g></svg><svg fill="none" viewBox="0 0 24 24" id="search-ico" xmlns="http://www.w3.org/2000/svg"><circle cx="12" cy="12" r="8" stroke="#0D0D0F" stroke-width="2" stroke-linecap="round" stroke-linejoin="round"/><path d="m18 18 3 3" stroke="#0D0D0F" stroke-width="2" stroke-linecap="round" stroke-linejoin="round"/></svg></svg>