<svg width="36" height="36" fill="none" xmlns="http://www.w3.org/2000/svg"><circle cx="18" cy="18" r="18" fill="#464646"/><path d="M18 9.146c2.884 0 3.225.01 4.364.063 1.053.048 1.625.224 2.005.372.505.196.864.43 1.242.808.378.378.612.737.808 1.242.148.38.324.952.372 2.005.052 1.139.063 1.48.063 4.364s-.011 3.225-.063 4.364c-.048 1.053-.224 1.625-.372 2.005-.196.505-.43.864-.808 1.242a3.347 3.347 0 0 1-1.242.808c-.38.148-.952.324-2.005.372-1.139.052-1.48.063-4.364.063s-3.226-.011-4.364-.063c-1.053-.048-1.625-.224-2.006-.372a3.347 3.347 0 0 1-1.241-.808 3.346 3.346 0 0 1-.808-1.242c-.148-.38-.324-.952-.372-2.005-.052-1.139-.063-1.48-.063-4.364s.01-3.225.063-4.364c.048-1.053.224-1.625.372-2.005.196-.505.43-.864.808-1.242a3.345 3.345 0 0 1 1.241-.808c.381-.148.953-.324 2.006-.372 1.139-.052 1.48-.063 4.364-.063ZM18 7.2c-2.933 0-3.3.012-4.453.065-1.15.052-1.934.235-2.622.502a5.294 5.294 0 0 0-1.912 1.246c-.6.6-.97 1.202-1.246 1.913-.267.687-.45 1.472-.502 2.621C7.212 14.7 7.2 15.067 7.2 18c0 2.933.012 3.3.065 4.453.052 1.15.235 1.934.502 2.621.276.71.645 1.313 1.246 1.913.6.6 1.202.97 1.912 1.246.688.267 1.473.45 2.622.502 1.152.053 1.52.065 4.453.065 2.933 0 3.3-.012 4.453-.065 1.15-.052 1.934-.235 2.621-.502a5.293 5.293 0 0 0 1.913-1.246c.6-.6.97-1.202 1.246-1.913.267-.687.45-1.472.502-2.621.053-1.152.065-1.52.065-4.453 0-2.933-.012-3.3-.065-4.453-.052-1.15-.235-1.934-.502-2.621a5.295 5.295 0 0 0-1.246-1.913c-.6-.6-1.202-.97-1.913-1.246-.687-.267-1.472-.45-2.621-.502C21.3 7.212 20.933 7.2 18 7.2Z" fill="#fff"/><path d="M18.005 12.46a5.546 5.546 0 1 0 0 11.09 5.546 5.546 0 0 0 0-11.09Zm0 9.145a3.6 3.6 0 1 1 0-7.2 3.6 3.6 0 0 1 0 7.2ZM25.066 12.237a1.296 1.296 0 1 1-2.592 0 1.296 1.296 0 0 1 2.592 0Z" fill="#fff"/></svg>