<svg width="92" height="92" fill="none" xmlns="http://www.w3.org/2000/svg"><path d="m46 1.405 3.919 4.823 4.78-3.965 2.902 5.493L63.067 4.8l1.774 5.954 5.936-1.832.577 6.185 6.178-.638-.635 6.177 6.185.578-1.836 5.935 5.955 1.774-2.956 5.466 5.492 2.902-3.96 4.78L90.596 46l-4.82 3.918 3.961 4.78-5.492 2.903 2.956 5.466-5.955 1.774 1.836 5.935-6.185.578.635 6.181-6.178-.642-.577 6.185-5.936-1.832-1.774 5.954-5.466-2.956-2.902 5.493-4.78-3.965L46 90.595l-3.918-4.823-4.78 3.965-2.903-5.493-5.465 2.956-1.775-5.954-5.935 1.832-.577-6.186-6.178.643.639-6.181-6.186-.578 1.833-5.935L4.8 63.067 7.756 57.6l-5.492-2.902 3.964-4.78L1.405 46l4.823-3.918-3.964-4.78 5.492-2.903L4.8 28.933l5.955-1.774-1.833-5.935 6.186-.578-.639-6.177 6.178.639.577-6.186 5.935 1.832L28.934 4.8l5.465 2.956 2.902-5.493 4.781 3.965L46 1.405Z" fill="#FEFEFE"/><path d="m46 1.405 3.919 4.823 4.78-3.965 2.902 5.493L63.067 4.8l1.774 5.954 5.936-1.832.577 6.185 6.178-.638-.635 6.177 6.185.578-1.836 5.935 5.955 1.774-2.956 5.466 5.492 2.902-3.96 4.78L90.596 46l-4.82 3.918 3.961 4.78-5.492 2.903 2.956 5.466-5.955 1.774 1.836 5.935-6.185.578.635 6.181-6.178-.642-.577 6.185-5.936-1.832-1.774 5.954-5.466-2.956-2.902 5.493-4.78-3.965L46 90.595l-3.918-4.823-4.78 3.965-2.903-5.493-5.465 2.956-1.775-5.954-5.935 1.832-.577-6.186-6.178.643.639-6.181-6.186-.578 1.833-5.935L4.8 63.067 7.756 57.6l-5.492-2.902 3.964-4.78L1.405 46l4.823-3.918-3.964-4.78 5.492-2.903L4.8 28.933l5.955-1.774-1.833-5.935 6.186-.578-.64-6.177 6.179.639.577-6.186 5.935 1.832L28.934 4.8l5.465 2.956 2.902-5.493 4.781 3.965L46 1.405Z" stroke="#E31E24" stroke-width=".624" stroke-miterlimit="22.926"/><path fill-rule="evenodd" clip-rule="evenodd" d="M46 47.994a1.177 1.177 0 0 0-.311.054l-.381.435v3.88c-.047.346-.447.088-.608.053-.312-.065-.39-.512-.705-.55-.827-.104-2.028-.15-2.675.496-.2.2-.35.54-.215.816.127.266.692-.165.966-.161l1.94.011c.461 0 1.216.397 1.297.974-.043.143.088.358-.108.435-5.504-2.594-5.874 5.466-1.451 4.096.65-.224.666-.963.627-1.529-.392-1.797-2.167-1.462-1.174.185.212.462-.789.597-.977.327-1.405-2.001 1.736-4.337 3.025-1.116l.054 3.11c-.416 1.601-3.607 1.852-4.692.77-.231.1-.273.443-.17.65.778 2.437 4.666.751 4.808 1.255-.073.454.177.986-.223 1.259h-5.67c0-2.702.104-5.416 0-8.099.02-2.159 5.446-9.16 5.839-11.223-.212-3.056-2.794-4.065-4.584-2.237-1.082 1.174-.135 3.084 1.466 2.783.72-.127.42-1.347-.054-1.528-.15-.092-.43-.108-.319-.481.154-.4.704-.697 1.228-.473.496.261 1.231.515 1.135 1.297 0 5.816-9.434.989-3.468-3.776 1.332-1.066 3.434.238 4.377.539.75-.805-1.101-1.986-1.54-2.067-.881-.158-1.543-.247-2.275.096-.158.331-1.705.878-1.855.343-.135-.524.173-1.155.573-1.575.4-.42 2.483-.604 2.972-.62.258-.223.266-.38.108-.596-.916-1.22-2.479-3.24-3.395-4.484-.69-1.682.658-2.329 1.705-.978.162.258 3.391 4.758 3.653 4.912l.146-.162-.085-5.716c.012-.4.335-.804 1.02-.831.69.027 1.009.427 1.02.831l-.084 5.716.146.161c.262-.153 3.495-4.653 3.653-4.91 1.047-1.352 2.394-.705 1.705.977-.916 1.243-2.479 3.264-3.395 4.484-.154.215-.15.373.108.597.489.015 2.57.2 2.971.62.4.423.708 1.05.574 1.574-.15.535-1.694-.008-1.856-.343-.735-.343-1.397-.254-2.274-.096-.443.077-2.294 1.262-1.544 2.067.94-.3 3.04-1.605 4.377-.54 5.962 4.766-3.468 9.593-3.468 3.777-.097-.782.639-1.036 1.135-1.297.523-.224 1.07.073 1.228.473.108.373-.17.389-.32.481-.473.181-.773 1.401-.053 1.528 1.6.3 2.548-1.609 1.466-2.783-1.79-1.832-4.373-.823-4.584 2.237.392 2.063 5.823 9.06 5.839 11.224-.104 2.686 0 5.396 0 8.098h-5.67c-.4-.273-.15-.8-.223-1.259.146-.504 4.034 1.182 4.807-1.255.1-.211.062-.55-.169-.65-1.085 1.085-4.276.831-4.692-.77l.054-3.11c1.293-3.218 4.43-.885 3.025 1.116-.188.27-1.185.135-.977-.327.993-1.647-.778-1.982-1.174-.185-.039.566-.023 1.305.627 1.529 4.426 1.374 4.057-6.69-1.451-4.096-.196-.073-.07-.292-.108-.435.081-.577.835-.974 1.297-.974l1.94-.011c.274 0 .84.427.966.161.135-.273-.015-.615-.215-.816-.647-.642-1.848-.6-2.675-.496-.316.038-.39.485-.705.55-.161.035-.558.293-.608-.053v-3.88l-.38-.435a1.177 1.177 0 0 0-.313-.054h-.003Z" fill="#E31E24"/><path clip-rule="evenodd" d="M46 23.48c12.437 0 22.521 10.084 22.521 22.52s-10.084 22.52-22.52 22.52C33.563 68.52 23.48 58.437 23.48 46S33.564 23.48 46 23.48Zm0-12.653c19.423 0 35.173 15.75 35.173 35.173 0 19.422-15.75 35.173-35.173 35.173-19.422 0-35.172-15.75-35.172-35.173 0-19.422 15.75-35.173 35.172-35.173Z" stroke="#E31E24" stroke-width=".882" stroke-miterlimit="22.926"/><path d="m16.267 50.784-.054-.334 2.455.511.054.335-2.178 1.243-.054-.334.566-.316-.154-.982-.636-.123Zm1.039.978 1.074-.589-1.205-.227.13.816Zm.627 2.818a.442.442 0 0 1-.07.015c-.038 0-.068 0-.091.004a.683.683 0 0 1-.193-.016.888.888 0 0 1-.412-.192c-.138-.108-.246-.289-.32-.543l-.019-.073-.026-.13a.789.789 0 0 1-.016-.17 1.05 1.05 0 0 1 .246-.658c.128-.158.343-.281.651-.37l.239-.054a.68.68 0 0 1 .177-.027c.057-.004.13 0 .215.008.173.015.347.077.52.189.173.107.3.308.385.596.077.277.088.497.019.658a.832.832 0 0 1-.396.447l-.116.054-.088-.312a.255.255 0 0 0 .073-.035c.023-.011.046-.027.073-.042a.546.546 0 0 0 .185-.254c.046-.112.046-.262-.008-.443-.073-.258-.22-.423-.435-.485-.216-.065-.462-.057-.74.023-.23.066-.423.19-.573.37-.15.177-.188.396-.115.654.058.197.154.335.296.408a.683.683 0 0 0 .443.07l.088.311.008-.003Zm.724 2.228a.442.442 0 0 1-.07.016.558.558 0 0 0-.092.007.89.89 0 0 1-.612-.185c-.146-.104-.258-.277-.339-.53-.003-.016-.011-.04-.019-.074-.011-.035-.02-.077-.03-.13a.776.776 0 0 1-.02-.166 1.013 1.013 0 0 1 .223-.666c.12-.162.335-.297.64-.393l.234-.061a.692.692 0 0 1 .173-.035 1.97 1.97 0 0 1 .216 0c.173.012.35.066.527.17.177.103.312.296.408.584.089.274.104.493.043.659a.868.868 0 0 1-.258.38c-.039.032-.081.059-.12.082l-.115.057-.1-.308a.256.256 0 0 0 .073-.034.57.57 0 0 0 .246-.304c.043-.116.035-.262-.023-.443-.084-.258-.235-.412-.454-.473-.22-.058-.466-.043-.74.046-.23.077-.415.204-.561.389-.142.184-.173.404-.092.658.065.196.169.327.311.396.147.07.293.085.443.054l.1.308.008-.004Zm-.235.65c.127-.265.362-.477.712-.63.346-.155.658-.19.947-.1.285.084.5.292.647.615.146.327.153.627.026.893-.127.27-.361.481-.708.635-.346.154-.662.189-.943.104-.28-.084-.496-.292-.643-.623-.146-.331-.157-.628-.034-.897l-.004.004Zm.762 1.217c.22.042.462.004.724-.112.28-.123.462-.265.546-.42a.785.785 0 0 0 .1-.45c-.003-.023-.007-.046-.015-.069-.008-.023-.012-.042-.015-.058l-.043-.115-.03-.062a.587.587 0 0 0-.047-.077c-.019-.027-.038-.053-.061-.08-.023-.027-.05-.05-.081-.078a.74.74 0 0 0-.373-.157c-.158-.027-.366.019-.62.13l-.077.035c-.031.012-.054.027-.073.039-.181.1-.324.234-.431.408-.108.17-.104.38.007.631.108.242.27.385.49.431v.004Zm.97 2.232 1.82-1.008.155.277-1.821 1.008.158.29-.708.361-.135-.239.466-.257-.897-1.617 2.051-1.136.154.278-1.82 1.008.577 1.04v-.005Zm3.083 1.04.17.269-1.99 1.243-.17-.27 1.613-1.008-2.275-.053-.17-.266 1.99-1.243.17.27-1.601 1 2.263.058Zm-1.366 2.063-.208-.27 2.394-.743.208.266-1.301 2.144-.208-.266.343-.55-.612-.781-.616.2Zm1.385.354.655-1.036-1.163.385.508.65Zm1.155 2.236 1.547-1.393.212.235-1.547 1.393.22.242-.609.516-.185-.204.397-.354-1.24-1.374 1.744-1.57.212.234-1.548 1.394.797.885V66.6Zm3.253.277.227.22-1.628 1.686-.228-.22 1.32-1.366-2.216.5-.227-.22 1.628-1.685.227.22-1.313 1.358 2.21-.493Zm.411 2.133-1.039.346-.296-.25 1.108-.331a.725.725 0 0 1-.084-.093.81.81 0 0 1-.085-.15.67.67 0 0 1-.054-.304c.004-.12.062-.246.173-.377l.016-.02.015-.018a.605.605 0 0 1 .181-.147.817.817 0 0 1 .242-.08c.178-.031.382.05.616.246l.77.643-1.509 1.797-.242-.204.6-.716-.408-.342h-.004Zm.64-.963c-.12-.1-.224-.15-.316-.154a.428.428 0 0 0-.231.05l-.073.054-.058.058a.473.473 0 0 0-.112.308c0 .115.085.246.254.389l.474.396.566-.673-.509-.424.004-.004Zm3.783 4.608-.423.677-.24-.138.267-.459-1.579-.912-.265.462-.239-.138.377-.7.185.103c.266-.108.485-.262.666-.466.089-.104.18-.215.27-.338.092-.12.169-.243.238-.362l.25-.412 1.24.716-1.04 1.801.293.17v-.004Zm-.354-2.302-.154.246-.015.023-.016.023c-.08.143-.2.316-.354.52a1.861 1.861 0 0 1-.616.516l-.042.023-.046.023 1.031.593.909-1.57-.697-.4v.003Zm2.556 2.105-.112.243-1.116-.52-.343.735 1.263.59-.112.242-1.551-.724.99-2.124 1.516.708-.112.242-1.228-.573-.312.666 1.117.52v-.005Zm-.22 1.059c.02.008.031.015.039.027l.038.015c.162.066.312.02.443-.146.07-.089.135-.185.196-.277a2.35 2.35 0 0 0 .15-.293l.02-.054.023-.053.404-.928 1.362.55-.877 2.175-.293-.12.778-1.928-.782-.315-.323.743-.096.211c-.02.046-.035.077-.046.1-.012.023-.039.066-.077.131a1.49 1.49 0 0 1-.374.431c-.154.12-.338.135-.558.046l-.065-.026-.066-.035.104-.258v.004Zm2.571.935c-.119-.27-.123-.589-.011-.95.111-.362.292-.62.543-.782.254-.158.55-.185.889-.08.342.103.573.292.692.565.12.273.124.589.016.95-.112.363-.293.624-.539.782-.25.158-.547.185-.893.077-.346-.104-.577-.292-.697-.562Zm1.42.223c.178-.138.309-.346.393-.62.089-.292.104-.523.039-.684a.75.75 0 0 0-.277-.37c-.02-.011-.043-.027-.062-.035l-.054-.026-.111-.043c-.02-.004-.043-.011-.066-.015-.027-.004-.054-.012-.088-.016a.61.61 0 0 0-.212.004.725.725 0 0 0-.366.181c-.123.104-.223.289-.308.554l-.023.081a.229.229 0 0 0-.015.081c-.042.2-.035.397.027.593.058.192.22.33.48.408.255.077.47.05.648-.089l-.004-.004Zm2.237-1.42c.223.039.377.108.458.208.08.1.127.2.139.304 0 .015.004.035.004.05 0 .02 0 .035-.004.05l-.016.093a.47.47 0 0 1-.177.311.559.559 0 0 1-.296.116.134.134 0 0 1 .034.023l.035.015a.62.62 0 0 1 .254.22c.073.104.092.242.066.412-.035.207-.116.342-.243.411a.853.853 0 0 1-.396.112h-.093c-.03 0-.054-.004-.073-.004l-.142-.027-.978-.173.408-2.31 1.016.181.004.008Zm-1.07 1.928.643.112.023.004.03.004c.062.011.12.011.174.008a.662.662 0 0 0 .17-.035c.107-.03.176-.131.207-.3.023-.139 0-.25-.077-.328-.077-.08-.204-.134-.385-.165l-.643-.112-.142.809v.003Zm.189-1.07.623.112c.162.027.281.016.354-.035a.402.402 0 0 0 .15-.2l.004-.023.004-.023.012-.07a.179.179 0 0 0-.008-.088.33.33 0 0 0-.096-.161c-.054-.054-.15-.093-.281-.116l-.635-.112-.127.72v-.004Zm2.247.312.67.097.139.026a.72.72 0 0 1 .227.097c.092.05.17.13.235.238.065.108.084.254.057.443-.03.22-.107.37-.23.45a.798.798 0 0 1-.386.135l-.123.004-.111-.016-.986-.138.328-2.325.311.042-.13.947Zm-.157 1.117.627.088.062.008h.069a.495.495 0 0 0 .254-.089c.08-.054.127-.146.146-.28a.448.448 0 0 0-.07-.313c-.06-.096-.188-.161-.38-.188l-.59-.081-.118.855Zm2.263-1.787-.327 2.325-.312-.042.327-2.325.312.043Zm.354 2.318-.404-.008.843-1.186-.758-1.158.392.008.574.931.612-.912.361.007-.793 1.124.797 1.22-.396-.007-.597-.986-.635.963.004.004Zm5.158-1.363-.82 1.297-.377.054.897-1.397-1.178-.932.373-.05 1.09.886-.143-1.02.312-.043.142 1.02.8-1.15.374-.054-.874 1.22 1.251 1.097-.38.054-1.148-1.02.162 1.158-.312.043-.162-1.16-.007-.003Zm3.348-.831.066.258-1.193.296.196.789 1.35-.339.066.258-1.659.412-.565-2.275 1.624-.404.065.258-1.316.327.177.716 1.193-.296h-.004Zm1.144 1.127-.304.093-.686-2.244.304-.093.285.936 1.128-.347-.285-.935.304-.092.685 2.244-.304.092-.323-1.055-1.128.347.324 1.054Zm3.048-1.347-.777-1.928.292-.12.778 1.929.88-.354-.78-1.929.292-.119.778 1.928.323-.13.273.75-.254.104-.2-.493-2.679 1.082-.877-2.175.292-.119.777 1.928.878-.354h.004Zm2.433-3.472.28-.15 1.101 2.071-.277.146-.893-1.678-.211 2.263-.278.15-1.1-2.07.28-.15.886 1.666.215-2.251-.003.003Zm2.14 1.444-.266.173-1.278-1.967.266-.173.53.82.99-.643-.531-.82.266-.173 1.277 1.967-.265.173-.6-.928-.99.643.6.924v.004Zm2.994-5.212.285-.258-.104 1.552 1.728.142-.308.277-1.635-.173.82.908-.235.212-1.57-1.744.234-.211.712.793.073-1.498Zm2.275 1.12-.23.247-1.11-2.252.232-.246 2.32.95-.23.25-.597-.25-.678.728.293.573Zm.13-1.424-1.123-.485.562 1.09.562-.605Zm.89-.735.077.05.092.042c.085.027.181.031.297 0 .115-.027.234-.119.361-.27.108-.126.166-.242.178-.338a.498.498 0 0 0-.027-.246l-.031-.058c-.012-.015-.02-.03-.03-.038l-.066-.066-.058-.042a.257.257 0 0 0-.07-.043.416.416 0 0 0-.242-.015c-.096.02-.2.093-.312.227l-.196.235-.204-.17.177-.211.058-.07c.011-.019.023-.03.027-.042a.247.247 0 0 0 .023-.054.496.496 0 0 0 .042-.211c0-.077-.046-.15-.13-.224a.357.357 0 0 0-.309-.08c-.115.023-.23.1-.346.238-.115.139-.173.258-.18.358a.437.437 0 0 0 .045.25l.05.07.05.05-.2.238a.721.721 0 0 1-.17-.196.57.57 0 0 1-.068-.212.84.84 0 0 1 .05-.38.64.64 0 0 1 .057-.116.545.545 0 0 1 .066-.104l.111-.146.116-.123c.035-.035.062-.058.077-.074.02-.015.05-.034.092-.061.1-.07.216-.112.347-.123.13-.016.265.034.4.15.108.088.17.18.185.277a.609.609 0 0 1-.012.266l-.02.05-.022.046a.68.68 0 0 1 .33-.147.602.602 0 0 1 .266.035l.116.058.088.065.085.085c.012.011.023.03.039.05a.674.674 0 0 1 .108.45c-.012.158-.108.343-.282.55-.242.29-.465.436-.677.447a.891.891 0 0 1-.304-.038.707.707 0 0 1-.262-.147l.2-.238.008-.004Zm1.955-1.232-.196.277-1.413-2.074.193-.277 2.433.62-.193.276-.627-.165-.57.812.37.531h.003Zm-.065-1.428-1.182-.323.708 1 .474-.677Zm1.316-.438-.215.342-.581-1.332-1.382.054.207-.33 1.094-.012-.466-.997.192-.308.558 1.258 1.46-.053-.212.338-1.151.004.5 1.04-.004-.005Zm1.209-3.742a.214.214 0 0 1 .058.039c.03.027.054.046.069.061a.928.928 0 0 1 .304.562c.03.173-.015.377-.135.616l-.038.066a1.112 1.112 0 0 1-.173.246 1.018 1.018 0 0 1-.627.312c-.201.03-.447-.027-.732-.174l-.212-.123a.787.787 0 0 1-.15-.1 1.451 1.451 0 0 1-.15-.154c-.116-.13-.2-.292-.254-.492-.054-.2-.012-.432.127-.701.13-.258.277-.423.435-.496a.811.811 0 0 1 .45-.085.85.85 0 0 1 .143.03l.123.043-.147.289a.259.259 0 0 0-.076-.023.393.393 0 0 0-.085-.02.582.582 0 0 0-.308.058c-.112.05-.212.162-.296.327-.124.239-.127.458-.012.654.115.197.3.358.558.49.216.111.439.15.674.122.23-.026.408-.161.53-.4.093-.184.116-.35.062-.5a.7.7 0 0 0-.273-.354l.146-.289-.011-.004Zm-1.12-.662-.243-.108.747-1.682.242.108-.311.697 1.901.847-.127.288-1.901-.846-.308.696Zm2.802-1.255-.104.324-1.955-1.57.104-.324 2.505-.12-.104.324-.646.027-.308.943.508.396Zm-.481-1.343-1.224.035.97.75.254-.785Zm1.255-.981-.089.304-2.255-.647.088-.304.94.27.323-1.136-.94-.27.089-.304 2.255.647-.088.304-1.063-.304-.323 1.136 1.063.304Zm.542-2.148-.054.335-2.178-1.244.054-.334 2.455-.512-.053.334-.636.124-.153.981.565.312v.004Zm-.685-1.251-1.205.227 1.074.589.131-.816ZM18.468 41.693l-1.382.897 1.209.192-.05.312-2.317-.366.05-.312 1.054.166-.889-1.209.062-.38.897 1.273 1.131-.78.054-.347.782.154-.043.273-.523-.085-.035.216v-.004Zm.162-1.04-.077.332-2.086-1.394.077-.33 2.486-.34-.077.332-.643.08-.223.967.543.35v.004Zm-.597-1.297-1.216.143 1.031.662.185-.805Zm.474-1.2.088.019.1.004a.522.522 0 0 0 .277-.112c.097-.07.173-.196.235-.385.05-.158.066-.285.039-.38a.46.46 0 0 0-.17-.263c-.015-.011-.03-.019-.042-.026l-.085-.039-.069-.015a.294.294 0 0 0-.08-.012.412.412 0 0 0-.232.077c-.08.054-.15.162-.204.327l-.092.293-.254-.081.084-.266.027-.084a.503.503 0 0 1 .012-.05c.004-.016.004-.035.004-.058a.455.455 0 0 0-.043-.212c-.03-.07-.1-.123-.207-.158a.354.354 0 0 0-.316.043c-.1.061-.177.18-.231.35-.054.17-.065.304-.035.4.031.093.074.166.139.212l.073.046.066.027-.097.296a.813.813 0 0 1-.23-.119.505.505 0 0 1-.143-.173.853.853 0 0 1-.096-.37c0-.034.004-.077.007-.127a.41.41 0 0 1 .023-.119l.047-.177.061-.158a.756.756 0 0 1 .046-.096c.012-.02.031-.054.062-.092.066-.1.158-.181.273-.247.116-.061.258-.065.428-.011.13.042.223.104.273.184.05.081.08.166.088.25l.004.054-.004.05a.714.714 0 0 1 .25-.261.553.553 0 0 1 .259-.07l.13.012.108.027.112.046.054.031a.69.69 0 0 1 .27.377c.05.15.03.358-.055.616-.115.358-.27.581-.462.666a.893.893 0 0 1-.296.08.774.774 0 0 1-.296-.034l.096-.296.004.004Zm1.362-1.879-.123.316-1.87-1.67.122-.316 2.51.011-.12.316-.646-.012-.354.928.489.423-.008.004Zm-.412-1.366-1.224-.027.932.8.296-.773h-.004Zm1.86-1.828-1.598.396 1.082.574-.15.277-2.071-1.101.15-.281.943.5-.447-1.432.181-.338.435 1.493 1.324-.37.162-.307.689.4-.13.242-.47-.25-.104.193.003.004Zm.842-2.914a.323.323 0 0 1 .054.042c.027.031.046.05.062.066a.922.922 0 0 1 .242.593c.012.176-.054.373-.2.596l-.042.062c-.023.027-.05.065-.085.107-.035.043-.073.081-.115.12a1.012 1.012 0 0 1-.662.246c-.204.008-.44-.073-.709-.25l-.196-.143a.983.983 0 0 1-.139-.111 2.02 2.02 0 0 1-.134-.17c-.1-.142-.17-.311-.2-.515-.031-.204.034-.431.2-.682.158-.242.32-.392.485-.446a.83.83 0 0 1 .458-.039.963.963 0 0 1 .138.047l.116.053-.177.27a.175.175 0 0 0-.073-.03.4.4 0 0 0-.081-.028.558.558 0 0 0-.312.027c-.115.039-.227.139-.33.296-.147.228-.174.443-.082.647.093.208.262.389.5.547.205.13.424.196.655.192.235-.004.423-.12.57-.342.111-.174.15-.34.111-.493a.706.706 0 0 0-.235-.381l.177-.273.004-.008Zm-.981-.986-.216-.157 1.082-1.49.215.154-.446.616 1.682 1.224-.185.258-1.682-1.224-.446.616-.004.003Zm3.071-.608-.223.258-1.19-2.21.224-.253 2.352.87-.22.258-.604-.231-.65.75.315.566-.004-.008Zm.081-1.424-1.143-.446.6 1.07.543-.624Zm1.524-.396-.219.227-1.686-1.628.22-.227.704.677.82-.847-.7-.677.219-.227 1.686 1.628-.22.227-.793-.766-.82.85.793.767-.004-.004Zm2.071-4.98 1.444 1.847-.25.196-1.444-1.848.25-.196Zm3.114-.209c.015.023.023.043.035.062.011.038.023.065.03.084a.918.918 0 0 1-.02.639c-.06.166-.203.32-.426.466l-.065.039c-.031.019-.07.038-.12.065a.918.918 0 0 1-.335.096.992.992 0 0 1-.52-.08c-.188-.074-.369-.247-.546-.516l-.123-.212c-.035-.05-.058-.104-.08-.158a1.464 1.464 0 0 1-.055-.208 1.194 1.194 0 0 1 .027-.554c.054-.196.208-.377.458-.543.243-.157.45-.227.624-.211a.85.85 0 0 1 .435.15c.038.03.077.061.108.096l.084.096-.27.177a.193.193 0 0 0-.053-.057.915.915 0 0 0-.062-.058.568.568 0 0 0-.296-.104c-.123-.012-.262.034-.423.139-.228.146-.34.334-.34.558 0 .227.082.462.24.7.13.204.304.35.52.443.215.092.434.065.657-.081.174-.112.274-.246.304-.404a.673.673 0 0 0-.061-.443l.273-.177v-.004Zm.85-2.294.34-.188-.45 1.49 1.65.526-.361.2-1.555-.534.592 1.07-.277.154-1.14-2.052.278-.154.516.932.408-1.444Zm2.714-.192.108.242-1.124.5.331.744L35.192 20l.108.242-1.563.697-.954-2.144 1.528-.681.108.242-1.24.55.3.674 1.124-.5Zm1.086-1.486c.246-.092.45-.112.616-.058.165.058.288.189.37.4.068.181.076.362.022.54-.054.18-.23.327-.531.442l-.57.22.335.873-.296.112-.84-2.19.89-.343.004.004Zm-.185 1.297.539-.208c.196-.077.312-.17.35-.277a.501.501 0 0 0-.011-.35c-.058-.146-.139-.227-.25-.25a.473.473 0 0 0-.181-.004.833.833 0 0 0-.22.061l-.539.208.316.82h-.004Zm3.995-1.405.02.162c.003.027.011.058.015.096.004.039.011.073.015.096l.027.116.066.185a.875.875 0 0 0 .096.173c.089.123.208.23.366.315.154.089.361.108.623.066.327-.05.554-.166.681-.339.127-.173.204-.354.227-.546.008-.039.012-.077.016-.116a.7.7 0 0 0-.004-.18 2.616 2.616 0 0 0-.027-.251l-.05-.223a1.195 1.195 0 0 0-.493-.693c-.18-.123-.43-.162-.75-.112-.277.043-.477.135-.6.27a.815.815 0 0 0-.224.423l-.011.104-.004.096.323-.05a.495.495 0 0 1 .146-.38.769.769 0 0 1 .435-.205l.139-.011c.027-.004.054-.004.08-.004a.628.628 0 0 1 .4.192.746.746 0 0 1 .159.216c.046.092.077.196.096.315l-1.767.277v.008Zm.362.277 1.459-.23.004.022.004.027.007.047c0 .038.004.065 0 .08 0 .016 0 .039-.004.066a.86.86 0 0 1-.161.408c-.093.13-.247.212-.474.246-.196.031-.354.008-.473-.077a.704.704 0 0 1-.258-.288l-.042-.085a.421.421 0 0 1-.035-.089l-.02-.069-.01-.065.003.007Zm3.784-1.901.315-.023.166 2.34-.316.023-.13-1.894-1.113 1.983-.316.023-.165-2.34.316-.024.13 1.883 1.113-1.971Zm-.986-.462c.02.089.054.154.112.196.054.039.135.054.235.046.092-.007.165-.03.208-.069a.33.33 0 0 0 .088-.142l.008-.039v-.034l.25-.02-.004.027-.004.024a.594.594 0 0 1-.142.28c-.077.089-.208.139-.389.154a.605.605 0 0 1-.346-.057.56.56 0 0 1-.185-.166.348.348 0 0 1-.046-.092l-.023-.085.246-.015-.008-.008Zm3.588 1.397v.266h-1.232v.812h1.393v.266H44.7v-2.344h1.675v.265h-1.355v.735h1.232-.004Zm.285 1.009c.019 0 .034.007.042.015l.042.004c.173.012.3-.08.377-.273a3.2 3.2 0 0 0 .1-.328c.027-.107.043-.219.05-.323l.004-.058.004-.057.096-1.005 1.467.104-.166 2.34-.315-.023.146-2.075-.839-.057-.077.804-.027.231-.011.112a1.638 1.638 0 0 1-.035.146 1.528 1.528 0 0 1-.223.527c-.108.158-.281.231-.516.216l-.07-.004-.073-.012.02-.277.004-.007Zm4.815.542-.139.786-.273-.039.073-.527-1.805-.254-.073.527-.274-.038.085-.793.208.03c.204-.2.35-.427.443-.68a4.91 4.91 0 0 0 .212-.835l.08-.478 1.42.2-.288 2.06.334.045-.003-.004Zm-1.19-2.001-.05.285-.004.027-.003.027a4.805 4.805 0 0 1-.135.612 1.94 1.94 0 0 1-.377.712l-.031.038-.035.039 1.178.165.254-1.797-.797-.112v.004Zm3.307 1.362-.054.258-1.205-.254-.17.797 1.363.289-.054.262-1.674-.355.489-2.294 1.636.347-.054.258-1.328-.281-.154.72 1.205.257v-.004Zm1.82-.438c.25.08.424.196.516.342.092.146.104.327.035.543a.797.797 0 0 1-.32.435c-.154.108-.385.108-.693.011l-.58-.188-.29.889-.3-.096.724-2.233.908.297Zm-.962.889.547.177c.2.065.346.065.446.004.1-.062.17-.154.208-.281.046-.15.035-.266-.039-.354a.412.412 0 0 0-.138-.116.876.876 0 0 0-.208-.092l-.547-.177-.273.835.004.004Zm4.777 3.248-.424-1.59-.554 1.09-.281-.142 1.066-2.09.281.142-.485.95 1.424-.469.343.177-1.486.458.393 1.32.312.158-.39.697-.245-.123.242-.474-.193-.1-.003-.004Zm.912.493-.289-.18L61.72 20.2l.289.177-.49 2.46-.288-.181.13-.636-.842-.527-.508.397v.011Zm1.42-.142.262-1.197-.962.758.7.439Zm2.833.146.27.188-1.756 1.125c-.184.123-.334.173-.446.15a1.03 1.03 0 0 1-.154-.047.61.61 0 0 1-.139-.077l-.03-.023a.586.586 0 0 1-.116-.104l-.02-.03-.03-.02.158-.223.038.058.047.054.034.027.035.023.011.008a.35.35 0 0 0 .2.057c.078-.004.178-.05.293-.138l.281-1.956.316.22-.258 1.54 1.27-.832h-.004Zm.262 1.505.527.427.104.096a.73.73 0 0 1 .223.528c0 .127-.057.261-.177.408-.138.17-.28.258-.43.265a.782.782 0 0 1-.397-.08l-.104-.062-.089-.073-.77-.624 1.475-1.824.246.2-.6.743-.008-.004Zm-.712.878.492.396.05.038.062.039c.08.042.166.062.262.054s.185-.062.27-.166a.453.453 0 0 0 .1-.304c-.004-.115-.078-.235-.232-.358l-.462-.373-.542.67v.004Zm2.86-.366-1.475 1.824-.246-.2 1.478-1.824.246.2h-.003Zm.538 1.12-.065.061-1.378 1.282-.216-.23 1.717-1.602.32.346-.913 1.856 1.913-.782.32.343-1.717 1.601-.215-.23 1.374-1.283.073-.053-1.967.777-.173-.185.92-1.901h.008Zm1.956 4.884-.64.482-.172-.212.412-.335-1.147-1.416-.412.334-.174-.215.605-.52.134.166c.285-.008.547-.073.79-.2a6.64 6.64 0 0 0 .373-.22c.127-.08.246-.165.354-.25l.385-.296.9 1.112-1.616 1.309.212.261h-.004Zm.492-2.274-.23.177-.024.019-.023.02c-.127.103-.3.222-.515.357-.216.135-.47.22-.762.262l-.047.004-.05.007.747.924 1.413-1.143-.505-.624-.004-.003Zm-.496 2.91-.189-.282 2.44-.573.19.281-1.448 2.048-.189-.281.378-.524-.555-.824-.627.158v-.004Zm1.355.45.727-.99-1.19.305.463.685Zm1.405 2.706c-.023.011-.043.023-.066.027a.56.56 0 0 0-.088.023.895.895 0 0 1-.635-.062c-.162-.073-.304-.223-.435-.458a1.401 1.401 0 0 1-.139-.354 1.013 1.013 0 0 1 .092-.697c.09-.184.27-.354.551-.508l.22-.108a.687.687 0 0 1 .165-.069 1.21 1.21 0 0 1 .762.023c.192.066.362.231.508.497.142.254.196.466.17.635a.85.85 0 0 1-.181.423.64.64 0 0 1-.104.1l-.1.077-.158-.28a.196.196 0 0 0 .061-.05.428.428 0 0 0 .062-.058.555.555 0 0 0 .123-.29c.02-.118-.015-.265-.108-.43-.13-.235-.308-.362-.535-.377-.223-.016-.465.046-.716.188-.211.12-.37.281-.477.489-.108.208-.096.431.035.662.1.181.227.293.38.331.155.039.305.03.447-.03l.158.284.008.012Zm1.254-.328.243-.111.777 1.666-.238.112-.323-.689-1.886.878-.135-.285 1.886-.878-.323-.689v-.003Zm.366 2.726.22.639.034.134c.02.077.027.158.016.247a.632.632 0 0 1-.108.32c-.07.107-.189.192-.366.253-.208.073-.377.07-.508-.004a.798.798 0 0 1-.296-.28l-.058-.108-.038-.108-.324-.94 2.217-.761.104.3-.904.312.011-.004Zm-1.066.365.204.597.02.058.03.061a.495.495 0 0 0 .192.185c.085.046.19.046.316.004a.444.444 0 0 0 .246-.204c.058-.1.058-.243-.007-.424l-.193-.562-.816.281.008.004Zm2.617 1.205-2.217.766-.104-.3 2.217-.762.104.3v-.004Zm-.92 1.37-1.112.277-.077-.307 1.112-.278-.05-.196.25-.062.05.197.917-.227.361 1.45-.257.066-.285-1.143-.658.166.204.823-.25.062-.205-.824v-.004Zm.647 1.84.104.67.011.139a.768.768 0 0 1-.026.242c-.023.1-.077.2-.162.296-.085.093-.22.158-.404.185-.216.035-.385.004-.5-.092a.82.82 0 0 1-.243-.328l-.039-.115-.019-.112-.154-.981 2.317-.366.05.312-.943.15h.008Zm-1.116.177.1.624.011.061.02.066c.03.084.084.158.157.215.078.062.178.077.312.058a.462.462 0 0 0 .281-.158c.077-.088.096-.227.07-.42l-.093-.584-.85.134-.008.004Zm2.37 1.644-2.316.365-.05-.311 2.317-.366.05.312Z" fill="#2B2A29"/><path fill-rule="evenodd" clip-rule="evenodd" d="m16.929 44.295.523 1.947 1.948.524-1.948.527-.523 1.948-.524-1.948-1.948-.527 1.948-.523.524-1.948ZM74.734 44.295l.523 1.947 1.948.524-1.948.527-.523 1.948-.528-1.948-1.948-.527 1.948-.523.528-1.948Z" fill="#E31E24"/></svg>