<svg width="36" height="36" fill="none" xmlns="http://www.w3.org/2000/svg"><circle cx="18" cy="18" r="18" fill="#464646"/><path fill-rule="evenodd" clip-rule="evenodd" d="M28.8 11.078a8.849 8.849 0 0 1-2.545.697 4.442 4.442 0 0 0 1.948-2.451A8.874 8.874 0 0 1 25.39 10.4a4.432 4.432 0 0 0-7.55 4.042 12.579 12.579 0 0 1-9.135-4.63 4.408 4.408 0 0 0-.6 2.227c0 1.537.781 2.893 1.971 3.688a4.417 4.417 0 0 1-2.008-.554v.055a4.437 4.437 0 0 0 3.555 4.347 4.457 4.457 0 0 1-2.002.075 4.437 4.437 0 0 0 4.14 3.078A8.893 8.893 0 0 1 7.2 24.562a12.545 12.545 0 0 0 6.793 1.992c8.15 0 12.607-6.753 12.607-12.608 0-.192-.003-.384-.013-.573a9.026 9.026 0 0 0 2.213-2.295Z" fill="#fff"/></svg>