<svg width="36" height="36" fill="none" xmlns="http://www.w3.org/2000/svg"><circle cx="18" cy="18" r="18" fill="#464646"/><path fill-rule="evenodd" clip-rule="evenodd" d="M28.17 11.14c.36.36.618.806.751 1.297.764 3.075.588 7.932.015 11.126a2.908 2.908 0 0 1-2.047 2.047c-1.795.49-9.02.49-9.02.49s-7.225 0-9.02-.49a2.907 2.907 0 0 1-2.047-2.047c-.768-3.062-.558-7.922-.015-11.111a2.907 2.907 0 0 1 2.047-2.048c1.795-.49 9.02-.504 9.02-.504s7.225 0 9.02.49c.49.132.937.391 1.297.75ZM21.549 18l-5.993 3.471V14.53L21.548 18Z" fill="#fff"/></svg>