<svg width="274" height="176" viewBox="0 0 274 176" fill="none" xmlns="http://www.w3.org/2000/svg">
<g style="fill:none; stroke: #5FBDAA; stroke-width: 2px">
    <path d="M113.023 127.469L113.963 127.125L113.722 126.469H113.023V127.469ZM41.5391 127.469V126.469H40.8366L40.5983 127.13L41.5391 127.469ZM25.4844 172V173H26.1869L26.4251 172.339L25.4844 172ZM2.28125 172L1.34705 171.643L0.828951 173H2.28125V172ZM67.4375 1.375V0.375H66.7489L66.5033 1.01826L67.4375 1.375ZM87.125 1.375L88.059 1.0177L87.8131 0.375H87.125V1.375ZM152.398 172V173H153.852L153.332 171.643L152.398 172ZM129.312 172L128.373 172.344L128.613 173H129.312V172ZM48.3359 108.953L47.3959 108.612L46.9095 109.953H48.3359V108.953ZM106.344 108.953V109.953H107.772L107.283 108.611L106.344 108.953ZM77.2812 29.1484L78.2209 28.8063L77.2794 26.2208L76.3412 28.8075L77.2812 29.1484ZM113.023 126.469H41.5391V128.469H113.023V126.469ZM40.5983 127.13L24.5436 171.661L26.4251 172.339L42.4798 127.808L40.5983 127.13ZM25.4844 171H2.28125V173H25.4844V171ZM3.21545 172.357L68.3717 1.73174L66.5033 1.01826L1.34705 171.643L3.21545 172.357ZM67.4375 2.375H87.125V0.375H67.4375V2.375ZM86.191 1.7323L151.464 172.357L153.332 171.643L88.059 1.0177L86.191 1.7323ZM152.398 171H129.312V173H152.398V171ZM130.252 171.656L113.963 127.125L112.084 127.812L128.373 172.344L130.252 171.656ZM48.3359 109.953H106.344V107.953H48.3359V109.953ZM107.283 108.611L78.2209 28.8063L76.3416 29.4906L105.404 109.295L107.283 108.611ZM76.3412 28.8075L47.3959 108.612L49.276 109.294L78.2213 29.4894L76.3412 28.8075ZM250.25 172L249.356 172.447L249.632 173H250.25V172ZM247.203 158.641L248.196 158.52L247.941 156.432L246.483 157.947L247.203 158.641ZM180.289 163.797L179.623 164.543L179.631 164.55L180.289 163.797ZM183.336 106.141L183.924 106.95L183.925 106.949L183.336 106.141ZM246.852 95.125V96.125H247.852V95.125H246.852ZM240.055 67.1172L239.348 67.8243L239.354 67.8304L240.055 67.1172ZM192.711 80.3594V81.3594H193.711V80.3594H192.711ZM170.914 80.3594H169.914V81.3594H170.914V80.3594ZM177.594 62.0781L176.799 61.4715L176.798 61.473L177.594 62.0781ZM195.875 48.0156L195.469 47.1018L195.465 47.1034L195.875 48.0156ZM255.641 53.875L254.977 54.6232L254.981 54.6267L255.641 53.875ZM268.531 83.9922H269.531V83.98L269.531 83.9678L268.531 83.9922ZM272.984 170.125H273.984V169.918L273.902 169.729L272.984 170.125ZM272.984 172V173H273.984V172H272.984ZM246.852 136.492L247.751 136.929L247.852 136.722V136.492H246.852ZM246.852 110.477H247.852V109.477H246.852V110.477ZM251.144 171.553C249.979 169.221 248.977 164.922 248.196 158.52L246.21 158.762C246.992 165.172 248.021 169.779 249.356 172.447L251.144 171.553ZM246.483 157.947C236.585 168.229 224.81 173.344 211.109 173.344V175.344C225.377 175.344 237.665 169.99 247.924 159.334L246.483 157.947ZM211.109 173.344C198.808 173.344 188.781 169.889 180.947 163.044L179.631 164.55C187.89 171.767 198.411 175.344 211.109 175.344V173.344ZM180.955 163.051C173.203 156.135 169.336 147.424 169.336 136.844H167.336C167.336 147.983 171.438 157.24 179.623 164.543L180.955 163.051ZM169.336 136.844C169.336 123.935 174.203 114.013 183.924 106.95L182.748 105.332C172.469 112.8 167.336 123.346 167.336 136.844H169.336ZM183.925 106.949C193.769 99.7752 207.673 96.125 225.758 96.125V94.125C207.436 94.125 193.059 97.8185 182.747 105.332L183.925 106.949ZM225.758 96.125H246.852V94.125H225.758V96.125ZM247.852 95.125V85.1641H245.852V95.125H247.852ZM247.852 85.1641C247.852 77.3733 245.515 71.0808 240.756 66.404L239.354 67.8304C243.657 72.0598 245.852 77.7986 245.852 85.1641H247.852ZM240.762 66.4101C235.981 61.6296 229.007 59.3203 220.016 59.3203V61.3203C228.681 61.3203 235.066 63.5423 239.348 67.8243L240.762 66.4101ZM220.016 59.3203C212.107 59.3203 205.402 61.3206 199.964 65.3783L201.161 66.9811C206.192 63.2263 212.456 61.3203 220.016 61.3203V59.3203ZM199.964 65.3783C194.528 69.4353 191.711 74.4385 191.711 80.3594H193.711C193.711 75.1865 196.128 70.7365 201.161 66.9811L199.964 65.3783ZM192.711 79.3594H170.914V81.3594H192.711V79.3594ZM171.914 80.3594C171.914 74.2842 174.047 68.3981 178.39 62.6832L176.798 61.473C172.235 67.4769 169.914 73.7783 169.914 80.3594H171.914ZM178.389 62.6848C182.807 56.8953 188.761 52.3058 196.285 48.9279L195.465 47.1034C187.676 50.6005 181.443 55.3859 176.799 61.4715L178.389 62.6848ZM196.281 48.9294C203.877 45.5537 212.213 43.8594 221.305 43.8594V41.8594C211.959 41.8594 203.342 43.6026 195.469 47.1018L196.281 48.9294ZM221.305 43.8594C235.749 43.8594 246.931 47.4877 254.977 54.6232L256.304 53.1268C247.788 45.5748 236.079 41.8594 221.305 41.8594V43.8594ZM254.981 54.6267C263.018 61.6775 267.225 71.4334 267.532 84.0166L269.531 83.9678C269.213 70.9259 264.826 60.6038 256.3 53.1233L254.981 54.6267ZM267.531 83.9922V142.352H269.531V83.9922H267.531ZM267.531 142.352C267.531 154.061 269.022 163.471 272.066 170.521L273.902 169.729C271.009 163.029 269.531 153.923 269.531 142.352H267.531ZM271.984 170.125V172H273.984V170.125H271.984ZM272.984 171H250.25V173H272.984V171ZM214.273 156.477C221.252 156.477 227.869 154.669 234.109 151.069L233.11 149.337C227.162 152.768 220.889 154.477 214.273 154.477V156.477ZM234.109 151.069C240.354 147.467 244.919 142.756 247.751 136.929L245.952 136.055C243.316 141.478 239.053 145.908 233.11 149.337L234.109 151.069ZM247.852 136.492V110.477H245.852V136.492H247.852ZM246.852 109.477H229.859V111.477H246.852V109.477ZM229.859 109.477C216.513 109.477 206.34 111.424 199.471 115.444C192.52 119.512 189.016 125.673 189.016 133.797H191.016C191.016 126.374 194.151 120.875 200.482 117.17C206.895 113.416 216.643 111.477 229.859 111.477V109.477ZM189.016 133.797C189.016 140.84 191.377 146.451 196.167 150.498L197.458 148.97C193.186 145.361 191.016 140.347 191.016 133.797H189.016ZM196.167 150.498C200.913 154.508 206.977 156.477 214.273 156.477V154.477C207.351 154.477 201.774 152.617 197.458 148.97L196.167 150.498Z"/>
</g>
</svg>
