     <svg width="131" height="16" xmlns="http://www.w3.org/2000/svg" id="">                                  
        <g style="fill:none; stroke: #5FBDAA; stroke-width: 2px ">
            <path id='check' d="M130.707 8.70711C131.098 8.31658 131.098 7.68342 130.707 7.29289L124.343 0.928932C123.953 0.538408 123.319 0.538408 122.929 0.928932C122.538 1.31946 122.538 1.95262 122.929 2.34315L128.586 8L122.929 13.6569C122.538 14.0474 122.538 14.6805 122.929 15.0711C123.319 15.4616 123.953 15.4616 124.343 15.0711L130.707 8.70711ZM2 8C2 7.44117 2.44117 7 3 7V5C1.3366 5 0 6.3366 0 8H2ZM3 7C3.55883 7 4 7.44117 4 8H6C6 6.3366 4.6634 5 3 5V7ZM4 8C4 8.55883 3.55883 9 3 9V11C4.6634 11 6 9.6634 6 8H4ZM3 9C2.44117 9 2 8.55883 2 8H0C0 9.6634 1.3366 11 3 11V9ZM5 9H130V7H5V9Z"/>                                        <!-- fill="#5FBDAA" -->
        </g>
</svg>