     <svg width="131" height="75" fill="none" xmlns="http://www.w3.org/2000/svg" id="animate_svg_two" class="svg_two">
                                    <g style="fill: none; stroke: #C4C4C4;">
                                        <path d="M3 1C1.88889 1 1 1.88889 1 3C1 4.11111 1.88889 5 3 5C4.11111 5 5 4.11111 5 3C5 1.88889 4.11111 1 3 1Z" />
                                    </g>
                                    <g style="fill: none; stroke: #5FBDAA; stroke-width: 1.9px ">
                                        <path d="M130.707 67.7071C131.098 67.3166 131.098 66.6834 130.707 66.2929L124.343 59.9289C123.953 59.5384 123.319 59.5384 122.929 59.9289C122.538 60.3195 122.538 60.9526 122.929 61.3431L128.586 67L122.929 72.6569C122.538 73.0474 122.538 73.6805 122.929 74.0711C123.319 74.4616 123.953 74.4616 124.343 74.0711L130.707 67.7071ZM2 3C2 2.44117 2.44117 2 3 2V0C1.3366 0 0 1.3366 0 3H2ZM3 2C3.55883 2 4 2.44117 4 3H6C6 1.3366 4.6634 0 3 0V2ZM4 3C4 3.55883 3.55883 4 3 4V6C4.6634 6 6 4.6634 6 3H4ZM3 4C2.44117 4 2 3.55883 2 3H0C0 4.6634 1.3366 6 3 6V4ZM5 4H46.5V2H5V4ZM65.5 23V47H67.5V23H65.5ZM86.5 68H130V66H86.5V68ZM65.5 47C65.5 58.598 74.902 68 86.5 68V66C76.0066 66 67.5 57.4934 67.5 47H65.5ZM46.5 4C56.9934 4 65.5 12.5066 65.5 23H67.5C67.5 11.402 58.098 2 46.5 2V4Z"/>
                                    </g>
                                </svg>