 <svg width="131" height="139" viewBox="0 0 131 139" fill="none" xmlns="http://www.w3.org/2000/svg" class="svg_three">
                                    <g style="fill: none; stroke: #5FBDAA; stroke-width: 1.9px ">
                                    <path d="M3 1C1.88889 1 1 1.88889 1 3C1 4.11111 1.88889 5 3 5C4.11111 5 5 4.11111 5 3C5 1.88889 4.11111 1 3 1Z" />
                                    </g>
                                    <g style="fill: none; stroke: #5FBDAA; stroke-width: 1.9px " id="animate_svg_three">
                                    <path d="M130.707 131.707C131.098 131.317 131.098 130.683 130.707 130.293L124.343 123.929C123.953 123.538 123.319 123.538 122.929 123.929C122.538 124.319 122.538 124.953 122.929 125.343L128.586 131L122.929 136.657C122.538 137.047 122.538 137.681 122.929 138.071C123.319 138.462 123.953 138.462 124.343 138.071L130.707 131.707ZM2 3C2 2.44117 2.44117 2 3 2V0C1.3366 0 0 1.3366 0 3H2ZM3 2C3.55883 2 4 2.44117 4 3H6C6 1.3366 4.6634 0 3 0V2ZM4 3C4 3.55883 3.55883 4 3 4V6C4.6634 6 6 4.6634 6 3H4ZM3 4C2.44117 4 2 3.55883 2 3H0C0 4.6634 1.3366 6 3 6V4ZM5 4H46.5V2H5V4ZM65.5 23V111H67.5V23H65.5ZM86.5 132H130V130H86.5V132ZM65.5 111C65.5 122.598 74.902 132 86.5 132V130C76.0066 130 67.5 121.493 67.5 111H65.5ZM46.5 4C56.9934 4 65.5 12.5066 65.5 23H67.5C67.5 11.402 58.098 2 46.5 2V4Z"/>
                                    </g>
                                </svg>