<svg width="127" height="331" viewBox="0 0 127 331" fill="none" xmlns="http://www.w3.org/2000/svg">
<path d="M3 1C1.88889 1 1 1.88889 1 3C1 4.11111 1.88889 5 3 5C4.11111 5 5 4.11111 5 3C5 1.88889 4.11111 1 3 1Z" fill="#C4C4C4"/>
<path d="M126.707 323.707C127.098 323.317 127.098 322.683 126.707 322.293L120.343 315.929C119.953 315.538 119.319 315.538 118.929 315.929C118.538 316.319 118.538 316.953 118.929 317.343L124.586 323L118.929 328.657C118.538 329.047 118.538 329.681 118.929 330.071C119.319 330.462 119.953 330.462 120.343 330.071L126.707 323.707ZM2 3C2 2.44117 2.44117 2 3 2V0C1.3366 0 0 1.3366 0 3H2ZM3 2C3.55883 2 4 2.44117 4 3H6C6 1.3366 4.6634 0 3 0V2ZM4 3C4 3.55883 3.55883 4 3 4V6C4.6634 6 6 4.6634 6 3H4ZM3 4C2.44117 4 2 3.55883 2 3H0C0 4.6634 1.3366 6 3 6V4ZM5 4H44.5V2H5V4ZM63.5 23V303H65.5V23H63.5ZM84.5 324H126V322H84.5V324ZM63.5 303C63.5 314.598 72.902 324 84.5 324V322C74.0066 322 65.5 313.493 65.5 303H63.5ZM44.5 4C54.9934 4 63.5 12.5066 63.5 23H65.5C65.5 11.402 56.098 2 44.5 2V4Z" fill="#5FBDAA"/>
</svg>
