<svg width="541" height="172" viewBox="0 0 541 172" fill="none" xmlns="http://www.w3.org/2000/svg">
<rect x="0.5" y="0.5" width="110" height="43" rx="3.5" fill="#7557D4"/>
<path d="M35.606 21.682C35.606 23.35 35.012 24.664 33.824 25.624C32.648 26.572 30.998 27.076 28.874 27.136V28.432H27.632V27.136C25.508 27.064 23.852 26.554 22.664 25.606C21.488 24.658 20.9 23.35 20.9 21.682C20.9 20.014 21.488 18.706 22.664 17.758C23.852 16.81 25.508 16.3 27.632 16.228V14.968H28.874V16.228C30.986 16.3 32.636 16.816 33.824 17.776C35.012 18.724 35.606 20.026 35.606 21.682ZM28.874 26.074C30.614 26.002 31.958 25.588 32.906 24.832C33.854 24.076 34.328 23.026 34.328 21.682C34.328 20.338 33.848 19.288 32.888 18.532C31.94 17.776 30.602 17.368 28.874 17.308V26.074ZM22.178 21.682C22.178 23.026 22.652 24.076 23.6 24.832C24.56 25.576 25.904 25.99 27.632 26.074V17.308C25.88 17.38 24.53 17.794 23.582 18.55C22.646 19.294 22.178 20.338 22.178 21.682ZM38.3239 18.532H39.6019V26.056L45.9199 18.532H47.0539V28H45.7759V20.476L39.4759 28H38.3239V18.532ZM58.4564 18.532V28H57.1784V19.666H52.6424L52.5164 22.006C52.4204 23.974 52.1924 25.486 51.8324 26.542C51.4724 27.598 50.8304 28.126 49.9064 28.126C49.6544 28.126 49.3484 28.078 48.9884 27.982L49.0784 26.884C49.2944 26.932 49.4444 26.956 49.5284 26.956C50.0204 26.956 50.3924 26.728 50.6444 26.272C50.8964 25.816 51.0644 25.252 51.1484 24.58C51.2324 23.908 51.3044 23.02 51.3644 21.916L51.5264 18.532H58.4564ZM66.1575 21.88C67.3455 21.892 68.2455 22.156 68.8575 22.672C69.4815 23.188 69.7935 23.932 69.7935 24.904C69.7935 25.912 69.4575 26.686 68.7855 27.226C68.1255 27.766 67.1655 28.03 65.9055 28.018L62.0895 28V18.532H63.3675V21.844L66.1575 21.88ZM65.8335 27.046C66.7095 27.058 67.3695 26.884 67.8135 26.524C68.2695 26.152 68.4975 25.612 68.4975 24.904C68.4975 24.208 68.2755 23.692 67.8315 23.356C67.3875 23.02 66.7215 22.846 65.8335 22.834L63.3675 22.798V27.01L65.8335 27.046ZM77.9428 19.666H74.3608V28H73.0828V19.666H69.5008V18.532H77.9428V19.666ZM84.6687 18.46C85.5567 18.46 86.3607 18.664 87.0807 19.072C87.8007 19.468 88.3647 20.032 88.7727 20.764C89.1807 21.496 89.3847 22.33 89.3847 23.266C89.3847 24.214 89.1807 25.054 88.7727 25.786C88.3647 26.518 87.8007 27.088 87.0807 27.496C86.3727 27.892 85.5687 28.09 84.6687 28.09C83.9007 28.09 83.2047 27.934 82.5807 27.622C81.9687 27.298 81.4647 26.83 81.0687 26.218V31.492H79.7907V18.532H81.0147V20.404C81.3987 19.78 81.9027 19.3 82.5267 18.964C83.1627 18.628 83.8767 18.46 84.6687 18.46ZM84.5787 26.956C85.2387 26.956 85.8387 26.806 86.3787 26.506C86.9187 26.194 87.3387 25.756 87.6387 25.192C87.9507 24.628 88.1067 23.986 88.1067 23.266C88.1067 22.546 87.9507 21.91 87.6387 21.358C87.3387 20.794 86.9187 20.356 86.3787 20.044C85.8387 19.732 85.2387 19.576 84.5787 19.576C83.9067 19.576 83.3007 19.732 82.7607 20.044C82.2327 20.356 81.8127 20.794 81.5007 21.358C81.2007 21.91 81.0507 22.546 81.0507 23.266C81.0507 23.986 81.2007 24.628 81.5007 25.192C81.8127 25.756 82.2327 26.194 82.7607 26.506C83.3007 26.806 83.9067 26.956 84.5787 26.956Z" fill="white"/>
<rect x="0.5" y="0.5" width="110" height="43" rx="3.5" stroke="#C4C4C4"/>
<path d="M267.594 21.502C268.47 21.682 269.136 22.036 269.592 22.564C270.048 23.08 270.276 23.758 270.276 24.598C270.276 25.69 269.886 26.53 269.106 27.118C268.338 27.706 267.204 28 265.704 28H260.124V15.4H265.362C266.706 15.4 267.756 15.676 268.512 16.228C269.268 16.78 269.646 17.578 269.646 18.622C269.646 19.33 269.466 19.93 269.106 20.422C268.746 20.902 268.242 21.262 267.594 21.502ZM261.438 21.106H265.29C266.262 21.106 267.006 20.908 267.522 20.512C268.05 20.116 268.314 19.54 268.314 18.784C268.314 18.028 268.05 17.452 267.522 17.056C267.006 16.66 266.262 16.462 265.29 16.462H261.438V21.106ZM265.704 26.938C267.876 26.938 268.962 26.128 268.962 24.508C268.962 22.924 267.876 22.132 265.704 22.132H261.438V26.938H265.704ZM273.3 18.532H274.578V26.056L280.896 18.532H282.03V28H280.752V20.476L274.452 28H273.3V18.532ZM294.927 26.884V30.286H293.721V28H285.243V30.286H284.037V26.884H284.577C285.213 26.848 285.645 26.38 285.873 25.48C286.101 24.58 286.257 23.32 286.341 21.7L286.467 18.532H293.451V26.884H294.927ZM287.511 21.772C287.451 23.116 287.337 24.226 287.169 25.102C287.001 25.966 286.701 26.56 286.269 26.884H292.173V19.666H287.619L287.511 21.772ZM310.175 18.532L305.441 29.134C305.057 30.022 304.613 30.652 304.109 31.024C303.605 31.396 302.999 31.582 302.291 31.582C301.835 31.582 301.409 31.51 301.013 31.366C300.617 31.222 300.275 31.006 299.987 30.718L300.581 29.764C301.061 30.244 301.637 30.484 302.309 30.484C302.741 30.484 303.107 30.364 303.407 30.124C303.719 29.884 304.007 29.476 304.271 28.9L304.685 27.982L300.455 18.532H301.787L305.351 26.578L308.915 18.532H310.175ZM315.862 28.09C314.926 28.09 314.086 27.886 313.342 27.478C312.61 27.07 312.034 26.5 311.614 25.768C311.194 25.024 310.984 24.19 310.984 23.266C310.984 22.342 311.194 21.514 311.614 20.782C312.034 20.05 312.61 19.48 313.342 19.072C314.086 18.664 314.926 18.46 315.862 18.46C316.678 18.46 317.404 18.622 318.04 18.946C318.688 19.258 319.198 19.72 319.57 20.332L318.616 20.98C318.304 20.512 317.908 20.164 317.428 19.936C316.948 19.696 316.426 19.576 315.862 19.576C315.178 19.576 314.56 19.732 314.008 20.044C313.468 20.344 313.042 20.776 312.73 21.34C312.43 21.904 312.28 22.546 312.28 23.266C312.28 23.998 312.43 24.646 312.73 25.21C313.042 25.762 313.468 26.194 314.008 26.506C314.56 26.806 315.178 26.956 315.862 26.956C316.426 26.956 316.948 26.842 317.428 26.614C317.908 26.386 318.304 26.038 318.616 25.57L319.57 26.218C319.198 26.83 318.688 27.298 318.04 27.622C317.392 27.934 316.666 28.09 315.862 28.09ZM329.468 18.532V28H328.19V19.666H323.654L323.528 22.006C323.432 23.974 323.204 25.486 322.844 26.542C322.484 27.598 321.842 28.126 320.918 28.126C320.666 28.126 320.36 28.078 320 27.982L320.09 26.884C320.306 26.932 320.456 26.956 320.54 26.956C321.032 26.956 321.404 26.728 321.656 26.272C321.908 25.816 322.076 25.252 322.16 24.58C322.244 23.908 322.316 23.02 322.376 21.916L322.538 18.532H329.468ZM341.147 18.532L336.413 29.134C336.029 30.022 335.585 30.652 335.081 31.024C334.577 31.396 333.971 31.582 333.263 31.582C332.807 31.582 332.381 31.51 331.985 31.366C331.589 31.222 331.247 31.006 330.959 30.718L331.553 29.764C332.033 30.244 332.609 30.484 333.281 30.484C333.713 30.484 334.079 30.364 334.379 30.124C334.691 29.884 334.979 29.476 335.243 28.9L335.657 27.982L331.427 18.532H332.759L336.323 26.578L339.887 18.532H341.147ZM349.834 19.666H344.416V28H343.138V18.532H349.834V19.666ZM351.681 18.532H352.959V26.056L359.277 18.532H360.411V28H359.133V20.476L352.833 28H351.681V18.532Z" fill="#333333"/>
<rect x="238.5" y="0.5" width="144" height="43" rx="3.5" stroke="#C4C4C4"/>
<path d="M270.654 79.4V92H269.34V86.186H261.456V92H260.124V79.4H261.456V85.016H269.34V79.4H270.654ZM277.859 82.46C279.095 82.46 280.043 82.772 280.703 83.396C281.363 84.008 281.693 84.92 281.693 86.132V92H280.469V90.524C280.181 91.016 279.755 91.4 279.191 91.676C278.639 91.952 277.979 92.09 277.211 92.09C276.155 92.09 275.315 91.838 274.691 91.334C274.067 90.83 273.755 90.164 273.755 89.336C273.755 88.532 274.043 87.884 274.619 87.392C275.207 86.9 276.137 86.654 277.409 86.654H280.415V86.078C280.415 85.262 280.187 84.644 279.731 84.224C279.275 83.792 278.609 83.576 277.733 83.576C277.133 83.576 276.557 83.678 276.005 83.882C275.453 84.074 274.979 84.344 274.583 84.692L274.007 83.738C274.487 83.33 275.063 83.018 275.735 82.802C276.407 82.574 277.115 82.46 277.859 82.46ZM277.409 91.082C278.129 91.082 278.747 90.92 279.263 90.596C279.779 90.26 280.163 89.78 280.415 89.156V87.608H277.445C275.825 87.608 275.015 88.172 275.015 89.3C275.015 89.852 275.225 90.29 275.645 90.614C276.065 90.926 276.653 91.082 277.409 91.082ZM293.591 82.532V92H292.313V83.666H286.373V92H285.095V82.532H293.591ZM302.102 82.46C302.99 82.46 303.794 82.664 304.514 83.072C305.234 83.468 305.798 84.032 306.206 84.764C306.614 85.496 306.818 86.33 306.818 87.266C306.818 88.214 306.614 89.054 306.206 89.786C305.798 90.518 305.234 91.088 304.514 91.496C303.806 91.892 303.002 92.09 302.102 92.09C301.334 92.09 300.638 91.934 300.014 91.622C299.402 91.298 298.898 90.83 298.502 90.218V95.492H297.224V82.532H298.448V84.404C298.832 83.78 299.336 83.3 299.96 82.964C300.596 82.628 301.31 82.46 302.102 82.46ZM302.012 90.956C302.672 90.956 303.272 90.806 303.812 90.506C304.352 90.194 304.772 89.756 305.072 89.192C305.384 88.628 305.54 87.986 305.54 87.266C305.54 86.546 305.384 85.91 305.072 85.358C304.772 84.794 304.352 84.356 303.812 84.044C303.272 83.732 302.672 83.576 302.012 83.576C301.34 83.576 300.734 83.732 300.194 84.044C299.666 84.356 299.246 84.794 298.934 85.358C298.634 85.91 298.484 86.546 298.484 87.266C298.484 87.986 298.634 88.628 298.934 89.192C299.246 89.756 299.666 90.194 300.194 90.506C300.734 90.806 301.34 90.956 302.012 90.956ZM312.769 82.46C314.005 82.46 314.953 82.772 315.613 83.396C316.273 84.008 316.603 84.92 316.603 86.132V92H315.379V90.524C315.091 91.016 314.665 91.4 314.101 91.676C313.549 91.952 312.889 92.09 312.121 92.09C311.065 92.09 310.225 91.838 309.601 91.334C308.977 90.83 308.665 90.164 308.665 89.336C308.665 88.532 308.953 87.884 309.529 87.392C310.117 86.9 311.047 86.654 312.319 86.654H315.325V86.078C315.325 85.262 315.097 84.644 314.641 84.224C314.185 83.792 313.519 83.576 312.643 83.576C312.043 83.576 311.467 83.678 310.915 83.882C310.363 84.074 309.889 84.344 309.493 84.692L308.917 83.738C309.397 83.33 309.973 83.018 310.645 82.802C311.317 82.574 312.025 82.46 312.769 82.46ZM312.319 91.082C313.039 91.082 313.657 90.92 314.173 90.596C314.689 90.26 315.073 89.78 315.325 89.156V87.608H312.355C310.735 87.608 309.925 88.172 309.925 89.3C309.925 89.852 310.135 90.29 310.555 90.614C310.975 90.926 311.563 91.082 312.319 91.082ZM326.036 87.104C327.32 87.404 327.962 88.178 327.962 89.426C327.962 90.254 327.656 90.89 327.044 91.334C326.432 91.778 325.52 92 324.308 92H320.006V82.532H324.182C325.262 82.532 326.108 82.742 326.72 83.162C327.332 83.582 327.638 84.182 327.638 84.962C327.638 85.478 327.494 85.922 327.206 86.294C326.93 86.654 326.54 86.924 326.036 87.104ZM321.248 86.744H324.092C324.824 86.744 325.382 86.606 325.766 86.33C326.162 86.054 326.36 85.652 326.36 85.124C326.36 84.596 326.162 84.2 325.766 83.936C325.382 83.672 324.824 83.54 324.092 83.54H321.248V86.744ZM324.254 90.992C325.07 90.992 325.682 90.86 326.09 90.596C326.498 90.332 326.702 89.918 326.702 89.354C326.702 88.79 326.516 88.376 326.144 88.112C325.772 87.836 325.184 87.698 324.38 87.698H321.248V90.992H324.254ZM338.697 82.532V92H337.419V83.666H332.883L332.757 86.006C332.661 87.974 332.433 89.486 332.073 90.542C331.713 91.598 331.071 92.126 330.147 92.126C329.895 92.126 329.589 92.078 329.229 91.982L329.319 90.884C329.535 90.932 329.685 90.956 329.769 90.956C330.261 90.956 330.633 90.728 330.885 90.272C331.137 89.816 331.305 89.252 331.389 88.58C331.473 87.908 331.545 87.02 331.605 85.916L331.767 82.532H338.697ZM350.61 87.662H342.69C342.762 88.646 343.14 89.444 343.824 90.056C344.508 90.656 345.372 90.956 346.416 90.956C347.004 90.956 347.544 90.854 348.036 90.65C348.528 90.434 348.954 90.122 349.314 89.714L350.034 90.542C349.614 91.046 349.086 91.43 348.45 91.694C347.826 91.958 347.136 92.09 346.38 92.09C345.408 92.09 344.544 91.886 343.788 91.478C343.044 91.058 342.462 90.482 342.042 89.75C341.622 89.018 341.412 88.19 341.412 87.266C341.412 86.342 341.61 85.514 342.006 84.782C342.414 84.05 342.966 83.48 343.662 83.072C344.37 82.664 345.162 82.46 346.038 82.46C346.914 82.46 347.7 82.664 348.396 83.072C349.092 83.48 349.638 84.05 350.034 84.782C350.43 85.502 350.628 86.33 350.628 87.266L350.61 87.662ZM346.038 83.558C345.126 83.558 344.358 83.852 343.734 84.44C343.122 85.016 342.774 85.772 342.69 86.708H349.404C349.32 85.772 348.966 85.016 348.342 84.44C347.73 83.852 346.962 83.558 346.038 83.558ZM353.457 82.532H354.735V86.726H360.693V82.532H361.971V92H360.693V87.824H354.735V92H353.457V82.532ZM365.603 82.532H366.881V90.056L373.199 82.532H374.333V92H373.055V84.476L366.755 92H365.603V82.532ZM386.276 87.662H378.356C378.428 88.646 378.806 89.444 379.49 90.056C380.174 90.656 381.038 90.956 382.082 90.956C382.67 90.956 383.21 90.854 383.702 90.65C384.194 90.434 384.62 90.122 384.98 89.714L385.7 90.542C385.28 91.046 384.752 91.43 384.116 91.694C383.492 91.958 382.802 92.09 382.046 92.09C381.074 92.09 380.21 91.886 379.454 91.478C378.71 91.058 378.128 90.482 377.708 89.75C377.288 89.018 377.078 88.19 377.078 87.266C377.078 86.342 377.276 85.514 377.672 84.782C378.08 84.05 378.632 83.48 379.328 83.072C380.036 82.664 380.828 82.46 381.704 82.46C382.58 82.46 383.366 82.664 384.062 83.072C384.758 83.48 385.304 84.05 385.7 84.782C386.096 85.502 386.294 86.33 386.294 87.266L386.276 87.662ZM381.704 83.558C380.792 83.558 380.024 83.852 379.4 84.44C378.788 85.016 378.44 85.772 378.356 86.708H385.07C384.986 85.772 384.632 85.016 384.008 84.44C383.396 83.852 382.628 83.558 381.704 83.558ZM403.068 90.884V94.286H401.862V92H393.384V94.286H392.178V90.884H392.718C393.354 90.848 393.786 90.38 394.014 89.48C394.242 88.58 394.398 87.32 394.482 85.7L394.608 82.532H401.592V90.884H403.068ZM395.652 85.772C395.592 87.116 395.478 88.226 395.31 89.102C395.142 89.966 394.842 90.56 394.41 90.884H400.314V83.666H395.76L395.652 85.772ZM413.838 87.662H405.918C405.99 88.646 406.368 89.444 407.052 90.056C407.736 90.656 408.6 90.956 409.644 90.956C410.232 90.956 410.772 90.854 411.264 90.65C411.756 90.434 412.182 90.122 412.542 89.714L413.262 90.542C412.842 91.046 412.314 91.43 411.678 91.694C411.054 91.958 410.364 92.09 409.608 92.09C408.636 92.09 407.772 91.886 407.016 91.478C406.272 91.058 405.69 90.482 405.27 89.75C404.85 89.018 404.64 88.19 404.64 87.266C404.64 86.342 404.838 85.514 405.234 84.782C405.642 84.05 406.194 83.48 406.89 83.072C407.598 82.664 408.39 82.46 409.266 82.46C410.142 82.46 410.928 82.664 411.624 83.072C412.32 83.48 412.866 84.05 413.262 84.782C413.658 85.502 413.856 86.33 413.856 87.266L413.838 87.662ZM409.266 83.558C408.354 83.558 407.586 83.852 406.962 84.44C406.35 85.016 406.002 85.772 405.918 86.708H412.632C412.548 85.772 412.194 85.016 411.57 84.44C410.958 83.852 410.19 83.558 409.266 83.558ZM423.694 82.532V92H422.524V88.868H419.554H419.194L416.998 92H415.612L417.97 88.688C417.238 88.484 416.674 88.136 416.278 87.644C415.882 87.152 415.684 86.528 415.684 85.772C415.684 84.716 416.044 83.912 416.764 83.36C417.484 82.808 418.468 82.532 419.716 82.532H423.694ZM416.98 85.808C416.98 87.212 417.874 87.914 419.662 87.914H422.524V83.666H419.752C417.904 83.666 416.98 84.38 416.98 85.808ZM433.998 83.666H430.416V92H429.138V83.666H425.556V82.532H433.998V83.666ZM443.686 87.662H435.766C435.838 88.646 436.216 89.444 436.9 90.056C437.584 90.656 438.448 90.956 439.492 90.956C440.08 90.956 440.62 90.854 441.112 90.65C441.604 90.434 442.03 90.122 442.39 89.714L443.11 90.542C442.69 91.046 442.162 91.43 441.526 91.694C440.902 91.958 440.212 92.09 439.456 92.09C438.484 92.09 437.62 91.886 436.864 91.478C436.12 91.058 435.538 90.482 435.118 89.75C434.698 89.018 434.488 88.19 434.488 87.266C434.488 86.342 434.686 85.514 435.082 84.782C435.49 84.05 436.042 83.48 436.738 83.072C437.446 82.664 438.238 82.46 439.114 82.46C439.99 82.46 440.776 82.664 441.472 83.072C442.168 83.48 442.714 84.05 443.11 84.782C443.506 85.502 443.704 86.33 443.704 87.266L443.686 87.662ZM439.114 83.558C438.202 83.558 437.434 83.852 436.81 84.44C436.198 85.016 435.85 85.772 435.766 86.708H442.48C442.396 85.772 442.042 85.016 441.418 84.44C440.806 83.852 440.038 83.558 439.114 83.558ZM454.079 82.532V92H452.801V83.666H448.265L448.139 86.006C448.043 87.974 447.815 89.486 447.455 90.542C447.095 91.598 446.453 92.126 445.529 92.126C445.277 92.126 444.971 92.078 444.611 91.982L444.701 90.884C444.917 90.932 445.067 90.956 445.151 90.956C445.643 90.956 446.015 90.728 446.267 90.272C446.519 89.816 446.687 89.252 446.771 88.58C446.855 87.908 446.927 87.02 446.987 85.916L447.149 82.532H454.079ZM461.781 85.88C462.969 85.892 463.869 86.156 464.481 86.672C465.105 87.188 465.417 87.932 465.417 88.904C465.417 89.912 465.081 90.686 464.409 91.226C463.749 91.766 462.789 92.03 461.529 92.018L457.713 92V82.532H458.991V85.844L461.781 85.88ZM461.457 91.046C462.333 91.058 462.993 90.884 463.437 90.524C463.893 90.152 464.121 89.612 464.121 88.904C464.121 88.208 463.899 87.692 463.455 87.356C463.011 87.02 462.345 86.846 461.457 86.834L458.991 86.798V91.01L461.457 91.046ZM467.855 82.532H469.133V86.726H475.091V82.532H476.369V92H475.091V87.824H469.133V92H467.855V82.532ZM483.908 92.09C482.996 92.09 482.174 91.886 481.442 91.478C480.71 91.058 480.134 90.482 479.714 89.75C479.294 89.018 479.084 88.19 479.084 87.266C479.084 86.342 479.294 85.514 479.714 84.782C480.134 84.05 480.71 83.48 481.442 83.072C482.174 82.664 482.996 82.46 483.908 82.46C484.82 82.46 485.642 82.664 486.374 83.072C487.106 83.48 487.676 84.05 488.084 84.782C488.504 85.514 488.714 86.342 488.714 87.266C488.714 88.19 488.504 89.018 488.084 89.75C487.676 90.482 487.106 91.058 486.374 91.478C485.642 91.886 484.82 92.09 483.908 92.09ZM483.908 90.956C484.58 90.956 485.18 90.806 485.708 90.506C486.248 90.194 486.668 89.756 486.968 89.192C487.268 88.628 487.418 87.986 487.418 87.266C487.418 86.546 487.268 85.904 486.968 85.34C486.668 84.776 486.248 84.344 485.708 84.044C485.18 83.732 484.58 83.576 483.908 83.576C483.236 83.576 482.63 83.732 482.09 84.044C481.562 84.344 481.142 84.776 480.83 85.34C480.53 85.904 480.38 86.546 480.38 87.266C480.38 87.986 480.53 88.628 480.83 89.192C481.142 89.756 481.562 90.194 482.09 90.506C482.63 90.806 483.236 90.956 483.908 90.956ZM495.405 92.09C494.469 92.09 493.629 91.886 492.885 91.478C492.153 91.07 491.577 90.5 491.157 89.768C490.737 89.024 490.527 88.19 490.527 87.266C490.527 86.342 490.737 85.514 491.157 84.782C491.577 84.05 492.153 83.48 492.885 83.072C493.629 82.664 494.469 82.46 495.405 82.46C496.221 82.46 496.947 82.622 497.583 82.946C498.231 83.258 498.741 83.72 499.113 84.332L498.159 84.98C497.847 84.512 497.451 84.164 496.971 83.936C496.491 83.696 495.969 83.576 495.405 83.576C494.721 83.576 494.103 83.732 493.551 84.044C493.011 84.344 492.585 84.776 492.273 85.34C491.973 85.904 491.823 86.546 491.823 87.266C491.823 87.998 491.973 88.646 492.273 89.21C492.585 89.762 493.011 90.194 493.551 90.506C494.103 90.806 494.721 90.956 495.405 90.956C495.969 90.956 496.491 90.842 496.971 90.614C497.451 90.386 497.847 90.038 498.159 89.57L499.113 90.218C498.741 90.83 498.231 91.298 497.583 91.622C496.935 91.934 496.209 92.09 495.405 92.09ZM508.072 83.666H504.49V92H503.212V83.666H499.63V82.532H508.072V83.666ZM509.92 82.532H511.198V90.056L517.516 82.532H518.65V92H517.372V84.476L511.072 92H509.92V82.532Z" fill="#333333"/>
<rect x="238.5" y="64.5" width="302" height="43" rx="3.5" stroke="#C4C4C4"/>
<path d="M271.698 154.848V158.826H270.456V156H259.458L259.44 158.826H258.198L258.216 154.848H258.846C259.674 154.8 260.25 154.146 260.574 152.886C260.898 151.614 261.096 149.814 261.168 147.486L261.312 143.4H269.808V154.848H271.698ZM262.356 147.612C262.296 149.532 262.146 151.116 261.906 152.364C261.678 153.6 261.288 154.428 260.736 154.848H268.494V144.552H262.464L262.356 147.612ZM277.367 146.46C278.603 146.46 279.551 146.772 280.211 147.396C280.871 148.008 281.201 148.92 281.201 150.132V156H279.977V154.524C279.689 155.016 279.263 155.4 278.699 155.676C278.147 155.952 277.487 156.09 276.719 156.09C275.663 156.09 274.823 155.838 274.199 155.334C273.575 154.83 273.263 154.164 273.263 153.336C273.263 152.532 273.551 151.884 274.127 151.392C274.715 150.9 275.645 150.654 276.917 150.654H279.923V150.078C279.923 149.262 279.695 148.644 279.239 148.224C278.783 147.792 278.117 147.576 277.241 147.576C276.641 147.576 276.065 147.678 275.513 147.882C274.961 148.074 274.487 148.344 274.091 148.692L273.515 147.738C273.995 147.33 274.571 147.018 275.243 146.802C275.915 146.574 276.623 146.46 277.367 146.46ZM276.917 155.082C277.637 155.082 278.255 154.92 278.771 154.596C279.287 154.26 279.671 153.78 279.923 153.156V151.608H276.953C275.333 151.608 274.523 152.172 274.523 153.3C274.523 153.852 274.733 154.29 275.153 154.614C275.573 154.926 276.161 155.082 276.917 155.082ZM291.263 147.666H287.681V156H286.403V147.666H282.821V146.532H291.263V147.666ZM296.369 146.46C297.605 146.46 298.553 146.772 299.213 147.396C299.873 148.008 300.203 148.92 300.203 150.132V156H298.979V154.524C298.691 155.016 298.265 155.4 297.701 155.676C297.149 155.952 296.489 156.09 295.721 156.09C294.665 156.09 293.825 155.838 293.201 155.334C292.577 154.83 292.265 154.164 292.265 153.336C292.265 152.532 292.553 151.884 293.129 151.392C293.717 150.9 294.647 150.654 295.919 150.654H298.925V150.078C298.925 149.262 298.697 148.644 298.241 148.224C297.785 147.792 297.119 147.576 296.243 147.576C295.643 147.576 295.067 147.678 294.515 147.882C293.963 148.074 293.489 148.344 293.093 148.692L292.517 147.738C292.997 147.33 293.573 147.018 294.245 146.802C294.917 146.574 295.625 146.46 296.369 146.46ZM295.919 155.082C296.639 155.082 297.257 154.92 297.773 154.596C298.289 154.26 298.673 153.78 298.925 153.156V151.608H295.955C294.335 151.608 293.525 152.172 293.525 153.3C293.525 153.852 293.735 154.29 294.155 154.614C294.575 154.926 295.163 155.082 295.919 155.082Z" fill="#333333"/>
<rect x="238.5" y="128.5" width="83" height="43" rx="3.5" stroke="#C4C4C4"/>
<path d="M111 20C109.889 20 109 20.8889 109 22C109 23.1111 109.889 24 111 24C112.111 24 113 23.1111 113 22C113 20.8889 112.111 20 111 20Z" fill="#C4C4C4"/>
<path d="M238.707 22.7071C239.098 22.3166 239.098 21.6834 238.707 21.2929L232.343 14.9289C231.953 14.5384 231.319 14.5384 230.929 14.9289C230.538 15.3195 230.538 15.9526 230.929 16.3431L236.586 22L230.929 27.6569C230.538 28.0474 230.538 28.6805 230.929 29.0711C231.319 29.4616 231.953 29.4616 232.343 29.0711L238.707 22.7071ZM110 22C110 21.4412 110.441 21 111 21V19C109.337 19 108 20.3366 108 22H110ZM111 21C111.559 21 112 21.4412 112 22H114C114 20.3366 112.663 19 111 19V21ZM112 22C112 22.5588 111.559 23 111 23V25C112.663 25 114 23.6634 114 22H112ZM111 23C110.441 23 110 22.5588 110 22H108C108 23.6634 109.337 25 111 25V23ZM113 23H238V21H113V23Z" fill="#5FBDAA"/>
<path d="M111 20C109.889 20 109 20.8889 109 22C109 23.1111 109.889 24 111 24C112.111 24 113 23.1111 113 22C113 20.8889 112.111 20 111 20Z" fill="#C4C4C4"/>
<path d="M238.707 86.7071C239.098 86.3166 239.098 85.6834 238.707 85.2929L232.343 78.9289C231.953 78.5384 231.319 78.5384 230.929 78.9289C230.538 79.3195 230.538 79.9526 230.929 80.3431L236.586 86L230.929 91.6569C230.538 92.0474 230.538 92.6805 230.929 93.0711C231.319 93.4616 231.953 93.4616 232.343 93.0711L238.707 86.7071ZM110 22C110 21.4412 110.441 21 111 21V19C109.337 19 108 20.3366 108 22H110ZM111 21C111.559 21 112 21.4412 112 22H114C114 20.3366 112.663 19 111 19V21ZM112 22C112 22.5588 111.559 23 111 23V25C112.663 25 114 23.6634 114 22H112ZM111 23C110.441 23 110 22.5588 110 22H108C108 23.6634 109.337 25 111 25V23ZM113 23H154.5V21H113V23ZM173.5 42V66H175.5V42H173.5ZM194.5 87H238V85H194.5V87ZM173.5 66C173.5 77.598 182.902 87 194.5 87V85C184.007 85 175.5 76.4934 175.5 66H173.5ZM154.5 23C164.993 23 173.5 31.5066 173.5 42H175.5C175.5 30.402 166.098 21 154.5 21V23Z" fill="#5FBDAA"/>
<path d="M111 20C109.889 20 109 20.8889 109 22C109 23.1111 109.889 24 111 24C112.111 24 113 23.1111 113 22C113 20.8889 112.111 20 111 20Z" fill="#C4C4C4"/>
<path d="M238.707 150.707C239.098 150.317 239.098 149.683 238.707 149.293L232.343 142.929C231.953 142.538 231.319 142.538 230.929 142.929C230.538 143.319 230.538 143.953 230.929 144.343L236.586 150L230.929 155.657C230.538 156.047 230.538 156.681 230.929 157.071C231.319 157.462 231.953 157.462 232.343 157.071L238.707 150.707ZM110 22C110 21.4412 110.441 21 111 21V19C109.337 19 108 20.3366 108 22H110ZM111 21C111.559 21 112 21.4412 112 22H114C114 20.3366 112.663 19 111 19V21ZM112 22C112 22.5588 111.559 23 111 23V25C112.663 25 114 23.6634 114 22H112ZM111 23C110.441 23 110 22.5588 110 22H108C108 23.6634 109.337 25 111 25V23ZM113 23H154.5V21H113V23ZM173.5 42V130H175.5V42H173.5ZM194.5 151H238V149H194.5V151ZM173.5 130C173.5 141.598 182.902 151 194.5 151V149C184.007 149 175.5 140.493 175.5 130H173.5ZM154.5 23C164.993 23 173.5 31.5066 173.5 42H175.5C175.5 30.402 166.098 21 154.5 21V23Z" fill="#5FBDAA"/>
</svg>
