<svg width="259" height="16" viewBox="0 0 259 16" fill="none" xmlns="http://www.w3.org/2000/svg">
<path d="M3 6C1.88889 6 1 6.88889 1 8C1 9.11111 1.88889 10 3 10C4.11111 10 5 9.11111 5 8C5 6.88889 4.11111 6 3 6Z" fill="#C4C4C4"/>
 <g style="fill:none; stroke: #5FBDAA; stroke-width: 2px ">
    <path d="M258.707 8.70711C259.098 8.31658 259.098 7.68342 258.707 7.29289L252.343 0.928932C251.953 0.538408 251.319 0.538408 250.929 0.928932C250.538 1.31946 250.538 1.95262 250.929 2.34315L256.586 8L250.929 13.6569C250.538 14.0474 250.538 14.6805 250.929 15.0711C251.319 15.4616 251.953 15.4616 252.343 15.0711L258.707 8.70711ZM2 8C2 7.44117 2.44117 7 3 7V5C1.3366 5 0 6.3366 0 8H2ZM3 7C3.55883 7 4 7.44117 4 8H6C6 6.3366 4.6634 5 3 5V7ZM4 8C4 8.55883 3.55883 9 3 9V11C4.6634 11 6 9.6634 6 8H4ZM3 9C2.44117 9 2 8.55883 2 8H0C0 9.6634 1.3366 11 3 11V9ZM5 9H258V7H5V9Z" />
</g>

</svg>
