<?xml version="1.0" encoding="utf-8"?>
<!-- Generator: Adobe Illustrator 23.0.5, SVG Export Plug-In . SVG Version: 6.00 Build 0)  -->
<svg version="1.1" xmlns="http://www.w3.org/2000/svg" xmlns:xlink="http://www.w3.org/1999/xlink" x="0px" y="0px"
	 viewBox="0 0 1920 1080" style="enable-background:new 0 0 1920 1080;" xml:space="preserve">
<style type="text/css">
	.st0{fill:#FFFFFF;}
</style>
<g id="Слой_1">
	
		<image style="overflow:visible;" width="1669" height="1028" xlink:href="../Блок 4.png"  transform="matrix(1.1504 0 0 1.0506 0 0)">
	</image>
</g>
<g id="Слой_2">
	<g>
		<path class="st0" d="M10.8,1080.5c-5.1,0-9.3-4.2-9.3-9.3V861.5v7.3c0,1.5,0.3,3,1,4.3l4.2,9.1c0.6,1.4,1.5,2.5,2.7,3.5l5.1,4.3
			c0.2,0.2,0.4,0.3,0.6,0.5l9.7,7c0.7,0.5,1.4,0.9,2.2,1.2l5.8,2.3c2,0.8,3.2,1.3,6.6,1.5c0.1,0,8.8,0.5,11.7,0.8
			c357.9,31.4,1434.4,156.3,1445.3,157.5c6,0.7,8.5,5.5,8.3,9.8s-3.2,8.8-9.3,8.8L10.8,1080.5L10.8,1080.5z"/>
		<path class="st0" d="M2,873.4l4.2,9.1c0.7,1.4,1.6,2.7,2.8,3.7l5.1,4.3c0.2,0.2,0.4,0.4,0.7,0.5l9.7,7c0.7,0.5,1.5,1,2.3,1.3
			l5.8,2.3c2.1,0.8,3.2,1.3,6.7,1.5c0.1,0,8.8,0.5,11.7,0.8c357.9,31.4,1434.4,156.3,1445.2,157.5c5.7,0.6,8.1,5.1,7.9,9.2
			c-0.2,4.2-3,8.3-8.8,8.3L10.8,1080c-4.9,0-8.8-4-8.8-8.8V880V873.4 M2,861H1v1v18v191.2c0,5.4,4.4,9.8,9.8,9.8c0,0,0,0,0,0
			l1484.4-0.9c12.4,0,13.4-18.2,1.1-19.6c0,0-1083.2-125.7-1445.3-157.5c-2.9-0.3-11.7-0.8-11.7-0.8c-3.3-0.2-4.4-0.6-6.4-1.5
			l-5.8-2.3c-0.8-0.3-1.5-0.7-2.1-1.2l-9.7-7c-0.2-0.2-0.4-0.3-0.6-0.5l-5.1-4.3c-1.1-0.9-1.9-2.1-2.5-3.3L2.9,873
			c-0.6-1.3-0.9-2.7-0.9-4.1V861L2,861z"/>
	</g>
</g>
</svg>
