<svg width="12" height="8" viewBox="0 0 12 8" fill="none" xmlns="http://www.w3.org/2000/svg">
<path d="M6 5.26414L1.76501 1.02916L1.58823 0.852379L1.41146 1.02916L0.823223 1.61739L0.646446 1.79417L0.823223 1.97094L5.82322 6.97094L6 7.14772L6.17678 6.97094L11.1768 1.97094L11.3536 1.79417L11.1768 1.61739L10.5885 1.02916L10.4118 0.852379L10.235 1.02916L6 5.26414Z" fill="#888888"/>
<path d="M6 5.26414L1.76501 1.02916L1.58823 0.852379L1.41146 1.02916L0.823223 1.61739L0.646446 1.79417L0.823223 1.97094L5.82322 6.97094L6 7.14772L6.17678 6.97094L11.1768 1.97094L11.3536 1.79417L11.1768 1.61739L10.5885 1.02916L10.4118 0.852379L10.235 1.02916L6 5.26414Z" fill="#2A2929"/>
<path d="M6 5.26414L1.76501 1.02916L1.58823 0.852379L1.41146 1.02916L0.823223 1.61739L0.646446 1.79417L0.823223 1.97094L5.82322 6.97094L6 7.14772L6.17678 6.97094L11.1768 1.97094L11.3536 1.79417L11.1768 1.61739L10.5885 1.02916L10.4118 0.852379L10.235 1.02916L6 5.26414Z" stroke="#2A2929" stroke-width="0.5"/>
</svg>
