<svg width="20" height="20" viewBox="0 0 20 20" fill="none" xmlns="http://www.w3.org/2000/svg">
<path fill-rule="evenodd" clip-rule="evenodd" d="M10 0C7.39641 0 5.24657 1.93644 4.91888 4.44444L4.3284 4.44444C3.44105 4.44442 2.7052 4.44439 2.1277 4.52488C1.52059 4.60949 0.975056 4.79631 0.56018 5.25864C0.145303 5.72096 0.0193867 6.28239 0.00212118 6.89358C-0.0143021 7.47495 0.0669814 8.2044 0.164999 9.08404L0.439388 11.5472C0.64439 13.3875 0.805393 14.8329 1.07886 15.9563C1.35915 17.1077 1.77605 18.0064 2.55 18.6973C3.3247 19.3889 4.27068 19.7025 5.45542 19.8531C6.61213 20 8.08095 20 9.9523 20H10.0477C11.919 20 13.3879 20 14.5446 19.8531C15.7293 19.7025 16.6753 19.3889 17.45 18.6973C18.224 18.0064 18.6408 17.1077 18.9211 15.9563C19.1946 14.8329 19.3556 13.3875 19.5606 11.5472L19.835 9.08402C19.933 8.20441 20.0143 7.47494 19.9979 6.89358C19.9806 6.28239 19.8547 5.72097 19.4398 5.25864C19.0249 4.79631 18.4794 4.60949 17.8723 4.52488C17.2948 4.44439 16.5589 4.44442 15.6716 4.44444L15.0812 4.44444C14.7536 1.93665 12.6036 0 10 0ZM10 1.33333C11.8637 1.33333 13.4131 2.67599 13.7288 4.44444H6.27116C6.58672 2.67618 8.13627 1.33333 10 1.33333ZM1.55626 6.14787C1.67275 6.01805 1.85759 5.90881 2.31269 5.84538C2.78674 5.77932 3.42839 5.77778 4.37772 5.77778H15.6223C16.5716 5.77778 17.2133 5.77932 17.6873 5.84538C18.1424 5.90881 18.3273 6.01805 18.4437 6.14787C18.5602 6.27768 18.6487 6.47298 18.6616 6.93113C18.6751 7.40836 18.6058 8.04461 18.5009 8.98569L18.2373 11.3524C18.0258 13.2506 17.873 14.6109 17.6221 15.6417C17.3757 16.654 17.0534 17.262 16.5585 17.7038C16.0643 18.145 15.4199 18.3977 14.3757 18.5304C13.3132 18.6654 11.9295 18.6667 10 18.6667C8.07055 18.6667 6.68681 18.6654 5.62433 18.5304C4.58006 18.3977 3.93571 18.145 3.44154 17.7038C2.94661 17.262 2.62432 16.654 2.3779 15.6417C2.127 14.6109 1.97417 13.2506 1.76271 11.3524L1.49906 8.98569C1.39422 8.04461 1.3249 7.40836 1.33838 6.93113C1.35132 6.47298 1.43977 6.27768 1.55626 6.14787Z" fill="#2A2929"/>
<path d="M15.3471 8.66667C15.3471 9.15759 14.9481 9.55556 14.4559 9.55556C13.9637 9.55556 13.5647 9.15759 13.5647 8.66667C13.5647 8.17575 13.9637 7.77778 14.4559 7.77778C14.9481 7.77778 15.3471 8.17575 15.3471 8.66667Z" fill="#2A2929"/>
<path d="M6.43521 8.66667C6.43521 9.15759 6.03621 9.55556 5.54402 9.55556C5.05183 9.55556 4.65283 9.15759 4.65283 8.66667C4.65283 8.17575 5.05183 7.77778 5.54402 7.77778C6.03621 7.77778 6.43521 8.17575 6.43521 8.66667Z" fill="#2A2929"/>
</svg>
