<svg width="66" height="67" viewBox="0 0 66 67" fill="none" xmlns="http://www.w3.org/2000/svg">
<rect y="0.160889" width="66" height="66" rx="4" fill="#2A2929"/>
<path fill-rule="evenodd" clip-rule="evenodd" d="M33 20.1609C29.6153 20.1609 26.8205 22.6783 26.3945 25.9387L25.6269 25.9387C24.4734 25.9386 23.5168 25.9386 22.766 26.0432C21.9768 26.1532 21.2676 26.3961 20.7282 26.9971C20.1889 27.5981 20.0252 28.328 20.0028 29.1225C19.9814 29.8783 20.0871 30.8266 20.2145 31.9701L20.5712 35.1722C20.8377 37.5646 21.047 39.4436 21.4025 40.904C21.7669 42.4009 22.3089 43.5692 23.315 44.4674C24.3221 45.3665 25.5519 45.7742 27.092 45.9699C28.5958 46.1609 30.5052 46.1609 32.938 46.1609H33.062C35.4947 46.1609 37.4042 46.1609 38.908 45.9699C40.4481 45.7742 41.6779 45.3665 42.685 44.4674C43.6911 43.5692 44.2331 42.4009 44.5975 40.904C44.953 39.4436 45.1623 37.5647 45.4288 35.1723L45.7855 31.9701C45.9129 30.8266 46.0186 29.8783 45.9972 29.1225C45.9748 28.328 45.8111 27.5981 45.2718 26.9971C44.7324 26.3961 44.0232 26.1532 43.234 26.0432C42.4832 25.9386 41.5266 25.9386 40.3731 25.9387L39.6055 25.9387C39.1797 22.6785 36.3846 20.1609 33 20.1609ZM33 21.8942C35.4229 21.8942 37.437 23.6397 37.8474 25.9387H28.1525C28.5627 23.6399 30.5772 21.8942 33 21.8942ZM22.0231 28.1531C22.1746 27.9844 22.4149 27.8423 23.0065 27.7599C23.6228 27.674 24.4569 27.672 25.691 27.672H40.309C41.5431 27.672 42.3772 27.674 42.9935 27.7599C43.5851 27.8423 43.8254 27.9844 43.9769 28.1531C44.1283 28.3219 44.2433 28.5758 44.2601 29.1714C44.2776 29.7918 44.1875 30.6189 44.0512 31.8423L43.7085 34.9191C43.4336 37.3867 43.2349 39.1551 42.9087 40.4951C42.5884 41.811 42.1694 42.6015 41.526 43.1759C40.8836 43.7494 40.0459 44.078 38.6884 44.2504C37.3071 44.4259 35.5083 44.4276 33 44.4276C30.4917 44.4276 28.6929 44.4259 27.3116 44.2504C25.9541 44.078 25.1164 43.7494 24.474 43.1759C23.8306 42.6015 23.4116 41.811 23.0913 40.4951C22.7651 39.1551 22.5664 37.3867 22.2915 34.9191L21.9488 31.8423C21.8125 30.6189 21.7224 29.7918 21.7399 29.1714C21.7567 28.5758 21.8717 28.3219 22.0231 28.1531Z" fill="#2A2929"/>
<path fill-rule="evenodd" clip-rule="evenodd" d="M33 20.1609C29.6153 20.1609 26.8205 22.6783 26.3945 25.9387L25.6269 25.9387C24.4734 25.9386 23.5168 25.9386 22.766 26.0432C21.9768 26.1532 21.2676 26.3961 20.7282 26.9971C20.1889 27.5981 20.0252 28.328 20.0028 29.1225C19.9814 29.8783 20.0871 30.8266 20.2145 31.9701L20.5712 35.1722C20.8377 37.5646 21.047 39.4436 21.4025 40.904C21.7669 42.4009 22.3089 43.5692 23.315 44.4674C24.3221 45.3665 25.5519 45.7742 27.092 45.9699C28.5958 46.1609 30.5052 46.1609 32.938 46.1609H33.062C35.4947 46.1609 37.4042 46.1609 38.908 45.9699C40.4481 45.7742 41.6779 45.3665 42.685 44.4674C43.6911 43.5692 44.2331 42.4009 44.5975 40.904C44.953 39.4436 45.1623 37.5647 45.4288 35.1723L45.7855 31.9701C45.9129 30.8266 46.0186 29.8783 45.9972 29.1225C45.9748 28.328 45.8111 27.5981 45.2718 26.9971C44.7324 26.3961 44.0232 26.1532 43.234 26.0432C42.4832 25.9386 41.5266 25.9386 40.3731 25.9387L39.6055 25.9387C39.1797 22.6785 36.3846 20.1609 33 20.1609ZM33 21.8942C35.4229 21.8942 37.437 23.6397 37.8474 25.9387H28.1525C28.5627 23.6399 30.5772 21.8942 33 21.8942ZM22.0231 28.1531C22.1746 27.9844 22.4149 27.8423 23.0065 27.7599C23.6228 27.674 24.4569 27.672 25.691 27.672H40.309C41.5431 27.672 42.3772 27.674 42.9935 27.7599C43.5851 27.8423 43.8254 27.9844 43.9769 28.1531C44.1283 28.3219 44.2433 28.5758 44.2601 29.1714C44.2776 29.7918 44.1875 30.6189 44.0512 31.8423L43.7085 34.9191C43.4336 37.3867 43.2349 39.1551 42.9087 40.4951C42.5884 41.811 42.1694 42.6015 41.526 43.1759C40.8836 43.7494 40.0459 44.078 38.6884 44.2504C37.3071 44.4259 35.5083 44.4276 33 44.4276C30.4917 44.4276 28.6929 44.4259 27.3116 44.2504C25.9541 44.078 25.1164 43.7494 24.474 43.1759C23.8306 42.6015 23.4116 41.811 23.0913 40.4951C22.7651 39.1551 22.5664 37.3867 22.2915 34.9191L21.9488 31.8423C21.8125 30.6189 21.7224 29.7918 21.7399 29.1714C21.7567 28.5758 21.8717 28.3219 22.0231 28.1531Z" fill="white"/>
<path d="M39.9513 31.4276C39.9513 32.0658 39.4326 32.5831 38.7927 32.5831C38.1529 32.5831 37.6342 32.0658 37.6342 31.4276C37.6342 30.7894 38.1529 30.272 38.7927 30.272C39.4326 30.272 39.9513 30.7894 39.9513 31.4276Z" fill="#2A2929"/>
<path d="M39.9513 31.4276C39.9513 32.0658 39.4326 32.5831 38.7927 32.5831C38.1529 32.5831 37.6342 32.0658 37.6342 31.4276C37.6342 30.7894 38.1529 30.272 38.7927 30.272C39.4326 30.272 39.9513 30.7894 39.9513 31.4276Z" fill="white"/>
<path d="M28.3658 31.4276C28.3658 32.0658 27.8471 32.5831 27.2072 32.5831C26.5674 32.5831 26.0487 32.0658 26.0487 31.4276C26.0487 30.7894 26.5674 30.272 27.2072 30.272C27.8471 30.272 28.3658 30.7894 28.3658 31.4276Z" fill="#2A2929"/>
<path d="M28.3658 31.4276C28.3658 32.0658 27.8471 32.5831 27.2072 32.5831C26.5674 32.5831 26.0487 32.0658 26.0487 31.4276C26.0487 30.7894 26.5674 30.272 27.2072 30.272C27.8471 30.272 28.3658 30.7894 28.3658 31.4276Z" fill="white"/>
</svg>
