<svg width="40" height="40" viewBox="0 0 40 40" fill="none" xmlns="http://www.w3.org/2000/svg">
<rect width="40" height="40" rx="3" fill="#2A2929"/>
<path d="M14 19.5C13.7239 19.5 13.5 19.7239 13.5 20C13.5 20.2761 13.7239 20.5 14 20.5L14 19.5ZM26.3536 20.3536C26.5488 20.1583 26.5488 19.8417 26.3536 19.6464L23.1716 16.4645C22.9763 16.2692 22.6597 16.2692 22.4645 16.4645C22.2692 16.6597 22.2692 16.9763 22.4645 17.1716L25.2929 20L22.4645 22.8284C22.2692 23.0237 22.2692 23.3403 22.4645 23.5355C22.6597 23.7308 22.9763 23.7308 23.1716 23.5355L26.3536 20.3536ZM14 20.5L26 20.5L26 19.5L14 19.5L14 20.5Z" fill="#2A2929"/>
<path d="M14 19.5C13.7239 19.5 13.5 19.7239 13.5 20C13.5 20.2761 13.7239 20.5 14 20.5L14 19.5ZM26.3536 20.3536C26.5488 20.1583 26.5488 19.8417 26.3536 19.6464L23.1716 16.4645C22.9763 16.2692 22.6597 16.2692 22.4645 16.4645C22.2692 16.6597 22.2692 16.9763 22.4645 17.1716L25.2929 20L22.4645 22.8284C22.2692 23.0237 22.2692 23.3403 22.4645 23.5355C22.6597 23.7308 22.9763 23.7308 23.1716 23.5355L26.3536 20.3536ZM14 20.5L26 20.5L26 19.5L14 19.5L14 20.5Z" fill="white"/>
</svg>
