<svg width="17" height="16" viewBox="0 0 17 16" fill="none" xmlns="http://www.w3.org/2000/svg">
<path fill-rule="evenodd" clip-rule="evenodd" d="M1.70907 0.293831C1.31849 -0.0966415 0.685245 -0.0966415 0.294669 0.293831C-0.0959078 0.684303 -0.0959078 1.31738 0.294669 1.70786L6.58783 7.99934L0.292932 14.2926C-0.0976439 14.683 -0.0976443 15.3161 0.292932 15.7066C0.683509 16.0971 1.31676 16.0971 1.70733 15.7066L8.00224 9.41337L14.2971 15.7066C14.6877 16.0971 15.321 16.0971 15.7115 15.7066C16.1021 15.3161 16.1021 14.683 15.7115 14.2926L9.41664 7.99934L15.7098 1.70786C16.1004 1.31738 16.1004 0.684303 15.7098 0.293831C15.3192 -0.0966413 14.686 -0.0966413 14.2954 0.293831L8.00224 6.58532L1.70907 0.293831Z" fill="white"/>
<path fill-rule="evenodd" clip-rule="evenodd" d="M1.70907 0.293831C1.31849 -0.0966415 0.685245 -0.0966415 0.294669 0.293831C-0.0959078 0.684303 -0.0959078 1.31738 0.294669 1.70786L6.58783 7.99934L0.292932 14.2926C-0.0976439 14.683 -0.0976443 15.3161 0.292932 15.7066C0.683509 16.0971 1.31676 16.0971 1.70733 15.7066L8.00224 9.41337L14.2971 15.7066C14.6877 16.0971 15.321 16.0971 15.7115 15.7066C16.1021 15.3161 16.1021 14.683 15.7115 14.2926L9.41664 7.99934L15.7098 1.70786C16.1004 1.31738 16.1004 0.684303 15.7098 0.293831C15.3192 -0.0966413 14.686 -0.0966413 14.2954 0.293831L8.00224 6.58532L1.70907 0.293831Z" fill="#333333"/>
</svg>
