<svg width="25" height="24" viewBox="0 0 25 24" fill="none" xmlns="http://www.w3.org/2000/svg">
<path d="M18.8649 12.7795L19.6077 12.8829L18.8649 12.7795ZM18.6025 14.6645L19.3454 14.7679L18.6025 14.6645ZM6.09279 14.6645L6.83563 14.5611L6.09279 14.6645ZM5.83046 12.7795L5.08762 12.8829L5.83046 12.7795ZM9.5313 21.7368L9.23971 22.4278L9.5313 21.7368ZM6.82274 18.5603L7.52673 18.3017L6.82274 18.5603ZM17.8726 18.5603L18.5766 18.819V18.819L17.8726 18.5603ZM15.164 21.7368L14.8724 21.0458H14.8724L15.164 21.7368ZM6.09429 8.92906C6.05511 8.5167 5.68907 8.21418 5.27672 8.25336C4.86436 8.29254 4.56184 8.65858 4.60102 9.07094L6.09429 8.92906ZM20.0943 9.07094C20.1335 8.65858 19.831 8.29254 19.4186 8.25336C19.0062 8.21418 18.6402 8.5167 18.601 8.92906L20.0943 9.07094ZM20.3477 7.75C20.7619 7.75 21.0977 7.41421 21.0977 7C21.0977 6.58579 20.7619 6.25 20.3477 6.25V7.75ZM4.34766 6.25C3.93344 6.25 3.59766 6.58579 3.59766 7C3.59766 7.41421 3.93344 7.75 4.34766 7.75V6.25ZM9.59766 18C9.59766 18.4142 9.93344 18.75 10.3477 18.75C10.7619 18.75 11.0977 18.4142 11.0977 18H9.59766ZM11.0977 10C11.0977 9.58579 10.7619 9.25 10.3477 9.25C9.93344 9.25 9.59766 9.58579 9.59766 10H11.0977ZM13.5977 18C13.5977 18.4142 13.9334 18.75 14.3477 18.75C14.7619 18.75 15.0977 18.4142 15.0977 18H13.5977ZM15.0977 10C15.0977 9.58579 14.7619 9.25 14.3477 9.25C13.9334 9.25 13.5977 9.58579 13.5977 10H15.0977ZM16.3477 7V7.75H17.0977V7H16.3477ZM8.34766 7H7.59766V7.75H8.34766V7ZM18.122 12.6761L17.8597 14.5611L19.3454 14.7679L19.6077 12.8829L18.122 12.6761ZM6.83563 14.5611L6.5733 12.6761L5.08762 12.8829L5.34995 14.7679L6.83563 14.5611ZM12.3477 21.25C10.8185 21.25 10.2731 21.2358 9.82289 21.0458L9.23971 22.4278C10.0368 22.7642 10.9532 22.75 12.3477 22.75V21.25ZM5.34995 14.7679C5.62966 16.7777 5.78172 17.9017 6.11875 18.819L7.52673 18.3017C7.25921 17.5736 7.12616 16.6488 6.83563 14.5611L5.34995 14.7679ZM9.82289 21.0458C8.90045 20.6566 8.04262 19.7058 7.52673 18.3017L6.11875 18.819C6.73336 20.4918 7.82971 21.8328 9.23971 22.4278L9.82289 21.0458ZM17.8597 14.5611C17.5692 16.6488 17.4361 17.5736 17.1686 18.3017L18.5766 18.819C18.9136 17.9017 19.0657 16.7777 19.3454 14.7679L17.8597 14.5611ZM12.3477 22.75C13.7421 22.75 14.6585 22.7642 15.4556 22.4278L14.8724 21.0458C14.4222 21.2358 13.8768 21.25 12.3477 21.25V22.75ZM17.1686 18.3017C16.6527 19.7058 15.7949 20.6566 14.8724 21.0458L15.4556 22.4278C16.8656 21.8328 17.962 20.4918 18.5766 18.819L17.1686 18.3017ZM6.5733 12.6761C6.35117 11.08 6.18531 9.88703 6.09429 8.92906L4.60102 9.07094C4.69584 10.069 4.86727 11.2995 5.08762 12.8829L6.5733 12.6761ZM19.6077 12.8829C19.828 11.2995 19.9995 10.069 20.0943 9.07094L18.601 8.92906C18.51 9.88702 18.3441 11.08 18.122 12.6761L19.6077 12.8829ZM20.3477 6.25H4.34766V7.75H20.3477V6.25ZM11.0977 18V10H9.59766V18H11.0977ZM15.0977 18V10H13.5977V18H15.0977ZM15.5977 6V7H17.0977V6H15.5977ZM16.3477 6.25H8.34766V7.75H16.3477V6.25ZM9.09766 7V6H7.59766V7H9.09766ZM12.3477 2.75C14.1426 2.75 15.5977 4.20507 15.5977 6H17.0977C17.0977 3.37665 14.971 1.25 12.3477 1.25V2.75ZM12.3477 1.25C9.7243 1.25 7.59766 3.37665 7.59766 6H9.09766C9.09766 4.20507 10.5527 2.75 12.3477 2.75V1.25Z" fill="#2A2929"/>
</svg>
