<svg width="25" height="24" viewBox="0 0 25 24" fill="none" xmlns="http://www.w3.org/2000/svg">
<path d="M20.478 4.46071C18.1438 2.08032 15.4408 3.08425 13.7672 4.14593C12.8215 4.74582 11.5115 4.74582 10.5658 4.14593C8.89214 3.08427 6.18922 2.08035 3.85503 4.46072C-1.68598 10.1114 7.81638 21 12.1665 21C16.5167 21 26.019 10.1114 20.478 4.46071Z" stroke="white" stroke-width="1.5" stroke-linecap="round"/>
<path d="M20.478 4.46071C18.1438 2.08032 15.4408 3.08425 13.7672 4.14593C12.8215 4.74582 11.5115 4.74582 10.5658 4.14593C8.89214 3.08427 6.18922 2.08035 3.85503 4.46072C-1.68598 10.1114 7.81638 21 12.1665 21C16.5167 21 26.019 10.1114 20.478 4.46071Z" stroke="#2A2929" stroke-width="1.5" stroke-linecap="round"/>
</svg>
