<svg width="217" height="40" viewBox="0 0 217 40" fill="none" xmlns="http://www.w3.org/2000/svg">
<path d="M12.0763 9.5073H12.1447L15.5286 19.2602H8.47024L12.0763 9.5073ZM7.9406 20.6605H16.0071L18.5708 28.0445H15.016V29.4279H25.5266V28.0445H22.1427L13.8024 4.04297H12.4524L3.56537 28.0445H0.318115V29.4279H8.64108V28.0445H5.22306L7.94052 20.6605H7.9406Z" fill="#2A2929"/>
<path d="M42.3604 5.68558H45.7786V22.995L45.693 23.0122L33.764 4.30225H26.1248V5.68558H29.5426V28.0445H26.1248V29.4278H34.1571V28.0445H31.0808V6.51557L31.1663 6.49818L45.9494 29.6872H47.3167V5.68558H50.7349V4.30225H42.3604V5.68558Z" fill="#2A2929"/>
<path d="M73.6359 5.68558H77.0541V4.30225H68.6797V5.68558H72.0979V22.995L72.0123 23.0122L60.0833 4.30225H52.4438V5.68558H55.862V28.0445H52.4438V29.4278H60.4764V28.0445H57.4001V6.51557L57.4855 6.49818L72.2687 29.6872H73.6359V5.68558Z" fill="#2A2929"/>
<path d="M85.1113 19.2602L88.7172 9.5073H88.7856L92.1695 19.2602H85.1113ZM90.4433 4.04297H89.0934L80.2062 28.0445H76.959V29.4279H85.282V28.0445H81.864L84.5815 20.6605H92.648L95.2116 28.0445H91.6568V29.4279H102.168V28.0445H98.7836L90.4433 4.04297Z" fill="#2A2929"/>
<path d="M118.352 19.2602L121.958 9.5073H122.026L125.41 19.2602H118.352H118.352ZM124.898 29.4279H135.408V28.0445H132.024L123.684 4.04297H122.334L113.447 28.0445H110.2V29.4279H118.523V28.0445H115.105L117.822 20.6605H125.889L128.452 28.0445H124.897V29.4279H124.898Z" fill="#2A2929"/>
<path d="M160.617 4.30225H152.242V5.68558H155.661V22.995L155.575 23.0122L143.646 4.30225H136.006V5.68558H139.424V28.0445H136.006V29.4278H144.039V28.0445H140.962V6.51557L141.048 6.49818L155.831 29.6872H157.198V5.68558H160.617V4.30225Z" fill="#2A2929"/>
<path d="M170.357 28.0445H167.281V6.51557L167.367 6.49818L182.15 29.6872H183.517V5.68558H186.936V4.30225H178.562V5.68558H181.979V22.995L181.894 23.0122L169.965 4.30225H162.325V5.68558H165.743V28.0445H162.325V29.4278H170.357V28.0445Z" fill="#2A2929"/>
<path d="M194.986 19.2602L198.592 9.5073H198.66L202.044 19.2602H194.986ZM201.531 29.4279H212.042V28.0445H208.658L200.318 4.04297H198.968L190.08 28.0445H186.834V29.4279H195.157V28.0445H191.739L194.455 20.6605H202.523L205.085 28.0445H201.531V29.4279H201.531Z" fill="#2A2929"/>
<path d="M0.323486 39.9158H1.02952V37.675H3.53285V37.0929H1.02952V35.5656H3.9222V34.9835H0.323486V39.9158Z" fill="#2A2929"/>
<path d="M12.8286 37.8901L13.4145 36.4438C13.5383 36.132 13.6341 35.818 13.7019 35.5016C13.7845 35.7688 13.9105 36.1093 14.0803 36.5245L14.6372 37.8902H12.8286V37.8901ZM13.3382 34.9835L11.2896 39.9157H12.0392L12.6248 38.422H14.8553L15.4776 39.9157H16.2817L14.0985 34.9835H13.3381H13.3382Z" fill="#2A2929"/>
<path d="M27.3898 37.3185C27.1763 37.2287 26.7826 37.1242 26.2091 37.0039C25.6355 36.8838 25.2805 36.7669 25.1448 36.6525C25.0067 36.5382 24.9374 36.3923 24.9374 36.2153C24.9374 36.011 25.0349 35.8364 25.2303 35.6921C25.4255 35.5472 25.7367 35.4747 26.1637 35.4747C26.5736 35.4747 26.8834 35.5543 27.0932 35.7139C27.3029 35.8731 27.4261 36.1087 27.4625 36.4202L28.1393 36.3732C28.1271 36.0836 28.0398 35.8245 27.8775 35.5959C27.7147 35.3668 27.4825 35.1938 27.1805 35.076C26.8785 34.9585 26.5296 34.8997 26.1345 34.8997C25.7753 34.8997 25.4491 34.9555 25.1556 35.0678C24.862 35.1796 24.6389 35.344 24.4863 35.5604C24.3335 35.777 24.2568 36.0099 24.2568 36.2588C24.2568 36.4851 24.3194 36.6898 24.4442 36.8729C24.5691 37.0553 24.7589 37.2087 25.0136 37.3318C25.2102 37.4283 25.5535 37.5309 26.0435 37.6397C26.5332 37.7485 26.8498 37.8286 26.9931 37.8801C27.2164 37.9588 27.3764 38.0556 27.4734 38.171C27.5705 38.2868 27.6189 38.4219 27.6189 38.5767C27.6189 38.7292 27.5685 38.8696 27.4679 38.9988C27.3673 39.128 27.2138 39.2294 27.0078 39.3032C26.8014 39.3772 26.5636 39.4142 26.2945 39.4142C25.9911 39.4142 25.7182 39.3655 25.4757 39.268C25.2332 39.1704 25.0543 39.0425 24.939 38.8845C24.8238 38.7261 24.7504 38.5242 24.7189 38.2771L24.053 38.3309C24.0628 38.6605 24.1605 38.9562 24.346 39.2177C24.5316 39.4785 24.7875 39.6744 25.1137 39.8043C25.44 39.9345 25.8445 39.9998 26.3273 39.9998C26.708 39.9998 27.0507 39.9349 27.3551 39.8062C27.6595 39.6771 27.8931 39.4967 28.0555 39.2644C28.218 39.0324 28.2994 38.785 28.2994 38.5229C28.2994 38.2579 28.2253 38.0243 28.0775 37.8215C27.9295 37.6181 27.7002 37.4509 27.3897 37.3182L27.3898 37.3185Z" fill="#2A2929"/>
<path d="M40.2114 37.0091H37.4388V34.9835H36.7329V39.9158H37.4388V37.591H40.2114V39.9158H40.9173V34.9835H40.2114V37.0091Z" fill="#2A2929"/>
<path d="M49.6613 39.9158H50.3672V34.9835H49.6613V39.9158Z" fill="#2A2929"/>
<path d="M62.703 38.9233C62.3598 39.2687 61.9225 39.4414 61.3914 39.4414C60.8696 39.4414 60.4361 39.2704 60.0906 38.9285C59.745 38.5863 59.572 38.1182 59.572 37.5237C59.572 36.7812 59.7523 36.2515 60.1124 35.9339C60.4727 35.6165 60.9026 35.4581 61.4022 35.4581C61.7541 35.4581 62.0712 35.5403 62.3537 35.7054C62.6364 35.8704 62.851 36.1024 62.9978 36.4019C63.1445 36.7013 63.2179 37.0516 63.2179 37.4532C63.2179 38.0879 63.0461 38.5781 62.7031 38.9234L62.703 38.9233ZM62.7305 35.2226C62.3348 35.005 61.891 34.8961 61.3985 34.8961C60.6466 34.8961 60.0329 35.1279 59.5576 35.5911C59.0821 36.054 58.8444 36.6951 58.8444 37.5135C58.8444 37.9466 58.9462 38.3569 59.1498 38.745C59.3537 39.1334 59.6534 39.439 60.0486 39.6634C60.4441 39.8876 60.8927 40.0001 61.3949 40.0001C61.8582 40.0001 62.29 39.8984 62.6902 39.6955C63.0904 39.4925 63.3996 39.1939 63.618 38.799C63.8363 38.4043 63.9457 37.9566 63.9457 37.4566C63.9457 36.9632 63.8418 36.5219 63.6345 36.1325C63.4271 35.7437 63.1255 35.44 62.7304 35.2226H62.7305Z" fill="#2A2929"/>
<path d="M75.8215 38.8559L73.0195 34.9835H72.2955V39.9158H72.9723V36.0399L75.7742 39.9158H76.4982V34.9835H75.8215V38.8559Z" fill="#2A2929"/>
<path d="M96.2745 34.9835H95.5687V39.9158H98.9016V39.3336H96.2745V34.9835Z" fill="#2A2929"/>
<path d="M108.143 37.8901L108.729 36.4438C108.853 36.132 108.948 35.818 109.016 35.5016C109.099 35.7688 109.225 36.1093 109.395 36.5245L109.952 37.8902H108.143L108.143 37.8901ZM108.653 34.9835L106.604 39.9157H107.354L107.939 38.422H110.17L110.792 39.9157H111.596L109.413 34.9835H108.653Z" fill="#2A2929"/>
<path d="M122.77 38.9015C122.699 39.0213 122.61 39.1129 122.5 39.1759C122.391 39.2385 122.255 39.2834 122.093 39.3104C122 39.326 121.841 39.3336 121.612 39.3336H120.284V37.6385H121.518C121.857 37.6385 122.118 37.6658 122.298 37.7207C122.479 37.7756 122.621 37.8708 122.722 38.0065C122.824 38.1422 122.875 38.302 122.875 38.4859C122.875 38.6427 122.84 38.7814 122.77 38.9015ZM120.284 35.5656H121.351C121.734 35.5656 122.004 35.5885 122.162 35.6348C122.32 35.6805 122.441 35.7658 122.526 35.8901C122.611 36.0147 122.653 36.1589 122.653 36.3228C122.653 36.4953 122.607 36.6388 122.517 36.7531C122.426 36.8678 122.29 36.9497 122.111 36.999C121.975 37.0372 121.751 37.0564 121.438 37.0564H120.284V35.5658V35.5656ZM122.602 37.2914C122.852 37.1772 123.039 37.0269 123.163 36.8409C123.286 36.6548 123.348 36.4562 123.348 36.2451C123.348 36.0189 123.278 35.8018 123.139 35.5942C122.999 35.387 122.807 35.2333 122.56 35.1334C122.314 35.0336 121.987 34.9836 121.58 34.9836H119.579V39.9158H121.613C121.952 39.9158 122.239 39.8886 122.473 39.8336C122.707 39.7783 122.902 39.6971 123.057 39.5893C123.212 39.482 123.343 39.3287 123.448 39.1302C123.554 38.9316 123.607 38.7171 123.607 38.486C123.607 38.1989 123.52 37.9501 123.346 37.739C123.173 37.5283 122.925 37.3794 122.602 37.2914Z" fill="#2A2929"/>
<path d="M135.67 38.9233C135.326 39.2687 134.889 39.4414 134.358 39.4414C133.837 39.4414 133.403 39.2704 133.057 38.9285C132.712 38.5863 132.539 38.1182 132.539 37.5237C132.539 36.7812 132.719 36.2515 133.079 35.9339C133.439 35.6165 133.87 35.4581 134.369 35.4581C134.721 35.4581 135.038 35.5403 135.321 35.7054C135.603 35.8704 135.818 36.1024 135.965 36.4019C136.111 36.7013 136.185 37.0516 136.185 37.4532C136.185 38.0879 136.013 38.5781 135.67 38.9234L135.67 38.9233ZM135.697 35.2226C135.302 35.005 134.858 34.8961 134.365 34.8961C133.613 34.8961 133 35.1279 132.524 35.5911C132.049 36.054 131.811 36.6951 131.811 37.5135C131.811 37.9466 131.913 38.3569 132.117 38.745C132.321 39.1334 132.62 39.439 133.015 39.6634C133.411 39.8876 133.86 40.0001 134.362 40.0001C134.825 40.0001 135.257 39.8984 135.657 39.6955C136.057 39.4925 136.367 39.1939 136.585 38.799C136.803 38.4043 136.913 37.9566 136.913 37.4566C136.913 36.9632 136.809 36.5219 136.601 36.1325C136.394 35.7437 136.093 35.44 135.697 35.2226Z" fill="#2A2929"/>
<path d="M147.504 37.1603H145.986V35.5286H147.674C148.07 35.5286 148.359 35.6039 148.542 35.754C148.725 35.9041 148.817 36.0961 148.817 36.3295C148.817 36.4886 148.77 36.6362 148.675 36.7718C148.581 36.9075 148.442 37.0062 148.26 37.0679C148.079 37.1296 147.826 37.1603 147.504 37.1603ZM148.468 37.9173C148.371 37.8364 148.229 37.755 148.042 37.6719C148.554 37.6068 148.932 37.4542 149.177 37.2143C149.422 36.9743 149.545 36.6794 149.545 36.3296C149.545 36.0581 149.471 35.8102 149.323 35.5861C149.175 35.3617 148.977 35.2052 148.73 35.1166C148.482 35.028 148.121 34.9836 147.646 34.9836H145.28V39.9158H145.986V37.7256H146.805C146.987 37.7256 147.118 37.7335 147.198 37.7491C147.307 37.7737 147.414 37.8178 147.52 37.8802C147.626 37.9434 147.745 38.053 147.879 38.2104C148.012 38.367 148.182 38.5937 148.388 38.8899L149.094 39.9158H149.981L149.054 38.5735C148.869 38.3109 148.674 38.0924 148.468 37.9173Z" fill="#2A2929"/>
<path d="M159.053 37.8901L159.639 36.4438C159.763 36.132 159.858 35.818 159.927 35.5016C160.009 35.7688 160.135 36.1093 160.305 36.5245L160.862 37.8902H159.053L159.053 37.8901ZM159.563 34.9835L157.514 39.9157H158.264L158.849 38.422H161.08L161.702 39.9157H162.506L160.323 34.9835H159.563Z" fill="#2A2929"/>
<path d="M169.564 35.5656H171.322V39.9158H172.028V35.5656H173.793V34.9835H169.564V35.5656Z" fill="#2A2929"/>
<path d="M185.474 38.9233C185.13 39.2687 184.694 39.4414 184.161 39.4414C183.641 39.4414 183.207 39.2704 182.862 38.9285C182.517 38.5863 182.344 38.1182 182.344 37.5237C182.344 36.7812 182.523 36.2515 182.883 35.9339C183.244 35.6165 183.673 35.4581 184.173 35.4581C184.524 35.4581 184.842 35.5403 185.125 35.7054C185.406 35.8704 185.622 36.1024 185.769 36.4019C185.915 36.7013 185.99 37.0516 185.99 37.4532C185.99 38.0879 185.817 38.5781 185.474 38.9234L185.474 38.9233ZM185.501 35.2226C185.106 35.005 184.662 34.8961 184.17 34.8961C183.417 34.8961 182.803 35.1279 182.328 35.5911C181.854 36.054 181.614 36.6951 181.614 37.5135C181.614 37.9466 181.718 38.3569 181.921 38.745C182.125 39.1334 182.423 39.439 182.82 39.6634C183.215 39.8876 183.663 40.0001 184.167 40.0001C184.63 40.0001 185.06 39.8984 185.461 39.6955C185.862 39.4925 186.171 39.1939 186.388 38.799C186.607 38.4043 186.717 37.9566 186.717 37.4566C186.717 36.9632 186.612 36.5219 186.405 36.1325C186.198 35.7437 185.896 35.44 185.501 35.2226H185.501Z" fill="#2A2929"/>
<path d="M197.308 37.1603H195.79V35.5286H197.479C197.874 35.5286 198.164 35.6039 198.348 35.754C198.531 35.9041 198.621 36.0961 198.621 36.3295C198.621 36.4886 198.575 36.6362 198.48 36.7718C198.385 36.9075 198.246 37.0062 198.064 37.0679C197.883 37.1296 197.63 37.1603 197.308 37.1603ZM198.273 37.9173C198.175 37.8364 198.034 37.755 197.847 37.6719C198.358 37.6068 198.736 37.4542 198.982 37.2143C199.226 36.9743 199.35 36.6794 199.35 36.3296C199.35 36.0581 199.275 35.8102 199.128 35.5861C198.98 35.3617 198.782 35.2052 198.534 35.1166C198.286 35.028 197.925 34.9836 197.45 34.9836H195.085V39.9158H195.79V37.7256H196.609C196.791 37.7256 196.923 37.7335 197.003 37.7491C197.111 37.7737 197.218 37.8178 197.325 37.8802C197.43 37.9434 197.549 38.053 197.683 38.2104C197.817 38.367 197.986 38.5937 198.191 38.8899L198.899 39.9158H199.786L198.858 38.5735C198.673 38.3109 198.478 38.0924 198.273 37.9173Z" fill="#2A2929"/>
<path d="M210.249 36.4335C210.022 36.7567 209.829 37.0473 209.668 37.3051C209.5 37.0269 209.32 36.749 209.125 36.4708L208.075 34.9836H207.215L209.271 37.8264V39.9158H209.976V37.8264L212.106 34.9836H211.284L210.249 36.4335H210.249Z" fill="#2A2929"/>
<path d="M211.757 4.48046H210.772V2.94522H211.696C212.091 2.94522 212.362 2.97444 212.51 3.03289C212.656 3.09159 212.771 3.18028 212.854 3.29955C212.935 3.41849 212.978 3.55318 212.978 3.70347C212.978 3.9375 212.891 4.12545 212.72 4.26747C212.549 4.40966 212.228 4.48038 211.757 4.48038V4.48046ZM212.829 5.33907C212.722 5.23471 212.579 5.14482 212.401 5.06951C212.835 5.0362 213.183 4.88174 213.444 4.60587C213.707 4.33009 213.838 4.00651 213.838 3.63446C213.838 3.37137 213.76 3.12294 213.602 2.88874C213.446 2.65504 213.236 2.49104 212.971 2.39681C212.707 2.30275 212.279 2.25598 211.689 2.25598H209.961V7.34434H210.772V5.18248H211.25C211.535 5.18248 211.75 5.24101 211.899 5.35798C212.115 5.51671 212.396 5.91134 212.749 6.5423L213.193 7.34434H214.185L213.571 6.34805C213.278 5.87598 213.03 5.53971 212.829 5.33916L212.829 5.33907Z" fill="#2A2929"/>
<path d="M215.393 6.68958C215.05 7.31415 214.569 7.80097 213.95 8.14976C213.331 8.49839 212.685 8.67295 212.011 8.67295C211.338 8.67295 210.692 8.49847 210.073 8.14976C209.454 7.80088 208.971 7.31415 208.626 6.68958C208.282 6.06517 208.109 5.4124 208.109 4.73142C208.109 4.0461 208.286 3.38719 208.636 2.75418C208.986 2.12134 209.473 1.6347 210.095 1.29434C210.716 0.953726 211.355 0.783504 212.011 0.783504C212.664 0.783504 213.302 0.953726 213.924 1.29434C214.548 1.63479 215.035 2.12143 215.384 2.75418C215.732 3.38719 215.907 4.0461 215.907 4.73142C215.907 5.4124 215.735 6.06517 215.393 6.68958H215.393ZM216.056 2.3593C215.639 1.60122 215.055 1.01831 214.309 0.611151C213.561 0.203827 212.795 0.00012207 212.011 0.00012207C211.226 0.00012207 210.461 0.203827 209.713 0.611151C208.966 1.01831 208.382 1.60122 207.963 2.3593C207.544 3.11772 207.336 3.90825 207.336 4.73134C207.336 5.5459 207.541 6.32937 207.955 7.08123C208.367 7.83317 208.943 8.41711 209.686 8.83287C210.426 9.24863 211.202 9.45625 212.011 9.45625C212.82 9.45625 213.595 9.24863 214.336 8.83287C215.078 8.41711 215.654 7.83317 216.065 7.08123C216.475 6.32937 216.682 5.5459 216.682 4.73134C216.682 3.90817 216.473 3.11763 216.056 2.3593H216.056Z" fill="#2A2929"/>
</svg>
