<svg width="25" height="24" viewBox="0 0 25 24" fill="none" xmlns="http://www.w3.org/2000/svg">
<path d="M20.2419 10.1421V9.57645C20.2419 9.49181 20.2419 9.44948 20.2414 9.41368C20.2026 6.7083 18.0189 4.52454 15.3135 4.4858C15.2777 4.48528 15.2354 4.48528 15.1507 4.48529H14.585M10.6558 8.17314C10.2025 9.21293 10.4319 10.4242 11.234 11.2262L13.6308 13.623C14.4328 14.4251 15.6441 14.6545 16.6839 14.2012C17.7236 13.748 18.9349 13.9774 19.7369 14.7794L21.1951 16.2376C21.2658 16.3083 21.3011 16.3436 21.3297 16.3747C22.0328 17.1399 22.0328 18.316 21.3297 19.0811C21.3011 19.1123 21.2658 19.1476 21.1951 19.2182L20.3088 20.1046C19.587 20.8264 18.5465 21.1294 17.55 20.9079C10.7604 19.3991 5.45788 14.0966 3.94908 7.307C3.72764 6.31054 4.03065 5.27001 4.75244 4.54821L5.63878 3.66187C5.70943 3.59123 5.74475 3.5559 5.77587 3.52731C6.54103 2.82423 7.71714 2.82423 8.48229 3.52731C8.51341 3.5559 8.54874 3.59123 8.61938 3.66187L10.0776 5.12007C10.8796 5.92212 11.109 7.13336 10.6558 8.17314Z" stroke="white" stroke-width="1.5" stroke-linecap="round"/>
</svg>
