<svg width="22" height="24" viewBox="0 0 22 24" fill="none" xmlns="http://www.w3.org/2000/svg">
<path d="M0.25 12C0.25 12.4142 0.585786 12.75 1 12.75C1.41421 12.75 1.75 12.4142 1.75 12H0.25ZM21.75 12C21.75 11.5858 21.4142 11.25 21 11.25C20.5858 11.25 20.25 11.5858 20.25 12H21.75ZM3.97015 18.0122C3.70077 17.6976 3.22731 17.6609 2.91266 17.9303C2.598 18.1996 2.5613 18.6731 2.83068 18.9878L3.97015 18.0122ZM18.0299 5.98776C18.2992 6.30241 18.7727 6.33911 19.0873 6.06973C19.402 5.80035 19.4387 5.3269 19.1693 5.01224L18.0299 5.98776ZM20.406 0.996654C20.4042 0.582444 20.0669 0.248159 19.6527 0.250007C19.2385 0.251856 18.9042 0.589137 18.906 1.00335L20.406 0.996654ZM19.6649 2.98571L20.4149 2.98237V2.98237L19.6649 2.98571ZM15.9849 6.66571L15.9815 7.41571L15.9849 6.66571ZM14.0025 5.90686C13.5883 5.90501 13.251 6.2393 13.2492 6.65351C13.2473 7.06772 13.5816 7.405 13.9958 7.40685L14.0025 5.90686ZM19.2563 5.90267L19.8494 6.36169V6.36169L19.2563 5.90267ZM18.9018 6.25717L19.3608 6.85029L19.3608 6.85029L18.9018 6.25717ZM1.51185 22.9229C1.5137 23.3371 1.85098 23.6714 2.26519 23.6696C2.6794 23.6677 3.01368 23.3305 3.01184 22.9162L1.51185 22.9229ZM2.25298 20.9339L1.50299 20.9372L2.25298 20.9339ZM5.93298 17.2539L5.93633 16.5039H5.93633L5.93298 17.2539ZM7.91535 18.0127C8.32956 18.0146 8.66684 17.6803 8.66869 17.2661C8.67054 16.8519 8.33625 16.5146 7.92204 16.5127L7.91535 18.0127ZM2.66153 18.0169L2.06841 17.5579L2.0684 17.5579L2.66153 18.0169ZM3.01603 17.6624L2.55701 17.0693H2.55701L3.01603 17.6624ZM11 1.25C5.06294 1.25 0.25 6.06294 0.25 12H1.75C1.75 6.89137 5.89137 2.75 11 2.75V1.25ZM11 22.75C16.9371 22.75 21.75 17.9371 21.75 12H20.25C20.25 17.1086 16.1086 21.25 11 21.25V22.75ZM2.83068 18.9878C4.80117 21.2894 7.73042 22.75 11 22.75V21.25C8.18698 21.25 5.66782 19.9952 3.97015 18.0122L2.83068 18.9878ZM19.1693 5.01224C17.1988 2.71058 14.2696 1.25 11 1.25V2.75C13.813 2.75 16.3322 4.00476 18.0299 5.98776L19.1693 5.01224ZM18.906 1.00335L18.9149 2.98906L20.4149 2.98237L20.406 0.996654L18.906 1.00335ZM15.9882 5.91572L14.0025 5.90686L13.9958 7.40685L15.9815 7.41571L15.9882 5.91572ZM18.9149 2.98906C18.9185 3.79848 18.9198 4.34217 18.8749 4.75351C18.8316 5.14976 18.7534 5.32713 18.6632 5.44365L19.8494 6.36169C20.1784 5.93661 20.308 5.44728 20.366 4.91635C20.4223 4.4005 20.4183 3.75651 20.4149 2.98237L18.9149 2.98906ZM15.9815 7.41571C16.7557 7.41916 17.3997 7.42317 17.9155 7.36684C18.4464 7.30886 18.9358 7.17926 19.3608 6.85029L18.4428 5.66404C18.3263 5.75421 18.1489 5.83243 17.7527 5.8757C17.3413 5.92062 16.7976 5.91933 15.9882 5.91572L15.9815 7.41571ZM18.6632 5.44365C18.5993 5.52615 18.5253 5.60019 18.4428 5.66404L19.3608 6.85029C19.5437 6.70875 19.7079 6.54459 19.8494 6.36169L18.6632 5.44365ZM3.01184 22.9162L3.00298 20.9305L1.50299 20.9372L1.51185 22.9229L3.01184 22.9162ZM5.92964 18.0039L7.91535 18.0127L7.92204 16.5127L5.93633 16.5039L5.92964 18.0039ZM3.00298 20.9305C2.99937 20.1211 2.99808 19.5774 3.043 19.1661C3.08627 18.7698 3.16448 18.5925 3.25466 18.4759L2.0684 17.5579C1.73944 17.983 1.60984 18.4723 1.55186 19.0032C1.49553 19.5191 1.49954 20.1631 1.50299 20.9372L3.00298 20.9305ZM5.93633 16.5039C5.16219 16.5004 4.5182 16.4964 4.00235 16.5528C3.47142 16.6107 2.98209 16.7403 2.55701 17.0693L3.47505 18.2555C3.59157 18.1654 3.76894 18.0872 4.16519 18.0439C4.57653 17.999 5.12022 18.0003 5.92964 18.0039L5.93633 16.5039ZM3.25466 18.4759C3.31851 18.3934 3.39255 18.3194 3.47505 18.2555L2.55701 17.0693C2.37411 17.2108 2.20995 17.375 2.06841 17.5579L3.25466 18.4759Z" fill="#2A2929"/>
</svg>
