<svg width="25" height="24" viewBox="0 0 25 24" fill="none" xmlns="http://www.w3.org/2000/svg">
<path d="M15.5206 9.87368C15.8135 9.58079 15.8135 9.10592 15.5206 8.81302C15.2278 8.52013 14.7529 8.52013 14.46 8.81302L8.80314 14.4699C8.51024 14.7628 8.51024 15.2376 8.80314 15.5305C9.09603 15.8234 9.5709 15.8234 9.8638 15.5305L15.5206 9.87368Z" fill="#2A2929"/>
<path fill-rule="evenodd" clip-rule="evenodd" d="M15.8978 2.75683C14.8744 -0.829098 9.79249 -0.829098 8.76911 2.75683C8.4423 3.90199 7.26579 4.58125 6.11064 4.2917C2.49345 3.385 -0.0475285 7.78611 2.54629 10.4653C3.37462 11.3209 3.37462 12.6795 2.54628 13.5351C-0.0475295 16.2143 2.49345 20.6154 6.11064 19.7087C7.26579 19.4192 8.4423 20.0984 8.76911 21.2436C9.79249 24.8295 14.8744 24.8295 15.8978 21.2436C16.2246 20.0984 17.4011 19.4192 18.5563 19.7087C22.1735 20.6154 24.7145 16.2143 22.1206 13.5351C21.2923 12.6795 21.2923 11.3209 22.1206 10.4653C24.7145 7.78611 22.1735 3.385 18.5563 4.2917C17.4011 4.58125 16.2246 3.90199 15.8978 2.75683ZM10.2115 3.16847C10.8208 1.03369 13.8462 1.03369 14.4554 3.16847C15.0044 5.09207 16.9806 6.23306 18.921 5.74668C21.0744 5.20691 22.5871 7.82699 21.0429 9.422C19.6515 10.8592 19.6515 13.1412 21.0429 14.5784C22.5871 16.1734 21.0744 18.7935 18.921 18.2537C16.9806 17.7674 15.0044 18.9083 14.4554 20.8319C13.8462 22.9667 10.8208 22.9667 10.2115 20.8319C9.66255 18.9083 7.6863 17.7674 5.74593 18.2537C3.59253 18.7935 2.07983 16.1734 3.62399 14.5784C5.01538 13.1412 5.01538 10.8592 3.62399 9.422C2.07983 7.82699 3.59253 5.20691 5.74593 5.74668C7.6863 6.23306 9.66255 5.09207 10.2115 3.16847Z" fill="#2A2929"/>
<path d="M8.3335 9.00024C8.3335 9.55253 8.78121 10.0002 9.3335 10.0002C9.88578 10.0002 10.3335 9.55253 10.3335 9.00024C10.3335 8.44796 9.88578 8.00024 9.3335 8.00024C8.78121 8.00024 8.3335 8.44796 8.3335 9.00024Z" fill="#2A2929"/>
<path d="M14.3335 15.0002C14.3335 15.5525 14.7812 16.0002 15.3335 16.0002C15.8858 16.0002 16.3335 15.5525 16.3335 15.0002C16.3335 14.448 15.8858 14.0002 15.3335 14.0002C14.7812 14.0002 14.3335 14.448 14.3335 15.0002Z" fill="#2A2929"/>
</svg>
