<svg width="25" height="24" viewBox="0 0 25 24" fill="none" xmlns="http://www.w3.org/2000/svg">
<path fill-rule="evenodd" clip-rule="evenodd" d="M10.686 2.15381C8.12661 2.15381 6.05183 4.22859 6.05183 6.78796C6.05183 9.34732 8.12661 11.4221 10.686 11.4221C13.2453 11.4221 15.3201 9.34732 15.3201 6.78796C15.3201 4.22859 13.2453 2.15381 10.686 2.15381ZM7.51524 6.78796C7.51524 5.03681 8.93483 3.61722 10.686 3.61722C12.4371 3.61722 13.8567 5.03681 13.8567 6.78796C13.8567 8.5391 12.4371 9.95869 10.686 9.95869C8.93483 9.95869 7.51524 8.5391 7.51524 6.78796Z" fill="#2A2929"/>
<path fill-rule="evenodd" clip-rule="evenodd" d="M7.75915 12.8855C5.19978 12.8855 3.125 14.9603 3.125 17.5197C3.125 20.079 5.19978 22.1538 7.75915 22.1538H13.6128C16.1722 22.1538 18.247 20.079 18.247 17.5197C18.247 14.9603 16.1722 12.8855 13.6128 12.8855H7.75915ZM4.58841 17.5197C4.58841 15.7685 6.008 14.3489 7.75915 14.3489H13.6128C15.364 14.3489 16.7835 15.7685 16.7835 17.5197C16.7835 19.2708 15.364 20.6904 13.6128 20.6904H7.75915C6.008 20.6904 4.58841 19.2708 4.58841 17.5197Z" fill="#2A2929"/>
</svg>
