<svg width="16" height="20" viewBox="0 0 16 20" fill="none" xmlns="http://www.w3.org/2000/svg">
<path fill-rule="evenodd" clip-rule="evenodd" d="M8.43891 0C5.87954 0 3.80476 2.07478 3.80476 4.63415C3.80476 7.19351 5.87954 9.26829 8.43891 9.26829C10.9983 9.26829 13.0731 7.19351 13.0731 4.63415C13.0731 2.07478 10.9983 0 8.43891 0ZM5.26817 4.63415C5.26817 2.883 6.68776 1.46341 8.43891 1.46341C10.1901 1.46341 11.6096 2.883 11.6096 4.63415C11.6096 6.38529 10.1901 7.80488 8.43891 7.80488C6.68776 7.80488 5.26817 6.38529 5.26817 4.63415Z" fill="#2A2929"/>
<path fill-rule="evenodd" clip-rule="evenodd" d="M8.43891 0C5.87954 0 3.80476 2.07478 3.80476 4.63415C3.80476 7.19351 5.87954 9.26829 8.43891 9.26829C10.9983 9.26829 13.0731 7.19351 13.0731 4.63415C13.0731 2.07478 10.9983 0 8.43891 0ZM5.26817 4.63415C5.26817 2.883 6.68776 1.46341 8.43891 1.46341C10.1901 1.46341 11.6096 2.883 11.6096 4.63415C11.6096 6.38529 10.1901 7.80488 8.43891 7.80488C6.68776 7.80488 5.26817 6.38529 5.26817 4.63415Z" fill="white"/>
<path fill-rule="evenodd" clip-rule="evenodd" d="M5.51208 10.7317C2.95271 10.7317 0.87793 12.8065 0.87793 15.3659C0.87793 17.9252 2.95271 20 5.51208 20H11.3657C13.9251 20 15.9999 17.9252 15.9999 15.3659C15.9999 12.8065 13.9251 10.7317 11.3657 10.7317H5.51208ZM2.34134 15.3659C2.34134 13.6147 3.76093 12.1951 5.51208 12.1951H11.3657C13.1169 12.1951 14.5365 13.6147 14.5365 15.3659C14.5365 17.117 13.1169 18.5366 11.3657 18.5366H5.51208C3.76093 18.5366 2.34134 17.117 2.34134 15.3659Z" fill="#2A2929"/>
<path fill-rule="evenodd" clip-rule="evenodd" d="M5.51208 10.7317C2.95271 10.7317 0.87793 12.8065 0.87793 15.3659C0.87793 17.9252 2.95271 20 5.51208 20H11.3657C13.9251 20 15.9999 17.9252 15.9999 15.3659C15.9999 12.8065 13.9251 10.7317 11.3657 10.7317H5.51208ZM2.34134 15.3659C2.34134 13.6147 3.76093 12.1951 5.51208 12.1951H11.3657C13.1169 12.1951 14.5365 13.6147 14.5365 15.3659C14.5365 17.117 13.1169 18.5366 11.3657 18.5366H5.51208C3.76093 18.5366 2.34134 17.117 2.34134 15.3659Z" fill="white"/>
</svg>
