<?xml version="1.0" encoding="utf-8"?><svg viewBox="0 0 217 67" xmlns="http://www.w3.org/2000/svg" xmlns:xlink="http://www.w3.org/1999/xlink"><style>:root>svg{display:none}:root>svg:target{display:block}</style><svg fill="none" viewBox="0 0 11 18" id="ar_ico" xmlns="http://www.w3.org/2000/svg"><path d="M.823 2.118 7.705 9 .823 15.882l-.177.177.177.177.941.94.177.178.177-.177 8-8L10.295 9l-.177-.177-8-8-.177-.177-.177.177-.94.941-.178.177.177.177Z" fill="#888" stroke="#888" stroke-width=".5"/></svg><svg fill="none" viewBox="0 0 12 8" id="ar_ico_dark" xmlns="http://www.w3.org/2000/svg"><path d="M6 5.264 1.765 1.03 1.588.852l-.177.177-.588.588-.177.177.177.177 5 5L6 7.148l.177-.177 5-5 .177-.177-.177-.177-.588-.588-.177-.177-.177.177L6 5.264Z" fill="#888"/><path d="M6 5.264 1.765 1.03 1.588.852l-.177.177-.588.588-.177.177.177.177 5 5L6 7.148l.177-.177 5-5 .177-.177-.177-.177-.588-.588-.177-.177-.177.177L6 5.264Z" fill="#2A2929"/><path d="M6 5.264 1.765 1.03 1.588.852l-.177.177-.588.588-.177.177.177.177 5 5L6 7.148l.177-.177 5-5 .177-.177-.177-.177-.588-.588-.177-.177-.177.177L6 5.264Z" stroke="#2A2929" stroke-width=".5"/></svg><svg fill="none" viewBox="0 0 42 42" id="back_ico" xmlns="http://www.w3.org/2000/svg"><path d="M28 21.5a.5.5 0 0 0 0-1v1Zm-14.354-.854a.5.5 0 0 0 0 .707l3.182 3.182a.5.5 0 0 0 .707-.707L14.707 21l2.829-2.828a.5.5 0 0 0-.708-.708l-3.182 3.182ZM28 20.5H14v1h14v-1Z" fill="#2A2929"/></svg><svg fill="none" viewBox="0 0 20 20" id="bas_ico_d" xmlns="http://www.w3.org/2000/svg"><path fill-rule="evenodd" clip-rule="evenodd" d="M10 0a5.12 5.12 0 0 0-5.081 4.444h-.59c-.888 0-1.624 0-2.201.08C1.52 4.61.975 4.797.56 5.26.145 5.72.02 6.282.002 6.894c-.016.58.065 1.31.163 2.19l.274 2.463c.205 1.84.366 3.286.64 4.41.28 1.15.697 2.05 1.471 2.74.775.692 1.72 1.006 2.905 1.156C6.612 20 8.081 20 9.952 20h.096c1.871 0 3.34 0 4.497-.147 1.184-.15 2.13-.464 2.905-1.156.774-.69 1.19-1.59 1.471-2.74.274-1.124.435-2.57.64-4.41l.274-2.463c.098-.88.18-1.61.163-2.19-.017-.612-.143-1.173-.558-1.635-.415-.463-.96-.65-1.568-.734-.577-.08-1.313-.08-2.2-.08h-.59A5.12 5.12 0 0 0 10 0Zm0 1.333a3.786 3.786 0 0 1 3.729 3.111H6.27A3.786 3.786 0 0 1 10 1.334ZM1.556 6.148c.117-.13.302-.24.757-.303.474-.066 1.115-.067 2.065-.067h11.244c.95 0 1.591.001 2.065.067.455.064.64.173.757.303.116.13.205.325.218.783.013.477-.056 1.114-.161 2.055l-.264 2.366c-.211 1.899-.364 3.259-.615 4.29-.246 1.012-.569 1.62-1.064 2.062-.494.441-1.138.694-2.182.826-1.063.135-2.446.137-4.376.137-1.93 0-3.313-.002-4.376-.137-1.044-.132-1.688-.385-2.182-.826-.495-.442-.818-1.05-1.064-2.062-.251-1.031-.404-2.391-.615-4.29l-.264-2.366c-.105-.941-.174-1.578-.16-2.055.012-.458.1-.653.217-.783Z" fill="#2A2929"/><path d="M15.347 8.667a.89.89 0 0 1-.891.889.89.89 0 1 1 .891-.89ZM6.435 8.667a.89.89 0 0 1-.891.889.89.89 0 1 1 .891-.89Z" fill="#2A2929"/></svg><svg fill="none" viewBox="0 0 66 67" id="btn_buy" xmlns="http://www.w3.org/2000/svg"><rect y=".161" width="66" height="66" rx="4" fill="#2A2929"/><path fill-rule="evenodd" clip-rule="evenodd" d="M33 20.16a6.657 6.657 0 0 0-6.605 5.779h-.768c-1.154 0-2.11 0-2.861.104-.79.11-1.498.353-2.038.954-.54.601-.703 1.331-.725 2.125-.022.756.084 1.705.212 2.848l.356 3.202c.267 2.393.476 4.272.831 5.732.365 1.497.907 2.665 1.913 3.563 1.007.9 2.237 1.307 3.777 1.503 1.504.19 3.413.19 5.846.19h.124c2.433 0 4.342 0 5.846-.19 1.54-.196 2.77-.603 3.777-1.503 1.006-.898 1.548-2.066 1.912-3.563.356-1.46.565-3.34.832-5.732l.356-3.202c.128-1.143.234-2.092.212-2.848-.022-.794-.186-1.524-.725-2.125-.54-.6-1.249-.844-2.038-.954-.75-.104-1.707-.104-2.86-.104h-.769A6.657 6.657 0 0 0 33 20.16Zm0 1.734a4.922 4.922 0 0 1 4.847 4.045h-9.695A4.922 4.922 0 0 1 33 21.894Zm-10.977 6.26c.152-.17.392-.312.983-.394.617-.086 1.45-.088 2.685-.088h14.618c1.234 0 2.068.002 2.684.088.592.082.832.224.984.393.151.169.266.423.283 1.018.018.62-.072 1.448-.209 2.671l-.343 3.077c-.274 2.468-.473 4.236-.8 5.576-.32 1.316-.739 2.107-1.382 2.68-.642.574-1.48.903-2.838 1.075-1.38.176-3.18.178-5.688.178-2.508 0-4.307-.002-5.688-.178-1.358-.172-2.196-.5-2.838-1.074-.643-.575-1.062-1.365-1.383-2.68-.326-1.34-.525-3.11-.8-5.577l-.342-3.077c-.137-1.223-.227-2.05-.21-2.67.018-.596.133-.85.284-1.019Z" fill="#2A2929"/><path fill-rule="evenodd" clip-rule="evenodd" d="M33 20.16a6.657 6.657 0 0 0-6.605 5.779h-.768c-1.154 0-2.11 0-2.861.104-.79.11-1.498.353-2.038.954-.54.601-.703 1.331-.725 2.125-.022.756.084 1.705.212 2.848l.356 3.202c.267 2.393.476 4.272.831 5.732.365 1.497.907 2.665 1.913 3.563 1.007.9 2.237 1.307 3.777 1.503 1.504.19 3.413.19 5.846.19h.124c2.433 0 4.342 0 5.846-.19 1.54-.196 2.77-.603 3.777-1.503 1.006-.898 1.548-2.066 1.912-3.563.356-1.46.565-3.34.832-5.732l.356-3.202c.128-1.143.234-2.092.212-2.848-.022-.794-.186-1.524-.725-2.125-.54-.6-1.249-.844-2.038-.954-.75-.104-1.707-.104-2.86-.104h-.769A6.657 6.657 0 0 0 33 20.16Zm0 1.734a4.922 4.922 0 0 1 4.847 4.045h-9.695A4.922 4.922 0 0 1 33 21.894Zm-10.977 6.26c.152-.17.392-.312.983-.394.617-.086 1.45-.088 2.685-.088h14.618c1.234 0 2.068.002 2.684.088.592.082.832.224.984.393.151.169.266.423.283 1.018.018.62-.072 1.448-.209 2.671l-.343 3.077c-.274 2.468-.473 4.236-.8 5.576-.32 1.316-.739 2.107-1.382 2.68-.642.574-1.48.903-2.838 1.075-1.38.176-3.18.178-5.688.178-2.508 0-4.307-.002-5.688-.178-1.358-.172-2.196-.5-2.838-1.074-.643-.575-1.062-1.365-1.383-2.68-.326-1.34-.525-3.11-.8-5.577l-.342-3.077c-.137-1.223-.227-2.05-.21-2.67.018-.596.133-.85.284-1.019Z" fill="#fff"/><path d="M39.951 31.428c0 .638-.518 1.155-1.158 1.155-.64 0-1.159-.517-1.159-1.155 0-.639.519-1.156 1.159-1.156s1.158.517 1.158 1.156Z" fill="#2A2929"/><path d="M39.951 31.428c0 .638-.518 1.155-1.158 1.155-.64 0-1.159-.517-1.159-1.155 0-.639.519-1.156 1.159-1.156s1.158.517 1.158 1.156Z" fill="#fff"/><path d="M28.366 31.428c0 .638-.519 1.155-1.159 1.155s-1.158-.517-1.158-1.155c0-.639.518-1.156 1.158-1.156.64 0 1.159.517 1.159 1.156Z" fill="#2A2929"/><path d="M28.366 31.428c0 .638-.519 1.155-1.159 1.155s-1.158-.517-1.158-1.155c0-.639.518-1.156 1.158-1.156.64 0 1.159.517 1.159 1.156Z" fill="#fff"/></svg><svg fill="none" viewBox="0 0 40 40" id="btn_footer_sub" xmlns="http://www.w3.org/2000/svg"><rect width="40" height="40" rx="3" fill="#2A2929"/><path d="M14 19.5a.5.5 0 0 0 0 1v-1Zm12.354.854a.5.5 0 0 0 0-.708l-3.182-3.181a.5.5 0 1 0-.707.707L25.293 20l-2.828 2.828a.5.5 0 1 0 .707.707l3.182-3.181ZM14 20.5h12v-1H14v1Z" fill="#2A2929"/><path d="M14 19.5a.5.5 0 0 0 0 1v-1Zm12.354.854a.5.5 0 0 0 0-.708l-3.182-3.181a.5.5 0 1 0-.707.707L25.293 20l-2.828 2.828a.5.5 0 1 0 .707.707l3.182-3.181ZM14 20.5h12v-1H14v1Z" fill="#fff"/></svg><svg fill="none" viewBox="0 0 17 16" id="close_ico" xmlns="http://www.w3.org/2000/svg"><path fill-rule="evenodd" clip-rule="evenodd" d="M1.71.294A1 1 0 0 0 .294 1.708l6.293 6.291-6.295 6.294a1 1 0 1 0 1.414 1.414l6.295-6.294 6.295 6.294a1 1 0 0 0 1.414-1.414L9.418 7.999l6.293-6.291A1 1 0 1 0 14.295.294L8.002 6.585 1.71.294Z" fill="#fff"/><path fill-rule="evenodd" clip-rule="evenodd" d="M1.71.294A1 1 0 0 0 .294 1.708l6.293 6.291-6.295 6.294a1 1 0 1 0 1.414 1.414l6.295-6.294 6.295 6.294a1 1 0 0 0 1.414-1.414L9.418 7.999l6.293-6.291A1 1 0 1 0 14.295.294L8.002 6.585 1.71.294Z" fill="#333"/></svg><svg fill="none" viewBox="0 0 17 2" id="decrement" xmlns="http://www.w3.org/2000/svg"><path fill="#333" d="M.348 1.5v-1h16v1z"/></svg><svg fill="none" viewBox="0 0 25 24" id="del_ico" xmlns="http://www.w3.org/2000/svg"><path d="m18.865 12.78.743.103-.743-.103Zm-.262 1.885.742.103-.742-.104Zm-12.51 0 .743-.104-.743.104ZM5.83 12.78l-.742.103.742-.103Zm3.701 8.957-.291.69.291-.69ZM6.823 18.56l.704-.258-.704.258Zm11.05 0 .704.259-.704-.259Zm-2.709 3.177-.292-.691.292.69ZM6.094 8.929a.75.75 0 1 0-1.493.142l1.493-.142Zm14 .142a.75.75 0 1 0-1.493-.142l1.493.142Zm.254-1.321a.75.75 0 0 0 0-1.5v1.5Zm-16-1.5a.75.75 0 1 0 0 1.5v-1.5ZM9.598 18a.75.75 0 0 0 1.5 0h-1.5Zm1.5-8a.75.75 0 0 0-1.5 0h1.5Zm2.5 8a.75.75 0 1 0 1.5 0h-1.5Zm1.5-8a.75.75 0 0 0-1.5 0h1.5Zm1.25-3v.75h.75V7h-.75Zm-8 0h-.75v.75h.75V7Zm9.774 5.676-.262 1.885 1.485.207.263-1.885-1.486-.207ZM6.836 14.561l-.263-1.885-1.485.207.262 1.885 1.486-.207Zm5.512 6.689c-1.53 0-2.075-.014-2.525-.204l-.583 1.382c.797.336 1.713.322 3.108.322v-1.5ZM5.35 14.768c.28 2.01.432 3.134.769 4.051l1.408-.517c-.268-.728-.4-1.653-.691-3.74l-1.486.206Zm4.473 6.278c-.923-.39-1.78-1.34-2.296-2.744l-1.408.517c.614 1.673 1.71 3.014 3.12 3.609l.584-1.382Zm8.037-6.485c-.29 2.088-.424 3.013-.691 3.74l1.408.518c.337-.917.489-2.041.768-4.051l-1.485-.207Zm-5.512 8.189c1.394 0 2.31.014 3.108-.322l-.584-1.382c-.45.19-.995.204-2.524.204v1.5Zm4.82-4.448c-.515 1.404-1.373 2.355-2.296 2.744l.584 1.382c1.41-.595 2.506-1.936 3.12-3.609l-1.407-.517ZM6.574 12.676c-.222-1.596-.388-2.789-.479-3.747l-1.493.142c.095.998.266 2.229.487 3.812l1.485-.207Zm13.035.207c.22-1.583.392-2.814.486-3.812l-1.493-.142c-.091.958-.257 2.151-.479 3.747l1.486.207Zm.74-6.633h-16v1.5h16v-1.5ZM11.098 18v-8h-1.5v8h1.5Zm4 0v-8h-1.5v8h1.5Zm.5-12v1h1.5V6h-1.5Zm.75.25h-8v1.5h8v-1.5ZM9.098 7V6h-1.5v1h1.5Zm3.25-4.25A3.25 3.25 0 0 1 15.598 6h1.5a4.75 4.75 0 0 0-4.75-4.75v1.5Zm0-1.5A4.75 4.75 0 0 0 7.598 6h1.5a3.25 3.25 0 0 1 3.25-3.25v-1.5Z" fill="#2A2929"/></svg><svg fill="none" viewBox="0 0 25 24" id="fav_ico_d" xmlns="http://www.w3.org/2000/svg"><path d="M20.478 4.46c-2.334-2.38-5.037-1.376-6.71-.314-.947.6-2.257.6-3.202 0-1.674-1.062-4.377-2.066-6.711.315C-1.686 10.11 7.816 21 12.167 21c4.35 0 13.852-10.889 8.311-16.54Z" stroke="#fff" stroke-width="1.5" stroke-linecap="round"/><path d="M20.478 4.46c-2.334-2.38-5.037-1.376-6.71-.314-.947.6-2.257.6-3.202 0-1.674-1.062-4.377-2.066-6.711.315C-1.686 10.11 7.816 21 12.167 21c4.35 0 13.852-10.889 8.311-16.54Z" stroke="#2A2929" stroke-width="1.5" stroke-linecap="round"/></svg><svg fill="none" viewBox="0 0 36 36" id="favorite_ico_default" xmlns="http://www.w3.org/2000/svg"><path d="M9 16c0 4 6.5 8.846 9 11 2.5-2.154 9-7 9-11 0-3-2-5-4.5-5-2 0-3.555 1.514-4.5 3.26-.94-1.737-2.5-3.26-4.5-3.26C11 11 9 13 9 16Z" fill="#2A2929" fill-opacity=".3"/></svg><svg fill="none" viewBox="0 0 17 16" id="increment" xmlns="http://www.w3.org/2000/svg"><path d="M9.014 0H7.681v7.333H.348v1.334H7.68V16h1.333V8.667h7.334V7.333H9.014V0Z" fill="#2A2929"/></svg><svg fill="none" viewBox="0 0 217 40" id="logo_dark" xmlns="http://www.w3.org/2000/svg"><path d="M12.076 9.507h.069l3.384 9.753H8.47l3.606-9.753ZM7.941 20.66h8.066l2.564 7.384h-3.555v1.384h10.51v-1.384h-3.383l-8.34-24.001h-1.35L3.564 28.045H.318v1.383h8.323v-1.384H5.223l2.718-7.384ZM42.36 5.686h3.419v17.309l-.086.017-11.929-18.71h-7.64v1.384h3.419v22.358h-3.418v1.384h8.032v-1.384h-3.076V6.517l.085-.018 14.783 23.19h1.368V5.685h3.418V4.302H42.36v1.384ZM73.636 5.686h3.418V4.302H68.68v1.384h3.418v17.309l-.086.017-11.929-18.71h-7.64v1.384h3.419v22.358h-3.418v1.384h8.032v-1.384H57.4V6.517l.086-.018 14.783 23.19h1.367V5.685ZM85.111 19.26l3.606-9.753h.069l3.383 9.753h-7.058Zm5.332-15.217h-1.35l-8.887 24.002H76.96v1.383h8.323v-1.384h-3.418l2.718-7.384h8.066l2.564 7.384h-3.555v1.384h10.511v-1.384h-3.384l-8.34-24.001ZM118.352 19.26l3.606-9.753h.068l3.384 9.753h-7.058Zm6.546 10.168h10.51v-1.384h-3.384l-8.34-24.001h-1.35l-8.887 24.002H110.2v1.383h8.323v-1.384h-3.418l2.717-7.384h8.067l2.563 7.384h-3.555v1.384h.001ZM160.617 4.302h-8.375v1.384h3.419v17.309l-.086.017-11.929-18.71h-7.64v1.384h3.418v22.358h-3.418v1.384h8.033v-1.384h-3.077V6.517l.086-.018 14.783 23.19h1.367V5.685h3.419V4.302ZM170.357 28.044h-3.076V6.517l.086-.018 14.783 23.19h1.367V5.685h3.419V4.302h-8.374v1.384h3.417v17.309l-.085.017-11.929-18.71h-7.64v1.384h3.418v22.358h-3.418v1.384h8.032v-1.384ZM194.986 19.26l3.606-9.753h.068l3.384 9.753h-7.058Zm6.545 10.168h10.511v-1.384h-3.384l-8.34-24.001h-1.35l-8.888 24.002h-3.246v1.383h8.323v-1.384h-3.418l2.716-7.384h8.068l2.562 7.384h-3.554v1.384ZM.323 39.916h.707v-2.241h2.503v-.582H1.03v-1.527h2.892v-.583H.323v4.933ZM12.829 37.89l.585-1.446a5.9 5.9 0 0 0 .288-.942c.082.267.209.607.378 1.023l.557 1.365H12.83Zm.51-2.907-2.05 4.933h.75l.586-1.494h2.23l.623 1.494h.804l-2.184-4.932h-.76ZM27.39 37.319c-.214-.09-.607-.195-1.18-.315-.575-.12-.93-.237-1.065-.351a.543.543 0 0 1-.208-.438c0-.204.098-.379.293-.523.195-.145.507-.217.934-.217.41 0 .72.08.93.239.209.16.332.395.368.706l.677-.047c-.012-.29-.1-.548-.261-.777a1.492 1.492 0 0 0-.698-.52 2.873 2.873 0 0 0-1.046-.176c-.359 0-.685.056-.978.168a1.4 1.4 0 0 0-.67.492 1.19 1.19 0 0 0-.23.699c0 .226.063.43.188.614.125.182.315.336.57.459.196.096.54.199 1.03.308.49.108.806.189.95.24.222.079.382.176.48.291.096.116.145.25.145.406 0 .152-.05.293-.151.422-.1.129-.254.23-.46.304a2.109 2.109 0 0 1-.713.111c-.304 0-.577-.049-.82-.146-.242-.098-.42-.226-.536-.383a1.293 1.293 0 0 1-.22-.608l-.666.054c.01.33.107.625.293.887.186.26.442.456.768.586.326.13.73.196 1.213.196.381 0 .724-.065 1.028-.194.305-.129.538-.31.7-.542a1.27 1.27 0 0 0 .244-.741 1.16 1.16 0 0 0-.221-.702c-.148-.203-.378-.37-.688-.503ZM40.211 37.01H37.44v-2.026h-.706v4.932h.706V37.59h2.772v2.325h.706v-4.932h-.706v2.025ZM49.661 39.916h.706v-4.932h-.706v4.932ZM62.703 38.923c-.343.346-.78.518-1.312.518-.521 0-.955-.17-1.3-.513-.346-.342-.519-.81-.519-1.404 0-.743.18-1.273.54-1.59.36-.317.79-.476 1.29-.476.352 0 .67.082.952.247.282.165.497.397.644.697.147.3.22.65.22 1.051 0 .635-.172 1.125-.515 1.47Zm.027-3.7a2.717 2.717 0 0 0-1.331-.327c-.752 0-1.366.232-1.841.695-.476.463-.714 1.104-.714 1.922 0 .434.102.844.306 1.232.204.388.503.694.899.918.395.225.844.337 1.346.337.463 0 .895-.102 1.295-.304.4-.203.71-.502.928-.897.218-.395.328-.842.328-1.342 0-.494-.104-.935-.311-1.325a2.207 2.207 0 0 0-.905-.91ZM75.822 38.856l-2.803-3.873h-.724v4.933h.677V36.04l2.802 3.876h.724v-4.932h-.677v3.872ZM96.275 34.983h-.706v4.933h3.333v-.582h-2.627v-4.35ZM108.143 37.89l.586-1.446c.124-.312.219-.626.287-.942.083.267.209.607.379 1.023l.557 1.365h-1.809Zm.51-2.907-2.049 4.933h.75l.585-1.494h2.231l.622 1.494h.804l-2.183-4.932h-.76ZM122.77 38.901a.743.743 0 0 1-.27.275 1.218 1.218 0 0 1-.407.134 3.342 3.342 0 0 1-.481.024h-1.328v-1.696h1.234c.339 0 .6.028.78.083a.8.8 0 0 1 .424.286.775.775 0 0 1 .153.479.81.81 0 0 1-.105.416Zm-2.486-3.335h1.067c.383 0 .653.023.811.069a.64.64 0 0 1 .364.255.749.749 0 0 1 .127.433.675.675 0 0 1-.136.43.756.756 0 0 1-.406.246c-.136.038-.36.057-.673.057h-1.154v-1.49Zm2.318 1.725a1.3 1.3 0 0 0 .561-.45c.123-.186.185-.385.185-.596 0-.226-.07-.443-.209-.65a1.24 1.24 0 0 0-.579-.462c-.246-.1-.573-.15-.98-.15h-2.001v4.933h2.034c.339 0 .626-.027.86-.082a1.7 1.7 0 0 0 .584-.245c.155-.107.286-.26.391-.459.106-.198.159-.413.159-.644 0-.287-.087-.536-.261-.747-.173-.21-.421-.36-.744-.448ZM135.67 38.923c-.344.346-.781.518-1.312.518-.521 0-.955-.17-1.301-.513-.345-.342-.518-.81-.518-1.404 0-.743.18-1.273.54-1.59.36-.317.791-.476 1.29-.476.352 0 .669.082.952.247.282.165.497.397.644.697.146.3.22.65.22 1.051 0 .635-.172 1.125-.515 1.47Zm.027-3.7a2.714 2.714 0 0 0-1.332-.327c-.752 0-1.365.232-1.841.695-.475.463-.713 1.104-.713 1.922 0 .434.102.844.306 1.232.204.388.503.694.898.918.396.225.845.337 1.347.337.463 0 .895-.102 1.295-.304.4-.203.71-.502.928-.897a2.73 2.73 0 0 0 .328-1.342c0-.494-.104-.935-.312-1.325a2.2 2.2 0 0 0-.904-.91ZM147.504 37.16h-1.518V35.53h1.688c.396 0 .685.075.868.225.183.15.275.342.275.576 0 .159-.047.306-.142.442a.798.798 0 0 1-.415.296c-.181.062-.434.092-.756.092Zm.964.757a1.854 1.854 0 0 0-.426-.245c.512-.065.89-.218 1.135-.458a1.19 1.19 0 0 0 .368-.884c0-.272-.074-.52-.222-.744a1.167 1.167 0 0 0-.593-.47c-.248-.088-.609-.132-1.084-.132h-2.366v4.932h.706v-2.19h.819c.182 0 .313.008.393.023.109.025.216.069.322.131.106.063.225.173.359.33.133.157.303.384.509.68l.706 1.026h.887l-.927-1.342a3.496 3.496 0 0 0-.586-.657ZM159.053 37.89l.586-1.446c.124-.312.219-.626.288-.942.082.267.208.607.378 1.023l.557 1.365h-1.809Zm.51-2.907-2.049 4.933h.75l.585-1.494h2.231l.622 1.494h.804l-2.183-4.932h-.76ZM169.564 35.566h1.758v4.35h.706v-4.35h1.765v-.583h-4.229v.583ZM185.474 38.923c-.344.346-.78.518-1.313.518-.52 0-.954-.17-1.299-.513-.345-.342-.518-.81-.518-1.404 0-.743.179-1.273.539-1.59.361-.317.79-.476 1.29-.476.351 0 .669.082.952.247.281.165.497.397.644.697.146.3.221.65.221 1.051 0 .635-.173 1.125-.516 1.47Zm.027-3.7a2.713 2.713 0 0 0-1.331-.327c-.753 0-1.367.232-1.842.695-.474.463-.714 1.104-.714 1.922 0 .434.104.844.307 1.232.204.388.502.694.899.918.395.225.843.337 1.347.337.463 0 .893-.102 1.294-.304.401-.203.71-.502.927-.897a2.72 2.72 0 0 0 .329-1.342c0-.494-.105-.935-.312-1.325a2.205 2.205 0 0 0-.904-.91ZM197.308 37.16h-1.518V35.53h1.689c.395 0 .685.075.869.225a.71.71 0 0 1 .273.576c0 .159-.046.306-.141.442a.804.804 0 0 1-.416.296c-.181.062-.434.092-.756.092Zm.965.757a1.876 1.876 0 0 0-.426-.245c.511-.065.889-.218 1.135-.458.244-.24.368-.535.368-.884 0-.272-.075-.52-.222-.744a1.165 1.165 0 0 0-.594-.47c-.248-.088-.609-.132-1.084-.132h-2.365v4.932h.705v-2.19h.819c.182 0 .314.008.394.023.108.025.215.069.322.131.105.063.224.173.358.33.134.157.303.384.508.68l.708 1.026h.887l-.928-1.342a3.528 3.528 0 0 0-.585-.657ZM210.249 36.434c-.227.323-.42.613-.581.871a14.599 14.599 0 0 0-.543-.834l-1.05-1.487h-.86l2.056 2.842v2.09h.705v-2.09l2.13-2.842h-.822l-1.035 1.45ZM211.757 4.48h-.985V2.945h.924c.395 0 .666.03.814.088a.746.746 0 0 1 .344.267.703.703 0 0 1 .124.403.698.698 0 0 1-.258.564c-.171.143-.492.213-.963.213Zm1.072.86a1.372 1.372 0 0 0-.428-.27c.434-.034.782-.188 1.043-.464.263-.276.394-.6.394-.972a1.31 1.31 0 0 0-.236-.745 1.239 1.239 0 0 0-.631-.492c-.264-.094-.692-.141-1.282-.141h-1.728v5.088h.811V5.182h.478c.285 0 .5.059.649.176.216.159.497.553.85 1.184l.444.802h.992l-.614-.996c-.293-.472-.541-.808-.742-1.009Z" fill="#2A2929"/><path d="M215.393 6.69a3.674 3.674 0 0 1-1.443 1.46 3.896 3.896 0 0 1-1.939.523 3.895 3.895 0 0 1-1.938-.523 3.697 3.697 0 0 1-1.447-1.46 4.004 4.004 0 0 1-.517-1.959c0-.685.177-1.344.527-1.977.35-.633.837-1.12 1.459-1.46.621-.34 1.26-.51 1.916-.51.653 0 1.291.17 1.913.51.624.34 1.111.827 1.46 1.46a4.05 4.05 0 0 1 .523 1.977c0 .681-.172 1.334-.514 1.959Zm.663-4.33A4.325 4.325 0 0 0 214.309.61c-.748-.407-1.514-.61-2.298-.61-.785 0-1.55.203-2.298.61a4.338 4.338 0 0 0-1.75 1.748 4.837 4.837 0 0 0-.627 2.372c0 .815.205 1.598.619 2.35a4.374 4.374 0 0 0 1.731 1.752c.74.416 1.516.623 2.325.623.809 0 1.584-.207 2.325-.623.742-.416 1.318-1 1.729-1.752.41-.752.617-1.535.617-2.35 0-.823-.209-1.613-.626-2.372Z" fill="#2A2929"/></svg><svg fill="none" viewBox="0 0 25 24" id="phone_icon" xmlns="http://www.w3.org/2000/svg"><path d="M20.242 10.142v-.728a5 5 0 0 0-5.091-4.929h-.566m-3.93 3.688a2.759 2.759 0 0 0 .579 3.053l2.397 2.397a2.759 2.759 0 0 0 3.053.578 2.759 2.759 0 0 1 3.053.578l1.458 1.459c.07.07.106.106.135.137a2 2 0 0 1 0 2.706 4.79 4.79 0 0 1-.135.137l-.886.887a2.985 2.985 0 0 1-2.759.803A17.913 17.913 0 0 1 3.95 7.307a2.986 2.986 0 0 1 .802-2.759l.887-.886c.07-.07.106-.106.137-.135a2 2 0 0 1 2.706 0c.031.029.067.064.137.135l1.459 1.458a2.759 2.759 0 0 1 .578 3.053Z" stroke="#fff" stroke-width="1.5" stroke-linecap="round"/></svg><svg fill="none" viewBox="0 0 22 24" id="res_ico" xmlns="http://www.w3.org/2000/svg"><path d="M.25 12a.75.75 0 0 0 1.5 0H.25Zm21.5 0a.75.75 0 0 0-1.5 0h1.5ZM3.97 18.012a.75.75 0 0 0-1.14.976l1.14-.976ZM18.03 5.988a.75.75 0 1 0 1.14-.976l-1.14.976ZM20.406.997a.75.75 0 1 0-1.5.006l1.5-.006Zm-.741 1.989.75-.004-.75.004Zm-3.68 3.68-.003.75.003-.75Zm-1.982-.76a.75.75 0 1 0-.007 1.5l.006-1.5Zm5.253-.003.593.459-.593-.46Zm-.354.354.459.593-.46-.593ZM1.512 22.923a.75.75 0 0 0 1.5-.007l-1.5.007Zm.741-1.99-.75.004.75-.003Zm3.68-3.68.003-.75-.003.75Zm1.982.76a.75.75 0 1 0 .007-1.5l-.007 1.5Zm-5.253.004-.594-.46.594.46Zm.354-.355-.459-.593.459.593ZM11 1.25C5.063 1.25.25 6.063.25 12h1.5A9.25 9.25 0 0 1 11 2.75v-1.5Zm0 21.5c5.937 0 10.75-4.813 10.75-10.75h-1.5A9.25 9.25 0 0 1 11 21.25v1.5Zm-8.17-3.762A10.728 10.728 0 0 0 11 22.75v-1.5a9.228 9.228 0 0 1-7.03-3.238l-1.14.976ZM19.17 5.012A10.728 10.728 0 0 0 11 1.25v1.5a9.228 9.228 0 0 1 7.03 3.238l1.14-.976Zm-.264-4.009.009 1.986 1.5-.007-.009-1.985-1.5.006Zm-2.918 4.913-1.986-.01-.006 1.5 1.986.01.006-1.5Zm2.927-2.927c.004.81.005 1.353-.04 1.765-.043.396-.122.573-.212.69l1.186.918c.33-.425.459-.915.517-1.446.056-.516.052-1.16.049-1.934l-1.5.007Zm-2.933 4.427c.774.003 1.418.007 1.934-.05.53-.057 1.02-.187 1.445-.516l-.918-1.186c-.117.09-.294.168-.69.212-.412.045-.955.043-1.765.04l-.006 1.5Zm2.681-1.972a1.234 1.234 0 0 1-.22.22l.918 1.186a2.73 2.73 0 0 0 .488-.488l-1.186-.918ZM3.012 22.916l-.009-1.986-1.5.007.009 1.986 1.5-.007Zm2.918-4.912 1.985.009.007-1.5-1.986-.01-.006 1.5ZM3.003 20.93c-.004-.809-.005-1.353.04-1.764.043-.396.121-.573.212-.69l-1.187-.918c-.329.425-.458.914-.516 1.445-.056.516-.052 1.16-.049 1.934l1.5-.007Zm2.933-4.426c-.774-.004-1.418-.008-1.934.049-.53.058-1.02.187-1.445.516l.918 1.187c.117-.09.294-.169.69-.212.412-.045.955-.044 1.765-.04l.006-1.5Zm-2.681 1.972c.064-.083.138-.157.22-.22l-.918-1.187a2.73 2.73 0 0 0-.489.489l1.187.918Z" fill="#2A2929"/></svg><svg fill="none" viewBox="0 0 25 24" id="sale_ico_d" xmlns="http://www.w3.org/2000/svg"><path d="M15.52 9.874a.75.75 0 0 0-1.06-1.061L8.803 14.47a.75.75 0 1 0 1.06 1.06l5.658-5.656Z" fill="#2A2929"/><path fill-rule="evenodd" clip-rule="evenodd" d="M15.898 2.757c-1.024-3.586-6.106-3.586-7.129 0a2.207 2.207 0 0 1-2.658 1.535c-3.618-.907-6.159 3.494-3.565 6.173a2.207 2.207 0 0 1 0 3.07c-2.594 2.68-.053 7.08 3.565 6.174a2.207 2.207 0 0 1 2.658 1.535c1.023 3.585 6.105 3.585 7.129 0a2.207 2.207 0 0 1 2.658-1.535c3.617.906 6.159-3.495 3.565-6.174a2.207 2.207 0 0 1 0-3.07c2.594-2.679.053-7.08-3.565-6.173a2.207 2.207 0 0 1-2.658-1.535Zm-5.687.411c.61-2.134 3.635-2.134 4.244 0a3.707 3.707 0 0 0 4.466 2.579c2.153-.54 3.666 2.08 2.122 3.675a3.707 3.707 0 0 0 0 5.156c1.544 1.595.031 4.216-2.122 3.676a3.707 3.707 0 0 0-4.466 2.578c-.609 2.135-3.634 2.135-4.244 0a3.707 3.707 0 0 0-4.465-2.578c-2.153.54-3.666-2.08-2.122-3.676a3.707 3.707 0 0 0 0-5.156C2.08 7.827 3.593 5.207 5.746 5.747a3.707 3.707 0 0 0 4.465-2.579Z" fill="#2A2929"/><path d="M8.334 9a1 1 0 1 0 2 0 1 1 0 0 0-2 0ZM14.334 15a1 1 0 1 0 2 0 1 1 0 0 0-2 0Z" fill="#2A2929"/></svg><svg fill="none" viewBox="0 0 20 20" id="shop_ico" xmlns="http://www.w3.org/2000/svg"><path fill-rule="evenodd" clip-rule="evenodd" d="M10 0a5.12 5.12 0 0 0-5.081 4.444h-.59c-.888 0-1.624 0-2.201.08C1.52 4.61.975 4.797.56 5.26.145 5.72.02 6.282.002 6.894c-.016.58.065 1.31.163 2.19l.274 2.463c.205 1.84.366 3.286.64 4.41.28 1.15.697 2.05 1.471 2.74.775.692 1.72 1.006 2.905 1.156C6.612 20 8.081 20 9.952 20h.096c1.871 0 3.34 0 4.497-.147 1.184-.15 2.13-.464 2.905-1.156.774-.69 1.19-1.59 1.471-2.74.274-1.124.435-2.57.64-4.41l.274-2.463c.098-.88.18-1.61.163-2.19-.017-.612-.143-1.173-.558-1.635-.415-.463-.96-.65-1.568-.734-.577-.08-1.313-.08-2.2-.08h-.59A5.12 5.12 0 0 0 10 0Zm0 1.333a3.786 3.786 0 0 1 3.729 3.111H6.27A3.786 3.786 0 0 1 10 1.334ZM1.556 6.148c.117-.13.302-.24.757-.303.474-.066 1.115-.067 2.065-.067h11.244c.95 0 1.591.001 2.065.067.455.064.64.173.757.303.116.13.205.325.218.783.013.477-.056 1.114-.161 2.055l-.264 2.366c-.211 1.899-.364 3.259-.615 4.29-.246 1.012-.569 1.62-1.064 2.062-.494.441-1.138.694-2.182.826-1.063.135-2.446.137-4.376.137-1.93 0-3.313-.002-4.376-.137-1.044-.132-1.688-.385-2.182-.826-.495-.442-.818-1.05-1.064-2.062-.251-1.031-.404-2.391-.615-4.29l-.264-2.366c-.105-.941-.174-1.578-.16-2.055.012-.458.1-.653.217-.783Z" fill="#2A2929"/><path fill-rule="evenodd" clip-rule="evenodd" d="M10 0a5.12 5.12 0 0 0-5.081 4.444h-.59c-.888 0-1.624 0-2.201.08C1.52 4.61.975 4.797.56 5.26.145 5.72.02 6.282.002 6.894c-.016.58.065 1.31.163 2.19l.274 2.463c.205 1.84.366 3.286.64 4.41.28 1.15.697 2.05 1.471 2.74.775.692 1.72 1.006 2.905 1.156C6.612 20 8.081 20 9.952 20h.096c1.871 0 3.34 0 4.497-.147 1.184-.15 2.13-.464 2.905-1.156.774-.69 1.19-1.59 1.471-2.74.274-1.124.435-2.57.64-4.41l.274-2.463c.098-.88.18-1.61.163-2.19-.017-.612-.143-1.173-.558-1.635-.415-.463-.96-.65-1.568-.734-.577-.08-1.313-.08-2.2-.08h-.59A5.12 5.12 0 0 0 10 0Zm0 1.333a3.786 3.786 0 0 1 3.729 3.111H6.27A3.786 3.786 0 0 1 10 1.334ZM1.556 6.148c.117-.13.302-.24.757-.303.474-.066 1.115-.067 2.065-.067h11.244c.95 0 1.591.001 2.065.067.455.064.64.173.757.303.116.13.205.325.218.783.013.477-.056 1.114-.161 2.055l-.264 2.366c-.211 1.899-.364 3.259-.615 4.29-.246 1.012-.569 1.62-1.064 2.062-.494.441-1.138.694-2.182.826-1.063.135-2.446.137-4.376.137-1.93 0-3.313-.002-4.376-.137-1.044-.132-1.688-.385-2.182-.826-.495-.442-.818-1.05-1.064-2.062-.251-1.031-.404-2.391-.615-4.29l-.264-2.366c-.105-.941-.174-1.578-.16-2.055.012-.458.1-.653.217-.783Z" fill="#fff"/><path d="M15.347 8.667a.89.89 0 0 1-.891.889.89.89 0 1 1 .891-.89Z" fill="#2A2929"/><path d="M15.347 8.667a.89.89 0 0 1-.891.889.89.89 0 1 1 .891-.89Z" fill="#fff"/><path d="M6.435 8.667a.89.89 0 0 1-.891.889.89.89 0 1 1 .891-.89Z" fill="#2A2929"/><path d="M6.435 8.667a.89.89 0 0 1-.891.889.89.89 0 1 1 .891-.89Z" fill="#fff"/></svg><svg fill="none" viewBox="0 0 16 20" id="user_ico" xmlns="http://www.w3.org/2000/svg"><path fill-rule="evenodd" clip-rule="evenodd" d="M8.439 0a4.634 4.634 0 1 0 0 9.268 4.634 4.634 0 0 0 0-9.268Zm-3.17 4.634a3.17 3.17 0 1 1 6.34 0 3.17 3.17 0 0 1-6.34 0Z" fill="#2A2929"/><path fill-rule="evenodd" clip-rule="evenodd" d="M8.439 0a4.634 4.634 0 1 0 0 9.268 4.634 4.634 0 0 0 0-9.268Zm-3.17 4.634a3.17 3.17 0 1 1 6.34 0 3.17 3.17 0 0 1-6.34 0Z" fill="#fff"/><path fill-rule="evenodd" clip-rule="evenodd" d="M5.512 10.732a4.634 4.634 0 0 0 0 9.268h5.854a4.634 4.634 0 1 0 0-9.268H5.512Zm-3.17 4.634a3.17 3.17 0 0 1 3.17-3.17h5.854a3.17 3.17 0 1 1 0 6.34H5.512a3.17 3.17 0 0 1-3.17-3.17Z" fill="#2A2929"/><path fill-rule="evenodd" clip-rule="evenodd" d="M5.512 10.732a4.634 4.634 0 0 0 0 9.268h5.854a4.634 4.634 0 1 0 0-9.268H5.512Zm-3.17 4.634a3.17 3.17 0 0 1 3.17-3.17h5.854a3.17 3.17 0 1 1 0 6.34H5.512a3.17 3.17 0 0 1-3.17-3.17Z" fill="#fff"/></svg><svg fill="none" viewBox="0 0 25 24" id="user_ico_d" xmlns="http://www.w3.org/2000/svg"><path fill-rule="evenodd" clip-rule="evenodd" d="M10.686 2.154a4.634 4.634 0 1 0 0 9.268 4.634 4.634 0 0 0 0-9.268Zm-3.17 4.634a3.17 3.17 0 1 1 6.34 0 3.17 3.17 0 0 1-6.34 0ZM7.76 12.886a4.634 4.634 0 0 0 0 9.268h5.853a4.634 4.634 0 1 0 0-9.268H7.759ZM4.587 17.52a3.17 3.17 0 0 1 3.171-3.171h5.854a3.17 3.17 0 1 1 0 6.341H7.759a3.17 3.17 0 0 1-3.17-3.17Z" fill="#2A2929"/></svg></svg>